<svg width="50" height="50" viewBox="0 0 50 50" fill="none" xmlns="http://www.w3.org/2000/svg">
<path opacity="0.15" d="M7.875 47.2084C7.875 47.6725 9.29293 48.1176 11.8169 48.4458C14.3408 48.774 17.764 48.9584 21.3333 48.9584C24.9027 48.9584 28.3259 48.774 30.8498 48.4458C33.3737 48.1176 34.7917 47.6725 34.7917 47.2084C34.7917 46.7442 33.3737 46.2991 30.8498 45.9709C28.3259 45.6427 24.9027 45.4584 21.3333 45.4584C17.764 45.4584 14.3408 45.6427 11.8169 45.9709C9.29293 46.2991 7.875 46.7442 7.875 47.2084Z" fill="#45413C"/>
<path d="M37.9167 9.60419L33.3333 14.2188C29.7389 11.2533 25.1409 9.78524 20.4931 10.119C15.8453 10.4528 11.5042 12.5629 8.37045 16.0115C5.23666 19.4602 3.55057 23.9827 3.66192 28.6412C3.77327 33.2997 5.6735 37.7366 8.96848 41.0315C12.2635 44.3265 16.7003 46.2267 21.3588 46.3381C26.0173 46.4494 30.5399 44.7634 33.9885 41.6296C37.4372 38.4958 39.5472 34.1548 39.881 29.5069C40.2148 24.8591 38.7467 20.2611 35.7812 16.6667L40.3958 12.0521L37.9167 9.60419Z" fill="#87898C"/>
<path d="M36.2604 11.2604L33.3333 14.2188C30.5921 11.951 27.244 10.5402 23.7065 10.162C20.169 9.78387 16.5984 10.4552 13.4398 12.0922C10.2811 13.7293 7.6741 16.2598 5.94363 19.3682C4.21315 22.4767 3.43575 26.0257 3.70831 29.5729C3.94006 26.4358 4.98429 23.413 6.7383 20.8018C8.49232 18.1905 10.8957 16.0808 13.7122 14.6799C16.5287 13.279 19.6613 12.6352 22.802 12.8119C25.9427 12.9886 28.9834 13.9796 31.625 15.6875C32.1234 16.0111 32.7176 16.1545 33.3087 16.0939C33.8999 16.0332 34.4526 15.7722 34.875 15.3542L37.6146 12.6146L36.2604 11.2604Z" fill="#BDBEC0"/>
<path d="M37.9167 9.60419L33.3333 14.2188C29.7389 11.2533 25.1409 9.78524 20.4931 10.119C15.8453 10.4528 11.5042 12.5629 8.37045 16.0115C5.23666 19.4602 3.55057 23.9827 3.66192 28.6412C3.77327 33.2997 5.6735 37.7366 8.96848 41.0315C12.2635 44.3265 16.7003 46.2267 21.3588 46.3381C26.0173 46.4494 30.5399 44.7634 33.9885 41.6296C37.4372 38.4958 39.5472 34.1548 39.881 29.5069C40.2148 24.8591 38.7467 20.2611 35.7812 16.6667L40.3958 12.0521L37.9167 9.60419Z" stroke="#45413C" stroke-width="0.5" stroke-linecap="round" stroke-linejoin="round"/>
<path d="M45.7708 4.22918C45.4993 3.95202 45.1751 3.73183 44.8174 3.58151C44.4597 3.43119 44.0755 3.35376 43.6875 3.35376C43.2995 3.35376 42.9153 3.43119 42.5576 3.58151C42.1999 3.73183 41.8757 3.95202 41.6042 4.22918L36.2604 9.60418C36.1511 9.71263 36.0644 9.84164 36.0052 9.98377C35.946 10.1259 35.9155 10.2783 35.9155 10.4323C35.9155 10.5863 35.946 10.7387 36.0052 10.8808C36.0644 11.023 36.1511 11.152 36.2604 11.2604L38.7396 13.7396C38.848 13.8489 38.977 13.9356 39.1192 13.9948C39.2613 14.054 39.4137 14.0845 39.5677 14.0845C39.7217 14.0845 39.8741 14.054 40.0162 13.9948C40.1584 13.9356 40.2874 13.8489 40.3958 13.7396L45.7708 8.33335C46.3115 7.78723 46.6148 7.04978 46.6148 6.28127C46.6148 5.51276 46.3115 4.77531 45.7708 4.22918Z" fill="#FFE500"/>
<path d="M45.7708 4.22918C45.4993 3.95202 45.1751 3.73183 44.8174 3.58151C44.4597 3.43119 44.0755 3.35376 43.6875 3.35376C43.2995 3.35376 42.9153 3.43119 42.5576 3.58151C42.1999 3.73183 41.8757 3.95202 41.6042 4.22918L36.2604 9.60418C36.1511 9.71263 36.0644 9.84164 36.0052 9.98377C35.946 10.1259 35.9155 10.2783 35.9155 10.4323C35.9155 10.5863 35.946 10.7387 36.0052 10.8808C36.0644 11.023 36.1511 11.152 36.2604 11.2604L37.1458 12.1459C37.1812 12.0737 37.2268 12.007 37.2812 11.9479L42.7083 6.56252C43.2286 6.04443 43.9252 5.74164 44.6589 5.71461C45.3927 5.68758 46.1097 5.93829 46.6667 6.41668C46.6816 6.00932 46.6094 5.60346 46.4549 5.22622C46.3004 4.84899 46.0672 4.50907 45.7708 4.22918Z" fill="#FFF48C"/>
<path d="M45.7708 4.2292C46.048 4.50077 46.2682 4.82491 46.4185 5.18264C46.5688 5.54038 46.6463 5.92451 46.6463 6.31254C46.6463 6.70057 46.5688 7.0847 46.4185 7.44243C46.2682 7.80016 46.048 8.12431 45.7708 8.39587L40.3958 13.7709C40.2874 13.8802 40.1584 13.9669 40.0162 14.0261C39.8741 14.0853 39.7217 14.1158 39.5677 14.1158C39.4137 14.1158 39.2613 14.0853 39.1192 14.0261C38.977 13.9669 38.848 13.8802 38.7396 13.7709L36.2604 11.2917C36.1511 11.1833 36.0644 11.0542 36.0052 10.9121C35.946 10.77 35.9155 10.6175 35.9155 10.4636C35.9155 10.3096 35.946 10.1572 36.0052 10.015C36.0644 9.87291 36.1511 9.7439 36.2604 9.63546L41.6667 4.2292C42.2128 3.6885 42.9502 3.38519 43.7187 3.38519C44.4873 3.38519 45.2247 3.6885 45.7708 4.2292V4.2292Z" stroke="#45413C" stroke-width="0.5" stroke-linecap="round" stroke-linejoin="round"/>
<path d="M7.15625 28.2188C7.15625 30.1393 7.53454 32.0411 8.26951 33.8155C9.00449 35.5899 10.0818 37.2021 11.4398 38.5602C12.7979 39.9182 14.4101 40.9955 16.1845 41.7305C17.9589 42.4655 19.8607 42.8438 21.7812 42.8438C23.7018 42.8438 25.6036 42.4655 27.378 41.7305C29.1524 40.9955 30.7646 39.9182 32.1227 38.5602C33.4807 37.2021 34.558 35.5899 35.293 33.8155C36.028 32.0411 36.4062 30.1393 36.4062 28.2188C36.4062 26.2982 36.028 24.3964 35.293 22.622C34.558 20.8476 33.4807 19.2354 32.1227 17.8773C30.7646 16.5193 29.1524 15.442 27.378 14.707C25.6036 13.972 23.7018 13.5938 21.7812 13.5938C19.8607 13.5938 17.9589 13.972 16.1845 14.707C14.4101 15.442 12.7979 16.5193 11.4398 17.8773C10.0818 19.2354 9.00449 20.8476 8.26951 22.622C7.53454 24.3964 7.15625 26.2982 7.15625 28.2188Z" fill="#656769"/>
<path d="M11.4583 21.3855C13.3912 19.4317 15.8368 18.0639 18.5133 17.4398C21.1898 16.8156 23.9882 16.9604 26.5859 17.8575C29.1837 18.7546 31.475 20.3675 33.1959 22.5104C34.9168 24.6532 35.9972 27.2387 36.3125 29.9688C36.516 27.941 36.2923 25.8931 35.6558 23.9572C35.0192 22.0212 33.9839 20.2401 32.6168 18.7288C31.2496 17.2175 29.5808 16.0096 27.7181 15.1828C25.8554 14.3561 23.84 13.929 21.8021 13.929C19.7641 13.929 17.7488 14.3561 15.8861 15.1828C14.0234 16.0096 12.3546 17.2175 10.9874 18.7288C9.62022 20.2401 8.58496 22.0212 7.94841 23.9572C7.31185 25.8931 7.08813 27.941 7.29167 29.9688C7.67884 26.7214 9.14631 23.6984 11.4583 21.3855Z" fill="#525252"/>
<path d="M7.15625 28.2188C7.15625 30.1393 7.53454 32.0411 8.26951 33.8155C9.00449 35.5899 10.0818 37.2021 11.4398 38.5602C12.7979 39.9182 14.4101 40.9955 16.1845 41.7305C17.9589 42.4655 19.8607 42.8438 21.7812 42.8438C23.7018 42.8438 25.6036 42.4655 27.378 41.7305C29.1524 40.9955 30.7646 39.9182 32.1227 38.5602C33.4807 37.2021 34.558 35.5899 35.293 33.8155C36.028 32.0411 36.4063 30.1393 36.4063 28.2188C36.4063 26.2982 36.028 24.3964 35.293 22.622C34.558 20.8476 33.4807 19.2354 32.1227 17.8773C30.7646 16.5193 29.1524 15.442 27.378 14.707C25.6036 13.972 23.7018 13.5938 21.7812 13.5938C19.8607 13.5938 17.9589 13.972 16.1845 14.707C14.4101 15.442 12.7979 16.5193 11.4398 17.8773C10.0818 19.2354 9.00449 20.8476 8.26951 22.622C7.53454 24.3964 7.15625 26.2982 7.15625 28.2188V28.2188Z" stroke="#45413C" stroke-width="0.5" stroke-linecap="round" stroke-linejoin="round"/>
<path d="M27.6561 26.4792C27.1948 26.4792 26.7523 26.2959 26.426 25.9697C26.0998 25.6434 25.9165 25.201 25.9165 24.7396C25.9549 23.9969 25.825 23.2552 25.5365 22.5698C25.248 21.8843 24.8085 21.2729 24.2506 20.7812C23.6927 20.2894 23.031 19.93 22.3148 19.7298C21.5986 19.5296 20.8464 19.4938 20.1145 19.625C18.5449 19.9351 17.0899 20.6681 15.9066 21.7448C14.7233 22.8215 13.8566 24.2011 13.4001 25.7344C12.9437 27.2678 12.9148 28.8968 13.3167 30.4453C13.7185 31.9939 14.5358 33.4033 15.6802 34.5213C16.8247 35.6392 18.2528 36.4233 19.8104 36.7888C21.3679 37.1543 22.9957 37.0873 24.518 36.5951C26.0403 36.1029 27.3992 35.2041 28.4479 33.9959C29.4966 32.7877 30.1954 31.316 30.4686 29.7396C30.534 29.3345 30.51 28.9201 30.3982 28.5253C30.2864 28.1306 30.0897 27.765 29.8217 27.4544C29.5537 27.1437 29.221 26.8954 28.8469 26.727C28.4728 26.5585 28.0664 26.4739 27.6561 26.4792Z" fill="#F0F0F0"/>
<path d="M13.1978 29.8229C13.5379 28.1165 14.3767 26.5494 15.608 25.32C16.8392 24.0906 18.4076 23.2542 20.1145 22.9167C20.8465 22.7855 21.5987 22.8213 22.3149 23.0215C23.0311 23.2217 23.6928 23.5811 24.2507 24.0729C24.8085 24.5646 25.2481 25.176 25.5365 25.8614C25.825 26.5469 25.9549 27.2886 25.9166 28.0313C25.9166 28.4936 26.0995 28.9372 26.4255 29.265C26.7514 29.5929 27.1939 29.7785 27.6562 29.7813C28.1454 29.7819 28.6264 29.9064 29.0545 30.1432C29.4826 30.38 29.8437 30.7213 30.1041 31.1354C30.2634 30.6844 30.3853 30.221 30.4687 29.75C30.5341 29.345 30.51 28.9305 30.3983 28.5358C30.2865 28.141 30.0897 27.7755 29.8217 27.4648C29.5538 27.1541 29.2211 26.9059 28.847 26.7374C28.4729 26.5689 28.0664 26.4844 27.6562 26.4896C27.1948 26.4896 26.7523 26.3063 26.4261 25.9801C26.0999 25.6539 25.9166 25.2114 25.9166 24.75C25.9549 24.0074 25.825 23.2656 25.5365 22.5802C25.2481 21.8948 24.8085 21.2834 24.2507 20.7916C23.6928 20.2999 23.0311 19.9405 22.3149 19.7403C21.5987 19.5401 20.8465 19.5042 20.1145 19.6354C18.4065 19.9704 16.8367 20.8059 15.605 22.0358C14.3733 23.2656 13.5353 24.8341 13.1978 26.5417C12.9946 27.6435 12.9946 28.7732 13.1978 29.875V29.8229Z" fill="white"/>
<path d="M27.6561 26.4792C27.1948 26.4792 26.7523 26.2959 26.426 25.9697C26.0998 25.6434 25.9165 25.201 25.9165 24.7396C25.9549 23.9969 25.825 23.2552 25.5365 22.5698C25.248 21.8843 24.8085 21.2729 24.2506 20.7812C23.6927 20.2894 23.031 19.93 22.3148 19.7298C21.5986 19.5296 20.8464 19.4938 20.1145 19.625C18.5449 19.9351 17.0899 20.6681 15.9066 21.7448C14.7233 22.8215 13.8566 24.2011 13.4001 25.7344C12.9437 27.2678 12.9148 28.8968 13.3167 30.4453C13.7185 31.9939 14.5358 33.4033 15.6802 34.5213C16.8247 35.6392 18.2528 36.4233 19.8104 36.7888C21.3679 37.1543 22.9957 37.0873 24.518 36.5951C26.0403 36.1029 27.3992 35.2041 28.4479 33.9959C29.4966 32.7877 30.1954 31.316 30.4686 29.7396C30.534 29.3345 30.51 28.9201 30.3982 28.5253C30.2864 28.1306 30.0897 27.765 29.8217 27.4544C29.5537 27.1437 29.221 26.8954 28.8469 26.727C28.4728 26.5585 28.0664 26.4739 27.6561 26.4792Z" stroke="#45413C" stroke-width="0.5" stroke-linecap="round" stroke-linejoin="round"/>
<path d="M17.1355 29.4063C17.1355 30.3373 17.5053 31.2302 18.1637 31.8885C18.822 32.5469 19.7149 32.9167 20.6459 32.9167C21.5769 32.9167 22.4698 32.5469 23.1282 31.8885C23.7865 31.2302 24.1563 30.3373 24.1563 29.4063C24.1563 28.4753 23.7865 27.5824 23.1282 26.9241C22.4698 26.2657 21.5769 25.8959 20.6459 25.8959C19.7149 25.8959 18.822 26.2657 18.1637 26.9241C17.5053 27.5824 17.1355 28.4753 17.1355 29.4063Z" fill="#FFAA54"/>
<path d="M20.6458 27.9792C21.3888 27.9844 22.1108 28.2267 22.7066 28.6707C23.3024 29.1148 23.7409 29.7374 23.9583 30.448C24.0701 30.1118 24.1298 29.7605 24.1353 29.4063C24.1353 28.4753 23.7655 27.5824 23.1072 26.9241C22.4488 26.2657 21.5559 25.8959 20.6249 25.8959C19.6939 25.8959 18.801 26.2657 18.1427 26.9241C17.4843 27.5824 17.1145 28.4753 17.1145 29.4063C17.12 29.7605 17.1797 30.1118 17.2916 30.448C17.5125 29.7315 17.9577 29.1048 18.5615 28.6604C19.1654 28.216 19.896 27.9772 20.6458 27.9792Z" fill="#FFCC99"/>
<path d="M17.1355 29.4063C17.1355 30.3373 17.5053 31.2302 18.1637 31.8885C18.822 32.5469 19.7149 32.9167 20.6459 32.9167C21.5769 32.9167 22.4698 32.5469 23.1282 31.8885C23.7865 31.2302 24.1563 30.3373 24.1563 29.4063C24.1563 28.4753 23.7865 27.5824 23.1282 26.9241C22.4698 26.2657 21.5769 25.8959 20.6459 25.8959C19.7149 25.8959 18.822 26.2657 18.1637 26.9241C17.5053 27.5824 17.1355 28.4753 17.1355 29.4063V29.4063Z" stroke="#45413C" stroke-width="0.5" stroke-linecap="round" stroke-linejoin="round"/>
</svg>
