<svg width="50" height="50" viewBox="0 0 50 50" fill="none" xmlns="http://www.w3.org/2000/svg">
<path opacity="0.15" d="M6.3855 46.7292C6.3855 47.0219 6.86698 47.3118 7.80245 47.5822C8.73792 47.8527 10.1091 48.0984 11.8376 48.3054C13.5661 48.5124 15.6182 48.6766 17.8766 48.7886C20.135 48.9007 22.5556 48.9583 25.0001 48.9583C27.4446 48.9583 29.8651 48.9007 32.1236 48.7886C34.382 48.6766 36.4341 48.5124 38.1626 48.3054C39.8911 48.0984 41.2622 47.8527 42.1977 47.5822C43.1332 47.3118 43.6147 47.0219 43.6147 46.7292C43.6147 46.4364 43.1332 46.1466 42.1977 45.8761C41.2622 45.6056 39.8911 45.3599 38.1626 45.1529C36.4341 44.9459 34.382 44.7817 32.1236 44.6697C29.8651 44.5577 27.4446 44.5 25.0001 44.5C22.5556 44.5 20.135 44.5577 17.8766 44.6697C15.6182 44.7817 13.5661 44.9459 11.8376 45.1529C10.1091 45.3599 8.73792 45.6056 7.80245 45.8761C6.86698 46.1466 6.3855 46.4364 6.3855 46.7292Z" fill="#45413C"/>
<path d="M34.8856 44.6979C34.8856 46.1875 30.4585 47.3959 25.0002 47.3959C19.5418 47.3959 15.1147 46.1875 15.1147 44.6979V41.1042H34.9064L34.8856 44.6979Z" fill="#FF6242" stroke="#45413C" stroke-width="0.5" stroke-linecap="round" stroke-linejoin="round"/>
<path d="M3.43746 18.6354C3.43746 18.6354 7.92704 24.8854 25 24.8854C42.0729 24.8854 46.5625 18.6354 46.5625 18.6354C46.5625 18.6354 50.1666 43.8021 25 43.8021C-0.166706 43.8021 3.43746 18.6354 3.43746 18.6354Z" fill="#FF866E"/>
<path d="M25 30.6354C37.9271 30.6354 44.0521 27.4584 46.5105 25.6146C46.8082 23.2988 46.8257 20.9555 46.5625 18.6354C46.5625 18.6354 42.073 24.8854 25 24.8854C7.92713 24.8854 3.43755 18.6354 3.43755 18.6354C3.17439 20.9555 3.19188 23.2988 3.48963 25.6146C5.94797 27.4584 12.073 30.6354 25 30.6354Z" fill="#FFA694"/>
<path d="M3.43746 18.6354C3.43746 18.6354 7.92704 24.8854 25 24.8854C42.0729 24.8854 46.5625 18.6354 46.5625 18.6354C46.5625 18.6354 50.1666 43.8021 25 43.8021C-0.166706 43.8021 3.43746 18.6354 3.43746 18.6354Z" stroke="#45413C" stroke-width="0.5" stroke-linecap="round" stroke-linejoin="round"/>
<path d="M3.4375 18.1875C3.4375 19.0726 3.99523 19.949 5.07885 20.7666C6.16246 21.5843 7.75075 22.3273 9.75301 22.9531C11.7553 23.579 14.1323 24.0754 16.7484 24.4141C19.3645 24.7528 22.1684 24.9271 25 24.9271C27.8316 24.9271 30.6355 24.7528 33.2516 24.4141C35.8677 24.0754 38.2447 23.579 40.247 22.9531C42.2493 22.3273 43.8375 21.5843 44.9212 20.7666C46.0048 19.949 46.5625 19.0726 46.5625 18.1875C46.5625 17.3025 46.0048 16.4261 44.9212 15.6084C43.8375 14.7907 42.2493 14.0477 40.247 13.4219C38.2447 12.7961 35.8677 12.2997 33.2516 11.961C30.6355 11.6223 27.8316 11.4479 25 11.4479C22.1684 11.4479 19.3645 11.6223 16.7484 11.961C14.1323 12.2997 11.7553 12.7961 9.75301 13.4219C7.75075 14.0477 6.16246 14.7907 5.07885 15.6084C3.99523 16.4261 3.4375 17.3025 3.4375 18.1875Z" fill="#FF6242" stroke="#45413C" stroke-width="0.5" stroke-linecap="round" stroke-linejoin="round"/>
<path d="M25 3.66669C11.6458 3.66669 7.03125 16.8021 7.03125 16.8021C7.03125 16.8021 10.8958 21.3334 25 21.3334C39.1042 21.3334 42.9688 16.8021 42.9688 16.8021C42.9688 16.8021 38.3542 3.66669 25 3.66669Z" fill="#F0F0F0"/>
<path d="M7.15625 16.9271C9.05606 13.9226 11.6931 11.4541 14.8164 9.75661C17.9397 8.05912 21.4454 7.18905 25 7.22919C28.5546 7.18905 32.0603 8.05912 35.1836 9.75661C38.3069 11.4541 40.9439 13.9226 42.8438 16.9271L42.9688 16.8021C42.9688 16.8021 38.3542 3.66669 25 3.66669C11.6458 3.66669 7.03125 16.8021 7.03125 16.8021L7.15625 16.9271Z" fill="white"/>
<path d="M25 3.66669C11.6458 3.66669 7.03125 16.8021 7.03125 16.8021C7.03125 16.8021 10.8958 21.3334 25 21.3334C39.1042 21.3334 42.9687 16.8021 42.9687 16.8021C42.9687 16.8021 38.3542 3.66669 25 3.66669Z" stroke="#45413C" stroke-width="0.5" stroke-linecap="round" stroke-linejoin="round"/>
<path d="M18.5104 10.5105C18.8854 11.2396 17.8646 12.5209 16.2292 13.375C14.5938 14.2292 12.9479 14.3438 12.5625 13.6146C12.1771 12.8855 13.2083 11.5938 14.8438 10.7396C16.4792 9.88545 18.125 9.78129 18.5104 10.5105Z" fill="white" stroke="#45413C" stroke-width="0.5" stroke-linecap="round" stroke-linejoin="round"/>
<path d="M22.9168 13.823C22.9793 14.6459 21.5418 15.4271 19.6877 15.5625C17.8335 15.698 16.3022 15.1563 16.2397 14.3334C16.1772 13.5105 17.6252 12.7292 19.4689 12.5938C21.3127 12.4584 22.8543 13.0105 22.9168 13.823Z" fill="white" stroke="#45413C" stroke-width="0.5" stroke-linecap="round" stroke-linejoin="round"/>
<path d="M34.8125 17.3125C34.75 18.1354 33.1979 18.6875 31.3542 18.5417C29.5104 18.3958 28.0625 17.625 28.125 16.8021C28.1875 15.9792 29.7396 15.4375 31.5833 15.5729C33.4271 15.7083 34.875 16.4896 34.8125 17.3125Z" fill="white" stroke="#45413C" stroke-width="0.5" stroke-linecap="round" stroke-linejoin="round"/>
<path d="M31.7188 8.94791C31.5522 9.75 29.948 10.0937 28.1355 9.71875C26.323 9.34375 25.0001 8.33333 25.1563 7.57291C25.3126 6.8125 26.9376 6.42708 28.7501 6.80208C30.5626 7.17708 31.8959 8.14583 31.7188 8.94791Z" fill="white" stroke="#45413C" stroke-width="0.5" stroke-linecap="round" stroke-linejoin="round"/>
<path d="M38.5418 14.5209C38.6147 15.3334 37.1772 16.1355 35.3335 16.3021C33.4897 16.4688 31.9377 15.9375 31.8647 15.1146C31.7918 14.2917 33.2189 13.5 35.0627 13.3334C36.9064 13.1667 38.4585 13.698 38.5418 14.5209Z" fill="white" stroke="#45413C" stroke-width="0.5" stroke-linecap="round" stroke-linejoin="round"/>
</svg>
