<svg width="77" height="77" viewBox="0 0 77 77" fill="none" xmlns="http://www.w3.org/2000/svg">
<g clip-path="url(#clip0_254_8600)">
<path d="M14.959 47.0019L17.3082 46.1468" stroke="white" stroke-width="4" stroke-linecap="round" stroke-linejoin="round"/>
<path d="M20.9359 34.1848L16.2374 35.8949C15.6144 36.1217 15.1069 36.5867 14.8267 37.1876C14.5465 37.7885 14.5165 38.4761 14.7432 39.0992L19.8735 53.1946C20.1003 53.8176 20.5653 54.3251 21.1662 54.6053C21.7671 54.8855 22.4548 54.9155 23.0778 54.6887L27.7763 52.9786" stroke="white" stroke-width="4" stroke-linecap="round" stroke-linejoin="round"/>
<path d="M20.0806 31.8356L28.6311 55.3279C28.8579 55.9509 29.3229 56.4584 29.9238 56.7386C30.5247 57.0188 31.2124 57.0488 31.8354 56.8221L34.1847 55.967C34.8077 55.7402 35.3152 55.2752 35.5954 54.6743C35.8756 54.0734 35.9056 53.3858 35.6788 52.7627L27.1283 29.2704C26.9016 28.6474 26.4366 28.1399 25.8356 27.8597C25.2347 27.5795 24.5471 27.5495 23.924 27.7762L21.5748 28.6313C20.9518 28.8581 20.4443 29.323 20.1641 29.924C19.8839 30.5249 19.8539 31.2125 20.0806 31.8356Z" stroke="white" stroke-width="4" stroke-linecap="round" stroke-linejoin="round"/>
<path d="M31.4038 41.0165L45.4992 35.8862" stroke="white" stroke-width="4" stroke-linecap="round" stroke-linejoin="round"/>
<path d="M41.2239 24.1401L49.7744 47.6324C50.0012 48.2555 50.4662 48.7629 51.0671 49.0432C51.6681 49.3234 52.3557 49.3534 52.9787 49.1266L55.328 48.2716C55.951 48.0448 56.4585 47.5798 56.7387 46.9789C57.0189 46.378 57.0489 45.6903 56.8221 45.0673L48.2716 21.575C48.0449 20.9519 47.5799 20.4445 46.979 20.1643C46.378 19.884 45.6904 19.854 45.0674 20.0808L42.7181 20.9358C42.0951 21.1626 41.5876 21.6276 41.3074 22.2285C41.0272 22.8294 40.9972 23.5171 41.2239 24.1401Z" stroke="white" stroke-width="4" stroke-linecap="round" stroke-linejoin="round"/>
<path d="M49.1265 23.9242L53.8249 22.2141C54.448 21.9873 55.1356 22.0173 55.7365 22.2976C56.3374 22.5778 56.8024 23.0852 57.0292 23.7083L62.1595 37.8037C62.3863 38.4267 62.3563 39.1143 62.0761 39.7153C61.7958 40.3162 61.2884 40.7812 60.6653 41.0079L55.9669 42.718" stroke="white" stroke-width="4" stroke-linecap="round" stroke-linejoin="round"/>
<path d="M61.9437 29.9009L59.5945 30.756" stroke="white" stroke-width="4" stroke-linecap="round" stroke-linejoin="round"/>
</g>
<defs>
<clipPath id="clip0_254_8600">
<rect width="60" height="60" fill="white" transform="translate(0 20.5212) rotate(-20)"/>
</clipPath>
</defs>
</svg>
