<svg width="61" height="62" viewBox="0 0 61 62" fill="none" xmlns="http://www.w3.org/2000/svg">
<g clip-path="url(#clip0_240_8187)">
<path d="M12.3793 37.7955L14.2195 37.1257" stroke="#FF9F2D" stroke-width="2.5" stroke-linecap="round" stroke-linejoin="round"/>
<path d="M17.0611 27.7555L13.3806 29.0951C12.8926 29.2727 12.4951 29.637 12.2756 30.1077C12.0561 30.5784 12.0326 31.1171 12.2102 31.6051L16.2289 42.6465C16.4066 43.1346 16.7708 43.5321 17.2415 43.7516C17.7123 43.9711 18.2509 43.9946 18.739 43.817L22.4194 42.4774" stroke="#FF9F2D" stroke-width="2.5" stroke-linecap="round" stroke-linejoin="round"/>
<path d="M16.3913 25.9153L23.0892 44.3176C23.2669 44.8057 23.6311 45.2032 24.1018 45.4227C24.5726 45.6422 25.1112 45.6657 25.5993 45.4881L27.4395 44.8183C27.9276 44.6406 28.3251 44.2764 28.5446 43.8057C28.7641 43.3349 28.7876 42.7963 28.6099 42.3083L21.912 23.9059C21.7344 23.4179 21.3702 23.0204 20.8994 22.8009C20.4287 22.5814 19.8901 22.5579 19.402 22.7355L17.5618 23.4053C17.0737 23.5829 16.6762 23.9472 16.4567 24.4179C16.2372 24.8886 16.2137 25.4272 16.3913 25.9153Z" stroke="#FF9F2D" stroke-width="2.5" stroke-linecap="round" stroke-linejoin="round"/>
<path d="M25.261 33.1071L36.3024 29.0883" stroke="#FF9F2D" stroke-width="2.5" stroke-linecap="round" stroke-linejoin="round"/>
<path d="M32.9534 19.8871L39.6513 38.2894C39.8289 38.7775 40.1931 39.175 40.6639 39.3945C41.1346 39.614 41.6732 39.6375 42.1613 39.4599L44.0015 38.7901C44.4896 38.6124 44.8871 38.2482 45.1066 37.7775C45.3261 37.3067 45.3496 36.7681 45.1719 36.2801L38.4741 17.8777C38.2964 17.3897 37.9322 16.9922 37.4615 16.7727C36.9907 16.5532 36.4521 16.5297 35.964 16.7073L34.1238 17.3771C33.6357 17.5547 33.2382 17.919 33.0187 18.3897C32.7992 18.8604 32.7757 19.399 32.9534 19.8871Z" stroke="#FF9F2D" stroke-width="2.5" stroke-linecap="round" stroke-linejoin="round"/>
<path d="M39.1438 19.718L42.8243 18.3784C43.3123 18.2008 43.851 18.2243 44.3217 18.4438C44.7924 18.6633 45.1566 19.0608 45.3343 19.5489L49.353 30.5903C49.5307 31.0783 49.5071 31.617 49.2876 32.0877C49.0681 32.5584 48.6706 32.9227 48.1826 33.1003L44.5021 34.4399" stroke="#FF9F2D" stroke-width="2.5" stroke-linecap="round" stroke-linejoin="round"/>
<path d="M49.184 24.3998L47.3438 25.0696" stroke="#FF9F2D" stroke-width="2.5" stroke-linecap="round" stroke-linejoin="round"/>
</g>
<defs>
<clipPath id="clip0_240_8187">
<rect width="47" height="47" fill="white" transform="translate(0.661377 17.0524) rotate(-20)"/>
</clipPath>
</defs>
</svg>
