<svg width="50" height="50" viewBox="0 0 50 50" fill="none" xmlns="http://www.w3.org/2000/svg">
<path d="M39.5834 29.1667C42.6876 26.125 45.8334 22.4792 45.8334 17.7083C45.8334 14.6694 44.6262 11.7549 42.4773 9.60607C40.3285 7.45721 37.414 6.25 34.3751 6.25C30.7084 6.25 28.1251 7.29167 25.0001 10.4167C21.8751 7.29167 19.2917 6.25 15.6251 6.25C12.5861 6.25 9.67167 7.45721 7.52282 9.60607C5.37396 11.7549 4.16675 14.6694 4.16675 17.7083C4.16675 22.5 7.29175 26.1458 10.4167 29.1667L25.0001 43.75L39.5834 29.1667Z" stroke="white" stroke-width="4" stroke-linecap="round" stroke-linejoin="round"/>
<path d="M6.70825 25H19.7916L20.8333 22.9166L24.9999 32.2916L29.1666 17.7083L32.2916 25H43.2708" stroke="white" stroke-width="4" stroke-linecap="round" stroke-linejoin="round"/>
</svg>
