<svg width="50" height="50" viewBox="0 0 50 50" fill="none" xmlns="http://www.w3.org/2000/svg">
<path opacity="0.15" d="M3.92725 46.2083C3.92725 46.4327 4.47231 46.6548 5.53133 46.8621C6.59034 47.0693 8.14256 47.2577 10.0994 47.4163C12.0562 47.5749 14.3792 47.7008 16.9359 47.7866C19.4926 47.8725 22.2328 47.9167 25.0002 47.9167C27.7675 47.9167 30.5077 47.8725 33.0644 47.7866C35.6211 47.7008 37.9442 47.5749 39.901 47.4163C41.8578 47.2577 43.41 47.0693 44.469 46.8621C45.528 46.6548 46.0731 46.4327 46.0731 46.2083C46.0731 45.984 45.528 45.7618 44.469 45.5546C43.41 45.3473 41.8578 45.159 39.901 45.0004C37.9442 44.8417 35.6211 44.7159 33.0644 44.63C30.5077 44.5442 27.7675 44.5 25.0002 44.5C22.2328 44.5 19.4926 44.5442 16.9359 44.63C14.3792 44.7159 12.0562 44.8417 10.0994 45.0004C8.14256 45.159 6.59034 45.3473 5.53133 45.5546C4.47231 45.7618 3.92725 45.984 3.92725 46.2083Z" fill="#45413C"/>
<path d="M44.9375 32.7812V37.9062C44.9375 42 36.0104 45.3125 25 45.3125C13.9896 45.3125 5.0625 42 5.0625 37.9062V32.7812H44.9375Z" fill="#DEBB7E"/>
<path d="M5.0625 35.0625C5.0625 39.1458 13.9896 42.4688 25 42.4688C36.0104 42.4688 44.9375 39.1458 44.9375 35.0625V32.7812H5.0625V35.0625Z" fill="#B89558"/>
<path d="M44.9375 32.7812V37.9062C44.9375 42 36.0104 45.3125 25 45.3125C13.9896 45.3125 5.0625 42 5.0625 37.9062V32.7812H44.9375Z" stroke="#45413C" stroke-width="0.5" stroke-linecap="round" stroke-linejoin="round"/>
<path d="M25.0001 39.5833C49.5626 39.5833 48.9584 31.6146 46.073 27.0833C43.2292 23.1042 36.6355 19.6875 25.0001 19.6875C13.3646 19.6875 6.7709 23.1042 3.92715 27.0833C1.04173 31.6458 0.437567 39.5833 25.0001 39.5833Z" fill="#BF8256" stroke="#45413C" stroke-width="0.5" stroke-linecap="round" stroke-linejoin="round"/>
<path d="M44.9376 24.8125C44.9376 24.8125 48.3542 25.9479 48.3542 29.3646C48.3542 32.7813 43.7917 29.9375 42.1042 31.0729C40.4167 32.2083 41.6772 34.8229 39.2605 35.6354C35.8438 36.7708 34.0522 33.4792 31.8542 33.9271C29.0105 34.4896 30.1459 37.3438 25.0209 37.3438C19.8959 37.3438 21.0313 34.4896 18.1876 33.9271C15.948 33.4792 14.198 36.7708 10.7813 35.6354C8.33341 34.8229 9.62508 32.2188 7.91675 31.0729C6.20841 29.9271 1.66675 32.7813 1.66675 29.3646C1.66675 25.9479 5.08341 24.8125 5.08341 24.8125H44.9376Z" fill="#6DD627" stroke="#45413C" stroke-width="0.5" stroke-linecap="round" stroke-linejoin="round"/>
<path d="M44.3647 28.2708H34.6772V31.6458C34.6772 32.2508 34.9176 32.8311 35.3454 33.2589C35.7732 33.6867 36.3535 33.9271 36.9585 33.9271H38.0939V36.4583C38.1304 36.9625 38.3564 37.4341 38.7264 37.7784C39.0965 38.1227 39.5832 38.3141 40.0887 38.3141C40.5942 38.3141 41.0809 38.1227 41.451 37.7784C41.821 37.4341 42.047 36.9625 42.0835 36.4583V32.1875C42.6885 32.1875 43.2688 31.9471 43.6966 31.5193C44.1244 31.0915 44.3647 30.5113 44.3647 29.9062V28.2708Z" fill="#FFE500" stroke="#45413C" stroke-width="0.5" stroke-linecap="round" stroke-linejoin="round"/>
<path d="M25.0001 31.6458C49.5626 31.6458 48.9584 23.6666 46.073 19.1458C43.2292 15.125 36.6355 11.7083 25.0001 11.7083C13.3646 11.7083 6.7709 15.125 3.92715 19.1146C1.04173 23.6666 0.437567 31.6458 25.0001 31.6458Z" fill="#BF8256" stroke="#45413C" stroke-width="0.5" stroke-linecap="round" stroke-linejoin="round"/>
<path d="M44.9376 16.8333C44.9376 16.8333 48.3542 17.9791 48.3542 21.3958C48.3542 24.8125 43.7917 21.9583 42.1042 23.1041C40.4167 24.25 41.6772 26.8541 39.2605 27.6562C35.8438 28.7916 34.0522 25.5 31.8542 25.9479C29.0105 26.5208 30.1459 29.3646 25.0209 29.3646C19.8959 29.3646 21.0313 26.5208 18.1876 25.9479C15.948 25.5 14.198 28.7916 10.7813 27.6562C8.33341 26.8541 9.62508 24.2396 7.91675 23.1041C6.20841 21.9687 1.66675 24.8125 1.66675 21.3958C1.66675 17.9791 5.08341 16.8333 5.08341 16.8333H44.9376Z" fill="#6DD627" stroke="#45413C" stroke-width="0.5" stroke-linecap="round" stroke-linejoin="round"/>
<path d="M7.34377 19.1146C7.34377 19.1146 5.44794 23.0521 9.62502 24.2396C13.6146 25.375 17.5938 21.9583 21.0104 21.9583C24.4271 21.9583 27.625 27 31.8334 25.9479C36.3854 24.8125 34.1146 22.5313 36.9584 21.3958C39.8021 20.2604 49.4584 24.2396 43.7917 17.4062L7.34377 19.1146Z" fill="#FF6242" stroke="#45413C" stroke-width="0.5" stroke-linecap="round" stroke-linejoin="round"/>
<path d="M27.8438 22.5312H18.1667V25.375C18.1667 25.98 18.4071 26.5603 18.8349 26.9881C19.2627 27.4159 19.843 27.6562 20.448 27.6562H21.5834V30.2083C21.5636 30.4824 21.6005 30.7576 21.6917 31.0168C21.783 31.276 21.9267 31.5136 22.1139 31.7148C22.3011 31.916 22.5277 32.0765 22.7796 32.1862C23.0316 32.2959 23.3034 32.3526 23.5782 32.3526C23.853 32.3526 24.1249 32.2959 24.3768 32.1862C24.6287 32.0765 24.8554 31.916 25.0425 31.7148C25.2297 31.5136 25.3734 31.276 25.4647 31.0168C25.5559 30.7576 25.5928 30.4824 25.573 30.2083V25.9375C26.1762 25.9347 26.7538 25.6932 27.1794 25.2657C27.6049 24.8381 27.8438 24.2595 27.8438 23.6562V22.5312Z" fill="#FFE500" stroke="#45413C" stroke-width="0.5" stroke-linecap="round" stroke-linejoin="round"/>
<path d="M44.9375 16.2708C44.9375 20.3542 36.0104 23.6667 25 23.6667C13.9896 23.6667 5.0625 20.3542 5.0625 16.2708C5.0625 16.2708 6.25 3.125 25 3.125C43.75 3.125 44.9375 16.2708 44.9375 16.2708Z" fill="#F0D5A8"/>
<path d="M25 19.6875C15.625 19.6875 7.69792 17.2604 5.61458 14C5.34786 14.7344 5.16272 15.4959 5.0625 16.2708C5.0625 20.3542 13.9896 23.6667 25 23.6667C36.0104 23.6667 44.9375 20.3542 44.9375 16.2708C44.8373 15.4959 44.6521 14.7344 44.3854 14C42.3021 17.2604 34.375 19.6875 25 19.6875Z" fill="#DEBB7E"/>
<path d="M44.9375 16.2708C44.9375 20.3542 36.0104 23.6667 25 23.6667C13.9896 23.6667 5.0625 20.3542 5.0625 16.2708C5.0625 16.2708 6.25 3.125 25 3.125C43.75 3.125 44.9375 16.2708 44.9375 16.2708Z" stroke="#45413C" stroke-width="0.5" stroke-linecap="round" stroke-linejoin="round"/>
<path d="M13.3127 9.19794C13.0212 9.27668 12.773 9.46797 12.6225 9.72974C12.4721 9.99151 12.4319 10.3023 12.5106 10.5938C12.5893 10.8852 12.7806 11.1335 13.0424 11.2839C13.3042 11.4343 13.615 11.4746 13.9064 11.3959L15.0106 11.1042C15.1549 11.0652 15.2901 10.9982 15.4085 10.9069C15.527 10.8157 15.6262 10.702 15.7007 10.5724C15.7752 10.4428 15.8234 10.2998 15.8426 10.1515C15.8618 10.0033 15.8517 9.85268 15.8127 9.70836C15.7737 9.56404 15.7067 9.42882 15.6154 9.3104C15.5242 9.19199 15.4105 9.09271 15.2809 9.01823C15.1513 8.94375 15.0082 8.89553 14.86 8.87632C14.7117 8.85711 14.5612 8.86729 14.4168 8.90628L13.3127 9.19794Z" fill="#DEBB7E" stroke="#45413C" stroke-width="0.5" stroke-linecap="round" stroke-linejoin="round"/>
<path d="M19.9793 12.2813C19.855 12.5575 19.8455 12.8719 19.9529 13.1551C20.0604 13.4384 20.2759 13.6674 20.5522 13.7917C20.8285 13.916 21.1428 13.9255 21.4261 13.818C21.7093 13.7106 21.9383 13.495 22.0626 13.2188L22.5314 12.1771C22.5936 12.0403 22.6283 11.8926 22.6334 11.7424C22.6386 11.5922 22.6141 11.4424 22.5614 11.3017C22.5087 11.161 22.4288 11.032 22.3262 10.9221C22.2236 10.8123 22.1004 10.7237 21.9636 10.6615C21.8269 10.5992 21.6791 10.5645 21.5289 10.5594C21.3787 10.5542 21.229 10.5787 21.0883 10.6314C20.9475 10.6841 20.8185 10.7641 20.7087 10.8666C20.5988 10.9692 20.5103 11.0924 20.448 11.2292L19.9793 12.2813Z" fill="#DEBB7E" stroke="#45413C" stroke-width="0.5" stroke-linecap="round" stroke-linejoin="round"/>
<path d="M36.6876 9.19794C36.8319 9.23693 36.9671 9.30396 37.0855 9.3952C37.204 9.48645 37.3032 9.60013 37.3777 9.72974C37.4522 9.85936 37.5004 10.0024 37.5196 10.1506C37.5388 10.2989 37.5287 10.4495 37.4897 10.5938C37.4507 10.7381 37.3837 10.8733 37.2924 10.9917C37.2012 11.1101 37.0875 11.2094 36.9579 11.2839C36.8283 11.3584 36.6852 11.4066 36.537 11.4258C36.3887 11.445 36.2382 11.4348 36.0938 11.3959L34.9897 11.1042C34.8454 11.0652 34.7101 10.9982 34.5917 10.9069C34.4733 10.8157 34.374 10.702 34.2995 10.5724C34.2251 10.4428 34.1768 10.2998 34.1576 10.1515C34.1384 10.0033 34.1486 9.85268 34.1876 9.70836C34.2266 9.56404 34.2936 9.42882 34.3849 9.3104C34.4761 9.19199 34.5898 9.09271 34.7194 9.01823C34.849 8.94375 34.992 8.89553 35.1403 8.87632C35.2885 8.85711 35.4391 8.86729 35.5834 8.90628L36.6876 9.19794Z" fill="#DEBB7E" stroke="#45413C" stroke-width="0.5" stroke-linecap="round" stroke-linejoin="round"/>
<path d="M30.0208 12.2813C30.0824 12.4181 30.1164 12.5656 30.1209 12.7156C30.1254 12.8655 30.1004 13.0149 30.0472 13.1551C29.994 13.2954 29.9137 13.4238 29.8108 13.533C29.708 13.6422 29.5847 13.7301 29.4479 13.7917C29.3111 13.8532 29.1635 13.8872 29.0136 13.8918C28.8636 13.8963 28.7143 13.8712 28.574 13.818C28.4338 13.7648 28.3054 13.6845 28.1962 13.5817C28.0869 13.4789 27.999 13.3556 27.9375 13.2188L27.4687 12.1771C27.4065 12.0403 27.3718 11.8926 27.3666 11.7424C27.3615 11.5922 27.386 11.4424 27.4387 11.3017C27.5451 11.0175 27.7602 10.7872 28.0364 10.6615C28.1732 10.5992 28.3209 10.5645 28.4711 10.5594C28.6213 10.5542 28.7711 10.5787 28.9118 10.6314C29.1961 10.7379 29.4264 10.9529 29.5521 11.2292L30.0208 12.2813Z" fill="#DEBB7E" stroke="#45413C" stroke-width="0.5" stroke-linecap="round" stroke-linejoin="round"/>
</svg>
