<svg width="50" height="50" viewBox="0 0 50 50" fill="none" xmlns="http://www.w3.org/2000/svg">
<path opacity="0.15" d="M4.479 43.1563C4.479 43.5078 5.00979 43.8559 6.04106 44.1807C7.07233 44.5055 8.58388 44.8007 10.4894 45.0493C12.395 45.2978 14.6572 45.495 17.1469 45.6296C19.6366 45.7641 22.305 45.8334 24.9998 45.8334C27.6947 45.8334 30.3631 45.7641 32.8528 45.6296C35.3425 45.495 37.6047 45.2978 39.5103 45.0493C41.4158 44.8007 42.9273 44.5055 43.9586 44.1807C44.9899 43.8559 45.5207 43.5078 45.5207 43.1563C45.5207 42.8047 44.9899 42.4566 43.9586 42.1318C42.9273 41.807 41.4158 41.5119 39.5103 41.2633C37.6047 41.0147 35.3425 40.8175 32.8528 40.683C30.3631 40.5484 27.6947 40.4792 24.9998 40.4792C22.305 40.4792 19.6366 40.5484 17.1469 40.683C14.6572 40.8175 12.395 41.0147 10.4894 41.2633C8.58388 41.5119 7.07233 41.807 6.04106 42.1318C5.00979 42.4566 4.479 42.8047 4.479 43.1563Z" fill="#45413C"/>
<path d="M17.7083 27.0834C19.0728 25.9792 21.8749 25.2292 24.9999 25.2292C28.1249 25.2292 30.9583 25.9792 32.2916 27.0938C30.9374 28.1979 28.1249 28.9584 24.9999 28.9584C21.8749 28.9584 19.0416 28.125 17.7083 27.0834ZM24.9999 12.1667C12.302 12.1667 2.02075 19.125 2.02075 27.7084C2.02075 36.2917 12.302 43.2292 24.9999 43.2292C37.6978 43.2292 47.9791 36.2709 47.9791 27.6771C47.9791 19.0834 37.6978 12.1354 24.9999 12.1354V12.1667Z" fill="#FFFACF" stroke="#45413C" stroke-width="0.5" stroke-linecap="round" stroke-linejoin="round"/>
<path d="M24.9998 12.1354C13.4478 12.1354 3.88525 17.8959 2.26025 25.3959C2.89675 25.6528 3.45991 26.063 3.89968 26.59C4.33946 27.117 4.64223 27.7445 4.78109 28.4167C4.91066 29.1058 5.2182 29.7491 5.67319 30.2827C6.12819 30.8162 6.71481 31.2215 7.37484 31.4584C8.55407 31.8549 9.58549 32.5994 10.3332 33.5938L11.3748 34.8959C11.8139 35.5103 12.4374 35.9689 13.1549 36.2049C13.8723 36.4409 14.6463 36.4421 15.3644 36.2084C16.3446 35.873 17.3892 35.77 18.416 35.9074C19.4428 36.0448 20.4236 36.4188 21.2811 37C22.3907 37.7528 23.7007 38.1553 25.0415 38.1553C26.3824 38.1553 27.6923 37.7528 28.8019 37C29.6594 36.4188 30.6403 36.0448 31.667 35.9074C32.6938 35.77 33.7384 35.873 34.7186 36.2084C35.4367 36.4421 36.2107 36.4409 36.9281 36.2049C37.6456 35.9689 38.2691 35.5103 38.7082 34.8959L39.7498 33.5938C40.4975 32.5994 41.5289 31.8549 42.7082 31.4584C43.3682 31.2215 43.9548 30.8162 44.4098 30.2827C44.8648 29.7491 45.1723 29.1058 45.3019 28.4167C45.4378 27.7457 45.7397 27.1196 46.1801 26.5955C46.6205 26.0714 47.1852 25.6661 47.8228 25.4167C46.1144 17.9063 36.5519 12.1354 24.9998 12.1354ZM33.2082 25.5C33.2082 27.3959 29.5311 28.9271 24.9998 28.9271C20.4686 28.9271 16.7915 27.3959 16.7915 25.5V25C16.772 24.7429 16.8103 24.4847 16.9036 24.2442C16.9968 24.0038 17.1427 23.7873 17.3304 23.6105C17.5182 23.4338 17.7431 23.3012 17.9887 23.2226C18.2343 23.144 18.4943 23.1214 18.7498 23.1563C18.9891 23.2073 19.2371 23.1998 19.4728 23.1345C19.7086 23.0693 19.9251 22.9481 20.104 22.7813L20.9061 22.0521C21.2773 21.6993 21.7592 21.4858 22.2699 21.4479C22.7807 21.4099 23.2888 21.5498 23.7082 21.8438C24.0814 22.1027 24.5248 22.2415 24.979 22.2415C25.4332 22.2415 25.8766 22.1027 26.2498 21.8438C26.6692 21.5498 27.1773 21.4099 27.6881 21.4479C28.1988 21.4858 28.6807 21.6993 29.0519 22.0521L29.854 22.7813C30.0329 22.9481 30.2494 23.0693 30.4852 23.1345C30.7209 23.1998 30.9689 23.2073 31.2082 23.1563C31.4668 23.1144 31.7316 23.1319 31.9825 23.2073C32.2334 23.2828 32.4638 23.4143 32.6565 23.5919C32.8491 23.7695 32.9988 23.9885 33.0944 24.2324C33.19 24.4764 33.2289 24.7388 33.2082 25V25.5ZM24.9998 12.1354C13.4478 12.1354 3.88525 17.8959 2.26025 25.3959C2.89675 25.6528 3.45991 26.063 3.89968 26.59C4.33946 27.117 4.64223 27.7445 4.78109 28.4167C4.91066 29.1058 5.2182 29.7491 5.67319 30.2827C6.12819 30.8162 6.71481 31.2215 7.37484 31.4584C8.55407 31.8549 9.58549 32.5994 10.3332 33.5938L11.3748 34.8959C11.8139 35.5103 12.4374 35.9689 13.1549 36.2049C13.8723 36.4409 14.6463 36.4421 15.3644 36.2084C16.3446 35.873 17.3892 35.77 18.416 35.9074C19.4428 36.0448 20.4236 36.4188 21.2811 37C22.3907 37.7528 23.7007 38.1553 25.0415 38.1553C26.3824 38.1553 27.6923 37.7528 28.8019 37C29.6594 36.4188 30.6403 36.0448 31.667 35.9074C32.6938 35.77 33.7384 35.873 34.7186 36.2084C35.4367 36.4421 36.2107 36.4409 36.9281 36.2049C37.6456 35.9689 38.2691 35.5103 38.7082 34.8959L39.7498 33.5938C40.4975 32.5994 41.5289 31.8549 42.7082 31.4584C43.3682 31.2215 43.9548 30.8162 44.4098 30.2827C44.8648 29.7491 45.1723 29.1058 45.3019 28.4167C45.4378 27.7457 45.7397 27.1196 46.1801 26.5955C46.6205 26.0714 47.1852 25.6661 47.8228 25.4167C46.1144 17.9063 36.5519 12.1354 24.9998 12.1354ZM33.2082 25.5C33.2082 27.3959 29.5311 28.9271 24.9998 28.9271C20.4686 28.9271 16.7915 27.3959 16.7915 25.5V25C16.772 24.7429 16.8103 24.4847 16.9036 24.2442C16.9968 24.0038 17.1427 23.7873 17.3304 23.6105C17.5182 23.4338 17.7431 23.3012 17.9887 23.2226C18.2343 23.144 18.4943 23.1214 18.7498 23.1563C18.9891 23.2073 19.2371 23.1998 19.4728 23.1345C19.7086 23.0693 19.9251 22.9481 20.104 22.7813L20.9061 22.0521C21.2773 21.6993 21.7592 21.4858 22.2699 21.4479C22.7807 21.4099 23.2888 21.5498 23.7082 21.8438C24.0814 22.1027 24.5248 22.2415 24.979 22.2415C25.4332 22.2415 25.8766 22.1027 26.2498 21.8438C26.6692 21.5498 27.1773 21.4099 27.6881 21.4479C28.1988 21.4858 28.6807 21.6993 29.0519 22.0521L29.854 22.7813C30.0329 22.9481 30.2494 23.0693 30.4852 23.1345C30.7209 23.1998 30.9689 23.2073 31.2082 23.1563C31.4668 23.1144 31.7316 23.1319 31.9825 23.2073C32.2334 23.2828 32.4638 23.4143 32.6565 23.5919C32.8491 23.7695 32.9988 23.9885 33.0944 24.2324C33.19 24.4764 33.2289 24.7388 33.2082 25V25.5Z" fill="#FF87AF"/>
<path d="M24.9998 15.9167C34.9061 15.9167 43.3332 20.1563 46.5519 26.1042C46.9024 25.8043 47.3049 25.5713 47.7394 25.4167C46.1144 17.9063 36.5519 12.1354 24.9998 12.1354C13.4478 12.1354 3.88525 17.8959 2.26025 25.3959C2.69585 25.5578 3.09827 25.7979 3.44775 26.1042C6.6665 20.1563 15.0936 15.9167 24.9998 15.9167Z" fill="#FFB0CA"/>
<path d="M33.2082 25.5C33.2082 27.3959 29.5311 28.9271 24.9998 28.9271C20.4686 28.9271 16.7915 27.3959 16.7915 25.5V25C16.772 24.7429 16.8103 24.4847 16.9036 24.2442C16.9968 24.0038 17.1427 23.7873 17.3304 23.6105C17.5182 23.4338 17.7431 23.3012 17.9887 23.2226C18.2343 23.144 18.4943 23.1214 18.7498 23.1563C18.9891 23.2073 19.2371 23.1998 19.4728 23.1345C19.7086 23.0693 19.9251 22.9481 20.104 22.7813L20.9061 22.0521C21.2773 21.6993 21.7592 21.4858 22.2699 21.4479C22.7807 21.4099 23.2888 21.5498 23.7082 21.8438C24.0814 22.1027 24.5248 22.2415 24.979 22.2415C25.4332 22.2415 25.8766 22.1027 26.2498 21.8438C26.6692 21.5498 27.1773 21.4099 27.6881 21.4479C28.1988 21.4858 28.6807 21.6993 29.0519 22.0521L29.854 22.7813C30.0329 22.9481 30.2494 23.0693 30.4852 23.1345C30.7209 23.1998 30.9689 23.2073 31.2082 23.1563C31.4668 23.1144 31.7316 23.1319 31.9825 23.2073C32.2334 23.2828 32.4638 23.4143 32.6565 23.5919C32.8491 23.7695 32.9988 23.9885 33.0944 24.2324C33.19 24.4764 33.2289 24.7388 33.2082 25V25.5ZM24.9998 12.1354C13.4478 12.1354 3.88525 17.8959 2.26025 25.3959C2.89675 25.6528 3.45991 26.063 3.89968 26.59C4.33946 27.117 4.64223 27.7445 4.78109 28.4167C4.91066 29.1058 5.2182 29.7491 5.67319 30.2827C6.12819 30.8162 6.71481 31.2215 7.37484 31.4584C8.55407 31.8549 9.58549 32.5994 10.3332 33.5938L11.3748 34.8959C11.8139 35.5103 12.4374 35.9689 13.1549 36.2049C13.8723 36.4409 14.6463 36.4421 15.3644 36.2084C16.3446 35.873 17.3892 35.77 18.416 35.9074C19.4428 36.0448 20.4236 36.4188 21.2811 37C22.3907 37.7528 23.7007 38.1553 25.0415 38.1553C26.3824 38.1553 27.6923 37.7528 28.8019 37C29.6594 36.4188 30.6403 36.0448 31.667 35.9074C32.6938 35.77 33.7384 35.873 34.7186 36.2084C35.4367 36.4421 36.2107 36.4409 36.9281 36.2049C37.6456 35.9689 38.2691 35.5103 38.7082 34.8959L39.7498 33.5938C40.4975 32.5994 41.5289 31.8549 42.7082 31.4584C43.3682 31.2215 43.9548 30.8162 44.4098 30.2827C44.8648 29.7491 45.1723 29.1058 45.3019 28.4167C45.4378 27.7457 45.7397 27.1196 46.1801 26.5955C46.6205 26.0714 47.1852 25.6661 47.8227 25.4167C46.1144 17.9063 36.5519 12.1354 24.9998 12.1354Z" stroke="#45413C" stroke-width="0.5" stroke-linecap="round" stroke-linejoin="round"/>
<path d="M36.1978 29.5417L34.9478 31.4167" stroke="#45413C" stroke-width="0.5" stroke-linecap="round" stroke-linejoin="round"/>
<path d="M23.7603 31.4167L25.6248 32.6563" stroke="#45413C" stroke-width="0.5" stroke-linecap="round" stroke-linejoin="round"/>
<path d="M13.802 29.5417L15.6666 28.9271" stroke="#45413C" stroke-width="0.5" stroke-linecap="round" stroke-linejoin="round"/>
<path d="M39.302 24.573C39.302 24.8178 39.3502 25.0603 39.4439 25.2865C39.5376 25.5127 39.675 25.7183 39.8481 25.8914C40.0213 26.0646 40.2268 26.2019 40.453 26.2956C40.6793 26.3893 40.9217 26.4375 41.1666 26.4375C41.4114 26.4375 41.6539 26.3893 41.8801 26.2956C42.1064 26.2019 42.3119 26.0646 42.485 25.8914C42.6582 25.7183 42.7955 25.5127 42.8892 25.2865C42.9829 25.0603 43.0312 24.8178 43.0312 24.573C43.0312 24.3281 42.9829 24.0856 42.8892 23.8594C42.7955 23.6332 42.6582 23.4276 42.485 23.2545C42.3119 23.0814 42.1064 22.944 41.8801 22.8503C41.6539 22.7566 41.4114 22.7084 41.1666 22.7084C40.9217 22.7084 40.6793 22.7566 40.453 22.8503C40.2268 22.944 40.0213 23.0814 39.8481 23.2545C39.675 23.4276 39.5376 23.6332 39.4439 23.8594C39.3502 24.0856 39.302 24.3281 39.302 24.573Z" fill="#9CEB60" stroke="#45413C" stroke-width="0.5" stroke-linecap="round" stroke-linejoin="round"/>
<path d="M15.677 15.2396C15.677 15.4844 15.7252 15.7269 15.8189 15.9531C15.9126 16.1793 16.05 16.3849 16.2231 16.558C16.3963 16.7312 16.6018 16.8685 16.828 16.9622C17.0543 17.0559 17.2967 17.1042 17.5416 17.1042C17.7864 17.1042 18.0289 17.0559 18.2551 16.9622C18.4814 16.8685 18.6869 16.7312 18.86 16.558C19.0332 16.3849 19.1705 16.1793 19.2642 15.9531C19.3579 15.7269 19.4062 15.4844 19.4062 15.2396C19.4062 14.9947 19.3579 14.7523 19.2642 14.526C19.1705 14.2998 19.0332 14.0943 18.86 13.9211C18.6869 13.748 18.4814 13.6106 18.2551 13.5169C18.0289 13.4232 17.7864 13.375 17.5416 13.375C17.2967 13.375 17.0543 13.4232 16.828 13.5169C16.6018 13.6106 16.3963 13.748 16.2231 13.9211C16.05 14.0943 15.9126 14.2998 15.8189 14.526C15.7252 14.7523 15.677 14.9947 15.677 15.2396Z" fill="#FFE500" stroke="#45413C" stroke-width="0.5" stroke-linecap="round" stroke-linejoin="round"/>
<path d="M6.34375 23.323C6.34375 23.8175 6.5402 24.2917 6.88987 24.6414C7.23955 24.9911 7.71381 25.1875 8.20833 25.1875C8.70285 25.1875 9.17712 24.9911 9.52679 24.6414C9.87647 24.2917 10.0729 23.8175 10.0729 23.323C10.0729 22.8284 9.87647 22.3542 9.52679 22.0045C9.17712 21.6548 8.70285 21.4584 8.20833 21.4584C7.71381 21.4584 7.23955 21.6548 6.88987 22.0045C6.5402 22.3542 6.34375 22.8284 6.34375 23.323Z" fill="#00F5BC" stroke="#45413C" stroke-width="0.5" stroke-linecap="round" stroke-linejoin="round"/>
<path d="M27.4895 14.625L28.7291 15.8646" stroke="#45413C" stroke-width="0.5" stroke-linecap="round" stroke-linejoin="round"/>
<path d="M35.5728 18.3542L38.0623 17.7292" stroke="#45413C" stroke-width="0.5" stroke-linecap="round" stroke-linejoin="round"/>
<path d="M10.6978 18.9688L13.1873 19.5938" stroke="#45413C" stroke-width="0.5" stroke-linecap="round" stroke-linejoin="round"/>
</svg>
