<svg width="180" height="31" viewBox="0 0 180 31" fill="none" xmlns="http://www.w3.org/2000/svg">
<path d="M0.888 21.6562V20.8002H2.184V16.8802H2.68L1.016 17.8722V16.8962L2.48 16.0162H3.216V20.8002H4.432V21.6562H0.888ZM7.23688 21.7363C6.99154 21.7363 6.74621 21.7096 6.50088 21.6562C6.26088 21.6029 6.03421 21.5282 5.82088 21.4322C5.61288 21.3362 5.43421 21.2216 5.28488 21.0882L5.62088 20.3122C5.87154 20.4989 6.12754 20.6402 6.38888 20.7362C6.65554 20.8269 6.93288 20.8722 7.22088 20.8722C7.56754 20.8722 7.83688 20.7869 8.02888 20.6162C8.22621 20.4402 8.32488 20.2056 8.32488 19.9122C8.32488 19.6136 8.23154 19.3736 8.04488 19.1922C7.85821 19.0056 7.60221 18.9122 7.27688 18.9122C7.04754 18.9122 6.83688 18.9576 6.64488 19.0482C6.45821 19.1336 6.29021 19.2669 6.14088 19.4482H5.46088V16.0162H8.96488V16.8642H6.43688V18.6562H6.18888C6.32754 18.4696 6.51154 18.3256 6.74088 18.2242C6.97554 18.1229 7.23688 18.0722 7.52488 18.0722C7.88754 18.0722 8.20221 18.1469 8.46888 18.2962C8.73554 18.4456 8.94354 18.6562 9.09288 18.9282C9.24221 19.1949 9.31687 19.5096 9.31687 19.8722C9.31687 20.2402 9.23154 20.5656 9.06088 20.8482C8.89554 21.1256 8.65554 21.3442 8.34088 21.5042C8.03154 21.6589 7.66354 21.7363 7.23688 21.7363Z" fill="black"/>
<path d="M40.8679 21.6562V20.8962L42.7399 18.9442C42.9746 18.6989 43.1479 18.4722 43.2599 18.2642C43.3719 18.0562 43.4279 17.8429 43.4279 17.6242C43.4279 17.3522 43.3426 17.1469 43.1719 17.0082C43.0012 16.8696 42.7532 16.8002 42.4279 16.8002C42.1666 16.8002 41.9159 16.8482 41.6759 16.9442C41.4359 17.0349 41.2012 17.1789 40.9719 17.3762L40.6359 16.6082C40.8652 16.4056 41.1479 16.2429 41.4839 16.1202C41.8252 15.9976 42.1826 15.9362 42.5559 15.9362C43.1639 15.9362 43.6306 16.0722 43.9559 16.3442C44.2812 16.6162 44.4439 17.0056 44.4439 17.5122C44.4439 17.8642 44.3612 18.2002 44.1959 18.5202C44.0306 18.8349 43.7746 19.1656 43.4279 19.5122L41.8679 21.0722V20.8002H44.6679V21.6562H40.8679ZM47.4408 21.7363C46.7794 21.7363 46.2701 21.4856 45.9128 20.9842C45.5554 20.4776 45.3768 19.7576 45.3768 18.8242C45.3768 17.8802 45.5554 17.1629 45.9128 16.6722C46.2701 16.1816 46.7794 15.9362 47.4408 15.9362C48.1074 15.9362 48.6168 16.1816 48.9688 16.6722C49.3261 17.1629 49.5048 17.8776 49.5048 18.8162C49.5048 19.7549 49.3261 20.4776 48.9688 20.9842C48.6168 21.4856 48.1074 21.7363 47.4408 21.7363ZM47.4408 20.8882C47.8034 20.8882 48.0728 20.7229 48.2488 20.3922C48.4248 20.0562 48.5128 19.5309 48.5128 18.8162C48.5128 18.1016 48.4248 17.5842 48.2488 17.2642C48.0728 16.9389 47.8034 16.7762 47.4408 16.7762C47.0834 16.7762 46.8141 16.9389 46.6328 17.2642C46.4568 17.5842 46.3688 18.1016 46.3688 18.8162C46.3688 19.5309 46.4568 20.0562 46.6328 20.3922C46.8141 20.7229 47.0834 20.8882 47.4408 20.8882Z" fill="black"/>
<path d="M86.2339 21.6562V20.8962L88.1059 18.9442C88.3405 18.6989 88.5139 18.4722 88.6259 18.2642C88.7379 18.0562 88.7939 17.8429 88.7939 17.6242C88.7939 17.3522 88.7085 17.1469 88.5379 17.0082C88.3672 16.8696 88.1192 16.8002 87.7939 16.8002C87.5325 16.8002 87.2819 16.8482 87.0419 16.9442C86.8019 17.0349 86.5672 17.1789 86.3379 17.3762L86.0019 16.6082C86.2312 16.4056 86.5139 16.2429 86.8499 16.1202C87.1912 15.9976 87.5485 15.9362 87.9219 15.9362C88.5299 15.9362 88.9965 16.0722 89.3219 16.3442C89.6472 16.6162 89.8099 17.0056 89.8099 17.5122C89.8099 17.8642 89.7272 18.2002 89.5619 18.5202C89.3965 18.8349 89.1405 19.1656 88.7939 19.5122L87.2339 21.0722V20.8002H90.0339V21.6562H86.2339ZM92.8467 21.7363C92.6014 21.7363 92.3561 21.7096 92.1107 21.6562C91.8707 21.6029 91.6441 21.5282 91.4307 21.4322C91.2227 21.3362 91.0441 21.2216 90.8947 21.0882L91.2307 20.3122C91.4814 20.4989 91.7374 20.6402 91.9987 20.7362C92.2654 20.8269 92.5427 20.8722 92.8307 20.8722C93.1774 20.8722 93.4467 20.7869 93.6387 20.6162C93.8361 20.4402 93.9347 20.2056 93.9347 19.9122C93.9347 19.6136 93.8414 19.3736 93.6547 19.1922C93.4681 19.0056 93.2121 18.9122 92.8867 18.9122C92.6574 18.9122 92.4467 18.9576 92.2547 19.0482C92.0681 19.1336 91.9001 19.2669 91.7507 19.4482H91.0707V16.0162H94.5747V16.8642H92.0467V18.6562H91.7987C91.9374 18.4696 92.1214 18.3256 92.3507 18.2242C92.5854 18.1229 92.8467 18.0722 93.1347 18.0722C93.4974 18.0722 93.8121 18.1469 94.0787 18.2962C94.3454 18.4456 94.5534 18.6562 94.7027 18.9282C94.8521 19.1949 94.9267 19.5096 94.9267 19.8722C94.9267 20.2402 94.8414 20.5656 94.6707 20.8482C94.5054 21.1256 94.2654 21.3442 93.9507 21.5042C93.6414 21.6589 93.2734 21.7363 92.8467 21.7363Z" fill="black"/>
<path d="M126.702 21.7363C126.313 21.7363 125.94 21.6803 125.582 21.5682C125.225 21.4509 124.932 21.2909 124.702 21.0882L125.038 20.3122C125.289 20.5042 125.548 20.6456 125.814 20.7362C126.086 20.8269 126.372 20.8722 126.67 20.8722C127.033 20.8722 127.308 20.8002 127.494 20.6562C127.681 20.5122 127.774 20.3016 127.774 20.0242C127.774 19.7576 127.681 19.5576 127.494 19.4242C127.313 19.2856 127.046 19.2162 126.694 19.2162H125.782V18.3922H126.606C126.91 18.3922 127.153 18.3176 127.334 18.1682C127.516 18.0189 127.606 17.8136 127.606 17.5522C127.606 17.3069 127.521 17.1202 127.35 16.9922C127.185 16.8642 126.945 16.8002 126.63 16.8002C126.065 16.8002 125.566 16.9922 125.134 17.3762L124.798 16.6082C125.028 16.3949 125.31 16.2296 125.646 16.1122C125.988 15.9949 126.345 15.9362 126.718 15.9362C127.305 15.9362 127.764 16.0696 128.094 16.3362C128.43 16.5976 128.598 16.9629 128.598 17.4323C128.598 17.7682 128.502 18.0589 128.31 18.3042C128.124 18.5442 127.865 18.7042 127.534 18.7842V18.6882C127.924 18.7522 128.225 18.9122 128.438 19.1682C128.657 19.4189 128.766 19.7336 128.766 20.1122C128.766 20.6136 128.582 21.0109 128.214 21.3042C127.846 21.5922 127.342 21.7363 126.702 21.7363ZM131.587 21.7363C130.926 21.7363 130.417 21.4856 130.059 20.9842C129.702 20.4776 129.523 19.7576 129.523 18.8242C129.523 17.8802 129.702 17.1629 130.059 16.6722C130.417 16.1816 130.926 15.9362 131.587 15.9362C132.254 15.9362 132.763 16.1816 133.115 16.6722C133.473 17.1629 133.651 17.8776 133.651 18.8162C133.651 19.7549 133.473 20.4776 133.115 20.9842C132.763 21.4856 132.254 21.7363 131.587 21.7363ZM131.587 20.8882C131.95 20.8882 132.219 20.7229 132.395 20.3922C132.571 20.0562 132.659 19.5309 132.659 18.8162C132.659 18.1016 132.571 17.5842 132.395 17.2642C132.219 16.9389 131.95 16.7762 131.587 16.7762C131.23 16.7762 130.961 16.9389 130.779 17.2642C130.603 17.5842 130.515 18.1016 130.515 18.8162C130.515 19.5309 130.603 20.0562 130.779 20.3922C130.961 20.7229 131.23 20.8882 131.587 20.8882Z" fill="black"/>
<path d="M171.336 21.7363C170.947 21.7363 170.574 21.6803 170.216 21.5682C169.859 21.4509 169.566 21.2909 169.336 21.0882L169.672 20.3122C169.923 20.5042 170.182 20.6456 170.448 20.7362C170.72 20.8269 171.006 20.8722 171.304 20.8722C171.667 20.8722 171.942 20.8002 172.128 20.6562C172.315 20.5122 172.408 20.3016 172.408 20.0242C172.408 19.7576 172.315 19.5576 172.128 19.4242C171.947 19.2856 171.68 19.2162 171.328 19.2162H170.416V18.3922H171.24C171.544 18.3922 171.787 18.3176 171.968 18.1682C172.15 18.0189 172.24 17.8136 172.24 17.5522C172.24 17.3069 172.155 17.1202 171.984 16.9922C171.819 16.8642 171.579 16.8002 171.264 16.8002C170.699 16.8002 170.2 16.9922 169.768 17.3762L169.432 16.6082C169.662 16.3949 169.944 16.2296 170.28 16.1122C170.622 15.9949 170.979 15.9362 171.352 15.9362C171.939 15.9362 172.398 16.0696 172.728 16.3362C173.064 16.5976 173.232 16.9629 173.232 17.4323C173.232 17.7682 173.136 18.0589 172.944 18.3042C172.758 18.5442 172.499 18.7042 172.168 18.7842V18.6882C172.558 18.7522 172.859 18.9122 173.072 19.1682C173.291 19.4189 173.4 19.7336 173.4 20.1122C173.4 20.6136 173.216 21.0109 172.848 21.3042C172.48 21.5922 171.976 21.7363 171.336 21.7363ZM176.261 21.7363C176.016 21.7363 175.771 21.7096 175.525 21.6562C175.285 21.6029 175.059 21.5282 174.845 21.4322C174.637 21.3362 174.459 21.2216 174.309 21.0882L174.645 20.3122C174.896 20.4989 175.152 20.6402 175.413 20.7362C175.68 20.8269 175.957 20.8722 176.245 20.8722C176.592 20.8722 176.861 20.7869 177.053 20.6162C177.251 20.4402 177.349 20.2056 177.349 19.9122C177.349 19.6136 177.256 19.3736 177.069 19.1922C176.883 19.0056 176.627 18.9122 176.301 18.9122C176.072 18.9122 175.861 18.9576 175.669 19.0482C175.483 19.1336 175.315 19.2669 175.165 19.4482H174.485V16.0162H177.989V16.8642H175.461V18.6562H175.213C175.352 18.4696 175.536 18.3256 175.765 18.2242C176 18.1229 176.261 18.0722 176.549 18.0722C176.912 18.0722 177.227 18.1469 177.493 18.2962C177.76 18.4456 177.968 18.6562 178.117 18.9282C178.267 19.1949 178.341 19.5096 178.341 19.8722C178.341 20.2402 178.256 20.5656 178.085 20.8482C177.92 21.1256 177.68 21.3442 177.365 21.5042C177.056 21.6589 176.688 21.7363 176.261 21.7363Z" fill="black"/>
<rect y="0.9375" width="177.805" height="8.09375" rx="4.04688" fill="url(#paint0_linear_562_3429)"/>
<defs>
<linearGradient id="paint0_linear_562_3429" x1="1.17985e-06" y1="4.98439" x2="177.805" y2="4.98442" gradientUnits="userSpaceOnUse">
<stop stop-color="#B5D4F1"/>
<stop offset="0.377705" stop-color="#81E6DB"/>
<stop offset="0.704019" stop-color="#E8D284"/>
<stop offset="1" stop-color="#E2798E"/>
</linearGradient>
</defs>
</svg>
