<svg width="145" height="369" viewBox="0 0 145 369" fill="none" xmlns="http://www.w3.org/2000/svg">
<path d="M106.163 58.0963L108.349 58.7058C119.419 61.7546 122.019 71.674 120.426 83.94C120.48 85.9206 120.809 87.8372 121.412 89.6896C129.559 108.955 125.307 110.113 130.121 126.385C130.188 126.584 130.187 126.716 130.185 126.914C131.945 129.83 131.078 155.567 129.527 171.53C129.593 171.86 129.591 172.124 129.52 172.454C128.863 178.258 128.731 177.597 129.47 179.582C130.209 181.568 133.08 191.885 133.144 192.48C133.274 193.405 133.268 194.329 133.125 195.186C132.557 198.086 131.984 201.646 130.749 201.968C130.052 203.745 128.948 204.925 128.261 205.25C126.603 207.285 126.115 208.535 125.433 208.267C124.75 207.998 124.482 207.204 124.76 206.546C124.76 206.546 124.76 206.546 124.761 206.48C125.041 205.624 124.694 206.281 124.139 207.267C123.446 208.451 122.821 209.7 122.34 209.961C120.362 208.825 121.68 206.392 122.857 204.552C123.549 203.501 122.513 204.814 121.267 206.785C120.159 208.559 119.052 210.136 118.78 209.936C116.191 208.201 119.514 203.01 120.065 202.42C120.009 200.703 120.021 199.053 120.101 197.338C119.562 196.212 119.165 194.295 118.911 191.455C118.629 192.575 118.211 193.628 117.792 194.681C117.172 195.337 118.842 201.157 114.187 201.124C114.203 198.88 114.225 195.778 114.24 193.666C114.252 191.95 114.831 187.531 114.843 185.815C114.855 184.099 118.858 179.639 119.064 179.442C119.22 176.737 119.103 173.964 118.849 171.256C118.849 171.19 118.85 171.058 118.919 170.993C118.075 164.518 115.999 157.902 114.591 153.8C113.182 149.698 110.637 141.693 111.156 136.02C111.089 135.821 111.023 135.557 111.093 135.359C111.037 133.577 111.255 131.73 111.815 130.018C106.468 121.267 103.526 111.345 103.393 101.179C101.699 108.296 96.7049 117.502 96.666 122.98C96.6193 129.58 98.6357 134.875 98.6048 139.231C98.5861 141.871 97.8068 145.562 96.2661 150.436C98.9671 155.736 110.083 181.293 111.779 202.691C113.413 223.363 113.726 237.227 111.435 251.336C116.455 257.84 118.434 278.052 114.857 299.809C113.499 307.919 115.154 325.554 116.665 334.542C118.176 343.529 107.838 343.522 104.228 340.856C102.185 339.324 98.9311 334.746 100.391 331.654C100.301 324.987 98.1175 304.641 92.744 290.016C89.9239 282.207 90.1506 269.535 90.542 262.607C90.4763 262.211 90.3422 261.814 90.2765 261.417C89.4817 257.649 89.9693 256.464 90.0532 254.287C87.8352 248.462 82.0187 238.388 79.8906 229.528C78.0955 221.991 76.4443 213.464 74.8002 203.947L73.0892 203.869C72.4552 206.373 71.9578 208.944 71.5968 211.582C71.075 217.584 71.8254 227.623 62.2532 254.816C62.2261 258.644 63.4551 259.115 62.9432 263.732C62.7964 265.117 62.5817 266.435 62.2296 267.819C64.2249 276.084 66.1805 289.959 59.8618 302.456C55.6948 310.809 53.2839 322.542 54.6762 328.954C56.4351 331.937 55.5654 338.729 53.7049 340.432C50.3293 343.379 37.4039 341.373 39.0444 332.078C40.6849 322.782 40.7845 308.724 38.1242 297.682C35.7289 287.895 36.6332 276.219 38.8443 263.693C38.8475 263.231 38.8508 262.769 38.8546 262.241C38.8709 259.931 38.9544 257.819 39.1053 255.84C37.9761 250.948 36.499 246.845 35.0343 231.323C34.2689 223.396 35.2741 216.803 35.1215 209.343C35.8409 185.123 40.4961 156.179 42.7959 150.453L42.9329 150.454C42.6097 147.745 42.424 144.972 42.3747 142.265C42.3986 138.899 44.5723 131.654 45.3046 124.926C45.8878 119.914 42.9134 114.546 40.9683 108.856C40.2332 115.979 36.5534 123.214 31.788 129.055C36.9032 151.137 28.0031 160.777 25.4146 178.251C25.7546 178.583 26.0261 178.915 26.2976 179.247C29.2152 182.964 29.6598 187.852 27.7693 193.779C28.7137 195.766 29.3904 196.893 29.7983 197.292C30.9556 198.224 31.9182 197.637 32.2395 200.61C31.2149 200.272 30.0539 199.868 29.0298 199.465C31.2782 200.999 31.9521 202.522 31.1892 203.902L28.1887 202.231C28.937 202.896 29.4102 203.758 29.5406 204.683C29.4655 205.606 29.1856 206.463 28.7008 207.251L25.9215 203.337L22.2714 196.711L24.3521 202.6C25.7766 204.458 26.518 206.114 26.6456 207.435C26.7732 208.756 26.2883 209.544 25.0551 209.668C22.613 206.482 21.1209 204.491 20.5779 203.827C19.1575 201.375 17.943 198.858 16.9348 196.211C16.4664 194.689 16.3556 190.992 16.6036 184.987C16.5435 183.799 16.5524 182.545 16.6977 181.357C17.867 170.937 12.1592 155.187 13.9177 138.895C14.214 135.729 14.9895 132.566 16.1744 129.604C16.4674 126.9 18.1357 123.347 18.0152 121.036C16.9526 97.0683 22.8084 101.598 22.547 90.1773C22.2856 78.7562 21.5863 71.1605 26.144 65.6482C29.6663 61.3167 37.6255 58.8648 42.4885 58.5692C43.4521 57.85 44.5516 57.2637 45.6507 56.7434C48.8787 55.3141 52.2426 54.0178 55.6055 52.8535C59.6811 47.7339 58.937 46.4745 59.001 37.432C59.066 28.2575 82.9981 32.5195 82.9705 36.4137C82.9448 40.0439 81.0379 48.2812 85.803 52.1434" fill="url(#paint0_linear_636_3429)"/>
<path d="M123.395 196.239L124.108 201.921" stroke="#F29353" stroke-width="1.14" stroke-linecap="round"/>
<path d="M126.818 196.263L127.044 203.063L126.075 204.575" stroke="#F29353" stroke-width="1.14" stroke-linecap="round"/>
<path d="M130.803 194.311L130.619 200.91L129.298 203.805" stroke="#F29353" stroke-width="1.14" stroke-linecap="round"/>
<path d="M119.651 193.242L118.92 190.201L118.149 192.703" stroke="#F29353" stroke-width="1.14" stroke-linecap="round"/>
<path d="M119.764 177.269L118.993 179.838" stroke="#F29353" stroke-width="1.14" stroke-linecap="round"/>
<path d="M104.619 92.4088C104.331 94.453 105.064 97.1645 106.958 100.412" stroke="#EE8B48" stroke-width="1.14" stroke-linecap="round"/>
<path d="M115.627 123.444C114.245 125.282 113.204 127.321 112.572 129.495" stroke="#F29353" stroke-width="1.14" stroke-linecap="round"/>
<path d="M44.0123 258.977C43.0263 262.864 43.4835 265.97 45.3151 268.359C47.1467 270.749 48.0757 274.914 47.9651 280.853" stroke="#F08944" stroke-width="1.14" stroke-linecap="round"/>
<path d="M58.0494 258.681C59.1125 263.243 58.8153 266.541 57.0902 268.443" stroke="#F08944" stroke-width="1.14" stroke-linecap="round"/>
<path d="M44.2555 99.044C40.7785 96.9731 39.2418 91.6157 38.1469 91.5419C37.052 91.4681 35.523 94.6916 33.3173 96.7882" stroke="#EE8B48" stroke-width="1.14" stroke-linecap="round"/>
<path d="M39.2185 94.9158C39.2617 98.4805 38.4838 101.973 37.0232 105.197" stroke="#EE8B48" stroke-width="1.14" stroke-linecap="round"/>
<path d="M39.9783 93.9972C42.6094 99.4944 47.3219 101.112 55.4687 101.17C63.6154 101.227 69.7829 100.413 70.3061 94.2121" stroke="#EE8B48" stroke-width="1.14" stroke-linecap="round"/>
<path d="M98.3392 99.4272C101.845 97.4058 103.458 92.0707 104.553 92.0124C105.649 91.9542 107.133 95.199 109.308 97.3267" stroke="#EE8B48" stroke-width="1.14" stroke-linecap="round"/>
<path d="M102.688 94.4414C99.9792 99.9008 95.2442 101.451 87.0975 101.394C78.9507 101.336 72.7954 100.434 72.3601 94.2266" stroke="#EE8B48" stroke-width="1.14" stroke-linecap="round"/>
<path d="M83.9641 50.8102C84.2249 52.6602 84.6915 54.4457 85.3634 56.2327" stroke="#F89451" stroke-width="1.14" stroke-linecap="round"/>
<path d="M57.465 51.3485C57.3858 52.8661 57.1012 54.3822 56.6801 55.8314" stroke="#F89451" stroke-width="1.14" stroke-linecap="round"/>
<path d="M92.8354 257.805C92.6705 261.764 93.5394 264.74 95.5112 266.669C97.483 268.597 98.8935 272.435 99.8793 278.251" stroke="#F08944" stroke-width="1.14" stroke-linecap="round"/>
<path d="M106.797 258.564C107.38 263.254 106.741 266.418 104.812 268.187" stroke="#F08944" stroke-width="1.14" stroke-linecap="round"/>
<path fill-rule="evenodd" clip-rule="evenodd" d="M30.8352 360.204C31.632 363.708 34.6959 366.106 39.3441 367.129C43.9924 368.152 52.3469 367.882 54.9601 366.25C57.5732 364.618 62.6809 358.78 55.5585 349.422C57.5846 343.694 60.7641 339.426 55.4035 332.656C52.9723 337.589 45.459 335.093 39.9287 332.942C38.6312 332.471 35.8175 343.078 34.8915 348.154C31.6942 354.93 29.7088 354.916 30.8352 360.204Z" fill="#C6C6C6"/>
<path fill-rule="evenodd" clip-rule="evenodd" d="M42.9503 331.643C45.0814 330.404 47.8189 330.556 49.7935 332.088C50.3384 332.488 51.2171 334.078 52.5891 333.692C54.7156 333.113 54.5252 330.999 55.2834 330.278C56.0416 329.558 58.125 335.051 56.1717 340.186C54.2183 345.321 58.2018 353.204 58.2018 353.204C58.2018 353.204 60.1184 362.92 52.9962 363.2C50.9415 363.317 51.0193 361.998 45.1294 362.286C41.5681 362.459 42.3066 364.51 36.9798 362.624C31.653 360.738 30.3142 356.438 31.3566 354.268C32.4683 351.965 34.5501 348.019 35.7425 344.002C35.9262 337.402 37.1903 332.923 39.3978 330.562C39.4569 331.883 40.4098 332.681 40.889 332.685C42.3946 332.761 42.3998 332.035 42.9503 331.643Z" fill="black"/>
<path fill-rule="evenodd" clip-rule="evenodd" d="M40.302 338.225L48.8384 341.256L41.9639 345.234L49.2676 348.322L41.0487 348.792L49.0186 344.822L41.7838 341.668L49.8911 337.633L40.302 338.225Z" stroke="white" stroke-width="1.07" stroke-linecap="round" stroke-linejoin="round"/>
<path fill-rule="evenodd" clip-rule="evenodd" d="M125.173 360.873C124.463 364.432 121.433 366.853 116.839 367.943C112.244 369.032 103.823 368.972 101.165 367.369C98.5054 365.832 93.2747 360.053 100.256 350.597C98.106 344.905 94.8493 340.724 100.033 333.83C102.6 338.733 110.013 336.079 115.506 333.808C116.81 333.289 119.816 343.871 120.876 348.895C124.251 355.652 126.237 355.6 125.173 360.873Z" fill="#C6C6C6"/>
<path fill-rule="evenodd" clip-rule="evenodd" d="M112.503 332.532C110.32 331.328 107.58 331.573 105.652 333.144C105.101 333.602 104.269 335.114 102.902 334.774C100.783 334.231 101.552 331.992 100.804 331.327C100.056 330.662 97.4144 336.254 99.4322 341.35C101.518 346.448 97.6965 354.407 97.6965 354.407C97.6965 354.407 95.9843 364.164 103.172 364.281C105.226 364.296 105.166 363.041 110.985 363.215C114.544 363.306 113.844 365.413 119.199 363.405C124.553 361.396 125.679 357.048 124.599 354.928C123.452 352.61 121.288 348.7 119.947 344.73C119.583 338.127 118.246 333.629 116.003 331.369C115.925 332.688 115.029 333.54 114.618 333.537C113.111 333.658 113.048 332.932 112.503 332.532Z" fill="black"/>
<path fill-rule="evenodd" clip-rule="evenodd" d="M115.263 339.086L106.82 342.261L113.707 346.138L106.496 349.387L114.777 349.71L106.658 345.824L113.869 342.575L105.681 338.688L115.263 339.086Z" stroke="white" stroke-width="1.07" stroke-linecap="round" stroke-linejoin="round"/>
<g opacity="0.42" filter="url(#filter0_f_636_3429)">
<path fill-rule="evenodd" clip-rule="evenodd" d="M60.0793 39.8818C60.2566 43.8435 61.0745 54.0143 65.3712 56.355C69.6678 58.6957 74.7343 58.6656 77.3517 56.4399C79.9691 54.2142 82.5563 46.5757 82.6786 38.9858C83.3997 33.8424 58.3348 34.8529 60.0793 39.8818Z" fill="#915D2E" fill-opacity="0.7"/>
</g>
<path fill-rule="evenodd" clip-rule="evenodd" d="M57.6736 41.1849C57.9161 45.6091 63.3513 51.5222 65.5979 53.3203C67.8444 55.1184 73.7273 55.8201 76.3461 53.3964C78.9649 50.9727 81.3126 48.1511 81.872 46.5049C82.4314 44.8587 84.1686 41.2406 84.4499 40.1865C86.207 43.4333 92.9514 28.8275 87.0564 29.8418C87.084 25.9476 87.5621 16.446 82.1152 12.183C76.6683 7.91993 69.5536 7.14345 62.0676 10.4568C54.5816 13.7701 53.1619 20.8888 54.806 30.4054C56.1729 30.7451 49.679 29.313 52.1662 35.7993C53.8539 39.1776 53.8323 42.2138 57.6736 41.1849Z" fill="#FFD4AB"/>
<path d="M70.187 53.0227L71.7616 53.0339" stroke="#EA833E" stroke-width="1.14" stroke-linecap="round"/>
<path d="M87.8615 32.1578C85.4537 33.7909 84.2126 35.0362 84.206 35.9603" stroke="#EA833E" stroke-width="1.14" stroke-linecap="round"/>
<path d="M86.0655 34.3893L86.0542 35.9734L84.188 38.4684" stroke="#EA833E" stroke-width="1.14" stroke-linecap="round"/>
<path d="M53.0764 32.9674C54.4428 33.3731 55.5307 34.4369 55.9321 35.7599" stroke="#EA833E" stroke-width="1.14" stroke-linecap="round"/>
<path d="M54.437 34.1652L54.7611 36.7417L56.4618 38.2719" stroke="#EA833E" stroke-width="1.14" stroke-linecap="round"/>
<path opacity="0.75" fill-rule="evenodd" clip-rule="evenodd" d="M96.1589 150.612C86.702 156.597 47.0329 155.572 42.5659 150.536C39.6955 139.542 44.297 132.928 44.7402 123.861C44.9493 119.583 42.0062 115.738 41.0969 109.356C40.275 105.898 39.8726 102.969 39.8896 100.569C44.3517 96.0166 46.6167 88.9424 46.6847 79.3457C46.783 65.4712 44.0702 62.0674 42.458 58.4168C42.0811 57.7523 44.03 56.6588 46.185 55.839C48.6702 54.8935 51.3119 53.5289 51.664 54.0687C51.6552 55.316 56.7162 73.3195 70.6091 73.4179C84.502 73.5163 88.8544 70.4755 92.6986 54.2344C92.5434 53.7663 94.3815 54.1716 97.4572 54.9871C100.533 55.8027 102.881 56.5757 102.265 56.9445C101.307 57.3209 100.925 60.0266 98.5201 77.1802C96.1151 94.3339 101.067 94.4696 103.829 97.6245C103.89 100.205 103.481 103.196 102.602 106.599C98.1036 116.413 96.5265 124.283 97.8705 130.21C99.8866 139.101 100.144 146.974 96.1589 150.612Z" fill="#FFFAF9"/>
<path opacity="0.85" fill-rule="evenodd" clip-rule="evenodd" d="M72.2519 213.573L72.9198 207.306L74.6462 207.293L75.2767 213.594C89.0019 213.739 98.6676 213.04 104.274 211.495C108.704 210.275 111.514 206.981 112.704 201.614C109.768 185.63 107.017 174.099 104.452 167.021C101.947 160.108 97.9779 150.448 96.2664 150.436C70.8035 157.109 47.1828 152.862 42.7962 150.453C41.399 150.351 40.7721 154.968 39.8211 158.98C38.3453 165.206 35.1152 192.323 34.5938 203.236C34.5374 211.184 47.0901 214.63 72.2519 213.573Z" fill="black"/>
<g filter="url(#filter1_d_636_3429)">
<path d="M117.658 66C131.337 67.9706 139.935 70.8227 139.935 73.9954C139.935 79.9421 109.728 84.7629 72.4673 84.7629C35.2061 84.7629 5 79.9421 5 73.9954C5 70.9476 12.9341 68.1956 25.6857 66.2367" stroke="#E95D5C" stroke-width="2" stroke-linecap="round"/>
</g>
<g filter="url(#filter2_d_636_3429)">
<path d="M97.7923 120.278C105.766 122.249 110.778 125.101 110.778 128.274C110.778 134.22 93.1703 139.041 71.4502 139.041C49.7302 139.041 32.1226 134.22 32.1226 128.274C32.1226 125.226 36.7475 122.474 44.1806 120.515" stroke="#E95D5C" stroke-width="2" stroke-linecap="round"/>
</g>
<g filter="url(#filter3_d_636_3429)">
<path d="M106.981 177.237C117.224 179.208 123.661 182.06 123.661 185.232C123.661 191.179 101.044 196 73.1451 196C45.246 196 22.6294 191.179 22.6294 185.232C22.6294 182.185 28.57 179.433 38.1177 177.474" stroke="#E95D5C" stroke-width="2" stroke-linecap="round"/>
</g>
<path d="M86.7056 30.5934C86.93 28.6794 87.451 27.3656 86.3329 23.2088C84.9509 19.7141 81.9024 17.2907 82.1531 13.0713C79.7778 11.3166 74.6541 14.6566 69.5259 15.3363C64.3977 16.0159 54.2798 13.4256 55.0252 21.1619C56.1433 26.9329 54.5272 27.322 55.0252 32L53.1618 31.2967C51.671 29.5385 48.7456 20.7528 50.5927 11.3011C52.4398 1.84946 73.907 -7.44465 83.8738 9.07502C93.7176 6.33502 88.8002 28.474 88.5692 30.5934H86.7056Z" fill="black"/>
<defs>
<filter id="filter0_f_636_3429" x="55.9922" y="31.5859" width="30.7017" height="30.5239" filterUnits="userSpaceOnUse" color-interpolation-filters="sRGB">
<feFlood flood-opacity="0" result="BackgroundImageFix"/>
<feBlend mode="normal" in="SourceGraphic" in2="BackgroundImageFix" result="shape"/>
<feGaussianBlur stdDeviation="2" result="effect1_foregroundBlur_636_3429"/>
</filter>
<filter id="filter1_d_636_3429" x="0" y="64.9999" width="144.935" height="28.7631" filterUnits="userSpaceOnUse" color-interpolation-filters="sRGB">
<feFlood flood-opacity="0" result="BackgroundImageFix"/>
<feColorMatrix in="SourceAlpha" type="matrix" values="0 0 0 0 0 0 0 0 0 0 0 0 0 0 0 0 0 0 127 0" result="hardAlpha"/>
<feOffset dy="4"/>
<feGaussianBlur stdDeviation="2"/>
<feComposite in2="hardAlpha" operator="out"/>
<feColorMatrix type="matrix" values="0 0 0 0 0.913725 0 0 0 0 0.364706 0 0 0 0 0.360784 0 0 0 0.37 0"/>
<feBlend mode="normal" in2="BackgroundImageFix" result="effect1_dropShadow_636_3429"/>
<feBlend mode="normal" in="SourceGraphic" in2="effect1_dropShadow_636_3429" result="shape"/>
</filter>
<filter id="filter2_d_636_3429" x="27.1226" y="119.278" width="88.6553" height="28.7632" filterUnits="userSpaceOnUse" color-interpolation-filters="sRGB">
<feFlood flood-opacity="0" result="BackgroundImageFix"/>
<feColorMatrix in="SourceAlpha" type="matrix" values="0 0 0 0 0 0 0 0 0 0 0 0 0 0 0 0 0 0 127 0" result="hardAlpha"/>
<feOffset dy="4"/>
<feGaussianBlur stdDeviation="2"/>
<feComposite in2="hardAlpha" operator="out"/>
<feColorMatrix type="matrix" values="0 0 0 0 0.913725 0 0 0 0 0.364706 0 0 0 0 0.360784 0 0 0 0.37 0"/>
<feBlend mode="normal" in2="BackgroundImageFix" result="effect1_dropShadow_636_3429"/>
<feBlend mode="normal" in="SourceGraphic" in2="effect1_dropShadow_636_3429" result="shape"/>
</filter>
<filter id="filter3_d_636_3429" x="17.6294" y="176.237" width="111.031" height="28.7632" filterUnits="userSpaceOnUse" color-interpolation-filters="sRGB">
<feFlood flood-opacity="0" result="BackgroundImageFix"/>
<feColorMatrix in="SourceAlpha" type="matrix" values="0 0 0 0 0 0 0 0 0 0 0 0 0 0 0 0 0 0 127 0" result="hardAlpha"/>
<feOffset dy="4"/>
<feGaussianBlur stdDeviation="2"/>
<feComposite in2="hardAlpha" operator="out"/>
<feColorMatrix type="matrix" values="0 0 0 0 0.913725 0 0 0 0 0.364706 0 0 0 0 0.360784 0 0 0 0.37 0"/>
<feBlend mode="normal" in2="BackgroundImageFix" result="effect1_dropShadow_636_3429"/>
<feBlend mode="normal" in="SourceGraphic" in2="effect1_dropShadow_636_3429" result="shape"/>
</filter>
<linearGradient id="paint0_linear_636_3429" x1="73.6649" y1="-14.8509" x2="87.2422" y2="425.187" gradientUnits="userSpaceOnUse">
<stop stop-color="#FFD6A7"/>
<stop offset="0.49" stop-color="#FFCFB0"/>
<stop offset="1" stop-color="#FFB783"/>
</linearGradient>
</defs>
</svg>
