<svg width="86" height="100" viewBox="0 0 86 100" fill="none" xmlns="http://www.w3.org/2000/svg">
<path d="M41.947 34.369C41.947 34.369 41.607 38.301 41.096 42.06C40.585 45.82 40.075 48.21 41.947 56.584C43.819 64.958 45.515 69.74 53.001 80.508C60.487 91.276 68.516 96.596 72.567 95.039C78.348 92.817 76.821 87.178 74.269 77.094C71.942 68.14 67.897 59.723 62.36 52.311C58.64 47.479 54.018 43.416 48.749 40.348C46.231 38.659 43.944 36.649 41.947 34.369Z" fill="#FFD1AD"/>
<path d="M72.573 95.04C69.832 96.093 65.269 93.989 60.287 89.191C62.04 89.877 63.574 90.027 64.759 89.571C70.54 87.349 69.013 81.71 66.461 71.626C64.133 62.67 60.087 54.254 54.548 46.843C52.539 44.175 50.225 41.752 47.651 39.623C48.013 39.879 48.379 40.126 48.745 40.347C54.015 43.416 58.64 47.479 62.361 52.312C67.898 59.723 71.943 68.14 74.271 77.094C76.823 87.182 78.354 92.818 72.573 95.04ZM41.85 35.441C41.914 34.773 41.948 34.37 41.948 34.37C43.094 35.661 44.32 36.878 45.62 38.016C44.4 37.105 43.142 36.246 41.85 35.441Z" fill="#F08B4E"/>
<path d="M47.218 47.657C44.934 47.693 46.686 53.432 47.747 57.063C48.608 59.6 49.901 61.969 51.569 64.065C51.569 64.065 51.065 60.189 50.72 55.761C50.376 51.335 50.799 50.952 50.03 49.293C49.464 48.073 49.501 47.621 47.218 47.657Z" fill="white"/>
<path d="M63.693 53.083C63.509 52.83 63.325 52.557 63.141 52.311C59.422 47.479 54.798 43.416 49.53 40.348C47.012 38.659 44.725 36.649 42.728 34.369C42.728 34.369 42.388 38.301 41.878 42.061C41.366 45.82 40.856 48.21 42.728 56.584C44.348 63.834 45.844 68.397 51.072 76.477C50.089 78.173 48.943 79.77 47.65 81.244C43.223 85.672 24.994 93.744 24.994 93.744C20.195 94.671 15.245 93.215 11.713 89.838C5.723 84.109 4.681 81.244 3.119 71.088C1.556 60.932 1.29599 39.057 13.275 21.869C25.254 4.68198 34.89 2.59798 41.4 2.33798C47.91 2.07798 49.213 0.774985 50.775 2.33798C52.338 3.89998 53.119 7.80698 53.119 7.80698C53.119 7.80698 62.494 13.535 64.838 23.432C67.181 33.328 64.838 50.775 64.838 50.775C64.838 50.775 64.411 51.646 63.693 53.083Z" fill="#F2A175"/>
<path d="M63.379 51.862C63.3 51.755 63.222 51.636 63.144 51.53C61.54 49.392 59.735 47.414 57.754 45.621C58.105 44.229 58.383 42.82 58.588 41.4C59.944 31.139 58.873 20.704 55.463 10.931C60.674 14.345 64.325 19.681 65.619 25.775C67.703 35.931 64.838 47.65 64.838 47.65C64.838 47.65 64.321 49.279 63.379 51.862ZM46.653 67.948C48.079 70.864 49.704 73.678 51.516 76.372C48.687 80.558 45.535 84.084 42.182 85.931C29.422 92.963 21.609 94.785 14.838 91.4C8.06701 88.015 6.24401 82.806 6.24401 82.806L5.46301 80.463C5.46301 80.463 20.307 87.494 31.244 82.025C36.2 79.547 41.791 74.391 46.653 67.948Z" fill="#D86238"/>
<path d="M5.463 78.901C5.463 78.901 11.192 80.985 12.494 76.557C13.796 72.13 15.359 61.192 23.432 56.245C31.505 51.297 40.619 46.87 40.619 46.87C40.025 43.773 40.025 40.591 40.619 37.495C41.661 33.067 42.182 32.807 42.182 32.807C42.182 32.807 46.348 36.192 46.869 32.807C47.39 29.422 44.005 23.432 44.526 20.307C45.046 17.182 47.651 9.37 47.651 9.37C47.651 9.37 36.973 9.89099 28.119 16.401C19.265 22.911 7.807 41.401 4.682 58.589C1.557 75.776 5.463 78.901 5.463 78.901Z" fill="#FDCAA1"/>
<path d="M78.653 92.524C76.772 95.513 69.716 98.345 62.19 93.31C58.283 90.699 54.047 85.962 50.299 80.565C47.368 85.176 43.25 88.913 38.377 91.384C29.648 95.776 28.402 96.088 22.79 96.088C14.997 96.088 8.45002 90.287 6.42402 87.464C4.39802 84.641 4.86202 84.171 4.08602 81.976C4.04002 81.85 4.00902 81.718 3.99401 81.585C2.79902 79.674 0.734015 75.172 0.189015 66.293C-0.592985 53.591 0.970015 41.517 6.42302 29.443C11.876 17.369 20.919 5.92402 31.363 2.78802C41.807 -0.348978 49.911 -0.347978 51.626 0.436022C51.743 0.490022 51.852 0.561022 51.947 0.648022C52.524 0.917022 52.969 1.40502 53.187 2.00302C53.65 3.53102 53.912 5.11202 53.968 6.70802C53.968 6.70802 65.502 13.293 67.996 26.308C69.904 36.266 67.527 46.126 66.301 50.214C70.912 56.669 74.546 63.769 77.085 71.284C79.751 79.308 80.534 89.535 78.653 92.524ZM7.80702 81.985C9.44202 84.747 11.625 87.145 14.221 89.032C18.118 91.698 22.638 91.855 28.249 90.6C33.86 89.345 41.186 85.112 44.615 81.192C47.277 78.149 47.683 77.001 47.733 76.635C45.425 72.932 43.444 69.036 41.811 64.99C39.92 60.317 38.786 55.373 38.451 50.342C34.807 51.796 31.375 53.734 28.247 56.102C21.699 60.963 17.182 65.981 16.557 69.431C15.932 72.881 17.026 76.801 14.218 79.624C12.482 81.371 9.61302 81.555 7.67702 81.442C7.72202 81.635 7.76802 81.833 7.80702 81.985ZM6.61202 77.039C8.21002 77.41 10.426 77.543 11.1 75.704C12.194 72.724 9.85002 69.903 16.555 60.807C23.261 51.711 31.987 48.576 35.259 46.694C36.252 46.095 37.318 45.629 38.432 45.307C38.489 44.165 38.579 43.12 38.671 42.182C39.14 37.305 39.765 31.167 41.023 30.385C41.864 29.857 43.274 30.751 44.868 32.104C44.996 30.667 45.044 28.84 44.612 27.885C43.83 26.161 42.429 25.533 43.049 16.909C43.19 15.041 43.535 13.194 44.08 11.401C42.283 11.657 39.216 12.559 34.48 15.331C25.907 20.35 19.673 27.407 12.658 41.99C6.88602 53.992 6.39302 70.656 6.40102 76.183C6.47002 76.469 6.54402 76.766 6.61202 77.039ZM39.936 5.14002C32.298 6.86502 22.322 11.098 18.114 17.684C13.905 24.27 10.009 29.135 7.20302 40.422C6.32402 43.959 5.58301 47.512 5.03602 50.942C6.10401 47.376 7.34701 43.865 8.76101 40.422C16.088 22.545 26.998 14.706 34.48 10.628C39.676 7.79702 43.666 7.38602 45.619 7.39902C46.169 6.26002 46.801 5.16402 47.513 4.11802C44.961 4.21602 42.423 4.55802 39.936 5.14002ZM63.316 25.525C59.731 13.451 53.119 10.932 53.119 10.932C53.119 10.932 51.044 9.23702 50.776 7.80702C49.413 9.59502 48.381 11.613 47.729 13.764C45.161 22.343 49.093 28.667 49.291 31.01C49.298 32.514 49.151 34.014 48.853 35.488C52.01 37.584 57.625 40.266 62.843 45.965C65.214 39.383 65.38 32.209 63.316 25.525ZM72.925 74.73C70.805 66.557 67.121 58.874 62.075 52.104C58.691 47.693 54.482 43.982 49.682 41.176C47.388 39.634 45.305 37.799 43.488 35.717C43.488 35.717 43.175 39.307 42.712 42.74C42.25 46.172 41.782 48.355 43.488 56.001C45.192 63.649 46.738 68.015 53.556 77.847C60.375 87.679 67.687 92.535 71.377 91.116C76.643 89.086 75.248 83.937 72.923 74.729L72.925 74.73Z" fill="#440911"/>
</svg>
