<svg width="98" height="100" viewBox="0 0 98 100" fill="none" xmlns="http://www.w3.org/2000/svg">
<g clip-path="url(#clip0_2_151)">
<path d="M12.827 85.73C12.827 90.596 20.921 95.093 34.06 97.527C47.2 99.96 63.39 99.96 76.529 97.527C89.669 95.093 97.763 90.596 97.763 85.73C97.763 78.207 78.749 72.108 55.295 72.108C31.841 72.108 12.827 78.207 12.827 85.73Z" fill="#E8DAC4"/>
<path d="M56.634 24.752C79.423 21.996 89.887 31.368 93.322 39.24L93.338 39.234C93.384 39.352 93.426 39.475 93.47 39.597C93.514 39.718 93.572 39.837 93.617 39.955L93.602 39.962C96.333 48.017 94.827 61.797 75.991 74.743C56.575 88.087 39.821 88.227 26.111 87.003C12.401 85.779 5.09699 80.487 3.84099 77.241C3.37099 76.022 1.04699 75.619 1.07799 74.553C0.331988 73.772 1.78299 71.93 1.30799 70.699C0.0399883 67.424 1.87399 58.6 11.236 48.584C20.597 38.567 33.151 27.591 56.634 24.752Z" fill="#F2A175"/>
<path d="M75.992 74.742C56.576 88.086 39.821 88.225 26.111 87.002C12.401 85.778 5.09698 80.487 3.84198 77.241C3.38398 76.059 1.20698 75.638 1.09998 74.643C5.73298 76.632 10.667 77.831 15.695 78.19C29.405 79.411 46.16 79.271 65.576 65.931C84.413 52.985 85.918 39.205 83.186 31.15L83.203 31.143C83.156 31.025 83.103 30.903 83.054 30.784C83.006 30.666 82.969 30.544 82.923 30.423L82.907 30.428C82.475 29.448 81.967 28.505 81.385 27.606C87.795 30.594 91.523 35.122 93.323 39.242L93.34 39.236C93.386 39.354 93.427 39.476 93.471 39.598C93.515 39.721 93.573 39.839 93.619 39.958L93.603 39.964C96.334 48.016 94.828 61.796 75.992 74.742Z" fill="#D86238"/>
<path d="M92.099 55.655C95.2111 78.311 85.9441 88.878 78.0771 92.415L78.0821 92.431C77.9641 92.478 77.841 92.521 77.7201 92.567C77.598 92.613 77.479 92.673 77.361 92.72L77.354 92.704C69.293 95.548 55.412 94.257 42.112 75.691C28.404 56.555 28.012 39.87 29.034 26.194C30.055 12.517 35.274 5.16898 38.5201 3.86798C39.739 3.37898 40.109 1.06298 41.182 1.07598C41.957 0.319979 43.8311 1.73898 45.0611 1.24598C48.3351 -0.0670214 57.241 1.62698 67.448 10.799C77.654 19.971 88.891 32.309 92.099 55.655Z" fill="#FDCAA1"/>
<path d="M45.679 42.46C50.487 54.88 54.894 60.89 60.102 60.89C65.31 60.89 67.714 54.079 72.922 54.48C77.7439 54.851 90.114 54.534 91.922 54.485C91.982 54.875 92.044 55.26 92.099 55.655C95.211 78.312 85.944 88.878 78.076 92.415L78.082 92.432C77.964 92.479 77.841 92.522 77.72 92.567C77.598 92.613 77.479 92.673 77.361 92.721L77.354 92.704C69.2929 95.548 55.412 94.257 42.112 75.691C28.404 56.556 28.012 39.87 29.033 26.194C30.055 12.518 35.274 5.16898 38.52 3.86798C39.652 3.41398 40.058 1.40698 40.969 1.13098C41.228 12.083 42.18 33.42 45.679 42.46Z" fill="#F2A175"/>
<path d="M78.079 92.415L78.085 92.432C77.967 92.478 77.845 92.521 77.723 92.567C77.6 92.613 77.482 92.673 77.364 92.721L77.356 92.704C69.297 95.548 55.416 94.257 42.114 75.691C28.404 56.556 28.013 39.87 29.034 26.194C30.056 12.518 35.27 5.175 38.516 3.87C37.065 12.195 34.489 32.204 40.07 46.467C47.282 64.896 57.088 78.82 68.115 81.723C83.34 85.729 90.552 71.307 90.552 71.307C90.552 71.307 91.122 71.525 92.106 71.934C90.137 83.669 83.745 89.867 78.079 92.415Z" fill="#D86238"/>
<path d="M49.285 11.225C46.99 11.35 48.484 17.222 49.38 20.939C50.108 23.499 51.298 25.905 52.89 28.037C52.89 28.037 52.565 24.046 52.426 19.477C52.285 14.909 52.729 14.496 52.033 12.809C51.52 11.569 51.578 11.1 49.285 11.225Z" fill="white"/>
<path d="M93.306 57.642C95.921 79.851 86.685 90.303 78.809 93.849L78.815 93.865L78.708 93.905L78.44 94.006C78.318 94.058 78.194 94.114 78.072 94.166L78.065 94.151C71.541 96.453 61.319 96.138 50.614 86.673C41.554 88.544 33.287 88.287 25.893 87.615C11.824 86.333 4.321 80.868 3.026 77.524C2.54 76.267 0.158 75.849 0.187 74.75C0.096 74.654 0.033 74.536 0 74.408L0.099 74.371C-0.118 73.455 0.949 71.888 0.526 70.794C-0.771 67.444 1.112 58.41 10.703 48.165C15.791 42.51 21.631 37.577 28.059 33.506C28.095 30.911 28.235 28.402 28.42 25.988C29.493 11.956 34.881 4.4 38.227 3.061C39.484 2.557 39.868 0.176 40.974 0.191C41.07 0.1 41.187 0.034 41.315 0L41.352 0.097C42.27 -0.132 43.862 0.906 44.958 0.468C48.307 -0.875 57.421 0.863999 67.868 10.263C73.394 15.044 78.275 20.523 82.388 26.562C89.052 29.613 92.919 34.284 94.774 38.534L94.791 38.528C94.805 38.563 94.817 38.6 94.83 38.635L94.926 38.902C94.977 39.026 95.032 39.15 95.079 39.272L95.063 39.277C96.64 43.942 96.847 50.464 93.306 57.642ZM28.114 38.104C22.891 41.686 18.101 45.86 13.838 50.543C4.852 60.099 3.604 66.803 3.707 70.144C3.841 74.414 3.813 70.68 5.835 75.901C7.038 79.014 13.47 82.608 26.623 83.776C33.476 84.515 40.396 84.377 47.215 83.367C45.268 81.284 43.46 79.075 41.804 76.755C31.547 62.47 28.564 49.512 28.114 38.104ZM40.31 25.539C39.655 18.866 39.687 12.145 40.406 5.478C40.261 5.629 40.088 5.75 39.897 5.834C36.785 7.081 33.267 13.541 32.29 26.656C31.312 39.772 31.608 55.842 44.841 74.138C56.967 90.907 68.607 92.818 77.154 91.06L77.16 91.074L77.186 91.065L77.346 90.996V90.987C84.758 86.351 91.885 76.924 89.131 56.419C89.115 56.304 89.092 56.199 89.078 56.084C87.788 56.339 86.358 55.931 85.203 55.902C83.68 55.865 84.2 57.168 81.786 58.136C79.372 59.104 74.762 55.122 71.529 56.202C68.296 57.282 65.548 66.587 55.925 62.457C46.301 58.327 41.576 38.417 40.31 25.539ZM65.52 13.422C55.775 4.616 48.773 2.379 45.656 3.628C45.014 3.777 44.342 3.723 43.733 3.472C43.718 5.182 43.653 8.36 43.43 13.927C43.035 23.728 44.397 32.535 47.447 43.403C50.497 54.272 57.853 59.381 61.569 59.331C65.284 59.28 67.017 52.829 70.485 51.439C73.953 50.048 78.313 53.77 79.998 53.67C81.681 53.57 82.028 51.562 84.158 51.139C86.166 50.738 86.286 52.237 88.385 51.936C84.615 32.435 74.591 21.618 65.52 13.422Z" fill="#440911"/>
</g>
<defs>
<clipPath id="clip0_2_151">
<rect width="97.763" height="99.351" fill="white"/>
</clipPath>
</defs>
</svg>
