<svg width="97" height="90" viewBox="0 0 97 90" fill="none" xmlns="http://www.w3.org/2000/svg">
<g clip-path="url(#clip0_3_205)">
<path d="M72.8245 24.3562C64.1612 18.281 59.6616 11.3057 57.5242 7.14452C56.7364 5.56891 52.6863 6.86298 50.2118 7.87551C48.9177 8.38177 47.4557 8.38177 46.1617 7.87551C43.6304 6.86298 39.6371 5.56891 38.8493 7.14452C36.7674 11.3625 32.2678 18.3379 23.549 24.3562C4.59251 37.5759 -11.2708 83.6446 48.1867 83.6446C107.643 83.6446 91.7809 37.5759 72.8245 24.3562Z" fill="#FCFBE2"/>
<path d="M6.95465 60.4133C6.95465 60.4133 7.6301 85.2202 48.1854 85.2202C88.7421 85.2202 89.4175 60.4133 89.4175 60.4133C89.4175 60.4133 78.7305 78.3572 48.1854 78.3572C17.643 78.3572 6.95465 60.4133 6.95465 60.4133Z" fill="#EDE6AB"/>
<path d="M23.6045 38.7563C23.3798 38.7563 23.1551 38.6994 22.9291 38.6439C21.9166 38.25 21.4671 37.1819 21.8042 36.1681C25.4604 26.5491 37.3292 20.474 37.8355 20.2492C38.7924 19.7998 39.9173 20.1369 40.3668 21.0926C40.8175 22.0483 40.4791 23.1732 39.5234 23.6794C39.4111 23.7363 28.498 29.2483 25.4049 37.5177C25.1233 38.3068 24.3923 38.7563 23.6045 38.7563ZM37.4984 40.8382C37.2737 40.8382 37.1045 40.7813 36.8798 40.7258C35.8672 40.3887 35.361 39.3194 35.6425 38.3068C38.1738 30.7129 41.493 26.832 41.6053 26.6628C42.2808 25.875 43.518 25.7626 44.3058 26.4936C45.0936 27.169 45.206 28.4063 44.475 29.1941C44.4182 29.2509 41.493 32.7379 39.2432 39.5441C39.0172 40.3319 38.2862 40.8382 37.4984 40.8382ZM72.5985 39.7688C71.7551 39.7688 71.0229 39.207 70.7426 38.3624C67.8742 28.1816 58.5367 23.6807 58.4231 23.6239C57.4674 23.1745 57.0735 22.0496 57.5229 21.0926C57.9724 20.1356 59.0985 19.743 60.0542 20.1924C60.5037 20.4171 71.0229 25.4242 74.3988 37.3485C74.6804 38.3611 74.1173 39.4304 73.1047 39.7107C72.9368 39.7688 72.7677 39.7688 72.5985 39.7688ZM59.8308 40.8382C58.9875 40.8382 58.2552 40.2751 57.9736 39.4885C55.9486 32.57 52.7987 28.9138 52.7431 28.857C52.0677 28.0692 52.1245 26.8888 52.911 26.1565C53.6988 25.4811 54.8792 25.5379 55.6115 26.3244C55.7807 26.4936 59.3801 30.6561 61.6299 38.4192C61.9114 39.4317 61.3483 40.4998 60.3371 40.7813C60.1679 40.7813 59.9987 40.8382 59.8308 40.8382Z" fill="#4C2F1B"/>
<path d="M55.8363 6.35671C56.6796 6.35671 57.2983 6.58143 57.5798 7.08769C59.6617 11.3057 64.1612 18.2823 72.8801 24.3007C91.8366 37.5203 107.755 83.5891 48.2423 83.5891C-11.2708 83.5891 4.59259 37.5759 23.5491 24.3575C32.2111 18.2823 36.7106 11.307 38.8493 7.14581C39.1309 6.63955 39.7495 6.41483 40.5928 6.41483C42.224 6.41483 44.5306 7.20263 46.2186 7.87679C46.894 8.15834 47.5682 8.2707 48.2436 8.2707C48.9191 8.2707 49.5932 8.15834 50.2687 7.87679C51.843 7.14452 54.2051 6.35671 55.8363 6.35671ZM55.8363 0C53.7544 0 51.2799 0.563089 48.1855 1.80034C45.0924 0.563089 42.6179 0 40.536 0C35.7549 0 33.7854 2.98076 33.11 4.27483C31.4788 7.4816 27.6534 13.7247 19.8916 19.1257C6.73001 28.3508 -3.90153 49.3878 1.38582 66.1501C4.81731 77.0063 15.7291 90 48.1855 90C80.6419 90 91.555 77.0063 94.9865 66.1501C100.218 49.4434 89.6423 28.3495 76.4808 19.1244C68.7176 13.7234 64.8935 7.48031 63.2611 4.27354C62.5869 2.98076 60.5619 0 55.8363 0Z" fill="#4C2F1B"/>
</g>
<defs>
<clipPath id="clip0_3_205">
<rect width="96.3528" height="90" fill="white"/>
</clipPath>
</defs>
</svg>
