<svg width="92" height="100" viewBox="0 0 92 100" fill="none" xmlns="http://www.w3.org/2000/svg">
<g clip-path="url(#clip0_5_759)">
<path d="M76.5757 84.6029H58.8149C50.3176 84.6029 43.3905 77.6462 43.3905 69.0821V61.8915C43.3905 53.3397 50.3041 46.3707 58.8149 46.3707H76.5757C85.0743 46.3707 92 53.3274 92 61.8915V69.0821C92 77.6462 85.0743 84.6029 76.5757 84.6029ZM58.8149 54.8803C54.977 54.8803 51.8473 58.0283 51.8473 61.8915V69.0821C51.8473 72.9453 54.9757 76.0933 58.8149 76.0933H76.5757C80.4149 76.0933 83.5432 72.9453 83.5432 69.0821V61.8915C83.5432 58.0283 80.4149 54.8803 76.5757 54.8803H58.8149Z" fill="#4C2F1B"/>
<path d="M63.0649 96.4536H19.3865C14.7419 96.4536 10.9297 92.6312 10.9297 87.944V28.8428C10.9297 24.1692 14.727 20.3332 19.3865 20.3332H63.0649C67.7095 20.3332 71.5216 24.1542 71.5216 28.8428V87.944C71.5216 92.6312 67.723 96.4536 63.0649 96.4536Z" fill="#F4BE67"/>
<path d="M63.0649 100H19.3865C12.7878 100 7.40405 94.5975 7.40405 87.944V28.8428C7.40405 22.2029 12.773 16.7868 19.3865 16.7868H63.0649C69.6635 16.7868 75.046 22.1893 75.046 28.8428V87.944C75.046 94.5975 69.677 100 63.0649 100ZM19.3865 23.8795C16.6676 23.8795 14.4541 26.1069 14.4541 28.8428V87.944C14.4541 90.6799 16.6676 92.9072 19.3865 92.9072H63.0649C65.7838 92.9072 67.9973 90.6799 67.9973 87.944V28.8428C67.9973 26.1069 65.7838 23.8795 63.0649 23.8795H19.3865Z" fill="#4C2F1B"/>
<path d="M27.6932 76.5869H21.9689C21.8054 76.5869 21.6676 76.4496 21.6676 76.2701V48.3084C21.6676 48.1439 21.8041 47.9916 21.9689 47.9916H27.6932C27.8568 47.9916 28.0081 48.1289 28.0081 48.3084V76.285C28.0068 76.4495 27.8703 76.5869 27.6932 76.5869ZM44.4838 76.5869H38.7595C38.5959 76.5869 38.4446 76.4496 38.4446 76.2701V48.3084C38.4446 48.1439 38.5811 47.9916 38.7595 47.9916H44.4838C44.6473 47.9916 44.7986 48.1289 44.7986 48.3084V76.285C44.7986 76.4495 44.6608 76.5869 44.4838 76.5869ZM61.2743 76.5869H55.55C55.3865 76.5869 55.2351 76.4496 55.2351 76.2701V48.3084C55.2351 48.1439 55.3716 47.9916 55.55 47.9916H61.2743C61.4378 47.9916 61.5892 48.1289 61.5892 48.3084V76.285C61.5892 76.4495 61.4527 76.5869 61.2743 76.5869Z" fill="#EAA35E"/>
<path d="M85.4838 29.2956C85.4838 22.5456 80.0459 17.0737 73.3392 17.0737C69.8554 17.0737 66.7676 18.2703 64.5541 20.6337C63.7203 19.7416 60.9189 8.70275 49.0608 11.4931C48.104 11.7134 47.1216 11.6304 46.2054 11.8507C42.8716 6.44819 36.9284 2.83247 30.1392 2.83247C20.3297 2.83247 12.2689 10.3386 11.3122 19.9619C10.5757 19.6451 9.76892 19.467 8.92162 19.467C5.56081 19.467 2.81487 22.2301 2.81487 25.6119V52.4191C2.81487 55.8009 5.56081 58.564 8.92162 58.564C12.2838 58.564 15.0284 55.8009 15.0284 52.4191V41.5175H15.0554C15.2324 44.7471 17.8973 47.3606 21.1622 47.3606C24.427 47.3606 27.077 44.762 27.2689 41.5175H39.5095C40.2743 44.3079 42.7878 46.3707 45.8081 46.3707C48.7459 46.3707 51.2189 44.4044 52.0378 41.7106C53.8824 45.2162 57.5297 47.6231 61.7243 47.6231C65.9865 47.6231 69.7027 45.121 71.5054 41.5189H73.7324V41.5053C80.2513 41.2837 85.4838 35.9083 85.4838 29.2956Z" fill="white"/>
<path d="M8.92162 61.3965C4.0027 61.3965 0 57.3688 0 52.4191V25.6119C0 20.6622 4.0027 16.6345 8.92162 16.6345H9.01757C11.3527 6.95676 19.9473 0 30.1243 0C37.0649 0 43.4595 3.27169 47.5581 8.84009C47.8851 8.81289 48.1865 8.79793 48.4054 8.74354C55.8378 6.99755 61.5622 9.54175 65.4689 16.319C67.7378 14.9714 70.4284 14.2575 73.3392 14.2575C81.5919 14.2575 88.2986 21.0076 88.2986 29.3106C88.2986 37.3525 82.123 43.8836 74.1851 44.3228C74.0351 44.35 73.8851 44.3636 73.7351 44.3636H73.1203C70.5797 48.1711 66.3568 50.4678 61.7257 50.4678C58.1324 50.4678 54.7581 49.0658 52.2446 46.6318C50.55 48.254 48.2824 49.2168 45.8095 49.2168C42.3811 49.2168 39.2662 47.3062 37.6392 44.3636H29.5243C28.2405 47.7862 24.9743 50.2067 21.1635 50.2067C19.9878 50.2067 18.8676 49.9728 17.8432 49.5608V52.4341C17.8432 57.3688 13.8392 61.3965 8.92162 61.3965ZM8.92162 22.2994C7.10541 22.2994 5.64324 23.783 5.64324 25.5983V52.4055C5.64324 54.2344 7.11892 55.7044 8.92162 55.7044C10.7392 55.7044 12.2014 54.2195 12.2014 52.4055V41.5039C12.2014 39.9361 13.4581 38.6715 15.0162 38.6715C16.5054 38.6715 17.7757 39.8545 17.8568 41.353C17.9527 43.1262 19.4014 44.5146 21.15 44.5146C22.8986 44.5146 24.3338 43.1262 24.4432 41.353C24.5257 39.8545 25.7554 38.6715 27.2581 38.6715H39.4986C40.7689 38.6715 41.8757 39.5241 42.2176 40.7615C42.6689 42.3973 44.1297 43.5382 45.7973 43.5382C47.423 43.5382 48.8446 42.4667 49.3351 40.8852C49.677 39.7852 50.6338 39.0019 51.7676 38.9054C52.9013 38.7966 53.9946 39.3867 54.5135 40.4039C55.9351 43.1112 58.6946 44.8028 61.7 44.8028C64.7743 44.8028 67.5608 43.0568 68.9676 40.2516C69.4459 39.2902 70.4162 38.6851 71.4811 38.6851H73.3797C73.4622 38.6715 73.5432 38.6715 73.6257 38.6715C78.6797 38.5069 82.6568 34.3963 82.6568 29.3092C82.6568 24.1406 78.4757 19.9334 73.3392 19.9334C70.5649 19.9334 68.2297 20.854 66.604 22.5999C66.0716 23.1765 65.3054 23.5355 64.5419 23.4933C63.7622 23.4933 63.0122 23.1643 62.4932 22.5863C62.0689 22.1322 61.8365 21.6236 61.4689 20.854C59.4324 16.4822 56.6054 12.6475 49.7054 14.2684C49.0095 14.433 48.3662 14.4751 47.8068 14.5159C47.4378 14.5431 47.0959 14.5717 46.8635 14.6261C45.6892 14.9143 44.4459 14.4058 43.8041 13.3614C40.8392 8.55045 35.7297 5.69078 30.1284 5.69078C21.823 5.69078 14.9365 11.9595 14.1027 20.2638C14.0068 21.1572 13.5014 21.9676 12.7365 22.4218C11.9581 22.876 11.0149 22.944 10.1959 22.5863C9.79595 22.3946 9.35811 22.2994 8.92162 22.2994Z" fill="#4C2F1B"/>
<path d="M22.1878 82.8978C22.1878 83.6443 22.5838 84.3337 23.2257 84.7077C23.8676 85.0802 24.6595 85.0802 25.3027 84.7077C25.9446 84.3351 26.3405 83.6456 26.3405 82.8978C26.3405 82.1512 25.9446 81.4618 25.3027 81.0879C24.6608 80.7153 23.8689 80.7153 23.2257 81.0879C22.5824 81.4618 22.1878 82.1512 22.1878 82.8978Z" fill="#F7D5A4"/>
<path d="M54.1027 80.5888C54.1027 81.3353 54.4986 82.0247 55.1405 82.3987C55.7824 82.7713 56.5743 82.7713 57.2176 82.3987C57.8594 82.0261 58.2567 81.3353 58.2567 80.5888C58.2567 79.8423 57.8608 79.1528 57.2176 78.7789C56.5757 78.4063 55.7838 78.4063 55.1405 78.7789C54.4973 79.1515 54.1027 79.8423 54.1027 80.5888Z" fill="#F7D5A4"/>
<path d="M39.5527 82.8978C39.5527 83.6443 39.9487 84.3337 40.5905 84.7077C41.2324 85.0802 42.0243 85.0802 42.6676 84.7077C43.3095 84.3351 43.7068 83.6456 43.7068 82.8978C43.7068 82.1512 43.3108 81.4618 42.6676 81.0879C42.0257 80.7153 41.2338 80.7153 40.5905 81.0879C39.9473 81.4618 39.5527 82.1512 39.5527 82.8978Z" fill="#F7D5A4"/>
<path d="M47.1068 64.1188C47.1068 64.8654 47.5027 65.5548 48.1459 65.9287C48.7878 66.3013 49.5797 66.3013 50.2216 65.9287C50.8649 65.5562 51.2608 64.8654 51.2608 64.1188C51.2608 63.3723 50.8649 62.6829 50.2216 62.3089C49.5797 61.9363 48.7878 61.9363 48.1459 62.3089C47.5027 62.6829 47.1068 63.3723 47.1068 64.1188Z" fill="#F7D5A4"/>
<path d="M28.9459 66.8208C29.1635 67.2328 29.5824 67.498 30.0459 67.5129C30.5095 67.5292 30.9459 67.2967 31.1919 66.901C31.4378 66.5053 31.4554 66.0076 31.2378 65.5956C31.0216 65.1836 30.6013 64.9198 30.1378 64.9035C29.6743 64.8871 29.2378 65.1197 28.9919 65.5154C28.7459 65.9097 28.7297 66.4088 28.9459 66.8208Z" fill="#F7D5A4"/>
<path d="M34.0554 54.9171C34.2081 55.208 34.5054 55.3943 34.8324 55.4052C35.1581 55.4175 35.4676 55.2516 35.6405 54.9742C35.8135 54.6954 35.8257 54.3432 35.673 54.0536C35.5203 53.7626 35.2243 53.5763 34.8973 53.5654C34.5703 53.5545 34.2622 53.7191 34.0892 53.9978C33.9149 54.2752 33.9027 54.6261 34.0554 54.9171Z" fill="#F7D5A4"/>
<path d="M47.673 55.8608C47.9595 56.4033 48.6297 56.6114 49.1689 56.3231C49.7095 56.0348 49.9135 55.3603 49.6284 54.8178C49.3419 54.2752 48.6716 54.0685 48.1324 54.3554C47.5919 54.6451 47.3865 55.3182 47.673 55.8608Z" fill="#F7D5A4"/>
<path d="M63.85 59.0889C64.0351 59.4411 64.3932 59.6655 64.7878 59.6804C65.1824 59.694 65.5554 59.4955 65.7662 59.1583C65.9757 58.821 65.9905 58.3968 65.8054 58.0446C65.6203 57.6924 65.2635 57.468 64.8676 57.4531C64.473 57.4395 64.1 57.638 63.8905 57.9752C63.6797 58.3125 63.6649 58.7367 63.85 59.0889Z" fill="#F7D5A4"/>
<path d="M17.7811 66.0171C18.0676 66.5597 18.7365 66.7664 19.277 66.4795C19.8162 66.1912 20.0216 65.5167 19.7351 64.9742C19.4487 64.4302 18.7784 64.2249 18.2392 64.5118C17.7 64.8001 17.4946 65.4746 17.7811 66.0171Z" fill="#F7D5A4"/>
</g>
<defs>
<clipPath id="clip0_5_759">
<rect width="92" height="100" fill="white"/>
</clipPath>
</defs>
</svg>
