<svg width="87" height="100" viewBox="0 0 87 100" fill="none" xmlns="http://www.w3.org/2000/svg">
<g clip-path="url(#clip0_3_214)">
<path d="M3.09473 41.0195V80.6576C3.09473 89.7044 21.0091 97.0251 43.0295 97.0251C65.1106 97.0251 82.9644 89.7044 82.9644 80.6576V41.0195H3.09473Z" fill="#FFE7B8"/>
<path d="M4.4041 75.0628C4.4041 75.0628 13.7488 66.3733 20.7111 75.0628C27.6746 83.7523 32.7933 84.1096 40.7682 80.7169C48.6848 77.3242 52.8503 70.9555 60.4679 76.5503C68.9188 82.7397 73.2647 83.6324 80.5249 75.4783V69.8242L70.9427 73.6336L58.0878 69.8242L45.2328 71.7877L33.8059 76.7272L15.4749 65.9543L3.75 69.8254L4.4041 75.0628Z" fill="#F9CC91"/>
<path d="M43.0307 100C22.1997 100 0.0605164 93.2752 0.0605164 80.9544V42.031C0.0605164 40.3643 1.36987 38.9956 3.0959 38.9956H83.0261C84.6927 38.9956 86.0614 40.305 86.0614 42.031V80.895C86.0009 93.2752 63.8606 100 43.0307 100ZM6.07076 45.0664V80.9544C6.07076 87.0845 21.9029 93.9886 43.0307 93.9886C64.1585 93.9886 79.9907 87.0845 79.9907 80.9544V45.0664H6.07076Z" fill="#4C2F1B"/>
<path d="M3.09473 70.3015C3.09473 70.3015 13.0936 61.9099 20.3538 67.3848C27.6152 72.8608 28.8047 79.4064 37.5547 76.371C46.3035 73.3357 52.017 62.5629 67.0158 73.7523C74.7521 79.5252 82.9655 65.1222 82.9655 60.4795V43.8163H3.09473V70.3015Z" fill="#FF6464"/>
<path d="M3.75 58.9339C3.75 60.1827 4.57519 61.1953 5.59474 61.1953C6.61313 61.1953 7.43948 60.1827 7.43948 58.9339C7.43948 57.6851 6.61429 56.6725 5.59474 56.6725C4.57519 56.6725 3.75 57.6839 3.75 58.9339Z" fill="#FFDEC7"/>
<path d="M33.5079 80.1815C28.8059 80.1815 26.0684 77.2649 23.3904 74.4087C21.9623 72.8619 20.4737 71.314 18.5102 69.8266C13.3322 65.8985 5.05936 72.564 4.94064 72.6234C4.04795 73.3973 2.79795 73.516 1.72719 73.04C0.654097 72.5035 0 71.4327 0 70.3014V43.8163C0 42.1497 1.30936 40.7809 3.03538 40.7809H82.9656C84.6322 40.7809 86.0009 42.0903 86.0009 43.8163V60.4807C86.0009 64.8254 81.3583 73.9316 75.2281 77.0857C71.8354 78.8117 68.2647 78.4544 65.2293 76.2523C55.7658 69.169 51.1837 72.0263 45.4702 75.5971C43.3275 76.9658 41.1255 78.3938 38.5068 79.2865C36.662 79.8836 34.9953 80.1815 33.5079 80.1815ZM14.7602 62.564C17.2009 62.564 19.8196 63.2786 22.1997 65.0046C24.5798 66.79 26.3059 68.6359 27.8538 70.2421C31.1278 73.6941 32.3184 75.0035 36.662 73.516C38.5673 72.8026 40.4714 71.6701 42.3766 70.4807C48.5068 66.6131 56.1243 61.7912 68.9805 71.3734C70.1711 72.266 71.2419 72.3254 72.6699 71.6119C76.7167 69.588 80.1094 62.5058 80.1094 60.4225V46.8517H6.07076V64.8859C8.45089 63.6359 11.4874 62.564 14.7602 62.564Z" fill="#4C2F1B"/>
<path d="M3.09473 43.1622C3.09473 50.5913 20.9741 56.6131 43.0295 56.6131C65.0849 56.6131 82.9644 50.5913 82.9644 43.1622C82.9644 35.7332 65.0861 29.7114 43.0307 29.7114C20.9753 29.7114 3.09473 35.7332 3.09473 43.1622Z" fill="#FF7171"/>
<path d="M43.0307 59.6474C21.7237 59.6474 0.0605164 53.9933 0.0605164 43.2216C0.0605164 32.4488 21.7249 26.7354 43.0307 26.7354C64.3378 26.7354 86.0009 32.3894 86.0009 43.1623C86.0009 53.9339 64.3366 59.6474 43.0307 59.6474ZM43.0307 32.6874C20.4737 32.6874 6.07076 38.8769 6.07076 43.1029C6.07076 47.3289 20.4143 53.5778 43.0307 53.5778C65.5878 53.5778 79.9907 47.3883 79.9907 43.1623C79.9907 38.8769 65.5272 32.6874 43.0307 32.6874Z" fill="#4C2F1B"/>
<path d="M31.6027 64.886C31.6027 65.6937 32.0345 66.4409 32.7339 66.8448C33.4334 67.2486 34.2959 67.2486 34.9954 66.8448C35.6948 66.4409 36.1266 65.6937 36.1266 64.886C36.1266 64.0782 35.6948 63.331 34.9954 62.9272C34.2959 62.5233 33.4334 62.5233 32.7339 62.9272C32.0345 63.331 31.6027 64.0771 31.6027 64.886Z" fill="#FFDEC7"/>
<path d="M70.05 61.9099C70.05 63.1587 71.0626 64.1713 72.3115 64.1713C73.5603 64.1713 74.5729 63.1587 74.5729 61.9099C74.5729 60.6611 73.5603 59.6485 72.3115 59.6485C71.0626 59.6473 70.05 60.6599 70.05 61.9099Z" fill="#FFDEC7"/>
<path d="M66.0626 3.28562L48.9816 38.8175L55.8846 39.1748L71.896 6.14293C72.6094 4.77421 71.8366 2.98883 70.1699 2.21486C68.622 1.38152 66.7773 1.9169 66.0626 3.28562Z" fill="#7A4826"/>
<path d="M55.8857 40.9602H55.767L48.8629 40.6029C48.2088 40.5435 47.7328 40.2456 47.4348 39.7102C47.1369 39.1748 47.1369 38.5801 47.3755 37.9842L64.4565 2.4523C64.9918 1.4409 65.8252 0.607562 67.0158 0.250253C68.2658 -0.166414 69.7532 -0.0476988 71.0032 0.488847C73.4439 1.67949 74.6334 4.53563 73.5626 6.7982L57.4336 39.8883C57.1951 40.6029 56.6003 40.9602 55.8857 40.9602ZM51.7795 37.0915L54.7556 37.2707L70.2898 5.31077C70.4679 4.89411 70.2304 4.18065 69.4565 3.76399C69.0398 3.58475 68.5638 3.52656 68.2065 3.64527C68.0877 3.70463 67.8491 3.82451 67.7898 4.00258L51.7795 37.0915Z" fill="#4C2F1B"/>
<path d="M46.2442 10.0117L47.0775 42.1509L53.0296 39.7707L52.3149 9.77306C52.3149 8.52306 51.4223 6.43973 49.2202 6.67832C47.0182 6.91575 46.1848 8.7023 46.2442 10.0117Z" fill="#7A4826"/>
<path d="M47.0775 43.9362C46.7796 43.9362 46.3641 43.8175 46.0661 43.6383C45.5307 43.3403 45.2328 42.7456 45.2328 42.2102L44.3994 10.071C44.3401 7.80959 45.8275 5.25023 48.9828 4.95228C50.2328 4.83357 51.4234 5.13152 52.3161 5.96485C53.5068 7.03561 54.0421 8.70228 54.0421 9.8324L54.7556 39.8289C54.7556 40.6029 54.3389 41.257 53.6255 41.5549L47.6723 43.9362C47.4942 43.8757 47.2556 43.9362 47.0775 43.9362ZM48.0296 9.95228L48.8035 39.5321L51.1255 38.5801L50.4702 9.8324C50.4702 9.47509 50.2921 8.88035 49.9348 8.64176C49.8161 8.5824 49.6962 8.46369 49.3401 8.52304C48.1483 8.64176 48.0296 9.65433 48.0296 9.95228Z" fill="#4C2F1B"/>
<path d="M12.9155 18.0459L27.4965 43.6965H38.9234L46.6015 36.3757L31.8412 13.1064L12.9155 18.0459Z" fill="#6D5030"/>
<path d="M38.9234 45.4236H27.4965C26.8424 45.4236 26.2465 45.1257 25.8892 44.531L11.2488 18.9385C11.0114 18.4032 10.9509 17.8666 11.1301 17.3312C11.3093 16.7959 11.7854 16.4385 12.3207 16.2593L31.3059 11.3198C32.0798 11.1406 32.9132 11.4397 33.2693 12.0938L48.0889 35.3643C48.5056 36.0789 48.3869 37.0903 47.8515 37.6257L40.1734 44.9465C39.8766 45.2456 39.3994 45.4236 38.9234 45.4236ZM28.6278 41.8529H38.2693L44.2795 36.0801L31.0079 15.1897L15.6529 19.2365L28.6278 41.8529Z" fill="#4C2F1B"/>
<path d="M18.8664 20.6646L21.3664 25.2467L32.7933 22.152L29.9954 17.6885L18.8664 20.6646Z" fill="#562D20"/>
<path d="M21.3664 26.4374C20.9497 26.4374 20.533 26.1988 20.2944 25.7821L17.7351 21.1394C17.5559 20.8426 17.5559 20.426 17.6757 20.0687C17.7944 19.7707 18.0924 19.4739 18.5091 19.3552L29.638 16.3792C30.1734 16.2605 30.71 16.4385 30.9474 16.9146L33.7442 21.378C33.9234 21.676 33.9828 22.0915 33.8629 22.4488C33.7442 22.8061 33.4462 23.104 33.0296 23.1634L21.7214 26.2581C21.6643 26.4374 21.4851 26.4374 21.3664 26.4374ZM20.6529 21.3792L21.9623 23.8198L30.8298 21.3792L29.3424 19.0572L20.6529 21.3792Z" fill="#4C2F1B"/>
<path d="M23.9851 28.878L26.6038 33.4613L37.912 30.3666L35.1152 25.9031L23.9851 28.878Z" fill="#562D20"/>
<path d="M26.6038 34.7102C26.1872 34.7102 25.7705 34.4716 25.5331 34.0549L22.9737 29.4134C22.7945 29.1155 22.7945 28.6394 22.9144 28.3415C23.0331 28.0435 23.331 27.7467 23.7477 27.628L34.8184 24.652C35.3538 24.5333 35.8892 24.7114 36.1278 25.1874L38.9246 29.6508C39.1027 29.9488 39.162 30.3643 39.0433 30.7216C38.9246 31.0789 38.6266 31.3769 38.21 31.4362L26.9018 34.531C26.7819 34.7102 26.6632 34.7102 26.6038 34.7102ZM25.8299 29.652L27.1392 32.0926L36.0079 29.652L34.5799 27.3312L25.8299 29.652Z" fill="#4C2F1B"/>
<path d="M28.2705 36.7935L30.8892 41.4362L42.1974 38.2809L39.4006 33.8768L28.2705 36.7935Z" fill="#562D20"/>
<path d="M30.8892 42.6862C30.4725 42.6862 30.0559 42.4476 29.8184 42.0309L27.2591 37.3894C27.0798 37.0915 27.0798 36.6748 27.1997 36.3175C27.3184 36.0195 27.6164 35.7228 28.0331 35.604L39.162 32.628C39.6974 32.5093 40.2339 32.6874 40.4714 33.1634L43.2682 37.6268C43.4474 37.9248 43.5068 38.3403 43.3869 38.6976C43.2682 39.0549 42.9702 39.3529 42.5535 39.4122L31.2453 42.507C31.0673 42.6862 30.9486 42.6862 30.8892 42.6862ZM30.1152 37.6268L31.4246 40.0675L40.2921 37.6268L38.8641 35.2467L30.1152 37.6268Z" fill="#4C2F1B"/>
<path d="M65.7065 40.6623C65.7065 47.4465 60.1711 46.9111 53.4462 46.9111C46.6608 46.9111 41.186 47.4465 41.186 40.6623C41.186 33.8769 46.7214 28.402 53.4462 28.402C60.1711 28.3427 65.7065 33.878 65.7065 40.6623Z" fill="#FBFFA6"/>
<path d="M50.8869 48.7558C46.8994 48.7558 43.5661 48.5778 41.3047 46.4351C39.9953 45.1257 39.2807 43.2216 39.2807 40.6623C39.2807 32.8655 45.5901 26.6166 53.3264 26.6166C61.1231 26.6166 67.372 32.926 67.372 40.6623C67.372 43.2216 66.7167 45.007 65.348 46.4351C62.9667 48.8152 59.0992 48.8152 54.5752 48.7558H50.8869ZM53.3857 45.1257H54.6951C58.3846 45.1257 61.5992 45.1851 62.9085 43.8164C63.5638 43.1623 63.8606 42.1497 63.8606 40.6623C63.8606 34.8895 59.1585 30.2468 53.4451 30.2468C47.7316 30.2468 43.0296 34.8895 43.0296 40.6623C43.0296 42.2091 43.3275 43.2216 43.9816 43.8164C45.291 45.1257 48.5638 45.1257 52.1951 45.1257H53.3857Z" fill="#4C2F1B"/>
<path d="M52.7316 44.6497C52.7316 50.4819 48.0296 50.0058 42.1974 50.0058C36.3652 50.0058 31.7225 50.4225 31.7225 44.6497C31.7225 38.8769 36.4246 34.1155 42.2568 34.1155C48.0889 34.1155 52.7316 38.8175 52.7316 44.6497Z" fill="#FF64A3"/>
<path d="M44.3401 51.7924H41.1266C37.1986 51.7924 33.8652 51.8517 31.7225 49.709C30.5319 48.5184 29.9372 46.8529 29.9372 44.6497C29.9372 37.8061 35.4725 32.3301 42.1974 32.3301C48.9223 32.3301 54.517 37.8643 54.517 44.6497C54.517 46.8517 53.9223 48.5184 52.7316 49.709C50.8264 51.6725 47.8515 51.7924 44.3401 51.7924ZM42.1974 48.1611H43.3287C46.3047 48.1611 49.1027 48.1611 50.1734 47.0892C50.7088 46.5538 50.9474 45.7798 50.9474 44.5298C50.9474 39.709 47.0193 35.8403 42.2579 35.8403C37.4372 35.8403 33.5684 39.7684 33.5684 44.5298C33.5684 45.7204 33.8059 46.5538 34.3424 47.0892C35.4132 48.1611 38.2111 48.1611 41.186 48.1611H42.1974Z" fill="#4C2F1B"/>
<path d="M57.0764 37.6862C57.0764 39.034 58.1692 40.1269 59.517 40.1269C60.8648 40.1269 61.9576 39.034 61.9576 37.6862C61.9576 36.3385 60.8648 35.2456 59.517 35.2456C58.1681 35.2468 57.0764 36.3385 57.0764 37.6862Z" fill="white"/>
<path d="M43.0307 41.4362C43.0307 42.2649 43.473 43.0319 44.1911 43.4463C44.9092 43.8618 45.7938 43.8618 46.5119 43.4463C47.23 43.0319 47.6723 42.2661 47.6723 41.4362C47.6723 40.6064 47.23 39.8406 46.5119 39.4262C45.7938 39.0119 44.9092 39.0119 44.1911 39.4262C43.473 39.8406 43.0307 40.6064 43.0307 41.4362Z" fill="white"/>
</g>
<defs>
<clipPath id="clip0_3_214">
<rect width="86.0603" height="100" fill="white"/>
</clipPath>
</defs>
</svg>
