<svg width="100" height="91" viewBox="0 0 100 91" fill="none" xmlns="http://www.w3.org/2000/svg">
<g clip-path="url(#clip0_2_83)">
<path d="M79.425 28.829C79.499 29.26 73.338 20.562 69.276 17.568C63.104 13.022 53.75 9.11002 44.932 9.36602C36.113 9.62102 26.422 11.139 15.668 22.36C6.82101 31.592 3.54201 44.142 3.92601 55.874C4.26701 66.302 15.763 80.662 21.582 80.493C29.999 80.249 35.739 73.092 35.545 67.159C35.351 61.225 32.828 56.656 32.598 49.644C32.368 42.633 32.228 37.995 39.336 34.55C46.446 31.104 52.799 33.188 57.879 37.225C62.96 41.261 64.192 44.49 70.942 43.378C83.182 41.363 79.8 30.996 79.425 28.829Z" fill="#FEE35D"/>
<path d="M46.184 3.22497C43.606 3.74497 37.757 9.04797 34.65 13.018C29.936 19.042 25.76 28.282 25.76 37.116C25.76 45.951 26.995 55.704 37.883 66.836C46.84 75.995 59.276 79.688 70.995 79.688C81.409 79.688 96.073 68.65 96.073 62.82C96.073 54.382 89.095 48.406 83.168 48.406C77.243 48.406 72.609 50.782 65.604 50.782C58.599 50.782 53.963 50.771 50.734 43.541C47.504 36.313 49.764 30.021 53.937 25.068C58.11 20.115 61.37 18.987 60.456 12.194C58.801 -0.12903 45.971 3.26797 46.184 3.22497Z" fill="#FEE35D"/>
<path d="M96.072 62.82C96.072 68.65 81.408 79.688 70.994 79.688C59.275 79.688 46.843 75.995 37.885 66.836C26.994 55.704 25.759 45.952 25.759 37.116V37.091C26.657 43.126 29.744 51.719 39.041 60.157C55.968 75.522 70.743 72.483 80.447 68.751C92.23 64.219 89.424 52.791 88.494 49.897C93.171 52.517 96.069 57.46 96.072 62.82Z" fill="#EAA824"/>
<path d="M44.205 12.764C42.553 11.202 39.488 16.479 37.516 19.784C36.23 22.151 35.372 24.726 34.978 27.39C34.978 27.39 37.531 24.299 40.611 20.928C43.691 17.557 44.283 17.582 44.979 15.873C45.492 14.618 45.857 14.325 44.205 12.764Z" fill="white"/>
<path d="M99.979 61.54C99.979 74.522 83.129 82.572 75.682 83.35C68.234 84.129 53.215 83.221 42.766 76.34C41.134 75.259 39.564 74.087 38.064 72.831C36.024 78.612 31.501 84.12 22.985 84.366C10.03 84.741 1.44499 68.108 0.423987 60.677C-0.598013 53.247 -0.182014 38.184 6.34299 27.526C12.867 16.867 22.989 9.114 32.133 7.147C33.711 6.808 35.211 6.5 36.692 6.236C41.646 2.061 46.767 0 49.822 0C55.309 0 57.401 0.391 61.578 5.454C62.824 6.924 63.734 8.651 64.241 10.511C76.409 16.365 82.594 27.224 82.762 32.378C82.942 37.87 82.622 39.973 77.706 44.303C77.524 44.463 77.34 44.61 77.159 44.756C78.223 44.543 79.304 44.424 80.389 44.402C87.57 44.402 99.979 48.557 99.979 61.54ZM15.693 23.142C6.84599 32.374 4.32099 44.121 4.70499 55.851C5.04699 66.279 13.863 79.71 21.556 79.71C28.828 79.71 33.526 74.733 34.551 69.616C28.512 63.557 24.384 56.413 23.176 49.854C21.479 40.635 20.434 33.885 26.312 20.253C27.472 17.571 28.937 15.031 30.677 12.682C25.916 14.518 20.934 17.674 15.693 23.142ZM78.885 33.594C78.682 29.811 77.125 27.694 74.644 24.443C72.894 22.144 70.832 20.101 68.519 18.373C67.209 17.412 65.852 16.52 64.449 15.701C63.797 19.277 61.957 22.529 59.227 24.928C56.498 26.966 54.44 29.772 53.315 32.987C54.938 33.66 56.458 34.56 57.828 35.66C62.906 39.697 64.166 43.707 70.916 42.596C76.776 41.631 79.074 37.133 78.885 33.594ZM54.524 42.844C56.882 47.162 61.215 47.726 65.886 47.131C62.936 46.352 60.268 44.75 58.192 42.513C56.717 40.711 54.919 39.202 52.891 38.06C53.138 39.741 53.692 41.363 54.524 42.844ZM67.672 51.479C68.33 52.708 68.692 54.075 68.729 55.469C68.952 58.929 66.831 61.496 64.822 60.938C62.814 60.38 64.041 57.478 64.041 55.469C63.923 54.081 63.522 52.731 62.86 51.503C57.657 51.252 53.504 50.019 50.693 45.007C50.629 45.121 50.553 45.234 50.501 45.348C49.676 47.168 49.634 50.292 47.525 49.987C45.415 49.682 44.485 46.502 46.114 43.458C46.735 42.185 47.652 41.08 48.789 40.235C47.26 34.388 48.852 29.25 52.377 25.07C56.552 20.114 60.267 18.516 59.354 11.719C58.801 7.606 57.068 5.586 54.666 4.688C48.09 2.229 44.138 6.084 42.835 7.011C40.06 8.915 37.568 11.2 35.431 13.799C30.717 19.824 26.541 28.282 26.541 37.116C26.541 45.951 27.776 55.704 38.664 66.836C47.621 75.995 59.276 78.907 70.994 78.907C81.408 78.907 95.291 69.744 95.291 62.82C95.291 54.382 89.095 49.187 83.168 49.187C77.849 49.186 73.557 51.087 67.672 51.479Z" fill="#440911"/>
</g>
<defs>
<clipPath id="clip0_2_83">
<rect width="99.979" height="90.626" fill="white"/>
</clipPath>
</defs>
</svg>
