<svg width="100" height="82" viewBox="0 0 100 82" fill="none" xmlns="http://www.w3.org/2000/svg">
<g clip-path="url(#clip0_2_135)">
<path d="M56.175 29.105C56.175 29.105 41.06 46.811 45.258 63.673C46.528 68.773 48.685 72.302 51.383 74.599C39.568 72.688 25.745 64.155 16.474 56.978C1.577 45.45 -8.017 26.634 11.986 10.671C29.772 -3.52298 64.935 3.20002 64.935 3.20002C64.935 3.20002 72.011 17.003 75.942 30.449C67.099 28.146 56.175 29.105 56.175 29.105Z" fill="#AE4C4B"/>
<path d="M56.175 29.105C56.175 29.105 41.06 46.811 45.258 63.673C49.456 80.537 63.314 80.326 74.651 74.634C85.987 68.943 102.877 57.117 97.324 45.967C93.126 37.537 86.197 33.531 77.168 30.791C68.14 28.051 56.175 29.105 56.175 29.105Z" fill="#F4EBA2"/>
<path d="M74.375 73.292C67.323 76.925 59.206 78.169 53.534 73.6C62.555 74.729 68.241 72.424 74.99 67.957C83.037 62.633 91.421 55.475 89.443 47.375C88.339 42.85 85.729 38.196 83.639 34.967C88.529 37.445 93.415 41.363 96.084 46.863C101.153 57.31 84.727 67.957 74.375 73.292Z" fill="#ECD759"/>
<path d="M75.191 75.307C66.918 79.414 57.364 80.744 50.868 75.223C49.567 74.986 48.244 74.678 46.903 74.298C41.174 72.548 35.672 70.13 30.51 67.092L30.393 67.024C29.79 66.68 29.194 66.33 28.601 65.977L28.318 65.807C27.782 65.486 27.252 65.161 26.727 64.832L26.336 64.587C25.853 64.282 25.373 63.977 24.898 63.67L24.429 63.367C23.985 63.077 23.546 62.786 23.112 62.494C22.94 62.378 22.767 62.264 22.597 62.147C22.184 61.868 21.779 61.588 21.374 61.308C21.195 61.183 21.014 61.059 20.835 60.934C20.445 60.658 20.062 60.387 19.681 60.111C19.503 59.983 19.323 59.856 19.149 59.728C18.758 59.445 18.378 59.163 17.999 58.882C17.843 58.769 17.687 58.654 17.538 58.541C17.018 58.149 16.508 57.761 16.009 57.376C15.364 56.875 14.731 56.36 14.109 55.833C13.964 55.712 13.821 55.59 13.678 55.467C13.055 54.936 12.446 54.391 11.848 53.832L11.808 53.793C11.219 53.237 10.643 52.669 10.081 52.087C9.984 51.986 9.886 51.886 9.788 51.784C8.637 50.58 7.551 49.314 6.535 47.993L6.39 47.804C5.383 46.478 4.464 45.088 3.64 43.641L3.583 43.547C3.176 42.822 2.799 42.09 2.452 41.349C-2.094 31.575 -0.978002 20.444 11.43 10.099C25.43 -1.57398 46.183 -0.669982 57.459 0.941018C60.147 0.436018 62.927 0.882018 65.321 2.20502C66.945 3.11702 67.932 5.11002 68.402 7.90802C71.068 13.171 74.829 21.536 76.574 29.73C76.991 29.837 77.406 29.952 77.82 30.074C87.236 32.901 94.46 37.033 98.841 45.732C104.631 57.232 87.015 69.435 75.191 75.307ZM64.48 7.38902C63.845 6.22902 63.613 4.08702 58.068 4.30802C54.185 4.73602 48.642 7.22802 40.554 12.968C34.408 17.274 29.126 22.697 24.984 28.955C23.316 31.627 19.743 30.465 21.573 27.427C23.377 24.435 28.337 17.491 39.155 9.86602C40.48 8.93402 41.734 8.09102 42.937 7.32302C37.972 8.67002 31.67 10.702 27.222 13.279C20.708 17.052 14.613 25.439 12.481 28.322C10.391 31.146 8.292 29.086 9.981 26.269C11.432 23.847 15.162 17.332 22.512 12.497C30.927 6.96302 40.662 4.33002 46.452 3.16402C36.155 2.85702 23.191 4.45102 13.64 12.39C1.498 22.488 1.445 32.723 6.811 41.624C12.724 42.379 21.396 44.959 32.021 52.332C40.207 58.014 45.247 65.322 46.864 70.301C47.226 70.426 46.852 70.679 47.211 70.791C46.003 68.662 45.102 66.374 44.533 63.994C40.154 46.6 55.92 28.33 55.92 28.33C55.92 28.33 58.967 28.065 63.186 28.139C64.949 19.615 65.939 11.453 64.48 7.38902ZM67.683 23.389C67.418 24.97 67.11 26.6 66.759 28.278C67.144 28.303 67.535 28.331 67.931 28.361C67.882 26.702 67.798 25.044 67.679 23.388L67.683 23.389ZM70.726 20.904C70.974 23.155 71.162 25.819 71.198 28.704C71.885 28.793 72.569 28.897 73.249 29.017C72.571 26.264 71.728 23.555 70.722 20.904H70.726ZM95.842 46.957C92.2 39.072 85.522 35.508 77.148 32.985C68.775 30.463 57.675 31.433 57.675 31.433C57.675 31.433 43.654 47.733 47.549 63.258C51.444 78.782 64.296 77.807 74.815 72.567C85.333 67.327 100.366 56.752 95.842 46.957Z" fill="#440911"/>
<path d="M57.625 39.944C55.525 38.966 53.953 44.767 52.91 48.419C52.291 50.979 52.159 53.632 52.52 56.242C52.52 56.242 54.201 52.624 56.334 48.592C58.467 44.561 59.635 42.661 59.292 40.9C58.949 39.14 59.725 40.925 57.625 39.944Z" fill="white"/>
</g>
<defs>
<clipPath id="clip0_2_135">
<rect width="99.978" height="81.238" fill="white"/>
</clipPath>
</defs>
</svg>
