<svg width="14" height="20" viewBox="0 0 14 20" fill="none" xmlns="http://www.w3.org/2000/svg">
<g clip-path="url(#clip0_209_98526)">
<path d="M11.1836 3.05847H2.74826C2.02328 3.05847 1.43115 3.61673 1.43115 4.3083V6.15639C1.43115 7.81348 1.47286 15.0216 1.48805 17.2588C1.49191 17.6802 1.80317 18.0333 2.23953 18.116C2.97611 18.2529 4.61994 18.6422 6.96581 18.6422C9.31197 18.6422 10.9558 18.2531 11.6921 18.116C12.126 18.0368 12.4405 17.678 12.4439 17.2588C12.459 15.0181 12.5008 7.80995 12.5008 6.15639V4.3083C12.5008 3.61673 11.9086 3.05847 11.1836 3.05847Z" fill="#EA3B3B"/>
<path d="M9.16781 3.29242C9.16781 3.29242 8.91731 7.69811 10.2612 9.69719C11.4264 11.4299 7.22046 19.3011 7.22046 19.3011L10.5725 19.0345C10.5725 19.0345 12.2276 12.1792 10.8191 9.34787C9.6688 7.03538 11.4264 3.04376 11.4264 3.04376L9.16781 3.29242Z" fill="white"/>
<path d="M4.69197 3.64555C4.69197 3.64555 3.42789 4.82356 3.42789 6.61396V17.2408L0.32251 16.6534L0.466676 3.04022L4.69197 3.64555Z" fill="#F25353"/>
<path d="M10.7545 3.05846C11.7186 3.05846 12.5008 3.80036 12.5008 4.71556V6.15637C12.5008 7.81347 12.4591 15.0216 12.4439 17.2587C12.44 17.6802 12.1288 18.0333 11.6921 18.116C10.9558 18.2528 9.31199 18.6422 6.96583 18.6422C4.62354 18.6422 2.97612 18.2531 2.23955 18.116C1.80567 18.0368 1.4911 17.678 1.48806 17.2587C1.47287 15.0181 1.43117 7.80993 1.43117 6.15637V4.71556C1.43117 3.80036 2.21304 3.05846 3.17746 3.05846H10.7545ZM10.7545 1.70035H3.17746C1.42344 1.70035 0 3.05492 0 4.71556V6.15637C0 7.81701 0.0417033 15.0793 0.0568932 17.2661C0.0646263 18.3252 0.86555 19.2437 1.96641 19.4491C2.05009 19.4635 2.14869 19.485 2.25888 19.5068C3.13189 19.6795 4.76053 20.0003 6.96997 20.0003C9.17914 20.0003 10.8039 19.6795 11.6811 19.5068C11.7913 19.4853 11.886 19.4673 11.9733 19.4491C13.0741 19.2437 13.8753 18.3287 13.8828 17.2661C13.898 15.0793 13.9397 7.81347 13.9397 6.15637V4.71556C13.9319 3.05492 12.5046 1.70035 10.7545 1.70035Z" fill="#4C2F1B"/>
<path d="M6.96575 3.54818C1.21069 3.54818 1.21069 2.50701 1.21069 2.11443C1.21069 1.72158 1.21069 0.680695 6.96575 0.680695C12.7208 0.680695 12.7208 1.72158 12.7208 2.11443C12.7208 2.50728 12.7208 3.54818 6.96575 3.54818Z" fill="#E4F1F7"/>
<path d="M6.96574 1.35811C9.74854 1.35811 12.0033 1.69682 12.0033 2.1147C12.0033 2.53258 9.74854 2.87129 6.96574 2.87129C4.18322 2.87129 1.92821 2.53258 1.92821 2.1147C1.92821 1.69682 4.18322 1.35811 6.96574 1.35811ZM6.96574 0C5.5459 0 4.202 0.0829774 3.18096 0.237778C2.37617 0.356667 0.497314 0.641238 0.497314 2.1147C0.497314 3.58816 2.38004 3.87246 3.18124 3.99162C4.20228 4.14642 5.55004 4.2294 6.96602 4.2294C8.382 4.2294 9.72976 4.14642 10.7508 3.99162C11.5556 3.87273 13.4347 3.58816 13.4347 2.1147C13.4347 0.641238 11.5517 0.356667 10.7508 0.237778C9.72948 0.0829774 8.38559 0 6.96574 0Z" fill="#4C2F1B"/>
<path d="M6.96583 19.3193C4.83234 19.3193 3.24955 19.0059 2.40305 18.8402C2.28899 18.8187 2.19039 18.797 2.10312 18.7826C1.33617 18.6422 0.778281 18.0009 0.774414 17.2623V17.1328C0.774414 16.9239 0.876877 16.7255 1.05142 16.596C1.17681 16.5024 1.3323 16.4518 1.49193 16.4518C1.55269 16.4518 1.61345 16.4592 1.67034 16.4733C1.69327 16.4807 4.0582 17.0534 6.95838 17.0534C9.85883 17.0534 12.239 16.4807 12.2655 16.4733C12.3262 16.4589 12.3831 16.4518 12.4439 16.4518C12.5996 16.4518 12.7551 16.5022 12.8844 16.596C13.0589 16.7255 13.1614 16.9239 13.1614 17.1328V17.2552C13.1614 17.9939 12.6035 18.6348 11.8327 18.779C11.7454 18.7934 11.6468 18.8149 11.5328 18.8367C10.6785 19.0095 9.09933 19.3193 6.96583 19.3193Z" fill="#E4F1F7"/>
<path d="M1.48801 17.1363C1.48801 17.1363 3.91758 17.7379 6.95446 17.7379C9.99134 17.7379 12.44 17.1363 12.44 17.1363V17.2588C12.44 17.6802 12.1248 18.0333 11.6882 18.116C10.9519 18.2529 9.30807 18.6422 6.96192 18.6422C4.61604 18.6422 2.97221 18.2531 2.23563 18.116C1.80175 18.0368 1.48719 17.678 1.48415 17.2588V17.1363H1.48801ZM1.48801 15.7747C1.17289 15.7747 0.865502 15.8721 0.61114 16.0593C0.261771 16.315 0.0529785 16.7149 0.0529785 17.1363V17.2588C0.0604354 18.3288 0.861636 19.2437 1.96249 19.4491C2.04617 19.4635 2.14477 19.485 2.25469 19.5068C3.12797 19.6795 4.75661 20.0003 6.96578 20.0003C9.17523 20.0003 10.8 19.6795 11.6769 19.5068C11.7871 19.4853 11.8821 19.4673 11.9693 19.4491C13.0741 19.2437 13.8789 18.3214 13.8789 17.2588V17.1363C13.8789 16.7149 13.6739 16.3185 13.3246 16.0628C13.0702 15.8756 12.7628 15.7782 12.4477 15.7782C12.3262 15.7782 12.2085 15.7926 12.0909 15.8215C12.0682 15.825 9.76764 16.3797 6.96606 16.3797C4.14542 16.3797 1.87936 15.8286 1.86031 15.825C1.73105 15.7891 1.60953 15.7747 1.48801 15.7747Z" fill="#4C2F1B"/>
<path d="M7.99854 2.11471C7.99854 2.22625 8.64259 2.3163 9.43716 2.3163C10.2317 2.3163 10.8758 2.22598 10.8758 2.11471C10.8758 2.00316 10.2317 1.91284 9.43716 1.91284C8.64286 1.91284 7.99854 2.00316 7.99854 2.11471Z" fill="#BECFD3"/>
</g>
<defs>
<clipPath id="clip0_209_98526">
<rect width="13.9394" height="20" fill="white"/>
</clipPath>
</defs>
</svg>
