<svg width="69" height="99" viewBox="0 0 69 99" fill="none" xmlns="http://www.w3.org/2000/svg">
<g clip-path="url(#clip0_5_704)">
<path d="M55.3591 15.1394H13.604C10.0153 15.1394 7.08429 17.9028 7.08429 21.3261V30.4741C7.08429 38.6767 7.29072 74.3571 7.36591 85.4308C7.38505 87.5168 8.92577 89.2648 11.0858 89.6742C14.7318 90.3516 22.8688 92.2787 34.4809 92.2787C46.0943 92.2787 54.2313 90.3529 57.876 89.6742C60.0237 89.2823 61.5808 87.5061 61.5972 85.4308C61.6724 74.3396 61.8788 38.6592 61.8788 30.4741V21.3261C61.8788 17.9028 58.9478 15.1394 55.3591 15.1394Z" fill="#EA3B3B"/>
<path d="M45.3807 16.2975C45.3807 16.2975 44.1408 38.1057 50.7931 48.0011C56.5608 56.5782 35.7413 95.5404 35.7413 95.5404L52.3338 94.2206C52.3338 94.2206 60.5268 60.2869 53.5546 46.272C47.8606 34.8252 56.5608 15.0667 56.5608 15.0667L45.3807 16.2975Z" fill="white"/>
<path d="M23.2256 18.0455C23.2256 18.0455 16.9684 23.8767 16.9684 32.7392V85.342L1.5968 82.4345L2.31043 15.0492L23.2256 18.0455Z" fill="#F25353"/>
<path d="M53.2347 15.1394C58.0072 15.1394 61.8788 18.8118 61.8788 23.342V30.4741C61.8788 38.6767 61.6724 74.357 61.5972 85.4308C61.578 87.5168 60.0373 89.2648 57.8759 89.6742C54.2313 90.3516 46.0943 92.2787 34.4809 92.2787C22.8865 92.2787 14.7318 90.3529 11.0858 89.6742C8.93806 89.2823 7.38094 87.5061 7.36591 85.4308C7.29072 74.3395 7.08428 38.6592 7.08428 30.4741V23.342C7.08428 18.8118 10.9545 15.1394 15.7284 15.1394H53.2347ZM53.2347 8.41676H15.7284C7.04601 8.41676 0 15.1219 0 23.342V30.4741C0 38.6942 0.206431 74.6425 0.281621 85.4672C0.3199 90.7098 4.28447 95.2562 9.73371 96.2729C10.1479 96.3443 10.636 96.4507 11.1815 96.5584C15.5029 97.4136 23.5646 99.0013 34.5014 99.0013C45.4368 99.0013 53.4794 97.4136 57.8213 96.5584C58.3667 96.4521 58.8357 96.3632 59.2677 96.2729C64.7169 95.2562 68.6828 90.7273 68.7197 85.4672C68.7949 74.6425 69.0014 38.6767 69.0014 30.4741V23.342C68.9631 15.1219 61.8979 8.41676 53.2347 8.41676Z" fill="#4C2F1B"/>
<path d="M34.4809 17.5634C5.99335 17.5634 5.99335 12.4097 5.99335 10.4664C5.99335 8.5218 5.99335 3.3694 34.4809 3.3694C62.9684 3.3694 62.9684 8.5218 62.9684 10.4664C62.9684 12.411 62.9684 17.5634 34.4809 17.5634Z" fill="#E4F1F7"/>
<path d="M34.4809 6.72264C48.2557 6.72264 59.4167 8.39926 59.4167 10.4678C59.4167 12.5363 48.2557 14.2129 34.4809 14.2129C20.7074 14.2129 9.54508 12.5363 9.54508 10.4678C9.54508 8.39926 20.7074 6.72264 34.4809 6.72264ZM34.4809 0C27.4526 0 20.8004 0.410738 15.7462 1.177C11.7625 1.7655 2.46216 3.17413 2.46216 10.4678C2.46216 17.7614 11.7816 19.1687 15.7476 19.7585C20.8017 20.5248 27.4732 20.9355 34.4822 20.9355C41.4913 20.9355 48.1628 20.5248 53.2169 19.7585C57.2006 19.17 66.5023 17.7614 66.5023 10.4678C66.5023 3.17413 57.1815 1.7655 53.2169 1.177C48.1614 0.410738 41.5091 0 34.4809 0Z" fill="#4C2F1B"/>
<path d="M34.4808 95.6306C23.92 95.6306 16.0852 94.0792 11.8951 93.2591C11.3305 93.1527 10.8424 93.045 10.4104 92.9736C6.61398 92.2787 3.85245 89.1046 3.83331 85.4483V84.8073C3.83331 83.7731 4.34051 82.7913 5.20451 82.1503C5.82517 81.6871 6.59484 81.4366 7.38502 81.4366C7.68579 81.4366 7.98655 81.4729 8.26817 81.543C8.38164 81.5793 20.0881 84.4141 34.4439 84.4141C48.8012 84.4141 60.5828 81.5793 60.714 81.543C61.0148 81.4716 61.2964 81.4366 61.5972 81.4366C62.3682 81.4366 63.1379 81.6857 63.7777 82.1503C64.6417 82.7913 65.1489 83.7731 65.1489 84.8073V85.4133C65.1489 89.0696 62.3873 92.2424 58.5718 92.9561C58.1398 93.0275 57.6517 93.1339 57.0871 93.2416C52.8587 94.0967 45.0416 95.6306 34.4808 95.6306Z" fill="#E4F1F7"/>
<path d="M7.36594 84.8248C7.36594 84.8248 19.3923 87.8023 34.4248 87.8023C49.4574 87.8023 61.5781 84.8248 61.5781 84.8248V85.4308C61.5781 87.5168 60.0182 89.2648 57.8568 89.6742C54.2122 90.3516 46.0752 92.2787 34.4618 92.2787C22.8496 92.2787 14.7127 90.353 11.0667 89.6742C8.91896 89.2823 7.36184 87.5061 7.3468 85.4308V84.8248H7.36594ZM7.36594 78.0847C5.80608 78.0847 4.2845 78.5668 3.02541 79.4933C1.29604 80.7592 0.262512 82.7388 0.262512 84.8248V85.4308C0.299424 90.7273 4.26537 95.2562 9.7146 96.273C10.1288 96.3444 10.6169 96.4507 11.161 96.5585C15.4837 97.4136 23.5455 99.0014 34.4809 99.0014C45.4176 99.0014 53.4603 97.4136 57.8008 96.5585C58.3463 96.4521 58.8165 96.3632 59.2485 96.273C64.7169 95.2562 68.7006 90.691 68.7006 85.4308V84.8248C68.7006 82.7388 67.6862 80.7767 65.9569 79.5108C64.6978 78.5843 63.1762 78.1022 61.6163 78.1022C61.0148 78.1022 60.4324 78.1736 59.8501 78.3163C59.738 78.3338 48.3501 81.0797 34.4823 81.0797C20.5201 81.0797 9.30311 78.3513 9.20878 78.3338C8.56898 78.1561 7.96746 78.0847 7.36594 78.0847Z" fill="#4C2F1B"/>
<path d="M39.5924 10.4678C39.5924 11.0199 42.7805 11.4656 46.7136 11.4656C50.6467 11.4656 53.8348 11.0186 53.8348 10.4678C53.8348 9.91562 50.6467 9.46852 46.7136 9.46852C42.7818 9.46852 39.5924 9.91562 39.5924 10.4678Z" fill="#BECFD3"/>
</g>
<defs>
<clipPath id="clip0_5_704">
<rect width="69" height="99" fill="white"/>
</clipPath>
</defs>
</svg>
