<svg width="92" height="100" viewBox="0 0 92 100" fill="none" xmlns="http://www.w3.org/2000/svg">
<g clip-path="url(#clip0_3_611)">
<path d="M1.43913 83.4272C1.43913 91.2576 18.038 97.6043 38.5141 97.6043C58.9902 97.6043 75.5891 91.2576 75.5891 83.4272C75.5891 75.5967 58.9902 69.25 38.5141 69.25C18.038 69.2489 1.43913 75.5967 1.43913 83.4272Z" fill="#E26969"/>
<path d="M39.4706 100C20.337 100 0 94.1913 0 83.4272C0 72.663 20.337 66.8543 39.4706 66.8543C58.6043 66.8543 78.9413 72.6619 78.9413 83.4272C78.9413 94.1924 58.6054 100 39.4706 100ZM39.4706 71.6446C17.9848 71.6446 4.7913 78.5065 4.7913 83.4261C4.7913 88.3456 17.9848 95.2076 39.4706 95.2076C60.9565 95.2076 74.15 88.3456 74.15 83.4261C74.15 78.5065 60.9565 71.6446 39.4706 71.6446Z" fill="#4C2F1B"/>
<path d="M67.825 69.5304C66.9815 69.5304 66.1935 69.3054 65.575 68.7989C64.45 67.9554 63.887 66.5489 64.1685 65.0293L67.3196 45.2261C67.6011 43.5946 68.6696 42.1315 70.1881 41.4C71.0881 40.95 75.8707 38.812 80.3717 38.812C83.0718 38.812 85.2663 39.5435 86.8413 41.062C89.7109 43.763 90.2739 48.4326 88.4728 54.9587C85.9978 63.8478 82.3413 65.4228 76.6022 66.9424C74.7457 67.4489 72.4957 68.0109 69.5696 69.1924L69.0631 69.3609C68.6696 69.4739 68.2196 69.5304 67.825 69.5304ZM73.9011 58.8978C74.5761 58.7293 75.2511 58.5609 75.8141 58.4478C79.5272 57.5478 79.5272 57.5478 80.6522 53.6663C81.7772 49.6728 81.3272 48.1533 81.1022 47.9283C81.1022 47.9283 80.8207 47.7033 79.8641 47.7033C78.7957 47.7033 77.2196 48.0402 75.5881 48.6033L73.9011 58.8978Z" fill="#F96B6B"/>
<path d="M80.3717 40.6696C82.3413 40.6696 84.2532 41.1196 85.6032 42.4141C87.9663 44.6076 88.3598 48.6587 86.7293 54.5098C84.4217 62.6674 81.4402 63.8489 76.0956 65.1989C74.2391 65.7054 71.8761 66.3239 68.838 67.5054C68.725 67.562 68.613 67.562 68.5565 67.6185C68.3315 67.675 68.05 67.7315 67.825 67.7315C67.375 67.7315 66.9815 67.6185 66.6435 67.338C66.0815 66.888 65.8 66.1565 65.912 65.313L69.063 45.5098C69.2315 44.4413 69.963 43.4848 70.9196 43.0348C71.6511 42.6946 76.2076 40.6696 80.3717 40.6696ZM71.7076 61.3728C73.5076 60.8098 74.9706 60.4728 76.2641 60.1913C80.7087 59.1228 80.9902 59.0663 82.3967 54.1717C83.1848 51.4717 83.7467 47.9272 82.2837 46.6326C81.7206 46.1261 80.8772 45.9576 79.8641 45.9576C78.0641 45.9576 75.7565 46.6326 74.013 47.3076L71.7076 61.3728ZM80.3717 37.125C75.4772 37.125 70.3576 39.3761 69.4011 39.8815C67.3761 40.838 65.8565 42.8076 65.5196 45.0576L62.3696 64.8609C62.0326 66.9989 62.8196 69.1359 64.5076 70.3739C65.4641 71.0489 66.5891 71.4424 67.8261 71.4424C68.3891 71.4424 68.9522 71.387 69.5141 71.2174C69.7391 71.1609 69.9641 71.1044 70.1891 70.9924C73.0022 69.8663 75.2533 69.3044 76.9967 68.8544C83.1859 67.2228 87.4043 65.4794 90.1619 55.6326C92.1869 48.4315 91.4565 43.1435 88.0239 39.9359C86.1098 38.025 83.5217 37.125 80.3717 37.125ZM77.1652 49.9522C78.0652 49.6707 78.9087 49.5022 79.5848 49.5022C79.5848 50.1207 79.4717 51.3022 78.9098 53.2152C78.6848 53.9467 78.2348 55.5217 77.9533 56.0283C77.6163 56.1967 76.8837 56.3663 76.0967 56.5348L77.1652 49.9522Z" fill="#4C2F1B"/>
<path d="M74.6891 44.3826L39.9207 45.0011H4.64566C4.64566 45.0011 2.05761 85.7326 39.9207 85.7326C77.7837 85.7326 74.6891 44.3826 74.6891 44.3826Z" fill="#FF7171"/>
<path d="M39.7 88.1293C28.3293 88.1293 19.275 84.6141 12.7859 77.6815C2.23261 66.438 1.88043 49.8587 2.02391 45.0446L2.02935 44.8326C2.11848 43.6022 3.17174 42.6065 4.425 42.6065H39.7C39.7 42.6065 74.425 41.9869 74.4261 41.9869C75.7685 41.9869 76.7761 42.938 76.8663 44.2C77.0054 46.3206 77.8978 65.2609 66.387 77.6848C59.9511 84.6152 50.9717 88.1293 39.7 88.1293ZM6.82065 48.0011C6.97826 53.0956 8.21848 65.8695 16.3196 74.4337C21.8826 80.3413 29.7674 83.3369 39.7554 83.3369C49.6152 83.3369 57.388 80.3587 62.8565 74.4869C70.9587 65.7478 72.0783 52.6554 72.1837 47.4326L72.1956 46.8239L39.8011 47.3978H6.80217L6.82065 48.0011Z" fill="#4C2F1B"/>
<path d="M4.19565 45.6207C4.19565 55.1902 19.9891 62.9489 39.4706 62.9489C58.9522 62.9489 74.7457 55.1902 74.7457 45.6207C74.7457 36.05 58.9533 28.2924 39.4706 28.2924C19.9891 28.2924 4.19565 36.05 4.19565 45.6207Z" fill="#D6E6EA"/>
<path d="M4.19565 45.6207C4.19565 55.1902 19.9891 62.9489 39.4706 62.9489C58.9522 62.9489 74.7457 55.1902 74.7457 45.6207C74.7457 36.05 58.9533 28.2924 39.4706 28.2924C19.9891 28.2924 4.19565 36.05 4.19565 45.6207Z" fill="#FCDCD6"/>
<path d="M38.9087 36.9C22.7054 36.9 11.2294 42.5261 6.72826 48.8837C7.23479 58.3913 20.3435 62.9489 39.5272 62.9489C57.1924 62.9489 69.7391 60.2489 72.3826 51.8098C69.6826 44.2696 56.9674 36.9 38.9087 36.9Z" fill="#724E3B"/>
<path d="M39.4707 65.3435C18.3467 65.3435 1.8 56.6804 1.8 45.6206C1.8 34.5609 18.3467 25.8967 39.4707 25.8967C60.5946 25.8967 77.1413 34.5609 77.1413 45.6206C77.1413 56.6804 60.5946 65.3435 39.4707 65.3435ZM39.4707 30.688C19.8033 30.688 6.59131 38.4087 6.59131 45.6206C6.59131 52.6837 20.0946 60.5522 39.4707 60.5522C58.8467 60.5522 72.3489 52.6826 72.3489 45.6206C72.35 38.4087 59.138 30.688 39.4707 30.688Z" fill="#4C2F1B"/>
<path d="M17.0793 50.9652C17.0793 50.9652 31.1446 49.7837 34.013 49.1652C36.8261 48.5456 41.7772 48.6587 44.9837 48.5456C48.1902 48.4337 58.3174 49.7272 58.3174 49.7272C58.3174 49.7272 47.6848 49.8956 47.2348 49.7272C46.7848 49.5587 35.9826 51.1337 35.9826 51.1337L17.0793 50.9652ZM18.6554 45.3391C18.6554 45.3391 26.4185 41.1761 29.2326 40.613C32.0456 39.9946 36.9956 40.1065 40.2033 39.9946C43.4098 39.8815 49.8804 40.6696 49.8804 40.6696C49.8804 40.6696 42.9043 41.3446 42.4543 41.1761C42.0043 41.0076 32.7206 43.5956 32.7206 43.5956L18.6554 45.3391ZM30.413 57.7717C30.413 57.7717 34.2946 57.5467 37.1076 56.9282C39.9206 56.3098 44.8717 56.4217 48.0783 56.3098C51.2848 56.2533 53.7043 55.8033 53.7043 55.8033C53.7043 55.8033 50.6098 57.0978 49.6533 57.4348C49.2033 57.6033 42.2837 58.7293 42.2837 58.7293L30.413 57.7717Z" fill="#9B6F5C"/>
<path d="M28.4435 23.6228C28.05 23.6228 27.6 23.4544 27.262 23.1728C26.5304 22.4978 26.4174 21.3717 27.0935 20.6413C29.287 18.1663 28.5565 16.1967 27.9935 15.2967C27.825 15.0152 27.5435 14.7337 27.262 14.3967C25.912 12.7652 23.3239 9.7837 26.8685 5.00109C27.4315 4.21305 28.5565 4.04457 29.3435 4.60762C30.1315 5.16957 30.3 6.29457 29.737 7.08262C27.8804 9.61414 28.6685 10.5152 29.962 12.0337C30.2989 12.4272 30.637 12.8217 30.9185 13.2717C31.65 14.3967 33.7315 18.3913 29.737 22.9478C29.4565 23.3978 28.95 23.6228 28.4435 23.6228Z" fill="#4C2F1B"/>
<path d="M41.4967 19.3467C41.1033 19.3467 40.6522 19.1783 40.3152 18.8967C39.5837 18.2217 39.4717 17.0967 40.1467 16.3652C42.3413 13.8902 41.6098 11.9207 41.0467 11.0207C40.8783 10.7391 40.5967 10.4587 40.3152 10.1207C38.9652 8.48913 36.3772 5.50652 39.9217 0.725002C40.4848 -0.0630416 41.6098 -0.23152 42.3967 0.331524C43.1848 0.894567 43.3533 2.01957 42.7902 2.80761C40.9337 5.33913 41.7207 6.23913 43.0152 7.7587C43.3522 8.15218 43.6902 8.54674 43.9717 8.99674C44.7033 10.1217 46.7848 14.1163 42.7902 18.6728C42.5087 19.1783 42.0022 19.3467 41.4967 19.3467Z" fill="#4C2F1B"/>
<path d="M54.5489 23.6228C54.1554 23.6228 53.7054 23.4544 53.3674 23.1728C52.6359 22.4978 52.5228 21.3717 53.1978 20.6413C55.3924 18.1663 54.6609 16.1967 54.0978 15.2967C53.9294 15.0152 53.6478 14.7337 53.3663 14.3967C52.0163 12.7652 49.4283 9.7837 52.9728 5.00109C53.5359 4.21305 54.6609 4.04457 55.4489 4.60762C56.237 5.16957 56.4054 6.29457 55.8424 7.08262C53.9859 9.61414 54.7728 10.5152 56.0674 12.0337C56.4044 12.4272 56.7424 12.8217 57.0239 13.2717C57.7554 14.3967 59.837 18.3913 55.8424 22.9478C55.5609 23.3978 55.0554 23.6228 54.5489 23.6228Z" fill="#4C2F1B"/>
<path d="M40.0337 68.6869C36.9391 68.8 34.5207 71.388 33.7326 73.638C32.4946 77.1826 34.7446 79.2076 36.7141 79.2076C37.9522 79.2076 39.4141 77.1826 38.8522 75.2696C37.8957 72.2304 42.5652 68.5739 40.0337 68.6869ZM40.0337 79.5446C43.1283 79.4315 45.3217 76.8446 46.1098 74.5935C47.3478 71.0489 45.0978 69.0239 42.9587 69.0239C42.1707 69.0239 40.4837 70.0359 40.9891 72.9619C41.5522 76.113 37.5022 79.6576 40.0337 79.5446Z" fill="white"/>
</g>
<defs>
<clipPath id="clip0_3_611">
<rect width="91.2793" height="100" fill="white"/>
</clipPath>
</defs>
</svg>
