<svg width="75" height="109" viewBox="0 0 75 109" fill="none" xmlns="http://www.w3.org/2000/svg">
<g clip-path="url(#clip0_5_742)">
<path d="M52.7865 9.42655H45.5296C45.478 9.42655 45.425 9.37495 45.425 9.32199V2.06673C45.425 2.01377 45.478 1.96217 45.5296 1.96217H52.7865C52.8381 1.96217 52.8911 2.01377 52.8911 2.06673V9.32199C52.8897 9.39124 52.8558 9.42655 52.7865 9.42655Z" fill="#4274C6"/>
<path d="M52.0736 11.3887H46.2412C44.7135 11.3887 43.4642 10.1381 43.4642 8.61044V2.77691C43.4642 1.24927 44.7135 0 46.2412 0H52.0736C53.6013 0 54.8506 1.24927 54.8506 2.77691V8.60909C54.852 10.1381 53.6027 11.3887 52.0736 11.3887ZM47.3696 7.48203H50.9451V3.90532H47.3696V7.48203ZM37.4919 109C25.3911 109 19.4025 107.368 16.9202 106.397C15.1317 105.702 13.8295 104.088 13.5348 102.178L2.7879 34.3549H72.1429L62.6983 102.005C62.4036 104.053 61.0144 105.737 59.0698 106.415C56.2235 107.369 49.6605 109 37.4919 109ZM19.8534 100.529C21.9718 101.241 27.1442 102.474 37.4919 102.474C48.0989 102.474 53.8974 101.172 56.3457 100.425L64.6605 40.8293H10.4088L19.8534 100.529Z" fill="#4C2F1B"/>
<path d="M65.9451 30.9004H9.05621V20.3807C9.05621 12.4302 15.5133 5.97205 23.4655 5.97205H51.5196C59.4704 5.97205 65.9288 12.4302 65.9288 20.3807V30.9004H65.9451ZM15.5649 24.3906H59.4351V20.3631C59.4351 16.0056 55.8935 12.4642 51.5358 12.4642H23.4818C19.1241 12.4642 15.5826 16.0056 15.5826 20.3631V24.3906H15.5649Z" fill="#4C2F1B"/>
<path d="M69.7474 38.7287L37.6833 39.944H36.9364L5.23628 38.7287C3.9856 38.6771 3.06626 37.531 3.29168 36.298L5.44404 24.9283C5.82563 24.2168 6.9894 23.5569 7.87479 23.5569H67.7159C68.6366 23.5569 69.1744 24.2684 69.5396 25.0329L71.692 36.2817C71.9337 37.5133 71.0144 38.6771 69.7474 38.7287Z" fill="#DAE3ED"/>
<path d="M36.9364 43.1907L5.11407 41.9754C3.56871 41.9238 2.12792 41.1946 1.15562 39.9793C0.183322 38.764 -0.198264 37.201 0.0964126 35.6748L2.35334 23.8176L2.59641 23.3668C3.55106 21.5784 5.79033 20.2938 7.89109 20.2938H67.7322C68.9136 20.2938 71.1176 20.727 72.4891 23.6438L72.663 24.0253L74.9022 35.6734C75.1983 37.201 74.8153 38.764 73.843 39.9779C72.8707 41.1933 71.4299 41.9225 69.8846 41.9741L36.9364 43.1907ZM6.76399 35.5349L37.075 36.6973H37.6996L68.2374 35.5349L66.5712 26.8199H8.4139L6.76399 35.5349Z" fill="#4C2F1B"/>
<path d="M5.4617 49.4058C5.4617 49.4058 34.0196 53.0518 69.556 49.4058L63.0283 91.8674C63.0283 91.8674 36.5888 96.2941 12.9087 92.1797L5.4617 49.4058Z" fill="#3E7EDB"/>
<path d="M35.4427 97.1958C28.1342 97.1958 20.1304 96.7273 12.3533 95.3911C10.9995 95.1481 9.94161 94.0889 9.69854 92.7351L2.2515 49.9612C2.07768 48.9374 2.39001 47.8958 3.10158 47.149C3.81315 46.4022 4.8384 46.0382 5.8623 46.1767C6.14069 46.2121 34.5071 49.7358 69.211 46.1591C70.2173 46.0545 71.2072 46.4198 71.9025 47.149C72.5964 47.8782 72.9087 48.8858 72.7526 49.892L66.2425 92.3712C66.0334 93.7603 64.9403 94.8534 63.5687 95.0788C62.8205 95.1997 50.6505 97.1958 35.4427 97.1958ZM15.7211 89.3322C33.9666 92.0575 53.566 89.8876 60.1806 89.0022L65.7007 53.0504C40.0421 55.3249 18.3419 53.9018 9.40114 53.0857L15.7211 89.3322Z" fill="#4C2F1B"/>
<path d="M37.6127 65.7237C34.2097 65.8446 31.5888 68.6405 30.7387 71.1404C29.4188 75.0104 31.8156 77.198 34.0196 77.198C35.4088 77.198 36.9881 74.9764 36.3295 72.8758C35.3042 69.6114 40.3911 65.6368 37.6127 65.7237ZM37.6127 77.6148C41.0158 77.4926 43.4112 74.6981 44.2626 72.1982C45.5812 68.3268 43.1858 66.1392 40.808 66.1392C39.9403 66.1392 38.0826 67.2677 38.6719 70.4614C39.2803 73.8643 34.8357 77.7018 37.6127 77.6148Z" fill="white"/>
</g>
<defs>
<clipPath id="clip0_5_742">
<rect width="75" height="109" fill="white"/>
</clipPath>
</defs>
</svg>
