<svg width="97" height="97" viewBox="0 0 97 97" fill="none" xmlns="http://www.w3.org/2000/svg">
<g clip-path="url(#clip0_3_523)">
<path d="M48.4994 2.65381C23.2101 2.65381 2.65378 23.1482 2.65378 48.5C2.65378 73.7909 23.1479 94.3462 48.4994 94.3462C73.7899 94.3462 94.345 73.8518 94.345 48.5C94.345 23.1482 73.7899 2.65381 48.4994 2.65381ZM48.4994 63.6991C40.0903 63.6991 33.2382 56.847 33.2382 48.4378C33.2382 40.0287 40.0903 33.1765 48.4994 33.1765C56.9084 33.1765 63.7605 40.0287 63.7605 48.4378C63.7605 56.9104 56.9097 63.6991 48.4994 63.6991Z" fill="#EDB66B"/>
<path d="M27.8063 63.4479C26.6734 63.4479 25.7196 63.0301 25.0033 62.315C23.3332 60.5852 23.3929 57.6043 23.5123 54.0862C23.5719 51.0444 23.6913 47.2278 22.26 45.738C21.9615 45.3798 21.3658 44.9632 19.9942 44.9035H19.7554C18.2644 44.9035 17.1912 45.202 16.5943 45.8574C15.4017 47.1097 15.5807 49.9127 15.7001 52.1785C15.8792 54.5637 15.9986 56.6517 14.6269 57.8443C13.6134 58.7982 12.2417 59.2757 10.7507 59.2757C7.8283 59.2757 4.36992 57.2486 3.23703 54.8634C3.11889 54.6234 3.0592 54.4444 3.0592 54.2056L2.99951 53.6087C2.82043 51.3428 2.58167 48.8382 2.58167 47.765C2.58167 22.4804 23.1541 1.96735 48.3775 1.96735C73.6009 1.96735 94.1746 22.5401 94.1746 47.765C94.1746 48.7786 94.1149 49.8518 94.0552 50.8665C93.8165 54.0265 91.2522 56.4714 88.152 56.4714C87.4966 56.4714 86.7803 56.352 86.1249 56.1133C83.1429 54.9803 80.6383 52.8339 78.2531 50.7459C74.7947 47.7041 71.5142 44.9023 66.8632 44.7829C63.9408 44.7232 61.3169 43.1128 59.9465 40.6082C56.6075 34.4064 56.1896 34.1676 47.7818 34.1676C32.2782 34.1676 32.2782 42.874 32.2782 45.7367C32.2782 47.3472 32.3976 49.0758 32.4573 50.7459C32.7557 55.6357 32.9945 59.9286 30.9065 62.136C30.2512 62.9716 29.1183 63.4479 27.8063 63.4479Z" fill="#86522C"/>
<path d="M48.4981 3.93596C72.708 3.93596 92.3864 23.5548 92.3864 47.8247C92.3864 48.8383 92.3267 49.8518 92.267 50.8069C92.0879 52.9533 90.2996 54.5637 88.3323 54.5637C87.9145 54.5637 87.4382 54.504 87.0203 54.325C80.3411 51.8204 75.9886 43.0543 67.1045 42.8765C64.9581 42.8168 62.8701 41.6242 61.8566 39.7153C58.0998 32.6791 56.8475 32.2612 47.9622 32.2612C38.0633 32.2612 30.4899 35.6002 30.4899 45.738C30.4899 53.013 32.3391 61.4806 27.866 61.4806C21.9628 61.4806 30.1318 43.2334 20.1148 42.9946H19.8163C10.0966 42.9946 15.4638 54.5637 13.4368 56.4714C12.7205 57.128 11.8264 57.3655 10.8726 57.3655C8.48739 57.3655 5.86345 55.6954 5.14715 54.0862C5.02776 52.8339 4.72931 49.077 4.72931 47.8247C4.60992 23.5548 24.2882 3.93596 48.4981 3.93596ZM48.4981 0C22.1418 0 0.733704 21.4084 0.733704 47.765C0.733704 48.8979 0.97247 51.4622 1.15154 53.7877L1.21124 54.3834C1.27093 54.861 1.39031 55.3372 1.56939 55.7551C3.06043 58.8554 7.11572 61.2418 10.8129 61.2418C12.7802 61.2418 14.5697 60.5852 16.0011 59.3329C18.0878 57.4849 17.9087 54.7416 17.7296 52.0579C17.6699 50.6862 17.4312 47.8832 18.0878 47.2278C18.2072 47.1084 18.7431 46.8696 19.8163 46.8696H19.9954C20.1745 46.8696 20.7105 46.8697 20.8895 47.0487C21.7837 47.9429 21.6643 51.8788 21.6046 54.0253C21.4852 57.7822 21.4255 61.36 23.6316 63.6258C24.7048 64.7587 26.1959 65.3556 27.866 65.3556C29.7152 65.3556 31.3244 64.699 32.517 63.3883C35.1409 60.5852 34.9021 55.9342 34.6037 50.5668C34.4843 48.9564 34.4246 47.2278 34.4246 45.677C34.4246 42.8143 34.4246 36.0765 47.9609 36.0765C55.5343 36.0765 55.5343 36.0765 58.3957 41.5036C60.0659 44.6635 63.4049 46.6321 66.9826 46.6918C70.9185 46.7515 73.7812 49.2549 77.1202 52.1773C79.6845 54.3834 82.3084 56.7102 85.5877 57.9028C86.4222 58.2012 87.3772 58.3803 88.2714 58.3803C92.3864 58.3803 95.8447 55.1594 96.0823 50.9859C96.1419 49.9127 96.2016 48.7798 96.2016 47.7066C96.2638 21.4681 74.8557 0 48.4981 0Z" fill="#4C2F1B"/>
<path d="M55.0791 90.7422C55.4112 91.6103 56.7741 91.895 58.1234 91.3777C59.4727 90.8616 60.2972 89.7399 59.9651 88.8719C59.6331 88.0039 58.2701 87.7203 56.9209 88.2364C55.5716 88.7538 54.7471 89.8755 55.0791 90.7422Z" fill="#E3A358"/>
<path d="M80.2142 74.6826C80.795 76.1997 82.2077 77.2667 83.9201 77.4819C85.6325 77.6958 87.3835 77.0255 88.5151 75.7234C89.6468 74.4202 89.9863 72.6829 89.4055 71.1657C88.8248 69.6473 87.4121 68.5815 85.6997 68.3664C83.9873 68.1525 82.2351 68.8228 81.1034 70.1248C79.9718 71.4281 79.6335 73.1654 80.2142 74.6826Z" fill="#E3A358"/>
<path d="M36.8098 93.61C37.3905 95.1271 38.8033 96.1941 40.5157 96.4093C42.2281 96.6232 43.9802 95.9529 45.1119 94.6509C46.2436 93.3476 46.583 91.6103 46.0023 90.0931C45.4215 88.5759 44.0088 87.5089 42.2964 87.2938C40.584 87.0799 38.8318 87.7502 37.7002 89.0522C36.5685 90.3555 36.2291 92.0928 36.8098 93.61Z" fill="#E3A358"/>
<path d="M27.2554 86.5999C28.167 86.8063 29.0797 86.6857 29.6518 86.2815C30.2226 85.8773 30.3643 85.253 30.0236 84.6412C29.6829 84.0306 28.9119 83.5257 28.0003 83.3193C27.0888 83.1116 26.176 83.2335 25.6039 83.6376C25.0331 84.0418 24.8914 84.6661 25.2321 85.2767C25.5716 85.8885 26.3439 86.3922 27.2554 86.5999Z" fill="#E3A358"/>
<path d="M46.7683 68.0866C47.5281 68.2594 48.2693 68.2457 48.7133 68.0493C49.1572 67.8528 49.2356 67.5058 48.9209 67.1377C48.6051 66.7696 47.9422 66.4363 47.1824 66.2635C46.4226 66.0906 45.6814 66.1043 45.2375 66.3008C44.7935 66.4973 44.7152 66.8442 45.0298 67.2123C45.3457 67.5817 46.0085 67.9137 46.7683 68.0866Z" fill="#E3A358"/>
<path d="M12.4544 72.3595C13.0414 72.4926 13.6296 72.4068 14.0002 72.1357C14.3708 71.8633 14.464 71.4467 14.2489 71.0426C14.0325 70.6371 13.5388 70.3064 12.9531 70.1733C12.3661 70.0402 11.7779 70.1248 11.4086 70.3971C11.038 70.6682 10.9435 71.0861 11.1598 71.4902C11.3737 71.8944 11.8687 72.2265 12.4544 72.3595Z" fill="#E3A358"/>
<path d="M36.0823 63.6967C36.8558 64.2215 37.6765 64.5498 38.2361 64.5572C38.7958 64.5647 39.0097 64.2501 38.7958 63.7327C38.5831 63.2142 37.975 62.5725 37.2015 62.0477C36.428 61.5229 35.6072 61.1946 35.0464 61.1871C34.4868 61.1796 34.2741 61.4943 34.4868 62.0116C34.7007 62.5302 35.3088 63.1719 36.0823 63.6967Z" fill="#E3A358"/>
<path d="M48.5006 97C21.7563 97 0 75.2434 0 48.5012C0 21.7566 21.7563 0 48.5006 0C75.2437 0 97 21.7566 97 48.5012C97 75.2434 75.2424 97 48.5006 97ZM48.5006 5.30764C24.7185 5.30764 5.371 24.6567 5.371 48.4378C5.371 72.219 24.7198 91.568 48.5006 91.568C72.2815 91.568 91.6302 72.2202 91.6302 48.4378C91.6302 24.6554 72.2815 5.30764 48.5006 5.30764ZM48.5006 66.4152C38.6217 66.4152 30.5857 58.3791 30.5857 48.5012C30.5857 38.5886 38.6217 30.5239 48.5006 30.5239C58.3783 30.5239 66.4143 38.56 66.4143 48.4391C66.4143 58.3505 58.3783 66.4152 48.5006 66.4152ZM48.5006 35.8925C41.5826 35.8925 35.9554 41.521 35.9554 48.4378C35.9554 55.3547 41.5839 60.9832 48.5006 60.9832C55.4174 60.9832 61.0458 55.3547 61.0458 48.4378C61.0446 41.521 55.4174 35.8925 48.5006 35.8925Z" fill="#4C2F1B"/>
<path d="M51.1159 23.4591L40.6512 16.5447C40.2147 16.2948 40.1525 15.7351 40.4012 15.2986L41.5851 13.5551C41.8338 13.1186 42.3947 13.0564 42.8312 13.3052L53.2958 20.2195C53.7323 20.4695 53.7945 21.0303 53.5446 21.4656L52.3607 23.2104C52.1132 23.6456 51.5524 23.7078 51.1159 23.4591Z" fill="#DB79AD"/>
<path d="M9.56805 34.4225L12.3089 28.4434C12.4954 28.0069 13.0563 27.8203 13.4928 28.0069L15.424 28.8786C15.8605 29.0652 16.0471 29.626 15.8605 30.0625L13.1197 36.0417C12.9319 36.4782 12.3723 36.6647 11.9358 36.4782L10.0045 35.6064C9.56805 35.3565 9.31933 34.859 9.56805 34.4225ZM77.5891 33.9239L72.3561 29.8747C71.983 29.5638 71.9196 29.003 72.1696 28.6287L73.4778 26.9473C73.7887 26.5743 74.3495 26.5108 74.7239 26.7608L79.9568 30.8099C80.3299 31.1221 80.3933 31.6817 80.1433 32.056L78.8351 33.7386C78.5242 34.1738 77.9634 34.2348 77.5891 33.9239Z" fill="#F6B173"/>
<path d="M64.4457 25.4526L60.8331 17.2921C60.6466 16.8556 60.8331 16.2948 61.2696 16.1082L63.1997 15.2365C63.6362 15.0499 64.197 15.2365 64.3836 15.673L67.9961 23.8334C68.1827 24.2699 67.9961 24.8295 67.5596 25.0173L65.6284 25.8891C65.1944 26.0756 64.6957 25.8878 64.4457 25.4526ZM24.3305 40.6517L20.7179 32.4913C20.5314 32.0548 20.7179 31.4952 21.1544 31.3074L23.0857 30.4356C23.5222 30.2491 24.0818 30.4356 24.2696 30.8721L27.8822 39.0326C28.0687 39.4691 27.8822 40.0299 27.4457 40.2164L25.5144 41.0882C25.017 41.3369 24.5183 41.0882 24.3305 40.6517Z" fill="#F7E774"/>
<path d="M26.0131 23.77L29.7513 15.6717C29.9378 15.2352 30.4986 15.0487 30.9351 15.2352L32.8664 16.107C33.3029 16.2935 33.4894 16.8544 33.3029 17.2909L29.5647 25.3891C29.3782 25.8256 28.8173 26.0122 28.3808 25.8256L26.4496 24.9539C26.0131 24.7673 25.8265 24.2686 26.0131 23.77ZM82.2612 44.0778L83.5072 35.2321C83.5694 34.7335 84.0059 34.4226 84.5046 34.4847L86.6224 34.7956C87.121 34.8578 87.4319 35.2943 87.3698 35.7917L86.1237 44.6374C86.0615 45.1348 85.625 45.447 85.1276 45.3848L83.0098 45.0739C82.5099 45.0117 82.199 44.5765 82.2612 44.0778Z" fill="#EC6A69"/>
<path d="M21.3795 74.5619C21.8148 74.7858 22.2985 74.833 22.6492 74.6875C22.9987 74.542 23.1616 74.2249 23.0758 73.8555C22.99 73.4862 22.6679 73.1218 22.2326 72.898C21.7974 72.6741 21.3136 72.6269 20.9629 72.7724C20.6135 72.9179 20.4506 73.235 20.5364 73.6043C20.6222 73.9724 20.943 74.3381 21.3795 74.5619Z" fill="#E3A358"/>
<path d="M67.1828 76.7506C67.2935 77.0416 67.7524 77.1747 68.3829 77.0988C69.0146 77.0242 69.7247 76.7519 70.2445 76.3863C70.7643 76.0206 71.0168 75.6152 70.9061 75.3242C70.7942 75.0332 70.3365 74.9002 69.7048 74.9748C69.0731 75.0494 68.363 75.3205 67.8432 75.6874C67.3234 76.0542 67.0709 76.4596 67.1828 76.7506Z" fill="#E3A358"/>
<path d="M39.2198 73.4825C39.8105 73.919 40.5119 74.1117 41.0591 73.9886C41.6062 73.8655 41.9171 73.4452 41.8724 72.8855C41.8288 72.3272 41.4384 71.7128 40.8477 71.2763C40.257 70.8398 39.5556 70.6471 39.0084 70.7702C38.4612 70.8933 38.1503 71.3136 38.1951 71.8733C38.2374 72.4341 38.6291 73.0472 39.2198 73.4825Z" fill="#E3A358"/>
<path d="M56.6734 81.8406C56.7443 82.3518 57.437 82.6776 58.2204 82.5694C59.0051 82.4612 59.5821 81.9588 59.5112 81.4477C59.4403 80.9366 58.7477 80.6095 57.9642 80.7189C57.1795 80.8271 56.6025 81.3295 56.6734 81.8406Z" fill="#E3A358"/>
</g>
<defs>
<clipPath id="clip0_3_523">
<rect width="97" height="97" fill="white"/>
</clipPath>
</defs>
</svg>
