<svg width="74" height="106" viewBox="0 0 74 106" fill="none" xmlns="http://www.w3.org/2000/svg">
<g clip-path="url(#clip0_4_671)">
<path d="M28.6729 96.9664C28.4293 96.9664 28.187 96.9664 27.9434 96.9064C27.1534 96.6649 26.4252 96.1844 25.9393 95.5213C25.4534 94.8594 25.3323 94.0161 25.5746 93.1128L36.7523 47.521L38.4534 47.7612C39.3646 47.8814 40.2758 48.0616 41.187 48.243L43.0093 48.6646L31.7711 94.5579C31.4064 95.9418 30.1305 96.9664 28.6729 96.9664Z" fill="#FF5A5A"/>
<path d="M38.1506 49.5668C38.9406 49.6268 39.8517 49.8671 40.6417 49.9884L29.8288 94.0149C29.7076 94.6168 29.1612 94.9783 28.5529 94.9783H28.2488C27.58 94.8582 27.1547 94.075 27.2771 93.4731L38.1506 49.5668ZM35.2947 45.4116L34.5047 48.6634L23.7523 92.5686C23.4482 93.8936 23.6918 95.2787 24.3606 96.3622C25.0888 97.507 26.1829 98.3492 27.5194 98.6507C27.8841 98.7107 28.3094 98.7708 28.6741 98.7708C31.0429 98.7708 33.1088 97.1443 33.5947 94.9171L44.4076 50.8906L45.3188 47.2159L41.6123 46.3126C40.6406 46.0723 39.6082 45.8909 38.697 45.8309L35.2947 45.4116Z" fill="#4C2F1B"/>
<path d="M60.8087 102.868H15.7941C15.1264 102.868 14.5182 102.265 14.5182 101.603V24.3317C14.5182 23.6698 15.1252 23.0668 15.7941 23.0668H60.8087C61.4776 23.0668 62.0846 23.6698 62.0846 24.3317V101.603C62.0846 102.327 61.5381 102.868 60.8087 102.868Z" fill="white"/>
<path d="M14.6406 56.9149C14.6406 56.9149 28.1871 45.9534 42.2206 50.4112C56.2529 54.868 62.1465 49.3866 62.1465 49.3866V98.8332C62.1465 101.122 60.3241 102.868 58.0765 102.868H18.7106C16.4024 102.868 14.6406 101.062 14.6406 98.8332V56.9149Z" fill="#FFFDAB"/>
<path d="M28.6729 96.9664C28.4293 96.9664 28.187 96.9664 27.9434 96.9064C27.1534 96.6649 26.4252 96.1844 25.9393 95.5213C25.4534 94.8594 25.3323 94.0161 25.5746 93.1128L45.744 11.0216C46.0481 9.99698 46.7764 9.15487 47.8087 8.73323L67.9781 2.04816C68.3428 1.92685 68.6458 1.92685 69.0105 1.92685C70.4075 1.92685 71.5622 2.83021 72.0481 4.03507C72.3522 4.81829 72.2916 5.72165 71.9269 6.4448C71.5622 7.16678 70.8946 7.7698 70.1046 8.07132L51.5758 14.1545L31.7723 94.5579C31.4064 95.9418 30.1305 96.9664 28.6729 96.9664Z" fill="#FF5A5A"/>
<path d="M68.8893 3.7948C69.3752 3.7948 69.9217 4.15638 70.0441 4.69816C70.2864 5.36007 69.9229 6.08322 69.2541 6.32467L49.7535 12.8295L29.8276 94.1351C29.7064 94.7381 29.16 95.0985 28.5517 95.0985H28.2476C27.5788 94.9784 27.1535 94.1951 27.2759 93.5933L47.5664 11.4433C47.627 11.0216 47.9917 10.7213 48.3564 10.5399L68.5246 3.85487C68.5852 3.7948 68.7682 3.7948 68.8893 3.7948ZM68.8893 0C68.4035 0 67.7952 0.0600667 67.2488 0.301511L47.0805 6.98658C45.3794 7.58842 44.1641 8.85336 43.7994 10.5399L23.6917 92.5698C23.0241 95.2799 24.7253 98.05 27.4588 98.7131C27.8235 98.7732 28.2488 98.8332 28.6123 98.8332C30.9811 98.8332 33.047 97.2067 33.5329 94.9784L53.0335 15.6586L70.5287 9.81678C71.8652 9.39513 72.8976 8.49178 73.444 7.28691C74.0511 6.02198 74.1723 4.75704 73.7481 3.43204C73.0199 1.38507 71.137 0 68.8893 0Z" fill="#4C2F1B"/>
<path d="M59.9581 106H16.7064C13.79 106 11.4211 103.652 11.4211 100.76V25.2351C11.4211 22.3448 13.7911 19.9951 16.7064 19.9951H59.9593C62.8758 19.9951 65.2446 22.3436 65.2446 25.2351V100.76C65.2434 103.652 62.8746 106 59.9581 106ZM17.7994 99.7366H58.9258V26.3198H17.7994V99.7366Z" fill="#4C2F1B"/>
<path d="M54.8558 94.6768L50.9082 96.122C50.5435 96.2421 49.997 96.0619 49.8747 95.7003L48.417 91.7854C48.2958 91.4238 48.4776 90.882 48.8423 90.7619L52.7899 89.3168C53.1546 89.1955 53.7011 89.3768 53.8235 89.7384L55.2811 93.6534C55.4641 94.1351 55.2205 94.5567 54.8558 94.6768ZM37.6647 94.3164L37.7858 91.0646C37.7858 90.7631 38.09 90.5829 38.3929 90.5829L41.6729 90.703C41.977 90.703 42.1588 91.0045 42.1588 91.3049L42.0364 94.5567C42.0364 94.8582 41.7335 95.0384 41.4294 95.0384L38.1494 94.9183C37.8464 94.9183 37.6647 94.6168 37.6647 94.3164ZM44.4682 89.0164L41.7347 87.2097C41.6135 87.0896 41.4923 86.8482 41.6741 86.728L43.4964 84.018C43.6176 83.8978 43.8611 83.7777 43.9823 83.9579L46.7158 85.7646C46.837 85.8847 46.9594 86.1262 46.7764 86.2463L44.9541 88.9564C44.8329 89.0765 44.65 89.1366 44.4682 89.0164Z" fill="#FFEE88"/>
<path d="M52.6699 75.525H51.0293C50.4223 75.525 49.9364 75.0433 49.9364 74.4414V58.6015C49.9364 57.9997 50.4223 57.518 51.0293 57.518H52.6699C53.277 57.518 53.7629 57.9997 53.7629 58.6015V74.4414C53.7629 75.0433 53.2152 75.525 52.6699 75.525Z" fill="white"/>
<path d="M28.6729 96.9664C28.4293 96.9664 28.187 96.9664 27.9434 96.9064C27.1534 96.6649 26.4252 96.1844 25.9393 95.5213C25.4534 94.8594 25.3323 94.0161 25.5746 93.1128L36.7523 47.521L38.4534 47.7612C39.3646 47.8814 40.2758 48.0616 41.187 48.243L43.0093 48.6646L31.7711 94.5579C31.4064 95.9418 30.1305 96.9664 28.6729 96.9664Z" fill="#FFB69C"/>
<path d="M38.1506 49.5668C38.9406 49.6268 39.8517 49.8671 40.6417 49.9884L29.8288 94.0149C29.7076 94.6168 29.1612 94.9783 28.5529 94.9783H28.2488C27.58 94.8582 27.1547 94.075 27.2771 93.4731L38.1506 49.5668ZM35.2947 45.4116L34.5047 48.6634L23.7523 92.5686C23.4482 93.8936 23.6918 95.2787 24.3606 96.3622C25.0888 97.507 26.1829 98.3492 27.5194 98.6507C27.8841 98.7107 28.3094 98.7708 28.6741 98.7708C31.0429 98.7708 33.1088 97.1443 33.5947 94.9171L44.4076 50.8906L45.3188 47.2159L41.6123 46.3126C40.6406 46.0723 39.6082 45.8909 38.697 45.8309L35.2947 45.4116Z" fill="#4C2F1B"/>
<path d="M49.9353 80.6448C49.9353 81.6765 50.7788 82.5116 51.8194 82.5116C52.8589 82.5116 53.7024 81.6765 53.7024 80.6448C53.7024 79.6142 52.8589 78.778 51.8194 78.778C50.7788 78.778 49.9353 79.6131 49.9353 80.6448Z" fill="white"/>
<path d="M58.0146 106H18.7105C14.7617 106 11.4211 102.808 11.4211 98.7732V56.9149C11.4211 55.9515 11.8464 55.1082 12.5759 54.4451C13.1829 53.9634 27.6405 42.4601 43.0711 47.3985C54.8558 51.1321 59.7158 47.1582 59.8987 46.9769C60.8705 46.0735 62.207 45.9522 63.3011 46.375C64.4546 46.8567 65.184 48.0616 65.184 49.2665V98.7131C65.2434 102.808 62.024 106 58.0146 106ZM17.7994 58.5415V98.7732C17.7994 99.2549 18.1641 99.6765 18.7105 99.6765H58.0764C58.5623 99.6765 58.9876 99.2549 58.9876 98.7732V54.4451C55.2217 55.5299 49.4493 56.0717 41.2488 53.4217C31.2852 50.2899 21.2005 56.2519 17.7994 58.5415Z" fill="#4C2F1B"/>
<path d="M5.65596 30.9532C10.6134 35.8692 18.6536 35.8692 23.611 30.9532C28.5696 26.0371 28.5696 18.0671 23.611 13.1511C18.6536 8.2362 10.6134 8.2362 5.65596 13.1511C0.697362 18.0671 0.697362 26.0371 5.65596 30.9532Z" fill="#FFFA94"/>
<path d="M15.0054 18.0082H14.2153C13.9112 18.0082 13.7295 17.768 13.7295 17.5265V14.8164C13.7295 14.5149 13.9718 14.3347 14.2153 14.3347H15.0054C15.3095 14.3347 15.4912 14.5762 15.4912 14.8164V17.5265C15.4912 17.7668 15.3083 18.0082 15.0054 18.0082ZM10.5089 21.6817V22.4649C10.5089 22.7664 10.2665 22.9466 10.023 22.9466H7.28947C6.98535 22.9466 6.80359 22.7052 6.80359 22.4649V21.6817C6.80359 21.3802 7.04712 21.2 7.28947 21.2H10.023C10.3271 21.1399 10.5089 21.3802 10.5089 21.6817ZM14.2153 26.0784H15.0054C15.3095 26.0784 15.4912 26.3198 15.4912 26.5601V29.2701C15.4912 29.5716 15.2477 29.7518 15.0054 29.7518H14.2153C13.9112 29.7518 13.7295 29.5104 13.7295 29.2701V26.5601C13.6689 26.3198 13.9112 26.0784 14.2153 26.0784ZM18.7106 22.4649V21.6817C18.7106 21.3802 18.9542 21.2 19.1965 21.2H21.93C22.2342 21.2 22.4159 21.4403 22.4159 21.6817V22.4649C22.4159 22.7664 22.1736 22.9466 21.93 22.9466H19.1965C18.8936 23.0668 18.7106 22.7653 18.7106 22.4649Z" fill="#242424"/>
<path d="M14.6406 36.4982C10.7523 36.4982 7.04705 34.9918 4.25175 32.2817C1.45764 29.5116 0 25.8381 0 21.9832C0 18.1284 1.51823 14.4549 4.25294 11.6836C7.04705 8.91343 10.7535 7.46712 14.6418 7.46712C18.53 7.46712 22.2353 8.97349 25.0294 11.6836C27.8247 14.4549 29.2823 18.1284 29.2823 21.9832C29.2823 25.8381 27.7641 29.5116 25.0294 32.2829C22.2341 35.0518 18.5288 36.4982 14.6406 36.4982ZM14.6406 11.3832C11.8453 11.3832 9.11294 12.4079 6.98647 14.5149C2.79411 18.6701 2.79411 25.5366 6.98647 29.6918C11.1776 33.847 18.1035 33.847 22.2947 29.6918C26.4859 25.5366 26.4859 18.6701 22.2947 14.5149C20.1682 12.4067 17.3741 11.3832 14.6406 11.3832Z" fill="#4C2F1B"/>
</g>
<defs>
<clipPath id="clip0_4_671">
<rect width="74" height="106" fill="white"/>
</clipPath>
</defs>
</svg>
