<svg width="123" height="70" viewBox="0 0 123 70" fill="none" xmlns="http://www.w3.org/2000/svg">
<g clip-path="url(#clip0_3_361)">
<path d="M61.7098 39.4333C38.6988 39.4333 21.6922 28.1513 19.8297 26.8692C16.9687 24.8878 15.0318 21.9209 14.4057 18.494C13.7797 15.0657 14.5103 11.593 16.4917 8.73202C18.9214 5.19922 22.9456 3.08319 27.2378 3.08319C29.8753 3.08319 32.4096 3.87392 34.6001 5.3639C35.0614 5.67627 46.4937 13.2777 61.5006 13.2777C70.3385 13.2777 78.6693 10.6245 86.2564 5.39396C88.4469 3.8883 90.9956 3.08319 93.6488 3.08319C97.9409 3.08319 101.965 5.18484 104.395 8.71764C106.378 11.5787 107.107 15.0513 106.481 18.4796C105.855 21.9078 103.918 24.8891 101.056 26.8561C88.9684 35.2013 75.7351 39.4333 61.7098 39.4333Z" fill="#F4A360"/>
<path d="M61.7097 42.4865C38.6687 42.4865 21.3301 31.5848 18.0875 29.3995C14.5573 26.9607 12.1786 23.2841 11.3983 19.0521C10.6167 14.8122 11.529 10.5305 13.9718 6.99634C16.9713 2.63359 21.93 0.0287539 27.2377 0.0287539C30.4843 0.0287539 33.6172 0.98286 36.2978 2.78782C36.3828 2.85055 47.2883 10.1946 61.5006 10.1946C69.6955 10.1946 77.4407 7.72172 84.5207 2.84402C87.2196 0.98286 90.376 0 93.65 0C98.9577 0 103.916 2.60484 106.915 6.96628C109.354 10.5174 110.268 14.8004 109.488 19.0233C108.708 23.2554 106.329 26.9319 102.791 29.3747C90.1826 38.0754 76.3611 42.4865 61.7097 42.4865ZM27.2377 6.13634C23.9676 6.13634 20.8884 7.74786 18.9998 10.4468C15.8721 14.9768 17.0171 21.2047 21.5497 24.3336C22.2542 24.8224 39.0961 36.3645 61.6953 36.3645C75.0646 36.3645 87.7189 32.3167 99.3054 24.3336C101.5 22.8267 102.977 20.5512 103.46 17.9293C103.944 15.3049 103.375 12.6478 101.859 10.4494C99.9955 7.74786 96.9215 6.13503 93.6331 6.13503C91.5981 6.13503 89.6415 6.74409 87.9751 7.89686C79.8626 13.4908 70.9502 16.3283 61.4862 16.3283C45.9892 16.3283 34.1531 8.73987 32.8539 7.87464C31.2058 6.74017 29.261 6.13634 27.2377 6.13634Z" fill="#4C2F1B"/>
<path d="M62.8873 52.7424C42.6328 52.7424 24.0931 44.6051 13.4816 36.9892C10.6507 34.9621 8.78691 31.9521 8.21968 28.5094C7.65375 25.0668 8.45886 21.6242 10.5004 18.7919C12.9445 15.3938 16.9086 13.3522 21.0975 13.3522C23.8252 13.3522 26.4483 14.1874 28.6689 15.7819C28.848 15.9009 33.2891 19.0455 40.1901 21.9222C47.9105 25.1413 55.5263 26.7816 62.8285 26.7816C73.4099 26.7816 83.0686 23.2632 91.5183 16.3191C93.8435 14.4109 96.7803 13.3522 99.7903 13.3522C103.71 13.3522 107.392 15.0958 109.88 18.1215C112.087 20.8034 113.129 24.2016 112.787 27.6743C112.445 31.147 110.776 34.2615 108.092 36.4821C94.9309 47.274 79.728 52.7424 62.8873 52.7424Z" fill="#FF6C4A"/>
<path d="M62.8874 55.827C41.9297 55.827 22.7038 47.3864 11.6989 39.4882C8.20401 36.9736 5.89586 33.2526 5.20054 29.0088C4.50653 24.778 5.50768 20.5159 8.01711 17.0079C11.0258 12.8073 15.9166 10.2991 21.0975 10.2991C24.4709 10.2991 27.7004 11.3317 30.4373 13.2843C30.4739 13.3104 34.7216 16.327 41.3651 19.1057C48.7195 22.1719 55.9407 23.7272 62.8285 23.7272C72.6728 23.7272 81.6689 20.4388 89.567 13.9522C92.4293 11.5865 96.0589 10.2834 99.7903 10.2834C104.645 10.2834 109.178 12.4387 112.228 16.1963C114.955 19.5056 116.227 23.6919 115.814 27.988C115.402 32.271 113.341 36.1332 110.014 38.8635C96.3072 50.1193 80.452 55.827 62.8874 55.827ZM21.0975 16.4198C17.8915 16.4198 14.8592 17.9725 12.985 20.5721C9.77241 25.0446 10.7958 31.2947 15.2631 34.506C25.4851 41.8461 43.3635 49.6893 62.8874 49.6893C79.0052 49.6893 93.5573 44.4457 106.14 34.1021C108.197 32.4122 109.475 30.0217 109.735 27.3711C109.997 24.7166 109.209 22.1196 107.513 20.0572C105.597 17.7359 102.782 16.4054 99.789 16.4054C97.4822 16.4054 95.2315 17.2144 93.4514 18.6848C84.4449 26.0928 74.1419 29.8478 62.8272 29.8478C55.1225 29.8478 47.1106 28.1331 39.0125 24.7506C31.6227 21.6608 26.9476 18.3136 26.9019 18.2796C25.2002 17.0628 23.1926 16.4198 21.0975 16.4198Z" fill="#4C2F1B"/>
<path d="M36.9396 36.1096C33.6917 36.1096 32.5141 32.9794 31.7233 30.9078C30.9039 28.7316 30.3824 27.6886 29.6818 27.6886C27.9827 27.6886 26.6117 26.3176 26.6117 24.6185C26.6117 22.9194 27.9827 21.5484 29.6818 21.5484C34.6445 21.5484 36.4325 26.0052 37.4022 28.5539C38.7132 26.7215 40.8449 24.0225 44.4966 24.0225C48.1771 24.0225 50.4277 26.7202 51.9334 28.4938C52.2013 28.8218 52.5595 29.2531 52.8575 29.5668C53.3633 29.1198 54.0494 28.3448 54.4964 27.8389C56.091 26.0353 57.909 23.9938 60.4432 23.9938C63.0808 23.9938 65.0792 26.2287 66.8371 28.2114C67.0462 28.4493 67.2841 28.7172 67.5376 28.9865C67.5821 28.9264 67.6121 28.8819 67.6422 28.8218C68.9531 26.8992 70.9515 23.9938 74.3484 23.9938C77.0159 23.9938 78.8797 26.1242 80.503 28.018C80.6677 28.1971 80.8611 28.4206 81.0545 28.6441C81.0545 28.614 81.0702 28.5996 81.0702 28.5839C81.9342 25.9164 83.5287 20.9681 88.4469 20.9681C90.146 20.9681 91.517 22.3391 91.517 24.0382C91.517 25.7373 90.146 27.1083 88.4469 27.1083C87.8954 27.4063 87.2249 29.4779 86.9125 30.4765C86.1675 32.8003 85.1389 35.9907 81.8753 35.9907C79.2666 35.9907 77.4485 33.9047 75.854 32.0553C75.407 31.5338 74.7065 30.73 74.2294 30.3118C73.7524 30.7444 73.0819 31.7273 72.6793 32.3089C71.5017 34.0367 70.1607 35.9894 67.7467 35.9894C65.4961 35.9894 63.9172 34.2014 62.2325 32.3089C61.7411 31.7573 61.0105 30.9365 60.4589 30.4464C60.0119 30.8633 59.4604 31.5038 59.0722 31.9364C57.3888 33.8433 55.4662 35.9894 52.7529 35.9894C50.1598 35.9894 48.5195 34.0367 47.1942 32.4566C46.2545 31.3391 45.286 30.1772 44.4665 30.1772C43.8104 30.1772 43.0955 31.1156 42.1414 32.4422C41.0827 33.9792 39.5627 36.1096 36.9396 36.1096Z" fill="#F9AF38"/>
<path d="M61.3673 66.9312C39.9509 66.9312 23.0645 58.4658 20.0245 56.3798C17.1622 54.3971 15.2095 51.8929 14.39 49.1364C13.4516 45.9918 14.0476 42.6381 16.0734 39.7025C18.5031 36.1697 22.5274 34.0537 26.8195 34.0537C29.4571 34.0537 31.9913 34.8431 34.1831 36.3331C34.6445 36.6455 46.0768 44.247 61.085 44.247C69.9229 44.247 78.2537 41.5938 85.8408 36.3632C88.0313 34.8588 90.5799 34.0537 93.2331 34.0537C97.5266 34.0537 101.55 36.1541 103.979 39.6869C105.992 42.608 106.723 45.7683 106.097 48.8084C105.485 51.7596 103.637 54.3814 100.731 56.3798C87.255 65.649 73.8557 66.9312 61.3673 66.9312Z" fill="#F4A360"/>
<path d="M61.3529 70C36.0757 70 18.4247 58.9951 18.2496 58.884C14.8239 56.5236 12.4596 53.4482 11.4388 50.0043C10.2377 45.933 10.9827 41.6526 13.5378 37.9525C16.5374 33.5897 21.4961 30.9849 26.8038 30.9849C30.0648 30.9849 33.1963 31.9481 35.8587 33.7701C35.9528 33.8381 46.9577 41.1781 61.0667 41.1781C69.2616 41.1781 77.0055 38.7053 84.0868 33.8276C86.7857 31.9677 89.9408 30.9836 93.2148 30.9836C98.5225 30.9836 103.481 33.5884 106.48 37.9499C108.98 41.5729 109.876 45.5409 109.071 49.424C108.294 53.175 106.002 56.4504 102.446 58.8971C88.3084 68.6551 74.3405 70 61.3529 70ZM26.8051 37.1069C23.5311 37.1069 20.4466 38.7184 18.5541 41.4173C15.6042 45.6964 16.8223 50.4565 21.7288 53.8455C21.8765 53.9462 38.1904 63.8636 61.3372 63.8636C73.3276 63.8636 86.1832 62.6494 98.963 53.8455C101.258 52.268 102.691 50.2552 103.101 48.0255C103.498 45.8676 102.919 43.5856 101.427 41.4212C99.5616 38.7197 96.4875 37.1069 93.2005 37.1069C91.1668 37.1069 89.2102 37.7159 87.5425 38.8687C79.43 44.4626 70.5163 47.3001 61.0536 47.3001C45.5448 47.3001 33.7191 39.7117 32.4213 38.8465C30.7732 37.7107 28.8271 37.1069 26.8051 37.1069Z" fill="#4C2F1B"/>
<path d="M36.8952 57.1993C36.4625 57.1993 36.0299 57.0202 35.7319 56.6634C35.1817 56.023 35.2549 55.0532 35.911 54.5017C39.2504 51.655 38.1917 47.6007 38.1459 47.4374C37.9225 46.6166 38.3995 45.7827 39.219 45.5448C40.0385 45.3213 40.8736 45.784 41.1115 46.6022C41.186 46.8557 42.7805 52.698 37.9068 56.8412C37.5957 57.0804 37.252 57.1993 36.8952 57.1993ZM61.9032 61.0745C61.6352 61.0745 61.3673 61 61.1138 60.8654C60.3831 60.4328 60.1453 59.4944 60.5779 58.7651C62.8873 54.8898 60.3387 52.0131 60.3243 51.9831C59.7584 51.357 59.8028 50.3885 60.4289 49.8226C61.0549 49.2554 62.0234 49.3011 62.5894 49.9272C64.0048 51.4917 65.9732 55.6949 63.2154 60.3295C62.9318 60.8053 62.4247 61.0745 61.9032 61.0745Z" fill="#4C2F1B"/>
<path d="M87.6274 56.8124C87.3883 56.8124 87.1504 56.7523 86.9269 56.6477C86.1675 56.2608 85.8839 55.3368 86.2708 54.5761C88.1489 50.9401 84.9886 48.0921 84.8553 47.9732C84.2293 47.4073 84.1548 46.4532 84.7063 45.8114C85.2565 45.171 86.2263 45.1109 86.8668 45.6624C88.656 47.2125 91.3981 51.3557 88.9985 55.9903C88.7162 56.5131 88.179 56.8124 87.6274 56.8124Z" fill="#4C2F1B"/>
<path d="M118.628 28.9264C118.241 28.9264 117.853 28.8218 117.511 28.6284L114.142 26.6914C113.114 26.0941 112.726 24.7989 113.263 23.7402L114.978 20.3721C115.364 19.6128 116.125 19.1501 116.975 19.1501C117.959 19.1501 118.823 19.7761 119.106 20.7146L120.761 26.021C120.97 26.7071 120.851 27.4364 120.433 28.018C120.013 28.584 119.343 28.9264 118.628 28.9264Z" fill="#FF6C4A"/>
<path d="M116.973 20.6701C117.257 20.6701 117.539 20.8335 117.644 21.1615L119.299 26.4666C119.448 26.9581 119.075 27.3907 118.628 27.3907C118.509 27.3907 118.39 27.3606 118.271 27.3018L114.903 25.3648C114.575 25.1714 114.456 24.7688 114.619 24.4408L116.349 21.057C116.482 20.8034 116.72 20.6701 116.973 20.6701ZM116.973 17.6C115.542 17.6 114.261 18.3894 113.605 19.6559L111.892 23.024C110.983 24.812 111.638 27.0025 113.382 28.001L116.75 29.938C117.33 30.2661 117.972 30.4451 118.628 30.4451C119.821 30.4451 120.969 29.8635 121.668 28.895C122.369 27.9409 122.576 26.6744 122.22 25.5413L120.565 20.2349C120.074 18.6717 118.628 17.6 116.973 17.6Z" fill="#4C2F1B"/>
<path d="M3.77853 24.6643C3.06361 24.6643 2.39312 24.3219 1.97488 23.7403C1.55795 23.1587 1.43901 22.4437 1.64682 21.7432L3.30148 16.4368C3.59947 15.4984 4.44902 14.8723 5.44756 14.8723C6.29711 14.8723 7.05778 15.3337 7.44465 16.0944L9.15943 19.4625C9.69529 20.5198 9.30842 21.8177 8.27982 22.4137L4.9117 24.3506C4.55358 24.5598 4.16671 24.6643 3.77853 24.6643Z" fill="#FF6C4A"/>
<path d="M5.43317 16.4224C5.68672 16.4224 5.9246 16.5413 6.05922 16.8092L7.77269 20.1774C7.93606 20.5054 7.81713 20.9223 7.48907 21.1014L4.12094 23.0384C4.00201 23.0985 3.88307 23.1272 3.76414 23.1272C3.31714 23.1272 2.94465 22.6946 3.09365 22.2032L4.7483 16.8968C4.86593 16.5857 5.14955 16.4224 5.43317 16.4224ZM5.43317 13.3522C3.77851 13.3522 2.31729 14.4109 1.82586 16.0041L0.171208 21.3105C-0.185602 22.4581 0.0222103 23.7102 0.722759 24.6643C1.43769 25.6341 2.57085 26.2144 3.76283 26.2144C4.41894 26.2144 5.07374 26.0366 5.64098 25.7073L9.0091 23.7703C10.7526 22.7704 11.4087 20.5812 10.4847 18.7919L8.77123 15.4238C8.14518 14.1417 6.86433 13.3522 5.43317 13.3522Z" fill="#4C2F1B"/>
</g>
<defs>
<clipPath id="clip0_3_361">
<rect width="122.391" height="70" fill="white"/>
</clipPath>
</defs>
</svg>
