<svg width="62" height="114" viewBox="0 0 62 114" fill="none" xmlns="http://www.w3.org/2000/svg">
<g clip-path="url(#clip0_5_811)">
<path d="M13.2017 45.4039C13.2017 45.4039 5.68237 32.0837 22.7933 24.0257C39.9055 15.9678 36.5346 7.71525 36.4056 2.64749C36.4056 2.64749 50.7943 7.58595 50.7943 22.336C50.7943 39.4248 13.2017 45.4039 13.2017 45.4039Z" fill="white"/>
<path d="M40.1646 8.2362C40.1646 8.2362 43.9237 21.7523 36.5997 26.7548C29.2758 31.7585 18.71 33.2524 14.822 39.1662C14.822 39.1662 20.3315 41.9606 29.0817 39.7512C37.8319 37.5418 50.7943 24.4161 50.7943 24.4161C50.7943 24.4161 56.369 3.49232 40.1646 8.2362Z" fill="#5A85FF"/>
<path d="M40.2936 8.62536C40.2936 8.62536 47.1643 17.2683 45.544 23.0503C43.9237 28.8336 36.5997 32.6021 35.4978 32.862C34.3959 33.1218 18.581 36.5011 14.8858 39.165C14.8858 39.165 32.2559 39.0344 37.1181 36.3706C42.0441 33.7068 52.6087 26.6883 50.2108 21.1008C47.8129 15.5133 45.6091 5.831 40.2936 8.62536Z" fill="#507BE1"/>
<path d="M13.8064 48.1644C13.5497 48.1117 13.3795 48.1117 13.2004 48.1117C12.2275 48.1117 11.3334 47.5957 10.8676 46.7647C10.2991 45.6713 7.61195 40.0048 9.62544 33.7181C11.2583 28.6792 15.3278 24.5944 21.7177 21.5803C34.9706 15.4066 34.4347 9.87566 33.9614 4.9962C33.8963 4.15262 33.8312 3.43457 33.7661 2.71653C33.7686 1.89178 34.1793 1.04694 34.868 0.515939C35.3275 0.188299 35.8998 0 36.462 0C36.7637 0 37.058 0.0527237 37.336 0.156916C40.1108 1.21516 53.5591 7.12398 53.5591 22.4653C53.5591 41.363 16.6965 47.6974 13.8064 48.1644ZM39.4947 8.46718C39.2744 13.5927 37.316 20.2698 24.0016 26.4711C19.0167 28.8349 15.9113 31.8112 14.7681 35.3199C13.9955 37.7828 14.2985 40.1667 14.6892 41.7346L14.8445 42.3572L15.4718 42.2304C18.8114 41.5526 48.0934 35.237 48.0934 22.3385C48.0934 15.0137 43.9963 10.4744 40.5591 7.95501L39.5486 7.21436L39.4947 8.46718Z" fill="#4C2F1B"/>
<path d="M6.52507 63.9878C6.52507 63.9878 -1.9659 49.5615 16.1831 42.415C33.4242 35.5923 37.4424 42.2844 49.8226 26.7548C51.5732 29.9383 57.8591 38.7758 49.1102 49.8867C45.2848 54.7611 15.5344 64.2476 6.52507 63.9878Z" fill="white"/>
<path d="M49.174 31.043C49.174 31.043 51.8975 44.2992 28.0449 46.1835C12.0997 47.4187 6.26587 59.7649 6.26587 59.7649L43.0158 53.3313L53.6455 42.8694L49.174 31.043Z" fill="#FF5C68"/>
<path d="M22.9235 111.292C21.3032 111.292 19.877 110.122 19.6178 108.498L15.9877 86.8598C15.7936 85.8857 16.118 84.8463 16.7666 84.1307C17.414 83.3512 18.3218 82.9608 19.3586 82.9608H41.5909C42.5626 82.9608 43.5355 83.4152 44.1829 84.1307C44.8315 84.9116 45.0907 85.8857 44.9617 86.8598L41.3317 108.498C41.0725 110.122 39.6463 111.292 38.0259 111.292H22.9235Z" fill="#FFCD8A"/>
<path d="M22.9235 114C19.9584 114 17.3726 111.812 16.9093 108.912L13.278 87.2678C12.9825 85.43 13.4696 83.6161 14.6141 82.2967C15.8124 80.9159 17.5179 80.1237 19.2935 80.1237H41.5258C43.3026 80.1237 45.008 80.9159 46.2051 82.2967C47.3471 83.6713 47.838 85.4865 47.5412 87.2691L43.9111 108.906C43.3815 111.853 40.8508 113.999 37.8957 113.999H22.9235V114ZM22.3563 108.519H38.4617L42.3171 85.5392H18.5008L22.3563 108.519Z" fill="#4C2F1B"/>
<path d="M48.0809 92.2653L30.6456 93.2206H30.2374L12.8022 92.264C11.0992 92.1962 9.60039 90.8982 9.32867 89.191L6.4011 73.8295C5.99289 71.5084 7.76346 69.3242 10.0787 69.3242H50.8056C53.1897 69.3242 54.9603 71.5084 54.4832 73.8295L51.5556 89.1922C51.2138 90.8995 49.7838 92.1284 48.0809 92.2653Z" fill="#FFCD8A"/>
<path d="M3.28445 78.355L4.86094 76.1305L32.7042 95.9685L31.1277 98.1929L3.28445 78.355ZM12.4241 76.3954L14.0005 74.171L41.8426 94.0089L40.2661 96.2334L12.4241 76.3954ZM22.8734 74.7321L24.4512 72.5077L52.2932 92.3456L50.7167 94.57L22.8734 74.7321ZM30.1272 70.3736L31.7037 68.1492L55.8481 85.3522L54.2704 87.5766L30.1272 70.3736Z" fill="#FFBB71"/>
<path d="M26.4609 96.0049L54.3067 76.1707L55.8832 78.3964L28.0374 98.2306L26.4609 96.0049ZM17.3538 93.98L51.8036 69.4409L53.3801 71.6666L18.9303 96.2045L17.3538 93.98ZM6.8043 92.3607L34.6488 72.5265L36.2253 74.7509L8.38079 94.5851L6.8043 92.3607ZM3.28821 85.3836L27.4351 68.1831L29.0116 70.4088L4.86469 87.6093L3.28821 85.3836Z" fill="#FFBB71"/>
<path d="M29.7942 98.6649L13.238 97.7573C8.81279 97.5753 5.12639 94.3504 4.26615 89.9165L1.48007 75.2983C0.939133 72.529 1.69294 69.6267 3.54615 67.3357C5.44069 65.0686 8.08903 63.8158 10.9978 63.8158H49.8239C52.7039 63.8158 55.4123 65.1251 57.0665 67.3182C58.951 69.5125 59.6985 72.4098 59.1463 75.2983L56.359 89.9191C55.5113 94.2901 51.8224 97.5138 47.3872 97.7573L30.8122 98.6649H29.7942ZM11.0617 69.23C9.83205 69.23 8.66503 69.7824 7.85738 70.7477C7.02719 71.7407 6.67909 73.0374 6.90197 74.3066L9.69181 88.9349C9.99358 90.8267 11.6878 92.3268 13.6286 92.4046L30.2111 93.3135L30.6369 93.3147L47.267 92.4034C49.2091 92.2477 50.8169 90.8242 51.1925 88.9399L53.9799 74.3154C54.2353 73.0738 53.9197 71.7871 53.1133 70.7954C52.3044 69.8012 51.1049 69.23 49.8226 69.23H11.0617Z" fill="#4C2F1B"/>
<path d="M49.2391 32.8632C49.2391 32.8632 50.7304 42.415 44.5084 46.8337C36.8601 53.4619 14.9522 52.6823 9.50772 56.9052C9.50772 56.9052 43.8598 57.6208 47.878 47.7426C51.8962 37.8657 53.1922 33.3176 49.2391 32.8632Z" fill="#F93D53"/>
<path d="M6.45994 66.7608C5.55337 66.7608 4.72067 66.2599 4.17598 65.3862C4.11212 65.2908 0.174041 58.5133 2.62078 51.3391C4.29869 46.3542 8.50724 42.5129 15.1287 39.9206C21.7352 37.3485 26.6111 36.707 30.5279 36.1911C37.2258 35.3274 40.9097 34.8516 48.1397 25.8083C48.6418 25.168 49.3781 24.804 50.1632 24.804C50.2609 24.804 50.3586 24.809 50.455 24.8216C51.3878 24.8781 52.1917 25.4091 52.5924 26.21C52.6888 26.3644 52.7452 26.4648 52.8015 26.564C52.8754 26.6933 52.9506 26.8213 53.0232 26.933C55.0692 30.4166 60.5562 39.7524 51.2401 51.6178C46.4994 57.6371 16.2169 66.762 6.78425 66.762H6.45994V66.7608ZM49.0788 32.9837C42.2357 40.1642 37.1507 40.8082 31.2655 41.5538C27.0995 42.0497 22.8772 42.6849 17.1021 44.9746C12.0346 46.9392 8.87162 49.6783 7.70585 53.1154C6.91573 55.3323 7.00088 57.9283 7.9638 60.8218L8.13159 61.3277L8.66126 61.2788C19.0756 60.3122 44.099 51.8174 46.9113 48.2937C52.2932 41.3869 51.3615 36.3806 50.192 33.2147L49.8201 32.2079L49.0788 32.9837Z" fill="#4C2F1B"/>
<path d="M52.4797 44.8189C52.4797 44.8189 48.5905 53.5259 33.3591 56.5801C21.1091 58.984 2.76604 57.4249 2.70093 69.2514C2.70093 80.4928 49.3681 78.5433 55.1368 68.4065C63.4988 53.6564 52.4797 44.8189 52.4797 44.8189Z" fill="white"/>
<path d="M5.87769 69.3166C13.2016 62.5592 32.5164 66.7181 39.3219 64.2476C48.5254 60.8683 52.4797 59.7636 53.2573 49.6268C53.2573 49.6268 65.054 63.3375 49.9516 72.5642C41.2014 77.7637 11.1268 81.4669 5.87769 69.3166Z" fill="#FFF383"/>
<path d="M53.3863 49.5628C53.3863 49.5628 66.6743 76.9189 9.50647 71.9164C9.57158 71.9152 72.9615 83.2859 53.3863 49.5628Z" fill="#F6E259"/>
<path d="M23.0537 79.3015C16.4911 79.3015 11.0354 78.5734 7.27386 77.1976C2.5106 75.5581 0 72.8115 0 69.2514C0 57.8128 13.0163 56.3303 23.4745 55.1377L23.7762 55.1026C27.4188 54.7385 30.3664 54.3318 32.7731 53.8598C45.6103 51.2989 50.6716 44.3545 51.1074 43.2473L51.051 43.4619C51.4605 42.7451 52.1291 42.2606 52.9343 42.0986C53.0795 42.0685 53.2285 42.056 53.3763 42.056C53.9936 42.056 54.6435 42.3033 55.1606 42.7363C60.0228 46.9241 66.7044 58.035 57.1403 70.0673C52.506 76.0678 36.1214 79.3015 23.0537 79.3015ZM53.1033 49.6118C49.8615 52.9283 43.8961 57.2893 33.88 59.2351C30.8535 59.8276 27.395 60.2205 24.4111 60.5256C12.965 61.7997 5.46573 63.0952 5.46573 69.2501C5.46573 70.5318 7.77598 71.5398 9.15337 72.0281C12.4979 73.2056 17.2023 73.8283 22.7595 73.8283C34.4209 73.8283 49.7362 70.8921 53.0683 66.6779C58.9409 59.1974 56.2563 52.8317 54.1339 49.7034L53.6743 49.0255L53.1033 49.6118Z" fill="#4C2F1B"/>
</g>
<defs>
<clipPath id="clip0_5_811">
<rect width="62" height="114" fill="white"/>
</clipPath>
</defs>
</svg>
