<svg width="65" height="110" viewBox="0 0 65 110" fill="none" xmlns="http://www.w3.org/2000/svg">
<g clip-path="url(#clip0_3_388)">
<path d="M16.0719 51.101L33.2773 103.212L48.8113 51.101H16.0719Z" fill="#EA9B65"/>
<path d="M15.4036 52.1938L33.2331 106.389L49.4534 52.1938H15.4036Z" fill="#EA9B65"/>
<path d="M25.5404 87.9259C25.2929 87.9259 25.0454 87.8637 24.7967 87.7405C24.1163 87.3077 23.8688 86.4409 24.3017 85.6984L38.5981 61.6849C39.0309 61.0034 39.9599 60.7559 40.6403 61.1899C41.3206 61.6227 41.5693 62.4896 41.1353 63.2321L26.84 87.1834C26.5304 87.6162 26.0354 87.9259 25.5404 87.9259ZM20.1563 81.675C19.9088 81.675 19.6613 81.6128 19.4138 81.4885C18.7323 81.0556 18.4848 80.1888 18.9188 79.4463L33.2153 55.4328C33.6481 54.7525 34.5771 54.5038 35.2574 54.9378C35.9389 55.3706 36.1864 56.2375 35.7524 56.98L21.456 80.9935C21.2085 81.3653 20.7123 81.675 20.1563 81.675Z" fill="#B77142"/>
<path d="M41.1269 96.2524C40.6642 96.2524 40.2014 96.0049 39.9133 95.5099L18.2313 56.5807C17.8272 55.9003 18.058 54.9713 18.694 54.5385C19.3301 54.1057 20.197 54.3532 20.6023 55.0335L42.2831 93.9627C42.6872 94.6442 42.4564 95.5721 41.8204 96.0049C41.5896 96.1902 41.3576 96.2524 41.1269 96.2524ZM42.1097 86.35C41.647 86.35 41.1855 86.1025 40.8961 85.6063L22.3946 52.3098C21.9905 51.6295 22.2212 50.7004 22.8573 50.2676C23.4934 49.8348 24.3602 50.0811 24.7656 50.7626L43.3245 84.0591C43.7298 84.7395 43.4979 85.6685 42.863 86.1013C42.6298 86.2878 42.3405 86.35 42.1097 86.35ZM36.5595 98.9761C36.0968 98.9761 35.634 98.7286 35.3459 98.2324L18.9834 68.8349C18.5793 68.1546 18.81 67.2255 19.4461 66.7927C20.0822 66.3599 20.9502 66.6074 21.3544 67.2877L37.7157 96.6852C38.1198 97.3655 37.889 98.2946 37.253 98.7274C37.0222 98.9139 36.7914 98.9761 36.5595 98.9761Z" fill="#B77142"/>
<path d="M28.325 98.2001C28.0775 98.2001 27.83 98.1379 27.5825 98.0148C26.9021 97.582 26.6546 96.7151 27.0875 95.9726L43.6126 68.2454C44.0454 67.5639 44.9744 67.3164 45.6547 67.7504C46.3363 68.1833 46.5826 69.0501 46.1498 69.7926L29.6246 97.5198C29.315 97.9514 28.82 98.2001 28.325 98.2001Z" fill="#B77142"/>
<path d="M33.2762 110C30.3253 110 27.7344 108.138 26.8281 105.367L9.62263 53.252C8.9435 51.1572 9.301 48.8747 10.5803 47.1493C11.8059 45.3666 13.854 44.3145 16.0708 44.3145H48.8723C52.5812 44.3145 55.5978 47.3311 55.5978 51.04C55.5978 51.8327 55.4843 52.5776 55.2595 53.252L39.7818 105.134C38.9424 107.987 36.3765 109.94 33.3946 110H33.2762ZM33.2439 105.348L49.671 50.4625H15.1884L33.2439 105.348Z" fill="#4C2F1B"/>
<path d="M39.5892 63.293C35.5049 63.293 33.8333 61.0034 33.153 59.6415C32.3483 57.9712 32.3483 56.1753 32.3483 54.8756V54.566L29.8733 54.5038C29.749 54.5038 29.5637 54.5038 29.4405 54.4416C28.0165 54.9988 25.4171 55.8035 22.9421 55.8035C20.5281 55.8035 17.7434 54.8744 15.8866 54.1319H15.7013C12.2351 53.8844 9.63572 52.0276 8.64572 49.0576C6.78888 43.7967 10.7501 36.3084 12.3594 34.8222C13.6591 33.5847 15.7634 32.6556 19.0443 31.2328C20.0965 30.7378 21.7668 30.0563 22.758 29.5625C23.6249 20.5879 31.4229 13.7799 41.2631 13.7799C55.1889 13.7799 61.0057 23.4957 61.8104 31.8522C62.6772 40.7646 57.9736 51.3473 47.6993 53.3285C47.2665 53.3906 46.7715 53.4528 46.2131 53.5138C46.0888 53.5138 45.9656 53.5138 45.7803 53.576V55C45.8425 56.424 45.9046 59.4562 43.8625 61.5605C42.7457 62.7359 41.2607 63.293 39.5892 63.293Z" fill="white"/>
<path d="M39.5892 66.3671C35.4259 66.3671 32.0709 64.399 30.3851 60.9687C29.9546 60.0456 29.7227 59.1071 29.5696 58.3945L29.4238 57.7105L28.7554 57.9174C26.7276 58.5463 24.7189 58.8787 22.9421 58.8787C19.9267 58.8787 16.8324 57.8217 15.2577 57.1916L15.1752 57.1581L15.0867 57.1486C10.5528 56.6775 7.13921 54.1032 5.72116 50.0835C3.24736 43.0243 8.30855 34.3595 10.2539 32.572C12.0354 30.9088 14.7125 29.7538 17.8104 28.4171C18.0663 28.2903 18.3281 28.1803 18.6055 28.062C18.9427 27.9197 19.299 27.7666 19.6374 27.598L19.9183 27.457L19.9793 27.1485C21.878 17.4685 30.6051 10.7071 41.1986 10.7071C56.0545 10.7071 63.8 21.175 64.8856 31.5485C65.9641 43.2408 59.4251 53.576 49.3362 56.1131L48.8818 56.2279L48.8543 56.6966C48.6821 59.6284 47.7424 61.9898 46.0637 63.7151C44.4089 65.4261 42.1108 66.3671 39.5892 66.3671ZM35.2609 51.6761C35.4666 52.0898 35.4415 53.5521 35.4295 54.1965L35.4224 54.8147C35.4212 56.0306 35.4212 57.2909 35.9245 58.3418C36.5415 59.6296 37.7742 60.2824 39.5892 60.2824C40.4309 60.2824 41.1196 60.0122 41.635 59.4813C42.7481 58.3323 42.6883 56.3475 42.6513 55.1614L42.6417 54.7537V51.4728C42.6417 50.9073 44.7999 50.661 45.7217 50.5569C46.2406 50.4972 46.7189 50.4422 47.0836 50.3668C55.6014 48.724 59.431 39.7602 58.7053 32.1606C58.0309 25.1003 53.0403 16.8551 41.1974 16.8551C36.7758 16.8551 32.5946 18.5254 29.7263 21.4392C27.1544 24.0505 25.7711 27.5323 25.8284 31.2448C25.6264 31.8749 22.2857 33.3073 20.2902 34.1646C17.8534 35.2096 15.5518 36.1972 14.5247 37.1369C13.5096 38.0504 10.273 44.1769 11.5954 48.0736C12.0234 49.3374 13.1402 50.8929 16.0205 51.1189C16.3816 51.1715 16.7618 51.2253 17.1181 51.3784C17.4505 51.5266 20.5054 52.8526 23.0031 52.8526C25.3861 52.8526 28.0524 51.8351 28.5617 51.6318C28.6645 51.5984 29.0304 51.4919 29.4381 51.4919C29.5828 51.4919 29.7071 51.492 29.7956 51.5218L29.8853 51.5517L35.2609 51.6761Z" fill="#4C2F1B"/>
<path d="M36.557 34.5759C27.8922 34.5759 20.7756 27.5203 20.7756 18.7933C20.7756 10.0674 27.8312 3.01184 36.557 3.01184C45.2219 3.01184 52.3397 10.0674 52.3397 18.7933C52.3385 27.5203 45.2829 34.5759 36.557 34.5759Z" fill="#FF5F5F"/>
<path d="M36.5571 37.6499C26.1943 37.6499 17.7638 29.1906 17.7638 18.7933C17.7626 8.43054 26.1931 0 36.5571 0C46.921 0 55.3515 8.45924 55.3515 18.8566C55.3515 29.2193 46.9198 37.6499 36.5571 37.6499ZM36.5571 6.14804C29.5493 6.14804 23.8485 11.8202 23.8485 18.7933C23.8485 25.801 29.5493 31.5018 36.5571 31.5018C43.5648 31.5018 49.2656 25.8285 49.2656 18.8554C49.2656 11.8489 43.5636 6.14804 36.5571 6.14804Z" fill="#4C2F1B"/>
<path d="M22.8788 21.8266C22.8788 22.3396 23.2949 22.7545 23.8078 22.7545C24.3207 22.7545 24.7368 22.3384 24.7368 21.8266C24.7368 21.3137 24.3207 20.8976 23.8078 20.8976C23.2949 20.8976 22.8788 21.3149 22.8788 21.8266Z" fill="#FF8585"/>
<path d="M28.2628 16.5048C28.0775 16.5048 27.8921 16.4426 27.7068 16.3804C26.9631 16.0708 26.5925 15.2051 26.9021 14.4614C27.8921 12.0474 31.668 7.65338 39.2185 8.5824C40.0232 8.70555 40.5804 9.44925 40.5182 10.2539C40.3951 11.0586 39.6514 11.6158 38.8467 11.5536C31.7912 10.6867 29.749 15.3904 29.6246 15.577C29.4393 16.1951 28.8821 16.5048 28.2628 16.5048Z" fill="white"/>
<path d="M19.0419 44.5404C10.2539 44.5404 3.07397 37.3617 3.07397 28.5725C3.07397 19.7832 10.2539 12.6046 19.0419 12.6046C27.83 12.6046 35.0098 19.7832 35.0098 28.5725C35.0098 37.3617 27.83 44.5404 19.0419 44.5404Z" fill="#FFED69"/>
<path d="M19.042 47.6145C8.54174 47.6145 0 39.0727 0 28.5725C0 18.0723 8.54174 9.53174 19.042 9.53174C29.541 9.53174 38.0827 18.0735 38.0827 28.5737C38.0827 39.0739 29.541 47.6145 19.042 47.6145ZM19.042 15.6798C11.9326 15.6798 6.14804 21.4632 6.14804 28.5737C6.14804 35.6842 11.9314 41.4676 19.042 41.4676C26.1525 41.4676 31.9359 35.683 31.9359 28.5725C31.9359 21.462 26.1513 15.6798 19.042 15.6798Z" fill="#4C2F1B"/>
<path d="M10.5002 26.9022C10.3149 26.9022 10.1283 26.84 9.94301 26.7778C9.19932 26.4682 8.82867 25.6025 9.13834 24.8588C10.1283 22.4448 13.9042 18.0508 21.4548 18.9798C22.2594 19.1041 22.8166 19.8466 22.7544 20.6513C22.6301 21.456 21.8876 22.0132 21.0841 21.951C14.0286 21.0841 11.9864 25.7878 11.862 25.9744C11.6145 26.5925 11.0574 26.9022 10.5002 26.9022Z" fill="white"/>
<path d="M23.5591 21.7644C23.5591 22.5847 24.2239 23.2506 25.0453 23.2506C25.8655 23.2506 26.5303 22.5859 26.5303 21.7644C26.5303 20.9442 25.8655 20.2794 25.0453 20.2794C24.2251 20.2794 23.5591 20.9454 23.5591 21.7644Z" fill="white"/>
</g>
<defs>
<clipPath id="clip0_3_388">
<rect width="65.0016" height="110" fill="white"/>
</clipPath>
</defs>
</svg>
