<svg width="73" height="107" viewBox="0 0 73 107" fill="none" xmlns="http://www.w3.org/2000/svg">
<g clip-path="url(#clip0_5_790)">
<path d="M10.1034 65.9596C10.0441 65.0729 10.6328 64.3052 11.517 64.1291C15.9358 63.3019 28.9536 61.5892 35.8459 65.2514C43.2094 69.1506 54.3424 65.9596 59.2906 64.3064C60.4692 63.8934 61.6465 64.8384 61.4697 66.0786L57.5814 104.652C57.5221 105.538 56.7565 106.129 55.9316 106.129H16.2895C15.4053 106.129 14.7584 105.479 14.6397 104.652L10.1034 65.9596Z" fill="#F6BF54"/>
<path d="M28.1372 96.9534C27.8865 96.9534 27.5728 96.9534 27.385 96.8914C25.6928 96.5136 24.6887 94.8167 25.0654 93.0555L45.0045 11.0657C45.2553 9.99681 46.0075 9.17933 47.0104 8.80157L66.9484 2.13783C67.2621 2.07467 67.6376 2.01151 67.9513 2.01151C69.268 2.01151 70.5217 2.89215 70.8984 4.21251C71.1491 4.96804 71.1491 5.84747 70.7724 6.60178C70.3957 7.3561 69.7695 7.92214 69.0173 8.17358L50.7085 14.2105L31.1461 94.5653C30.8336 95.9476 29.5169 96.9534 28.1372 96.9534Z" fill="#F6BF54"/>
<path d="M67.9525 3.70963C68.517 3.70963 68.9555 4.02424 69.1432 4.59028C69.394 5.21827 69.0172 5.97258 68.391 6.22524L49.1423 12.7007L29.3291 94.0612C29.2044 94.6273 28.7029 95.0038 28.0754 95.0038H27.7617C27.0713 94.8775 26.6958 94.1232 26.8217 93.432L46.7597 11.4435C46.8227 11.067 47.1364 10.6892 47.6379 10.4997L67.5758 3.83475C67.6388 3.83475 67.7635 3.70963 67.9525 3.70963ZM67.9525 0C67.3881 0 66.8866 0.0631634 66.3221 0.251439L46.3842 6.91639C44.7538 7.48243 43.5001 8.80279 43.1234 10.4997L23.2472 92.6158C22.621 95.3196 24.2502 98.0867 26.9465 98.7147C27.322 98.7778 27.6987 98.841 28.1372 98.841C30.4568 98.841 32.464 97.2692 33.0284 95.0062L52.2771 15.6572L69.5829 9.80976C70.8366 9.37005 71.9026 8.4894 72.467 7.23221C73.0945 5.9738 73.1575 4.65344 72.7178 3.39625C71.9655 1.38352 70.1474 0 67.9525 0Z" fill="#4C2F1B"/>
<path d="M27.8235 95.005H28.1372C28.7017 95.005 29.2031 94.6273 29.3909 94.0624L36.6017 64.259C36.351 64.1971 36.1633 64.0076 35.9113 63.9444C35.348 63.693 34.8454 63.3784 34.2809 63.2533L26.8823 93.4964C26.7575 94.1244 27.1342 94.8787 27.8235 95.005Z" fill="#F6BF54"/>
<path d="M15.0334 107C14.8844 107 14.7173 106.951 14.521 106.853C14.0208 106.649 13.6986 106.237 13.6671 105.787L8.83762 64.7085C8.83278 64.6283 8.85579 64.5117 8.88244 64.3769L8.89576 64.3076L8.89334 64.2068L7.78743 54.8113L7.41314 54.7845C3.32501 54.4991 0 50.9364 0 46.8417C0 42.5211 3.63995 38.871 7.94853 38.871H9.88297L9.95928 38.5102C12.7501 25.2848 23.3962 16.0471 35.8495 16.0471C48.1842 16.0471 58.9926 25.4913 61.5508 38.5042L61.6235 38.871H62.6228C66.9314 38.871 70.5714 42.5211 70.5714 46.8417C70.5714 50.6242 67.7502 53.9938 64.0085 54.6789L63.673 54.7408L58.7237 104.138C58.7031 104.35 58.6558 104.571 58.5783 104.814L58.4717 105.772C58.3748 106.449 57.8382 106.934 57.1671 106.934H56.2841C56.0067 106.979 55.8056 106.998 55.5997 106.998H15.0334V107ZM22.9965 67.3881C20.5242 67.3881 18.104 67.5885 15.9673 67.7646L14.7197 67.8666L18.6431 101.495H53.6289L56.742 70.217L56.1303 70.3531C51.9864 71.2775 48.3877 71.7257 45.1305 71.7257C40.4985 71.7257 36.4346 70.8341 33.0502 69.074C31.9261 68.4473 29.1099 67.3881 22.9965 67.3881ZM22.9965 62.0107C28.52 62.0107 32.7086 62.7735 35.4438 64.2797C38.1268 65.6547 41.3391 66.3483 45.0045 66.3483C48.6057 66.3483 52.6563 65.7239 57.0448 64.4923L57.3428 64.4085L58.2961 54.8756H13.2068L14.1068 62.6071L14.5586 62.5524C17.4948 62.1929 20.334 62.0107 22.9965 62.0107ZM8.07329 44.1864C6.68272 44.1864 5.55016 45.321 5.55016 46.7166C5.55016 48.1354 6.6585 49.2468 8.07329 49.2468H62.7476C64.1151 49.2468 65.2707 48.088 65.2707 46.7166C65.2707 45.2979 64.1624 44.1864 62.7476 44.1864H62.1201C59.3911 44.1864 56.9927 42.2223 56.4198 39.5172C54.2407 29.0345 45.5884 21.4258 35.8495 21.4258C26.0187 21.4258 17.393 29.0382 15.3411 39.5245C14.8238 42.2272 12.4279 44.1877 9.64071 44.1877H8.07329V44.1864Z" fill="#4C2F1B"/>
<path d="M42.6207 78.0918C42.6207 79.2373 43.5473 80.1665 44.6896 80.1665C45.833 80.1665 46.7597 79.2373 46.7597 78.0918C46.7597 76.9464 45.833 76.0172 44.6896 76.0172C43.5473 76.0159 42.6207 76.9452 42.6207 78.0918Z" fill="#F7D5A4"/>
<path d="M46.7597 87.0829C46.7597 88.2283 47.6863 89.1576 48.8286 89.1576C49.9708 89.1576 50.8975 88.2283 50.8975 87.0829C50.8975 85.9374 49.9708 85.007 48.8286 85.007C47.6863 85.007 46.7597 85.9362 46.7597 87.0829Z" fill="#F7D5A4"/>
<path d="M22.243 87.1461C22.243 87.9793 22.9165 88.6547 23.7487 88.6547C24.5796 88.6547 25.2543 87.9793 25.2543 87.1461C25.2543 86.3128 24.5808 85.6362 23.7487 85.6362C22.9177 85.6362 22.243 86.3116 22.243 87.1461Z" fill="#F7D5A4"/>
<path d="M22.7445 78.0918C22.7445 78.6481 23.1939 79.0976 23.7475 79.0976C24.3022 79.0976 24.7504 78.6469 24.7504 78.0918C24.7504 77.5367 24.301 77.0861 23.7475 77.0861C23.1939 77.0848 22.7445 77.5355 22.7445 78.0918Z" fill="#F7D5A4"/>
<path d="M43.6866 94.8787C43.6866 95.2601 43.9955 95.5711 44.3759 95.5711C44.7574 95.5711 45.0663 95.2613 45.0663 94.8787C45.0663 94.4973 44.7574 94.1876 44.3759 94.1876C43.9955 94.1876 43.6866 94.4973 43.6866 94.8787Z" fill="#F7D5A4"/>
</g>
<defs>
<clipPath id="clip0_5_790">
<rect width="73" height="107" fill="white"/>
</clipPath>
</defs>
</svg>
