<svg width="73" height="96" viewBox="0 0 73 96" fill="none" xmlns="http://www.w3.org/2000/svg">
<g clip-path="url(#clip0_3_421)">
<path d="M11.2165 94.5916L2.02705 89.7303C1.7694 89.5893 1.6741 89.2718 1.80352 89.0144L18.8776 56.7832C19.0176 56.5257 19.3353 56.4305 19.5941 56.5598L28.7823 61.421C29.0412 61.5621 29.1353 61.8795 29.0059 62.137L11.9329 94.3682C11.7918 94.6269 11.4741 94.7327 11.2165 94.5916Z" fill="#ED9E48"/>
<path d="M9.28941 96C7.87882 96 6.45764 95.672 5.12941 94.9666C0.781173 92.6647 -0.875298 87.2756 1.42823 82.9316L13.6365 59.8821C15.9388 55.537 21.3435 53.8817 25.68 56.1836C27.7823 57.2875 29.3223 59.1544 30.0153 61.4316C30.72 63.7088 30.4847 66.1165 29.3812 68.2186L17.1729 91.2681C15.5753 94.2859 12.4847 96 9.28941 96ZM8.11411 89.3553C8.71294 89.6727 9.39529 89.7303 10.0529 89.5317C10.7106 89.3318 11.24 88.898 11.5576 88.2996L23.7647 65.2489C24.0823 64.6505 24.1412 63.9687 23.9412 63.3115C23.7412 62.6543 23.3071 62.1264 22.7082 61.809C21.4623 61.1518 19.9235 61.6327 19.2647 62.8659L7.0447 85.9142C6.39882 87.1475 6.86823 88.697 8.11411 89.3553Z" fill="#4C2F1B"/>
<path d="M24.0235 59.3131C37.7529 66.5774 54.7764 61.3434 62.0459 47.6226C69.3141 33.9018 64.0764 16.8915 50.347 9.62727C36.6176 2.36302 19.5941 7.59694 12.3247 21.3178C5.05528 35.0386 10.2929 52.0501 24.0235 59.3131Z" fill="#FFC2DB"/>
<path d="M37.2071 6.35196C41.6494 6.35196 46.1494 7.40885 50.3435 9.62845C64.0788 16.8962 69.3083 33.91 62.0471 47.625C56.9953 57.1476 47.2424 62.5838 37.16 62.5838C32.7188 62.5838 28.2188 61.5269 24.0235 59.3073C10.2883 52.0395 5.05884 35.0257 12.32 21.3107C17.373 11.7893 27.1259 6.35196 37.2071 6.35196ZM37.2071 0C24.3883 0 12.6965 7.03382 6.69178 18.3411C-2.20351 35.1433 4.22472 56.0437 21.0388 64.9315C25.9977 67.5614 31.5788 68.9475 37.16 68.9475C49.98 68.9475 61.6706 61.9136 67.6753 50.6064C76.5694 33.8042 70.1424 12.9038 53.3283 4.01479C48.3694 1.38607 42.7883 0 37.2071 0Z" fill="#4C2F1B"/>
<path d="M64.5965 59.5071L1.06353 25.8898C0.711768 25.7029 0.570592 25.2679 0.757651 24.9164L7.43177 12.3289C7.62 11.9774 8.0553 11.8363 8.40706 12.0244L71.94 45.6405C72.293 45.8274 72.433 46.2624 72.2459 46.6151L65.5718 59.2015C65.3835 59.5541 64.9494 59.6952 64.5965 59.5071Z" fill="#FF73AC"/>
<path d="M61.9412 60.2584C60.1671 60.2584 58.4165 59.8245 56.8059 58.9781L5.86942 32.0314C0.48824 29.1898 -1.56823 22.497 1.28706 17.1314C4.13059 11.7658 10.8282 9.699 16.1977 12.5523L67.1341 39.5002C69.7306 40.8733 71.6341 43.187 72.5035 46.005C73.3729 48.823 73.0906 51.8055 71.7165 54.4002C70.3424 56.9948 68.0271 58.897 65.2071 59.7658C64.1388 60.0949 63.0341 60.2584 61.9412 60.2584ZM11.0388 17.624C9.35883 17.624 7.73765 18.528 6.90236 20.1022C5.69295 22.3794 6.57412 25.2103 8.84118 26.4071L59.7777 53.3538C60.8706 53.9299 62.14 54.0463 63.3259 53.683C64.5247 53.3186 65.5 52.5086 66.0871 51.4164C66.6635 50.3242 66.7812 49.0557 66.4165 47.8589C66.0518 46.6621 65.2412 45.6875 64.1482 45.1115L13.2129 18.1647C12.52 17.8003 11.78 17.624 11.0388 17.624Z" fill="#4C2F1B"/>
<path d="M61.1306 32.5945C60.1553 32.5945 59.3212 31.855 59.227 30.8569C58.3812 21.6164 51.8012 17.7768 51.5188 17.6122C50.6023 17.0961 50.2847 15.9334 50.7906 15.0176C51.307 14.1018 52.4588 13.7726 53.3753 14.2781C53.7282 14.478 61.9882 19.1864 63.0223 30.5054C63.1164 31.5505 62.3412 32.4781 61.2953 32.5839C61.247 32.5839 61.1894 32.5945 61.1306 32.5945Z" fill="white"/>
<path d="M45.6553 13.2447C45.6553 13.9242 46.0176 14.552 46.6059 14.893C47.1953 15.2327 47.9212 15.2327 48.5094 14.893C49.0988 14.5532 49.4612 13.9254 49.4612 13.2447C49.4612 12.5652 49.0988 11.9374 48.5094 11.5977C47.9212 11.2579 47.1953 11.2579 46.6059 11.5977C46.0188 11.9374 45.6553 12.5652 45.6553 13.2447Z" fill="white"/>
</g>
<defs>
<clipPath id="clip0_3_421">
<rect width="73" height="96" fill="white"/>
</clipPath>
</defs>
</svg>
