<svg width="99" height="88" viewBox="0 0 99 88" fill="none" xmlns="http://www.w3.org/2000/svg">
<g clip-path="url(#clip0_1_21)">
<path d="M19.283 40.129C19.283 61.862 36.902 79.481 58.635 79.481C80.368 79.481 97.987 61.862 97.987 40.129C97.987 18.396 80.368 0.776978 58.635 0.776978C36.902 0.776978 19.283 18.396 19.283 40.129Z" fill="#A8403A"/>
<path d="M58.635 79.481C50.382 79.491 42.336 76.894 35.646 72.059C53.98 76.81 73.097 67.826 81.142 50.681C89.187 33.535 83.877 13.091 68.506 2.026C87.681 6.999 100.173 25.449 97.669 45.099C95.164 64.75 78.445 79.477 58.635 79.481Z" fill="#931515"/>
<path d="M48.341 66.418C46.062 68.944 32.279 77.156 28.958 77.869C24.207 78.89 12.711 81.222 4.11201 66.265C-4.48599 51.307 5.74001 38.729 7.73001 36.419C9.39001 34.49 10.598 30.116 11.686 28.419C11.962 27.931 12.354 27.519 12.828 27.219L12.899 27.341C13.393 27.079 13.944 26.942 14.503 26.944C16.509 26.843 20.872 27.962 23.362 27.477C26.346 26.896 42.284 24.258 50.832 39.124C59.379 53.988 51.601 62.804 48.341 66.418Z" fill="#F8EBAC"/>
<path d="M50.828 39.126C59.372 53.991 51.6 62.807 48.341 66.421C46.063 68.946 32.279 77.158 28.958 77.872C25.356 78.643 17.872 80.167 10.716 74.335C13.591 74.066 23.838 73.718 30.083 70.225C39.343 65.043 44.4 60.827 43.145 48.995C41.361 32.146 24.7 29.287 24.7 29.287C24.7 29.287 25.151 28.452 25.962 27.094C31.628 26.507 43.757 26.82 50.828 39.126Z" fill="#FDD05D"/>
<path d="M11.698 44.782C9.53802 44.327 9.46102 50.183 9.37402 53.876C9.41602 56.448 9.92502 58.99 10.876 61.379C10.876 61.379 11.567 57.568 12.57 53.27C13.573 48.972 14.09 48.695 13.86 46.943C13.692 45.66 13.863 45.238 11.698 44.782Z" fill="white"/>
<path d="M58.635 80.253C51.3 80.257 44.107 78.237 37.846 74.416C34.117 76.559 30.553 78.362 29.055 78.683C24.169 79.733 12.339 82.128 3.49199 66.731C-5.35601 51.334 5.15599 38.392 7.20199 36.015C8.90999 34.034 10.152 29.529 11.269 27.784C11.553 27.282 11.957 26.858 12.444 26.55L12.517 26.676C13.025 26.406 13.592 26.265 14.167 26.268C15.65 26.191 18.388 26.762 20.763 26.906C27.495 7.62102 47.641 -3.52898 67.557 1.00902C87.473 5.54602 100.802 24.321 98.516 44.619C96.231 64.917 79.061 80.258 58.635 80.253ZM15.902 29.651C15.391 29.65 14.888 29.774 14.436 30.014L14.372 29.903C13.939 30.177 13.58 30.553 13.327 30.999C12.332 32.547 11.223 36.541 9.69999 38.302C7.88399 40.412 -1.85901 51.229 5.98099 64.867C13.82 78.505 24.326 76.364 28.666 75.427C31.7 74.773 44.303 67.265 46.388 64.958C49.372 61.657 56.481 53.605 48.691 40.052C40.901 26.5 26.774 30.114 23.995 30.127C21.479 30.137 17.731 29.559 15.902 29.651ZM70.763 5.13502C70.253 7.68602 69.205 10.098 67.689 12.212C63.878 17.707 62.245 18.806 57.889 26.224C55.634 30.067 55.441 38.587 55.441 38.587C55.441 38.587 53.944 34.466 55.441 27.047C56.937 19.629 62.654 15.37 65.24 11.384C66.577 9.20102 67.547 6.81402 68.11 4.31702C49.902 -0.489983 30.982 9.12202 24.129 26.663C28.632 25.925 43.367 24.588 51.542 38.811C60.332 54.117 52.344 63.187 48.99 66.905C47.953 68.054 44.599 70.349 40.888 72.614C53.144 79.313 68.126 78.545 79.632 70.628C91.139 62.712 97.212 48.995 95.338 35.155C93.463 21.314 83.961 9.70602 70.763 5.13502Z" fill="#440911"/>
</g>
<defs>
<clipPath id="clip0_1_21">
<rect width="98.771" height="87.969" fill="white"/>
</clipPath>
</defs>
</svg>
