<svg width="99" height="85" viewBox="0 0 99 85" fill="none" xmlns="http://www.w3.org/2000/svg">
<g clip-path="url(#clip0_2_90)">
<path d="M2.89895 55.988C3.66095 58.753 10.0529 66.785 20.9469 72.45C35.2129 79.868 51.1309 75.292 57.6159 71.073C64.1009 66.855 76.4279 54.638 77.1489 39.801C77.8689 24.963 66.7719 9.39699 46.1649 9.25399C26.7559 9.11999 23.6139 28.516 17.2739 38.261C12.3859 45.774 8.19695 48.618 3.71895 51.2C2.06595 52.155 2.00895 52.757 2.89895 55.988Z" fill="#FFE760"/>
<path d="M77.148 39.8C76.427 54.637 64.1 66.856 57.615 71.073C51.131 75.291 35.212 79.869 20.946 72.449C10.673 67.108 4.40801 59.665 3.08801 56.514C6.59601 59.767 10.526 62.531 14.773 64.732C29.04 72.15 44.958 67.574 51.442 63.356C57.927 59.138 70.254 46.921 70.975 32.082C71.217 26.77 69.989 21.494 67.425 16.835C73.976 22.623 77.551 31.068 77.148 39.8Z" fill="#FDAE36"/>
<path d="M47.528 42.459C49.901 42.055 64.349 45.607 76.049 52.96C87.7491 60.313 97.698 68.363 97.221 72.652C96.743 76.941 93.632 77.566 87.422 77.934C81.211 78.301 66.495 71.097 59.335 64.602C52.174 58.106 45.715 48.803 45.225 45.52C44.985 43.93 43.528 43.141 47.528 42.459Z" fill="#FFE760"/>
<path d="M57.024 58.429C64.186 64.924 78.905 72.129 85.11 71.761C90.79 71.424 93.87 70.863 94.719 67.487C96.437 69.497 97.375 71.267 97.221 72.652C96.743 76.94 93.632 77.566 87.421 77.933C81.211 78.301 66.496 71.097 59.335 64.602C52.174 58.106 45.715 48.803 45.226 45.519C45.105 44.713 44.674 44.113 44.795 43.628C48.17 49.102 52.285 54.083 57.024 58.429Z" fill="#FFC454"/>
<path d="M41.059 17.269C39.646 15.442 35.799 20.057 33.336 22.943C31.698 25.033 30.454 27.403 29.663 29.939C29.663 29.939 32.672 27.37 36.25 24.623C39.828 21.874 40.413 22.005 41.365 20.456C42.062 19.318 42.473 19.096 41.059 17.269Z" fill="white"/>
<path d="M64.829 9.54999C64.829 9.54999 66.021 4.75099 70.559 3.37699C75.098 2.00399 78.709 5.90499 78.709 5.90499C78.709 5.90499 77.149 10.815 72.979 12.078C68.809 13.34 64.829 9.54999 64.829 9.54999Z" fill="#B4D111"/>
<path d="M98.727 72.506C98.11 77.907 95.2001 79.755 87.23 80.218C80.941 80.583 71.224 76.335 62.882 70.516C62.024 71.217 61.13 71.873 60.204 72.481C53.27 76.957 35.396 82.66 20.141 74.796C8.49004 68.79 2.41404 60.267 0.603042 55.198C-0.596958 51.847 0.107042 50.949 1.71604 49.702C4.51204 47.535 10.288 44.979 15.515 37.012C22.295 26.679 25.068 6.939 47.103 6.939C50.684 6.921 54.249 7.406 57.695 8.379C57.144 7.765 56.745 7.029 56.532 6.232C55.696 2.922 58.244 0 58.244 0C58.244 0 62.186 0.972 63.095 4.573C63.233 5.128 63.295 5.699 63.277 6.271C64.848 4.182 67.056 2.661 69.568 1.937C76.376 -0.012 81.793 5.525 81.793 5.525C81.793 5.525 79.453 12.495 73.198 14.282C71.976 14.623 70.6991 14.723 69.438 14.577C76.675 20.709 80.662 29.849 80.233 39.325C80.012 43.232 79.1441 47.076 77.664 50.699C77.787 50.776 77.904 50.838 78.027 50.915C93.054 60.168 99.341 67.108 98.727 72.506ZM72.575 10.624C75.355 9.781 76.398 6.507 76.398 6.507C76.398 6.507 73.9911 3.906 70.966 4.822C67.94 5.738 67.139 8.937 67.139 8.937C67.139 8.937 69.795 11.463 72.575 10.622V10.624ZM46.442 10.797C27.689 10.668 24.655 29.238 18.528 38.575C13.805 45.77 9.75804 48.493 5.43204 50.965C3.83404 51.877 3.77904 52.456 4.63904 55.55C5.37604 58.198 11.551 65.89 22.078 71.314C35.861 78.418 51.244 74.036 57.506 69.997C58.223 69.534 59.021 68.958 59.861 68.299C58.731 67.425 57.631 66.514 56.561 65.567C47.359 57.392 43.391 48.873 42.756 44.748C42.448 42.742 41.376 41.044 46.59 40.89C51.385 40.748 61.251 41.538 74.496 48.865C75.5731 46.041 76.207 43.067 76.377 40.049C77.073 25.843 66.352 10.934 46.442 10.797ZM75.501 53.564C64.793 46.85 51.564 43.607 49.393 43.976C45.728 44.599 47.064 45.319 47.282 46.773C47.732 49.767 53.647 58.263 60.203 64.193C66.76 70.123 80.233 76.702 85.916 76.366C91.598 76.03 94.4461 75.459 94.883 71.543C95.3211 67.627 86.21 60.277 75.501 53.564Z" fill="#440911"/>
</g>
<defs>
<clipPath id="clip0_2_90">
<rect width="98.768" height="84.871" fill="white"/>
</clipPath>
</defs>
</svg>
