<svg width="9" height="10" viewBox="0 0 9 10" fill="none" xmlns="http://www.w3.org/2000/svg">
<g clip-path="url(#clip0_310_2906)">
<path d="M2.05004 2.96464C1.84685 2.96464 1.68384 2.79941 1.68384 2.59539L1.68667 0.735363C1.68667 0.637616 1.7253 0.544273 1.79393 0.475368C1.86255 0.406462 1.95552 0.367676 2.05287 0.367676L6.09712 0.371938C6.19433 0.371938 6.28744 0.410724 6.35607 0.47963C6.4247 0.548536 6.46333 0.64202 6.46333 0.739625L6.4605 2.60107C6.4605 2.80495 6.29593 2.96876 6.09429 2.96876C6.09274 2.97047 2.05004 2.96464 2.05004 2.96464Z" fill="white"/>
<path d="M2.05282 0.736794L6.09551 0.741199L6.09268 2.60123L2.04999 2.59697L2.05282 0.736794ZM2.05282 0C1.85825 0 1.67232 0.0775722 1.53492 0.215384C1.39753 0.353337 1.32041 0.540022 1.31899 0.735374L1.31616 2.59398C1.31616 3.00045 1.64374 3.33078 2.04857 3.33078L6.09141 3.33518H6.09282C6.28739 3.33518 6.47332 3.25761 6.61072 3.1198C6.74797 2.98184 6.82523 2.79516 6.82679 2.59981L6.82962 0.741199C6.82962 0.334726 6.50204 0.00426221 6.09721 0.00426221L2.05282 0Z" fill="#4C2F1B"/>
<path d="M1.54647 2.21478L0.366211 3.6152V9.6306H5.58775V3.6152L6.59057 2.21478H1.54647Z" fill="white"/>
<path d="M5.58774 9.99842H0.366205C0.163151 9.99842 0 9.83333 0 9.63074V3.61534C0 3.52768 0.0299983 3.44442 0.0873063 3.37694L1.26757 1.97794C1.33775 1.89468 1.43921 1.84723 1.54802 1.84723H6.59226C6.72952 1.84723 6.85545 1.9248 6.91842 2.04684C6.98139 2.1703 6.96993 2.31835 6.88984 2.4303L5.95565 3.73312V9.63074C5.95565 9.72848 5.91702 9.82183 5.84839 9.89073C5.77806 9.9612 5.6851 9.99842 5.58774 9.99842ZM0.733826 9.26305H5.22154V3.61534C5.22154 3.53776 5.24588 3.46303 5.29017 3.39995L5.87528 2.58417H1.71669L0.733826 3.75045V9.26305Z" fill="#4C2F1B"/>
<path d="M6.67636 2.18909L5.58765 3.73741V9.63076H7.83214V3.68143L6.67636 2.18909Z" fill="#EFEFEF"/>
<path d="M7.83228 9.99999H5.58764C5.38459 9.99999 5.22144 9.83476 5.22144 9.6323V3.73738C5.22144 3.66123 5.24436 3.58664 5.28865 3.52484L6.37736 1.97638C6.44457 1.88161 6.55183 1.82265 6.66914 1.82123C6.78644 1.81683 6.89511 1.87138 6.96671 1.96345L8.1225 3.45579C8.17259 3.52043 8.19976 3.59943 8.19976 3.68126V9.6306C8.19848 9.83476 8.03406 9.99999 7.83228 9.99999ZM5.95399 9.26305H7.46466V3.80771L6.69064 2.80793L5.95385 3.85502V9.26305H5.95399Z" fill="#4C2F1B"/>
<path d="M5.58775 3.76624H0.366211V6.75674H5.58775V3.76624Z" fill="#526FFF"/>
<path d="M5.58774 7.1243H0.366205C0.163151 7.1243 0 6.95921 0 6.75661V3.76625C0 3.56223 0.164566 3.39856 0.366205 3.39856H5.58774C5.79094 3.39856 5.95395 3.56379 5.95395 3.76625V6.75676C5.95409 6.96063 5.79094 7.1243 5.58774 7.1243ZM0.733826 6.38893H5.22154V4.13379H0.733826V6.38893Z" fill="#4C2F1B"/>
<path d="M2.16431 4.67539H2.62645L2.98275 5.45537L3.33183 4.67255H3.78959V5.8475H3.51918V4.9871H3.49767L3.09001 5.8475H2.85681L2.45622 4.9871H2.43472V5.84892H2.16572V4.67539H2.16431Z" fill="white"/>
</g>
<defs>
<clipPath id="clip0_310_2906">
<rect width="8.2" height="10" fill="white"/>
</clipPath>
</defs>
</svg>
