<svg width="99" height="95" viewBox="0 0 99 95" fill="none" xmlns="http://www.w3.org/2000/svg">
<g clip-path="url(#clip0_1_11)">
<path d="M9.913 84.132C-1.361 76.081 -2.613 54.708 8.409 46.41C19.433 38.112 23.942 38.363 31.712 30.567C39.481 22.77 43.236 11.199 52.757 4.91501C62.277 -1.36799 69.038 3.15501 71.547 2.65201C74.057 2.14901 77.059 0.389013 79.062 3.40701C81.066 6.42401 80.315 7.93401 81.317 10.197C82.32 12.46 87.08 24.78 81.317 32.83C75.556 40.881 64.279 46.915 61.021 54.708C57.764 62.501 54.849 78.859 40.728 85.64C31.916 89.876 21.186 92.179 9.913 84.132Z" fill="#FFDAA4"/>
<path d="M81.315 32.83C75.553 40.878 64.28 46.915 61.022 54.708C57.764 62.501 54.849 78.859 40.729 85.64C31.917 89.875 21.187 92.179 9.91397 84.132C5.95797 81.308 3.24098 76.841 1.84998 71.875C3.19698 73.959 4.97698 76.526 6.94998 77.933C18.223 85.98 29.164 81.406 37.043 75.619C46.272 68.834 47.674 60.264 50.931 52.47C54.188 44.677 71.695 33.933 77.458 25.885C83.219 17.838 79.232 5.515 78.229 3.252C78.078 2.909 77.954 2.554 77.86 2.19C78.342 2.505 78.752 2.92 79.06 3.407C81.066 6.425 80.313 7.934 81.315 10.197C82.318 12.46 87.078 24.783 81.315 32.83Z" fill="#F5A623"/>
<path d="M58.134 84.095C49.527 78.423 48.406 62.921 61.874 50.821C75.342 38.721 85.254 41.176 88.81 40.99C92.365 40.804 97.227 40.99 97.788 42.503C98.349 44.015 97.601 51.955 97.788 56.115C97.975 60.273 96.476 71.995 87.314 79.556C76.676 88.334 65.726 89.097 58.134 84.095Z" fill="#FC5E68"/>
<path d="M97.788 56.115C97.975 60.274 96.476 71.995 87.313 79.557C76.676 88.334 65.725 89.097 58.134 84.095C54.648 81.799 52.392 77.891 51.834 73.251C55.009 75.909 62.168 81.116 68.678 80.248C77.358 79.091 86.424 71.567 90.282 62.501C92.611 57.025 94.42 51.341 95.684 45.526C95.684 45.526 96.589 45.221 97.998 44.891C98.016 47.98 97.65 53.062 97.788 56.115Z" fill="#EF3151"/>
<path d="M98.553 55.85C98.746 60.148 97.2 72.26 87.728 80.075C76.736 89.144 65.421 89.933 57.576 84.764C54.883 82.94 52.879 80.265 51.885 77.168C49.101 81.079 45.382 84.23 41.067 86.334C33.428 90.002 24.382 92.231 14.784 87.887H14.745V87.871C12.867 87.018 11.077 85.985 9.39802 84.785C-2.18898 76.523 -3.47598 54.579 7.85502 46.06C19.186 37.54 23.814 37.798 31.795 29.795C39.774 21.792 43.64 9.91598 53.426 3.46298C63.211 -2.99102 70.163 1.65498 72.737 1.13898C75.312 0.621983 78.402 -1.18502 80.463 1.90998C82.523 5.00498 81.75 6.55698 82.777 8.88098C83.805 11.205 88.7 23.854 82.777 32.116C79.83 36.228 75.486 39.829 71.448 43.394C80.213 39.012 86.55 40.365 89.272 40.22C92.945 40.024 97.97 40.22 98.55 41.782C99.13 43.345 98.359 51.553 98.553 55.85ZM79.848 31.237C83.389 26.389 82.997 19.936 82.05 15.49C81.851 16.96 81.519 18.409 81.057 19.819C80.192 22.48 78.203 19.202 78.769 17.551C79.484 15.51 79.919 13.381 80.061 11.224L80.85 11.308C80.764 11.084 80.685 10.889 80.619 10.741C79.645 8.53698 79.784 7.38398 78.427 4.12998C77.99 3.07998 76.976 2.87698 75.773 3.01598C75.773 3.01598 78.442 4.39098 77.325 5.77498C76.24 7.11798 75.15 8.45798 74.055 9.79298C72.667 11.491 68.953 10.3 71.207 7.83298C72.688 6.20898 74.193 4.60598 75.719 3.02298C74.233 3.20498 72.458 3.89798 71.121 4.16798C70.683 4.22798 70.238 4.20398 69.809 4.09798C68.427 4.56098 67.088 5.14798 65.811 5.85398C63.966 6.86898 61.308 4.89998 64.22 3.55098C64.529 3.40698 64.835 3.27198 65.137 3.14698C62.436 2.90698 58.927 3.37798 54.396 6.37198C45.137 12.494 41.487 24.529 33.936 32.12C26.386 39.711 21.455 39.775 10.512 47.544C2.15702 53.474 1.15302 68.744 7.92602 77.926C7.84802 77.164 7.76502 76.152 7.74002 74.959C7.67002 71.692 10.848 73.168 10.821 75.18C10.777 77.134 10.91 79.089 11.219 81.019L11.163 81.334C11.364 81.496 11.571 81.652 11.781 81.808C12.27 81.422 12.918 80.898 13.674 80.264C16.126 78.214 17.871 81.629 16.151 82.956C15.696 83.308 15.302 83.594 14.95 83.831C16.011 84.422 17.113 84.937 18.246 85.374C19.197 85.277 20.143 85.141 21.084 84.967L21.711 86.403C22.631 86.592 23.561 86.721 24.498 86.789C24.498 86.789 23.24 84.541 24.904 84.048C26.631 83.542 28.313 82.897 29.936 82.119C32.847 80.713 33.696 84.064 31.755 84.974C30.125 85.734 28.437 86.363 26.707 86.855C31.868 86.744 36.688 84.902 41.164 82.652C45.292 80.523 48.719 77.252 51.041 73.229C50.376 66.802 52.846 59.072 59.588 52.172C63.935 45.022 75.662 36.968 79.848 31.235V31.237ZM95.498 55.884C95.332 52.21 95.221 45.968 94.725 44.632C94.229 43.295 89.934 43.128 86.796 43.296C83.656 43.463 75.671 42.061 63.773 52.751C51.877 63.441 52.094 77.134 59.697 82.143C66.403 86.562 76.077 85.116 85.469 77.364C93.569 70.68 95.663 59.557 95.498 55.883V55.884ZM63.162 35.881C64.847 34.569 66.514 33.284 68.104 31.961C70.831 29.691 71.773 33.484 70.003 34.97C68.376 36.332 66.67 37.654 64.941 39.008C63.034 40.5 60.174 38.212 63.162 35.881ZM76.125 23.168C77.274 21.267 80.344 22.145 78.799 24.95C78.628 25.262 78.45 25.571 78.265 25.875C77.219 27.585 76.001 29.182 74.628 30.642C73.008 32.385 70.201 30.352 72.572 27.812C73.914 26.392 75.104 24.836 76.124 23.17L76.125 23.168ZM63.276 16.976C64.596 15.364 65.942 13.771 67.312 12.2C68.701 10.602 72.265 11.983 70.063 14.604C68.835 16.066 67.597 17.52 66.35 18.966C65.104 20.408 61.471 19.183 63.276 16.976ZM56.049 25.834C57.389 24.165 58.739 22.504 60.098 20.85C62.159 18.337 64.166 21.468 62.707 23.134C61.367 24.663 60.047 26.208 58.745 27.769C57.468 29.305 54.13 28.229 56.049 25.834ZM54.439 11.22C55.227 10.253 56.081 9.33998 56.993 8.48898C57.568 7.95298 58.165 7.43998 58.781 6.95198C61.327 4.93198 62.373 8.03698 60.881 9.31598C60.615 9.54698 60.347 9.77898 60.079 10.032C59.056 10.99 58.111 12.027 57.253 13.135C55.964 14.784 52.404 13.707 54.439 11.22ZM48.045 21.838C49.015 19.885 49.994 17.979 51.063 16.157C52.715 13.347 55.157 16.055 54.142 17.823C53.062 19.702 52.079 21.672 51.091 23.683C50.06 25.778 46.532 24.877 48.045 21.838ZM42.119 32.963C43.343 31.019 44.415 29.047 45.424 27.082C46.952 24.103 49.405 27.131 48.438 28.979C47.455 30.89 46.376 32.749 45.206 34.551C44.276 35.963 40.415 35.671 42.119 32.963ZM33.35 41.527C35.308 40.346 37.118 38.934 38.739 37.321C41.031 34.985 42.932 37.808 41.362 39.433C39.569 41.272 37.533 42.855 35.309 44.14C33.878 44.994 31.111 42.925 33.35 41.524V41.527ZM22.76 47.83C24.969 46.351 27.065 45.155 29.043 44.036C31.578 42.601 32.675 45.617 30.881 46.577C28.81 47.656 26.799 48.843 24.852 50.134C23.303 51.179 20.361 49.435 22.76 47.83ZM18.974 54.785C17.641 56.017 16.459 57.402 15.451 58.911C14.334 60.579 10.656 59.939 12.303 57.455C13.326 55.912 14.529 54.498 15.887 53.242C16.702 52.489 17.539 51.762 18.398 51.061C20.813 49.089 21.674 52.418 20.029 53.839C19.68 54.143 19.331 54.455 18.974 54.785ZM8.01002 69.579C8.30902 67.09 8.91202 64.647 9.80302 62.305C10.939 59.372 13.549 62.12 12.839 63.986C12.14 65.835 11.628 67.749 11.305 69.7C11.011 71.457 7.68302 72.18 8.01002 69.579ZM25.294 74.126C24.844 74.624 24.387 75.122 23.924 75.619C22.63 77.007 21.47 78.18 20.435 79.182C18.828 80.737 15.282 78.987 17.825 76.572C19.437 75.059 20.958 73.453 22.381 71.76C24.777 68.865 26.894 72.344 25.292 74.126H25.294ZM32.665 65.087C31.65 66.446 30.605 67.792 29.532 69.123C27.844 71.215 24.071 69.724 26.505 66.613C27.532 65.298 28.553 63.977 29.564 62.65C32.12 59.296 34.203 63.023 32.663 65.087H32.665ZM42.85 75.254C41.296 77.836 39.261 80.097 36.856 81.913C34.089 84.023 33.384 80.272 35.144 78.869C36.944 77.445 38.527 75.766 39.843 73.886C41.847 71.01 43.974 73.381 42.85 75.254ZM47.853 64.417C47.198 66.309 46.452 68.168 45.615 69.987C44.248 72.955 42.1 70.176 43.033 68.201C43.776 66.623 44.433 65.007 45.003 63.359C46.18 59.984 48.544 62.446 47.853 64.417ZM52.193 52.33C51.018 54.86 50.039 57.476 49.261 60.155L46.475 58.643C47.193 55.84 48.172 53.111 49.4 50.492C50.965 47.378 53.047 50.612 52.193 52.33ZM55.049 32.354C53.874 33.862 52.726 35.391 51.606 36.939C50.266 38.791 46.92 37.993 48.853 35.287C50.088 33.562 51.299 31.928 52.511 30.343C54.501 27.74 56.387 30.634 55.049 32.354ZM33.729 57.1C35.022 55.351 36.3 53.592 37.563 51.823C39.765 48.737 41.669 51.915 40.483 53.741C39.281 55.598 38.058 57.44 36.813 59.268C35.216 61.605 31.387 60.268 33.729 57.1ZM47.696 42.566C46.698 44.055 45.719 45.556 44.758 47.069L43.836 48.516C42.523 50.578 39.489 49.134 41.479 46.206C42.353 44.922 43.195 43.66 43.986 42.439C44.456 41.715 44.92 41.008 45.38 40.319C47.332 37.389 49.029 40.572 47.696 42.562V42.566ZM54.365 43.558C55.566 42.3 56.828 41.101 58.145 39.966C60.594 37.839 61.927 41.382 60.361 42.717C59.025 43.845 57.738 45.029 56.503 46.266C56.185 46.587 55.883 46.91 55.596 47.234C53.917 49.132 50.949 47.409 53.465 44.543C53.752 44.214 54.053 43.885 54.365 43.555V43.558Z" fill="#440911"/>
<path d="M83.587 46.972C82.634 44.823 77.78 48.313 74.689 50.477C72.594 52.084 70.817 54.069 69.449 56.328C69.449 56.328 72.998 54.613 77.15 52.873C81.303 51.133 81.841 51.412 83.138 50.153C84.089 49.229 84.541 49.121 83.587 46.972Z" fill="white"/>
</g>
<defs>
<clipPath id="clip0_1_11">
<rect width="98.771" height="94.137" fill="white"/>
</clipPath>
</defs>
</svg>
