<svg width="99" height="93" viewBox="0 0 99 93" fill="none" xmlns="http://www.w3.org/2000/svg">
<g clip-path="url(#clip0_1_29)">
<path d="M97.039 48.245C99.572 59.78 93.952 67.361 91.984 71.099C90.016 74.839 89.609 79.406 86.514 81.195C83.418 82.985 79.277 81.041 75.065 80.877C70.854 80.714 61.507 81.78 52.789 73.813C44.072 65.848 39.782 54.67 34.219 44.664C28.654 34.658 29.924 27.854 30.851 22.333C31.777 16.813 33.024 15.223 33.966 12.728C34.994 9.84602 36.289 7.06502 37.833 4.42302C38.483 3.28502 39.493 2.39502 40.705 1.89502L40.728 1.93602C41.769 1.13302 43.048 0.699018 44.362 0.702018C47.429 0.677018 50.49 0.938018 53.507 1.48202C56.143 1.90802 58.148 1.61502 63.402 3.56002C68.656 5.50602 75.193 7.79302 81.079 17.603C86.966 27.414 94.506 36.71 97.039 48.245Z" fill="#FFB07C"/>
<path d="M47.518 0.758972C49.576 0.902972 51.818 1.20897 53.506 1.48097C56.143 1.90697 58.148 1.61397 63.402 3.55997C68.656 5.50497 75.193 7.79297 81.079 17.603C86.965 27.413 94.505 36.706 97.039 48.241C99.572 59.776 93.952 67.357 91.984 71.096C90.015 74.835 89.609 79.403 86.513 81.192C83.417 82.981 79.277 81.037 75.065 80.874C71.297 80.725 63.421 81.544 55.563 76.021C55.759 75.867 55.88 75.778 55.88 75.778C55.88 75.778 70.209 77.499 76.497 74.531C82.995 71.464 85.949 69.734 88.64 58.617C91.331 47.501 80.721 30.291 72.507 19.92C65.823 11.483 52.32 3.45797 47.518 0.758972Z" fill="#ED703C"/>
<path d="M48.665 62.013C46.757 65.027 44.414 67.742 41.711 70.069C40.48 72.811 38.804 75.33 36.749 77.523C34.798 79.418 32.351 80.721 29.689 81.281C29.689 81.281 25.374 87.818 20.276 86.291C17.005 85.203 14.065 83.297 11.737 80.753L11.928 80.409C8.531 79.806 5.345 78.347 2.668 76.171C-1.344 72.699 1.901 65.589 1.901 65.589C0.956996 63.052 0.757996 60.298 1.326 57.652C2.094 54.753 3.339 52.003 5.01 49.513C5.545 45.998 6.6 42.582 8.141 39.378C10.494 34.884 11.554 35.466 13.37 32.936C15.187 30.406 18.045 23.51 23.195 19.703C28.346 15.897 32.16 17.993 34.615 20.048C37.07 22.102 34.471 29.283 34.471 29.283C34.471 29.283 37.643 27.638 39.725 28.782C39.936 28.904 40.133 29.053 40.309 29.223L40.169 29.475C40.408 29.532 40.639 29.618 40.856 29.731C42.939 30.875 43.228 34.427 43.228 34.427C43.228 34.427 47.953 28.398 51.009 29.369C54.064 30.341 57.876 32.435 57.385 38.809C56.894 45.183 52.545 51.278 51.361 54.164C50.178 57.05 51.234 57.627 48.665 62.013Z" fill="#FFDBBB"/>
<path d="M57.383 38.808C56.89 45.182 52.542 51.277 51.359 54.162C50.175 57.049 51.234 57.627 48.664 62.013C46.756 65.027 44.413 67.742 41.71 70.069C40.48 72.811 38.803 75.33 36.748 77.523C34.797 79.418 32.35 80.721 29.689 81.281C29.689 81.281 25.373 87.818 20.276 86.291C17.004 85.203 14.065 83.297 11.737 80.753L11.927 80.41C8.53001 79.806 5.34402 78.348 2.66702 76.171C1.30202 74.906 0.567015 73.1 0.661015 71.24C3.72402 73.311 11.36 77.573 20.067 75.593C31.384 73.021 33.307 69.189 43.987 55.532C55.046 41.386 54.788 31.612 54.788 31.612C54.788 31.612 54.987 31.7 55.341 31.873C56.718 33.317 57.644 35.47 57.383 38.808Z" fill="#FEA75C"/>
<path d="M92.912 72.166C90.884 76.004 90.464 80.69 87.279 82.529C84.095 84.368 79.847 82.381 75.522 82.215C71.196 82.049 61.594 83.156 52.649 74.993C50.051 72.581 47.733 69.883 45.738 66.951C44.676 68.1 43.546 69.185 42.355 70.2C41.081 73.056 39.33 75.674 37.178 77.941C35.114 79.907 32.533 81.243 29.736 81.792C29.736 81.792 25.236 88.582 19.814 86.926C16.587 85.847 13.656 84.031 11.255 81.622C7.93201 80.887 4.82501 79.388 2.18301 77.243C-2.11399 73.561 1.25701 66.151 1.25701 66.151C0.233013 63.502 -0.00898719 60.614 0.563013 57.831C1.34501 54.806 2.63601 51.935 4.38301 49.344C4.91101 45.676 5.99501 42.109 7.59501 38.766C10.043 34.084 11.174 34.704 13.073 32.074C14.973 29.444 17.935 22.247 23.355 18.317C26.599 15.965 29.355 15.828 31.611 16.557C32.228 14.892 32.852 13.756 33.385 12.352C34.445 9.39301 35.778 6.53901 37.365 3.82701C38.034 2.65801 39.073 1.74401 40.319 1.23001L40.344 1.27201C41.413 0.448007 42.727 0.00100737 44.077 0.00200737C47.226 -0.0259926 50.369 0.239007 53.469 0.792007C56.176 1.22601 58.236 0.924007 63.63 2.91401C69.024 4.90501 75.736 7.24301 81.771 17.304C87.806 27.365 95.54 36.886 98.129 48.716C100.718 60.545 94.939 68.329 92.912 72.166ZM53.972 71.604C62.007 78.981 70.59 78.027 74.458 78.194C77.747 78.337 81.275 80.131 83.996 79.665C80.832 73.801 72 57.52 63.068 42.054C61.494 39.332 59.906 36.618 58.306 33.912C58.612 35.144 58.717 36.417 58.614 37.682C58.363 41.392 56.845 44.996 55.336 47.981C59.136 54.719 63.726 60.978 69.009 66.628C71.522 69.296 68.458 71.617 66.505 69.491C61.547 64.005 57.152 58.035 53.383 51.674C52.973 52.445 52.63 53.117 52.403 53.679C51.18 56.683 52.311 57.306 49.636 61.859C49.101 62.759 48.511 63.625 47.868 64.452C49.625 67.06 51.673 69.459 53.972 71.604ZM24.148 22.396C19.33 25.874 16.713 32.254 15.027 34.587C13.34 36.92 12.333 36.362 10.165 40.516C8.77301 43.45 7.91901 46.61 7.64401 49.845C5.93701 52.111 4.67901 54.683 3.94001 57.422C3.06401 61.371 4.32501 63.807 4.32501 63.807C4.32501 63.807 2.55101 72.233 4.74001 74.278C7.80501 77.139 11.885 77.99 13.126 78.246C14.006 79.156 16.907 82.138 20.972 83.192C23.879 83.945 30.097 77.957 30.097 77.957C30.097 77.957 32.841 77.72 35.73 74.878C37.66 72.8 39.175 70.371 40.193 67.723C42.794 65.768 45.026 63.364 46.781 60.624C49.153 56.584 48.145 56.031 49.228 53.371C50.311 50.71 54.337 45.099 54.726 39.189C55.113 33.278 52.685 31.578 50.45 31.667C49.474 31.962 48.566 32.447 47.778 33.094L47.839 33.187C47.759 33.19 47.681 33.2 47.603 33.217C46.214 34.19 44.601 35.459 43.215 36.59C42.012 38.044 40.928 39.592 39.974 41.219C35.09 49.376 28.653 59.453 24.696 67.24C21.952 72.647 21.07 76.281 20.788 77.997C20.757 78.642 20.37 79.216 19.785 79.486C19.199 79.757 18.512 79.679 18.001 79.286C17.49 78.892 17.24 78.247 17.353 77.612C17.667 75.831 18.844 72.052 22.831 64.449C29.3 52.121 33.881 43.42 38.484 37.751C39.255 36.804 40.175 35.359 40.843 34.621C41.025 32.469 40.384 31.437 39.376 30.884C38.369 30.331 37.149 30.344 35.418 31.642C35.151 32.593 34.415 34.133 34.029 35.279C31.674 42.161 26.731 50.639 19.716 62.633C15.392 70.037 12.814 73.034 11.467 74.245C10.992 74.678 10.317 74.812 9.71201 74.592C9.10901 74.372 8.67701 73.835 8.59201 73.198C8.50601 72.562 8.78101 71.93 9.30701 71.559C10.613 70.409 13.23 67.737 16.356 62.554C20.859 55.091 25.979 44.319 30.295 35.874C31.163 34.216 31.897 32.49 32.489 30.714C32.712 28.94 32.932 26.895 33.019 25.202C32.991 25.129 32.958 25.058 32.919 24.991H33.028C33.158 23.984 33.086 22.961 32.817 21.982C31.705 20.056 28.965 18.918 24.148 22.396ZM94.534 48.167C92.168 37.519 85.59 29.91 80.15 20.839C74.71 11.767 68.32 8.64701 63.484 6.83601C58.647 5.02501 56.811 5.28701 54.387 4.88501C51.963 4.48401 47.915 3.33301 45.603 3.46901C44.397 3.46101 43.223 3.85801 42.269 4.59501L42.247 4.55801C41.135 5.01501 40.209 5.83201 39.617 6.87901C38.352 8.81301 37.334 12.898 36.478 15.194C36.06 16.317 35.573 17.245 35.089 18.49C35.219 18.593 35.349 18.695 35.475 18.799C36.957 20.028 36.748 22.952 36.284 25.265C36.244 26.247 36.13 27.224 35.943 28.188C37.505 27.437 39.323 27.434 40.888 28.181C42.354 29.096 43.322 30.631 43.518 32.348C43.682 32.198 43.821 32.082 43.97 31.952C42.506 28.27 41.138 24.552 39.865 20.8C38.814 17.677 42.189 17.031 43.034 19.4C44.257 22.81 45.545 26.197 46.899 29.558C48.451 28.291 50.272 27.258 51.748 27.734C53.314 28.191 54.764 28.975 56.002 30.034C51.867 23.117 47.665 16.24 43.395 9.40501C42.185 7.47101 45.512 5.57701 46.832 7.86201C49.427 12.352 57.294 25.126 65.639 39.574C74.561 55.018 83.41 72.091 86.62 78.043C88.24 75.871 88.489 72.067 89.969 69.233C91.764 65.79 96.9 58.815 94.534 48.166V48.167ZM86.613 65.234C85.817 62.694 84.312 57.985 82.81 53.714C82.072 51.619 85.086 48.644 86.421 52.041C87.961 55.855 89.157 59.799 89.995 63.826C90.668 67.271 87.443 67.872 86.613 65.234ZM75.674 38.823C75.483 38.508 75.288 38.192 75.092 37.875C73.384 35.114 71.484 32.261 69.449 29.297C66.39 24.865 63.103 20.594 59.601 16.502C58.34 15.036 59.891 11.981 61.787 13.908C64.095 16.253 70.943 23.66 78.489 36.098C80.222 38.957 77.54 41.887 75.674 38.823Z" fill="#440911"/>
<path d="M23.686 29.837C21.823 28.403 19.221 33.786 17.538 37.162C16.461 39.575 15.845 42.167 15.72 44.806C15.72 44.806 18.024 41.605 20.838 38.093C23.653 34.581 24.264 34.571 24.803 32.846C25.203 31.582 25.545 31.271 23.686 29.837Z" fill="white"/>
</g>
<defs>
<clipPath id="clip0_1_29">
<rect width="98.785" height="92.569" fill="white"/>
</clipPath>
</defs>
</svg>
