<svg width="85" height="100" viewBox="0 0 85 100" fill="none" xmlns="http://www.w3.org/2000/svg">
<path d="M30.469 95.313C14.073 95.313 0.781982 82.021 0.781982 65.626V45.313C0.783982 32.578 8.90698 21.263 20.973 17.188L17.188 11.719H21.875V5.46899L27.344 7.03199L30.469 5.46899L33.594 7.03199L39.063 5.46899V11.719H44.532L40.252 17.283C52.17 21.445 60.155 32.688 60.156 45.313V65.626C60.155 82.021 46.865 95.313 30.469 95.313Z" fill="#FFBA0E"/>
<path d="M30.469 95.313C21.485 95.32 12.982 91.249 7.354 84.246C16.041 89.481 26.874 89.633 35.705 84.645C44.537 79.656 49.999 70.3 50 60.157V40.625C50.003 30.437 44.491 21.043 35.596 16.076C49.795 18.565 60.155 30.896 60.156 45.313V65.626C60.155 82.021 46.865 95.313 30.469 95.313Z" fill="#F89F04"/>
<path d="M31.25 69.532C31.25 83.771 42.793 95.313 57.031 95.313C71.27 95.313 82.813 83.771 82.813 69.532C82.813 55.293 71.27 43.751 57.031 43.751C42.793 43.751 31.25 55.293 31.25 69.532Z" fill="#FFE760"/>
<path d="M57.031 95.313C51.04 95.322 45.234 93.236 40.619 89.416C52.39 93.164 65.167 88.035 71.079 77.188C76.991 66.34 74.378 52.824 64.848 44.962C76.965 48.814 84.464 60.924 82.513 73.487C80.563 86.05 69.745 95.316 57.031 95.313Z" fill="#FFBA0E"/>
<path d="M46.094 69.532C46.094 75.573 50.99 80.47 57.032 80.47C63.073 80.47 67.969 75.573 67.969 69.532C67.969 63.491 63.073 58.594 57.032 58.594C50.99 58.594 46.094 63.491 46.094 69.532Z" fill="#FDBD0F"/>
<path d="M47.739 52.167C46.177 50.562 42.809 55.439 40.646 58.495C39.227 60.679 38.218 63.103 37.666 65.647C37.666 65.647 40.4 62.835 43.672 59.793C46.943 56.751 47.534 56.81 48.331 55.21C48.916 54.034 49.297 53.773 47.739 52.167Z" fill="white"/>
<path d="M57.031 96.094C52.662 96.1 48.36 95.023 44.51 92.96C40.394 95.023 35.853 96.097 31.25 96.094H29.687C13.292 96.094 0 82.803 0 66.407V44.532C0 32.423 7.353 21.529 18.583 17L12.5 10.157H20.963L20.312 2.344L27.631 5.271L30.469 0L33.306 5.271L40.625 2.344L39.974 10.157H48.437L42.354 17C53.14 21.362 60.382 31.626 60.876 43.25C74.649 45.267 84.528 57.576 83.518 71.459C82.509 85.343 70.951 96.091 57.031 96.094ZM30.469 92.969C34.126 92.968 37.745 92.228 41.108 90.793C36.45 87.301 33.067 82.377 31.477 76.777L30.469 75.782C30.469 75.782 22.991 83.148 21.875 84.375C20.759 85.603 19.642 85.938 18.75 88.282C18.527 88.863 18.347 89.459 18.212 90.067C22.014 91.98 26.212 92.974 30.469 92.969ZM30.469 22.657C30.469 22.657 22.991 30.023 21.875 31.251C20.759 32.478 19.642 32.813 18.75 35.157C18.663 35.383 18.593 35.596 18.525 35.808C20.583 37.879 22.787 40.071 24.218 41.407C24.51 41.679 24.782 41.959 25.043 42.24C27.869 39.394 30.469 36.719 30.469 36.719C30.469 36.719 33.07 39.396 35.897 42.244C36.159 41.961 36.426 41.68 36.719 41.407C38.15 40.071 40.354 37.879 42.412 35.808C42.343 35.588 42.268 35.372 42.187 35.157C41.295 32.813 40.178 32.478 39.062 31.251C37.946 30.023 30.469 22.657 30.469 22.657ZM36.719 22.657C37.556 21.875 38.663 20.795 39.848 19.621C36.843 18.525 33.668 17.966 30.469 17.969C27.269 17.966 24.094 18.525 21.089 19.621C22.118 20.647 23.161 21.66 24.218 22.657C24.511 22.93 24.776 23.212 25.038 23.494C27.866 20.647 30.469 17.969 30.469 17.969C30.469 17.969 33.071 20.647 35.899 23.495C36.161 23.212 36.426 22.93 36.719 22.657ZM39.062 43.751C38.796 44.037 38.512 44.307 38.215 44.56C39.263 45.607 40.328 46.639 41.406 47.657L41.64 47.891C45.719 44.979 50.543 43.287 55.547 43.014C53.355 40.771 47.656 35.157 47.656 35.157C47.656 35.157 40.178 42.523 39.062 43.751ZM30.469 41.407C30.469 41.407 22.991 48.773 21.875 50C20.759 51.228 19.642 51.563 18.75 53.907C18.516 54.517 18.33 55.144 18.192 55.782C20.342 57.952 22.709 60.313 24.218 61.719C24.51 61.992 24.779 62.273 25.041 62.554C27.868 59.709 30.469 57.032 30.469 57.032C30.469 57.032 31.315 57.903 32.564 59.176C34.046 55.686 36.257 52.553 39.049 49.986C37.898 48.726 30.469 41.407 30.469 41.407ZM31.383 62.621L30.469 61.719C30.469 61.719 22.991 69.085 21.875 70.313C20.759 71.541 19.642 71.876 18.75 74.219C18.516 74.829 18.33 75.456 18.192 76.094C19.411 77.327 20.638 78.551 21.875 79.766C25.541 76.166 30.469 71.094 30.469 71.094L30.522 71.15C30.488 70.611 30.469 70.071 30.469 69.532C30.469 67.198 30.776 64.875 31.383 62.621ZM15.156 88.282C16.188 85.931 17.676 83.807 19.531 82.032L19.556 82.008C16.973 79.419 13.281 75.782 13.281 75.782C13.281 75.782 10.38 78.64 7.922 81.094C9.864 83.92 12.317 86.358 15.156 88.282ZM6.218 78.254C6.713 77.761 7.215 77.259 7.713 76.758C7.577 75.89 7.348 75.039 7.031 74.219C6.138 71.876 5.022 71.541 3.906 70.313C3.806 70.203 3.64 70.029 3.447 69.83C3.902 72.771 4.839 75.617 6.218 78.254ZM6.25 67.969C8.031 69.673 9.472 71.699 10.497 73.94C12.109 72.296 13.281 71.094 13.281 71.094C13.281 71.094 14.204 72.043 15.541 73.407C16.541 71.374 17.891 69.533 19.531 67.969C20.609 66.952 21.673 65.92 22.721 64.873C22.424 64.62 22.141 64.35 21.875 64.063C20.759 62.835 13.281 55.469 13.281 55.469C13.281 55.469 5.803 62.835 4.687 64.063C4.289 64.477 3.868 64.868 3.427 65.235C4.355 66.159 5.297 67.071 6.25 67.969ZM3.125 60.979C4.424 59.734 6.093 58.073 7.713 56.447C7.577 55.579 7.348 54.727 7.031 53.907C6.138 51.563 5.022 51.228 3.906 50C3.649 49.725 3.389 49.454 3.125 49.186V60.979ZM6.25 47.657C8.031 49.36 9.472 51.386 10.497 53.628C12.109 51.984 13.281 50.782 13.281 50.782C13.281 50.782 14.206 51.733 15.541 53.094C16.541 51.061 17.891 49.221 19.531 47.657C20.609 46.64 21.673 45.608 22.721 44.561C22.424 44.308 22.14 44.037 21.875 43.751C20.759 42.523 13.281 35.157 13.281 35.157C13.281 35.157 5.803 42.523 4.687 43.751C4.289 44.164 3.868 44.555 3.427 44.922C4.355 45.847 5.297 46.758 6.25 47.657ZM17.934 21.016C10.468 24.873 5.186 31.945 3.609 40.199C7.294 36.632 13.281 30.469 13.281 30.469C13.281 30.469 14.458 31.68 16.081 33.332C17.004 31.693 18.167 30.201 19.531 28.907C20.609 27.889 21.674 26.857 22.722 25.81C22.425 25.557 22.141 25.287 21.875 25C21.388 24.464 19.693 22.764 17.934 21.016ZM23.437 7.032L23.959 10.157H25L25.889 8.503L23.437 7.032ZM35.048 8.503L35.937 10.157H36.978L37.5 7.032L35.048 8.503ZM34.375 13.282L30.469 7.032L26.562 13.282H19.531L22.081 15.832C24.563 15.175 27.12 14.844 29.687 14.844H31.25C33.682 14.844 36.106 15.142 38.467 15.732L41.406 13.282H34.375ZM43.003 21.016C41.244 22.764 39.549 24.464 39.062 25C38.796 25.287 38.512 25.557 38.215 25.81C39.263 26.857 40.328 27.889 41.406 28.907C42.77 30.201 43.933 31.693 44.856 33.332C46.479 31.68 47.656 30.469 47.656 30.469C47.656 30.469 53.643 36.632 57.328 40.199C55.751 31.945 50.469 24.873 43.003 21.016ZM57.031 46.094C44.087 46.094 33.594 56.587 33.594 69.532C33.594 82.476 44.087 92.969 57.031 92.969C69.975 92.969 80.468 82.476 80.468 69.532C80.468 56.587 69.975 46.094 57.031 46.094ZM69.531 71.094H68.635C67.929 76.32 63.819 80.43 58.593 81.134V82.032C58.593 82.895 57.894 83.594 57.031 83.594C56.168 83.594 55.469 82.895 55.469 82.032V81.134C49.105 80.298 44.6 74.495 45.368 68.123C46.136 61.751 51.89 57.184 58.27 57.883L58.927 56.384C59.067 56.007 59.364 55.709 59.74 55.564C60.116 55.42 60.536 55.444 60.892 55.63C61.642 56.081 61.934 57.022 61.571 57.818L61.232 58.594C65.224 60.136 68.06 63.728 68.634 67.969H69.531C70.394 67.969 71.094 68.669 71.094 69.532C71.094 70.395 70.394 71.094 69.531 71.094ZM57.031 60.938C53.555 60.938 50.422 63.032 49.092 66.243C47.761 69.454 48.497 73.151 50.954 75.608C53.412 78.066 57.108 78.801 60.32 77.471C63.531 76.141 65.625 73.008 65.625 69.532C65.625 64.786 61.777 60.938 57.031 60.938Z" fill="#440911"/>
</svg>
