<svg width="99" height="93" viewBox="0 0 99 93" fill="none" xmlns="http://www.w3.org/2000/svg">
<g clip-path="url(#clip0_2_127)">
<path d="M49.509 84.633C41.667 88.584 26.361 91.594 17.396 77.861C8.43001 64.128 4.51301 53.029 1.71201 33.463C-1.08899 13.899 2.64601 3.928 9.18001 1.862C15.715 -0.204999 29.905 8.067 44.281 22.926C58.658 37.786 64.446 50.583 66.687 59.801C69.619 71.868 57.53 80.593 49.509 84.633Z" fill="#FDAE36"/>
<path d="M49.509 84.633C41.667 88.584 26.361 91.594 17.396 77.861C16.141 75.942 14.943 73.986 13.802 71.996C14.336 71.846 14.644 71.769 14.644 71.769C14.644 71.769 21.203 82.571 37.026 80.257C46.602 78.856 56.883 70.751 57.865 65.596C59.408 57.494 55.55 49.007 41.657 30.103C30.007 14.244 15.101 4.36302 10.597 1.58902C17.619 0.93602 30.866 9.06102 44.281 22.926C58.658 37.79 64.446 50.583 66.687 59.801C69.619 71.868 57.53 80.593 49.509 84.633Z" fill="#EC9902"/>
<path d="M10.022 15.077C7.671 15.059 8.848 20.921 9.544 24.629C10.145 27.202 11.221 29.64 12.716 31.819C12.716 31.819 12.62 27.878 12.746 23.38C12.873 18.882 13.351 18.504 12.739 16.803C12.287 15.553 12.374 15.096 10.022 15.077Z" fill="white"/>
<path d="M57.842 79.717C49.722 76.094 45.083 68.253 49.635 56.541C54.188 44.83 59.342 37.437 70.248 26.969C81.154 16.501 89.002 14.386 93.185 17.54C97.367 20.695 98.522 33.235 95.669 48.826C92.817 64.418 87.441 73.731 82.711 79.238C76.518 86.447 64.105 82.512 57.842 79.717Z" fill="#FFF4AF"/>
<path d="M82.711 79.238C76.518 86.447 64.102 82.511 57.842 79.718C52.209 77.204 48.255 72.653 47.883 66.19C48.346 66.301 48.607 66.367 48.607 66.367C48.607 66.367 55.552 78.713 70.989 74.855C76.801 73.402 84.426 68.975 90.285 49.392C94.49 35.336 94.019 27.969 93.371 22.385C93.746 21.238 99.365 28.627 95.669 48.827C92.817 64.419 87.441 73.731 82.711 79.238Z" fill="#F2DA62"/>
<path d="M97.092 48.784C94.063 65.093 88.354 74.834 83.33 80.593C76.857 88.015 63.985 84.143 57.242 81.234C55.08 82.765 52.806 84.128 50.439 85.315C42.323 89.372 26.48 92.463 17.205 78.361C7.93 64.261 3.873 52.864 0.974 32.775C-1.925 12.686 1.94 2.44803 8.703 0.32303C15.466 -1.80197 30.154 6.69803 45.029 21.958C50.018 27.012 54.515 32.529 58.458 38.436C62.009 33.971 65.899 29.787 70.094 25.922C81.677 14.973 90.065 14.656 94.493 17.926C98.922 21.196 100.121 32.475 97.092 48.784ZM41.485 23.518C27.778 9.31903 13.733 1.72003 10.333 3.38903C4.464 6.26803 1.944 13.726 4.613 32.417C7.283 51.108 10.478 60.967 18.503 74.084C26.676 87.437 39.76 85.934 48.781 81.696C50.39 80.944 51.959 80.11 53.483 79.198C47.097 74.877 44.824 66.588 48.971 56.083C51.298 50.188 53.008 46.114 56.238 41.45C51.847 35.059 46.911 29.059 41.485 23.518ZM52.466 57.108C48.319 67.603 51.09 73.952 59.219 77.779C64.83 80.42 73.99 85.085 81.756 76.577C85.194 72.811 91.127 63.328 93.5 49.312C95.738 36.088 95.506 32.26 91.944 30.253C89.644 28.96 86.331 30.396 85.69 30.136C85.049 29.874 85.167 28.437 81.887 26.312C76.419 22.771 66.234 34.748 68.49 32.426C61.501 39.458 56.045 47.862 52.466 57.108ZM91.298 20.791C89.171 19.133 84.956 19.605 79.184 23.33C80.61 23.077 82.069 23.079 83.493 23.338C86.709 24.021 87.31 26.411 87.31 26.411C87.31 26.411 88.751 25.31 91.958 26.493C92.972 26.949 93.861 27.644 94.548 28.518C94.009 24.688 92.901 22.04 91.298 20.791Z" fill="#440911"/>
</g>
<defs>
<clipPath id="clip0_2_127">
<rect width="98.768" height="92.602" fill="white"/>
</clipPath>
</defs>
</svg>
