<svg width="96" height="100" viewBox="0 0 96 100" fill="none" xmlns="http://www.w3.org/2000/svg">
<path d="M2.354 78.906C2.354 78.906 6.651 89.648 17.979 92.187C29.307 94.726 42.784 93.164 52.354 89.062C61.924 84.961 69.346 74.804 69.542 70.312C69.737 65.82 62.51 57.617 52.354 53.125C42.198 48.633 28.135 47.656 18.76 53.125C9.385 58.595 4.307 66.406 3.135 71.095C2.437 73.635 2.173 76.277 2.354 78.906Z" fill="#FCE8BB"/>
<path d="M1.573 78.906C1.573 78.906 15.245 88.672 36.729 85.937C58.214 83.203 68.761 67.968 68.761 67.968C68.761 67.968 67.003 81.054 59.386 85.937C51.768 90.82 36.339 95.703 22.667 92.969C8.995 90.234 1.573 78.906 1.573 78.906Z" fill="#FDBB8B"/>
<path d="M12.51 75.781C12.51 75.781 16.416 85.937 27.354 86.719C38.291 87.5 48.838 84.375 53.135 78.906C57.432 73.437 58.213 72.461 57.823 70.312C57.432 68.164 49.033 57.031 36.729 57.812C24.424 58.594 18.76 62.109 16.416 65.625C14.072 69.141 12.51 75.781 12.51 75.781Z" fill="#E3EE63"/>
<path d="M12.51 75.781C12.51 75.781 24.619 81.25 38.291 78.125C51.963 75 57.823 69.531 57.823 69.531C57.823 69.531 55.283 84.961 36.729 86.719C18.174 88.477 12.51 75.781 12.51 75.781Z" fill="#C7D00B"/>
<path d="M85.166 70.313C84.971 80.079 75.01 80.665 71.104 81.251C67.198 81.837 65.635 79.688 65.635 79.688L69.541 71.876C70.908 69.141 68.565 64.259 60.948 57.813C53.33 51.368 46.104 50.782 46.104 50.782C46.104 50.782 35.752 35.156 29.697 23.438C23.643 11.719 25.01 1.56299 25.01 1.56299C25.01 1.56299 29.893 2.34399 42.198 6.25099C54.502 10.157 73.057 26.368 78.135 33.595C83.213 40.82 85.362 60.548 85.166 70.313ZM28.135 50.781C25.463 51.315 22.847 52.1 20.323 53.125C17.393 54.492 11.729 57.031 11.729 57.031C11.729 57.031 6.846 50.39 4.698 38.281C2.549 26.172 4.698 17.187 4.698 17.187C4.698 17.187 10.948 26.562 17.197 36.718C23.448 46.876 28.135 50.781 28.135 50.781Z" fill="#FEDFA6"/>
<path d="M34.385 3.125C34.385 3.125 37.462 3.349 54.697 18.75C73.057 35.156 75.01 49.023 75.791 60.156C76.768 74.077 67.198 79.688 67.198 79.688C67.198 79.688 73.448 83.008 78.916 79.688C84.385 76.367 84.776 70.117 83.604 57.813C82.432 45.508 79.676 33.862 71.104 25C59.58 13.086 34.385 3.125 34.385 3.125Z" fill="#FAB861"/>
<path d="M6.25999 17.188C6.25999 17.188 7.23699 21.875 13.291 31.251C19.346 40.625 27.354 50.782 27.354 50.782C27.354 50.782 29.893 48.438 35.947 49.219C38.795 49.638 41.664 49.9 44.541 50.001C44.541 50.001 38.096 41.407 32.822 27.344C27.549 13.282 25.01 5.46899 25.01 5.46899C21.322 6.26899 17.855 7.86999 14.854 10.157C11.867 12.347 8.99799 14.694 6.25999 17.188Z" fill="#E6EB60"/>
<path d="M38.994 64.361C38.707 62.031 33.024 64.077 29.424 65.324C26.936 66.307 24.649 67.737 22.675 69.543C22.675 69.543 26.587 68.854 31.081 68.303C35.576 67.753 36.014 68.17 37.628 67.308C38.812 66.674 39.279 66.693 38.994 64.361Z" fill="white"/>
<path d="M85.26 76.758C83.89 79.303 82.324 80.674 76.645 82.24C72.757 83.153 68.785 83.661 64.793 83.754C59.14 89.778 49.755 93.667 37.483 95.556C23.228 97.748 11.546 92.855 6.155 87.723C0.948003 82.766 -0.115997 80.147 0.0100027 76.606C0.153003 72.469 1.699 66.454 6.937 60.313C7.698 59.423 8.493 58.564 9.32 57.735C7.5 55.147 2.86 47.591 1.454 36.029C-0.306997 21.539 4.588 11.748 4.588 11.748L6.607 15.218C8.425 12.441 10.648 9.951 13.203 7.832C15.94 5.741 19.192 4.429 22.613 4.035C22.48 2.694 22.476 1.343 22.602 0C25.231 0.027 27.852 0.287 30.434 0.781C34.154 1.563 41.211 2.767 55.497 10.963C67.442 17.817 80.952 28.391 84.477 46.209C88.002 64.028 86.631 74.212 85.26 76.758ZM5.371 70.491C4.378 73.53 4.058 76.749 4.433 79.924C5.86 81.902 7.485 83.727 9.283 85.373C14.296 90.072 26.982 91.882 35.13 91.639C45.621 91.326 58.157 85.373 62.543 79.891C65.558 76.121 67.244 70.851 67.765 68.592C66.455 66.76 63.984 61.422 55.494 57.177C46.408 52.634 39.986 49.501 26.514 53.26C14.064 56.737 7.25 64.069 5.371 70.491ZM6.152 22.714C6.152 22.714 4.396 25.089 6.152 37.596C7.045 43.757 9.142 49.683 12.324 55.034C15.952 52.187 20.191 50.218 24.707 49.283C21.628 46.16 18.828 42.774 16.339 39.162C12.592 33.905 9.19 28.411 6.154 22.714H6.152ZM15.552 11.748C12.992 13.798 10.438 17.178 8.972 19.278C10.805 22.42 13.077 26.315 15.552 30.546C19.785 37.783 25.724 44.819 28.935 48.421C30.168 48.202 31.447 47.994 32.784 47.778C35.663 47.295 38.591 47.179 41.5 47.433C38.815 43.985 34.568 37.705 29.651 27.413C26.629 21.335 24.445 14.874 23.16 8.209C20.408 8.855 17.819 10.06 15.552 11.748ZM82.128 55.611C79.777 37.009 71.358 25.845 53.931 14.882C36.505 3.92 26.518 4.699 26.518 4.699C26.518 4.699 28.672 13.119 34.35 26.63C38.1 35.547 44.062 43.95 47.685 48.635C52.137 50.072 56.353 52.159 60.197 54.826C67.546 59.682 70.927 65.295 71.742 67.358C71.742 67.358 73.337 71.009 67.777 79.83C68.598 79.737 69.9 79.533 71.945 79.107C75.258 78.282 78.427 76.962 81.345 75.19C81.345 75.19 84.478 74.212 82.128 55.611ZM15.453 64.375C20.861 57.932 26.324 57.086 33.396 55.924C40.468 54.763 45.773 56.77 51.599 60.678C56.478 63.952 58.723 67.736 59.264 69.129C59.264 69.129 61.146 70.986 56.28 78.108C52.745 83.281 45.981 86.664 36.517 88.143C27.052 89.622 18.51 86.322 14.932 82.862C11.475 79.518 10.77 77.752 10.852 75.362C10.948 72.578 11.974 68.516 15.453 64.375ZM17.901 80.674C20.832 83.558 29.129 85.986 35.783 85.07C43.556 83.997 48.493 81.357 51.965 77.492C56.731 72.18 55.497 69.709 55.497 69.709C55.054 68.547 52.129 65.695 48.135 62.969C38.448 56.352 24.671 59.388 18.538 66.05C16.206 68.539 14.866 71.795 14.768 75.205C14.698 77.195 15.072 77.891 17.901 80.674Z" fill="#440911"/>
</svg>
