<svg width="20" height="20" viewBox="0 0 20 20" fill="none" xmlns="http://www.w3.org/2000/svg">
<g clip-path="url(#clip0_209_98666)">
<path d="M0.548828 11.8025V14.0458H18.287C18.7857 14.0458 19.1661 11.7629 19.1661 11.7629L0.548828 11.8025Z" fill="#F2C05A"/>
<path d="M0.548539 14.5946C0.241124 14.5946 0 14.3535 0 14.0459V11.8023C0 11.4998 0.246067 11.2537 0.548539 11.2537L19.1791 11.2142C19.3339 11.2142 19.4942 11.2877 19.5872 11.4014C19.6942 11.5297 19.7353 11.6856 19.704 11.8416C19.2494 14.5946 18.5598 14.5946 18.3002 14.5946H0.548539ZM18.1335 13.5104L18.1703 13.4364C18.2535 13.2701 18.3494 12.9751 18.4816 12.4796L18.5265 12.3113L1.11034 12.3513V13.5104H1.24382H18.1335Z" fill="#4C2F1B"/>
<path d="M14.3903 0.702702C14.0099 0.505848 13.5375 0.558432 13.2227 0.847196L0.561768 11.8025H2.92357V18.1133C2.92357 18.8611 3.52694 19.4645 4.2748 19.4645C5.02267 19.4645 5.62604 18.8611 5.62604 18.1133V11.8025H7.02986V14.7807C7.02986 15.5416 7.65952 16.1715 8.42064 16.1715C9.18154 16.1715 9.81143 15.5418 9.81143 14.7807V11.8025H11.8188C12.0157 12.5503 12.6849 13.1014 13.4851 13.1014C14.2856 13.1014 14.9676 12.5503 15.1514 11.8025L19.1923 11.7894C20.4647 4.53394 16.109 1.56877 14.3903 0.702702Z" fill="#FFDE8A"/>
<path d="M10.2183 5.47843C10.9922 5.47843 11.6091 4.8618 11.6091 4.08765C11.6091 3.54967 11.3073 3.1036 10.8743 2.86765L8.91943 4.56C9.11629 5.09798 9.61471 5.47843 10.2183 5.47843Z" fill="#FF5C5C"/>
<path d="M10.2182 5.75395C9.52273 5.75395 8.89306 5.30788 8.65689 4.65192C8.61756 4.54698 8.64363 4.429 8.73554 4.35035L10.6904 2.65777C10.769 2.57911 10.9003 2.56586 10.9919 2.61844C11.543 2.9072 11.871 3.47125 11.871 4.07484C11.8845 5.00608 11.1367 5.75395 10.2182 5.75395ZM9.24722 4.63889C9.44408 4.99327 9.81149 5.21619 10.2182 5.21619C10.8349 5.21619 11.3335 4.71777 11.3335 4.10091C11.3335 3.74675 11.163 3.41866 10.8872 3.20878L9.24722 4.63889Z" fill="#4C2F1B"/>
<path d="M14.8234 6.67235C14.6659 7.34157 15.0989 8.02382 15.7679 8.16809C16.2403 8.27303 16.6994 8.10247 16.9881 7.76134L15.8861 5.70157C15.3744 5.76719 14.9414 6.13438 14.8234 6.67235Z" fill="#FF5C5C"/>
<path d="M16.0433 8.4699C15.9384 8.4699 15.8204 8.45687 15.7154 8.43057C14.902 8.24698 14.3772 7.4335 14.5608 6.60698C14.7051 5.99035 15.2168 5.51799 15.8597 5.43934C15.9647 5.42631 16.0829 5.47867 16.1352 5.58361L17.2372 7.63035C17.2898 7.73529 17.2766 7.85327 17.1979 7.93215C16.8961 8.27305 16.4763 8.4699 16.0433 8.4699ZM15.0855 6.72496C15.033 6.98743 15.0725 7.24968 15.2166 7.45956C15.3611 7.68249 15.5709 7.84001 15.8332 7.8926C16.122 7.95822 16.4235 7.87956 16.6597 7.69574L15.7545 6.00338C15.4136 6.12136 15.1642 6.38361 15.0855 6.72496Z" fill="#4C2F1B"/>
<path d="M4.26146 20C3.21382 20 2.36124 19.1477 2.36124 18.0998V12.3378H0.548427C0.314719 12.3378 0.117191 12.1987 0.0452812 11.9832C-0.0410109 11.7663 0.0223598 11.5272 0.200337 11.3805L12.8637 0.423157C13.1572 0.17282 13.5293 0.0343933 13.9111 0.0343933C14.1626 0.0343933 14.4051 0.0919214 14.632 0.205629C16.1696 0.980685 21.081 4.11102 19.7165 11.8447C19.6749 12.1043 19.4439 12.2984 19.1788 12.2984L15.5154 12.3119L15.4783 12.3838C15.0875 13.1405 14.3185 13.6106 13.4716 13.6106C12.6248 13.6106 11.8558 13.1407 11.4648 12.3838L11.4273 12.3115H10.3466V14.7411C10.3466 15.8034 9.48258 16.6674 8.42034 16.6674C7.35809 16.6674 6.49427 15.8034 6.49427 14.7414V12.3117H6.17449V18.0737C6.16236 19.1353 5.30416 20 4.26146 20ZM13.8976 1.1326C13.774 1.1326 13.6597 1.17619 13.5666 1.25889L2.0136 11.2537H2.91C3.06214 11.2537 3.19472 11.3079 3.28303 11.4063C3.39112 11.5146 3.44551 11.6499 3.44551 11.8025V18.1133C3.44551 18.5632 3.81157 18.9292 4.26124 18.9292C4.71876 18.9292 5.07697 18.5708 5.07697 18.1133V11.8023C5.07697 11.4998 5.32303 11.2537 5.62551 11.2537H7.02933C7.18124 11.2537 7.31382 11.3079 7.40236 11.4063C7.51045 11.5146 7.56483 11.6499 7.56483 11.8025V14.7807C7.56483 15.245 7.94258 15.6227 8.40685 15.6227C8.87112 15.6227 9.24888 15.245 9.24888 14.7807V11.7892C9.24888 11.4865 9.49494 11.2405 9.79742 11.2405H11.8048C12.0556 11.2405 12.2673 11.4061 12.3316 11.6524C12.4657 12.1746 12.9345 12.5396 13.4711 12.5396C14.0078 12.5396 14.4765 12.1746 14.6107 11.6521C14.6749 11.4063 14.8866 11.2407 15.1372 11.2407L18.7172 11.2272L18.7331 11.1126C19.6269 4.71484 15.8158 2.04024 14.1358 1.1872C14.0545 1.15012 13.9761 1.1326 13.8976 1.1326Z" fill="#4C2F1B"/>
<path d="M19.1791 11.7629C20.4912 4.3764 15.9254 1.45055 14.2854 0.65033C13.9573 0.492802 13.5636 0.545386 13.2881 0.781566L12.291 1.64763C14.469 3.27437 18.1294 6.27909 17.0142 11.7764L19.1791 11.7629Z" fill="#FFB07B"/>
<path d="M17.0144 12.3117C16.8551 12.3117 16.6971 12.2364 16.5924 12.1103C16.4879 11.9852 16.4445 11.8162 16.4762 11.6578C17.4366 6.90944 14.7277 4.15056 11.9513 2.0782C11.82 1.98719 11.7405 1.83303 11.729 1.65213C11.7189 1.48899 11.7874 1.33326 11.9173 1.22517L12.9164 0.357303C13.1832 0.126966 13.5205 0 13.8661 0C14.0859 0 14.305 0.052809 14.5002 0.152584C16.0706 0.918427 21.0787 4.02225 19.6906 11.8578C19.649 12.1175 19.418 12.3117 19.1531 12.3117H17.0144ZM13.8737 1.0982C13.7832 1.0982 13.6942 1.13101 13.6225 1.19079L13.1456 1.61438L13.2715 1.71303C14.5299 2.70135 18.3596 5.70899 17.669 11.0636L17.6497 11.2142H18.7052L18.7211 11.0991C19.6315 4.57933 15.7425 1.95798 14.0283 1.13348C13.9827 1.11079 13.9288 1.0982 13.8737 1.0982Z" fill="#4C2F1B"/>
<path d="M17.0145 11.7629C17.0145 11.7629 16.8963 13.2061 16.3716 14.0458H18.3001C18.3001 14.0458 18.9824 13.6784 19.1792 11.7629H17.0145Z" fill="#E2803D"/>
<path d="M16.3715 14.5946C16.1695 14.5946 15.9931 14.4888 15.8991 14.3115C15.8009 14.1364 15.8047 13.9272 15.9074 13.7625C16.2852 13.1472 16.4407 12.0548 16.4654 11.7205C16.4859 11.4438 16.7214 11.2274 17.0014 11.2274H19.1661C19.3268 11.2274 19.4706 11.2908 19.5614 11.4016C19.6758 11.5276 19.7232 11.6719 19.7027 11.824C19.4803 13.9324 18.6946 14.4492 18.5394 14.5315C18.4764 14.5726 18.3872 14.5946 18.3 14.5946H16.3715ZM17.4868 12.4191C17.4349 12.6789 17.3701 13.0022 17.2672 13.3375L17.2142 13.5103H18.0942L18.1342 13.4533C18.2245 13.324 18.3953 13.0252 18.5223 12.4753L18.56 12.3117H17.5083L17.4868 12.4191Z" fill="#4C2F1B"/>
<path d="M6.59717 9.02089C6.59717 9.52089 7.00234 9.92606 7.50234 9.92606C8.00234 9.92606 8.4075 9.52089 8.4075 9.02089C8.4075 8.52089 8.00234 8.11572 7.50234 8.11572C7.00234 8.11572 6.59717 8.52089 6.59717 9.02089Z" fill="#FF5C5C"/>
<path d="M7.50219 10.2018C6.85927 10.2018 6.32129 9.67706 6.32129 9.02111C6.32129 8.36515 6.84601 7.84021 7.50219 7.84021C8.15814 7.84021 8.68286 8.36493 8.68286 9.02111C8.68286 9.67684 8.15814 10.2018 7.50219 10.2018ZM7.50219 8.39122C7.14803 8.39122 6.87253 8.67999 6.87253 9.02088C6.87253 9.36201 7.16106 9.65055 7.50219 9.65055C7.84331 9.65055 8.13185 9.36178 8.13185 9.02088C8.13185 8.67976 7.85635 8.39122 7.50219 8.39122Z" fill="#4C2F1B"/>
<path d="M11.9631 9.92629H10.0606C9.95568 9.92629 9.86377 9.83438 9.86377 9.72944V9.2964C9.86377 9.19146 9.95568 9.09955 10.0606 9.09955H11.9631C12.068 9.09955 12.1599 9.19146 12.1599 9.2964V9.72944C12.173 9.83438 12.0811 9.92629 11.9631 9.92629Z" fill="#3DE25C"/>
<path d="M11.7532 10.2018H10.2838C9.90336 10.2018 9.60156 9.90001 9.60156 9.51956C9.60156 9.13911 9.90336 8.83731 10.2838 8.83731H11.7532C12.1337 8.83731 12.4355 9.13911 12.4355 9.51956C12.4355 9.90001 12.1337 10.2018 11.7532 10.2018ZM10.2838 9.37506C10.2052 9.37506 10.1395 9.44068 10.1395 9.51933C10.1395 9.59821 10.2052 9.66383 10.2838 9.66383H11.7532C11.8319 9.66383 11.8975 9.59821 11.8975 9.51933C11.8975 9.44068 11.8319 9.37506 11.7532 9.37506H10.2838Z" fill="#4C2F1B"/>
<path d="M13.2749 7.94495L12.2646 6.84293C12.2253 6.8036 12.2253 6.73799 12.2646 6.69866L12.7237 6.27888C12.763 6.23956 12.8286 6.23956 12.8682 6.27888L13.8785 7.38091C13.9179 7.42023 13.9179 7.48585 13.8785 7.52518L13.4194 7.94495C13.3929 7.9845 13.3143 7.9845 13.2749 7.94495Z" fill="#3DE25C"/>
<path d="M13.367 8.20743H13.3409C13.2097 8.20743 13.0914 8.14181 12.9998 8.0499L12.1339 7.11844C12.042 7.02653 12.0027 6.89552 12.0027 6.76428C12.0027 6.63327 12.0683 6.51507 12.1602 6.42316L12.4488 6.16069C12.5407 6.06878 12.6719 6.02945 12.8031 6.02945C12.9344 6.02945 13.0523 6.09507 13.1443 6.18698L14.0101 7.11844C14.102 7.21035 14.1413 7.34159 14.1413 7.47282C14.1413 7.60406 14.0757 7.72203 13.9838 7.81394L13.6953 8.07642C13.6031 8.15484 13.4849 8.20743 13.367 8.20743ZM12.5798 6.77731L13.367 7.63012L13.5768 7.43327L12.7897 6.58046L12.5798 6.77731Z" fill="#4C2F1B"/>
</g>
<defs>
<clipPath id="clip0_209_98666">
<rect width="19.9535" height="20" fill="white"/>
</clipPath>
</defs>
</svg>
