<svg width="92" height="95" viewBox="0 0 92 95" fill="none" xmlns="http://www.w3.org/2000/svg">
<g clip-path="url(#clip0_3_438)">
<path d="M81.3605 19.851L88.3757 69.827C88.9906 74.2805 87.5141 78.7957 84.2532 81.8873C79.0851 86.7122 68.2555 91.8455 45.488 91.8455C21.1827 91.8455 10.5998 85.8462 6.04533 80.4649C3.33793 77.3104 2.415 73.0431 3.21519 68.9597L12.7525 19.8498" fill="#F6BF54"/>
<path d="M78.6519 85.8462C78.6519 85.8462 69.8534 30.7369 67.6995 30.8603C65.3615 30.9837 68.0689 89.3103 69.176 89.9284C70.2842 90.5477 78.6519 85.8462 78.6519 85.8462Z" fill="#E5AA48"/>
<path d="M76.2526 84.3004L72.6836 58.1984H73.9759L78.1598 83.0013L76.2526 84.3004Z" fill="#ECAA43"/>
<path d="M12.7525 85.8462C12.7525 85.8462 26.2282 28.0143 28.382 28.1388C30.72 28.2622 23.3354 89.3103 22.2284 89.9284C21.1202 90.5477 12.7525 85.8462 12.7525 85.8462Z" fill="#E5AA48"/>
<path d="M68.6838 86.7122L66.7766 51.9511L69.2373 53.6215L70.591 86.2792L68.6838 86.7122ZM24.1344 46.8795L16.0122 83.9907L13.3661 83.0013L23.0887 44.0346L24.1344 46.8795Z" fill="#ECAA43"/>
<path d="M36.5031 91.0424C36.5031 91.0424 43.2716 33.0254 46.9633 33.0254C50.5936 33.0254 54.2853 88.3209 54.7774 90.8573C55.0855 92.0318 36.5031 91.0424 36.5031 91.0424Z" fill="#E5AA48"/>
<path d="M54.7172 89.9284L50.3481 44.0346L48.0715 44.9007L51.3937 89.9284H54.7172ZM27.5193 49.6022C27.5193 49.6022 23.5195 86.8368 22.5352 88.8156L19.7051 87.8262L26.4736 49.0446L27.5193 49.6022ZM36.503 91.0424L42.3486 48.5499H44.8105L39.4571 91.1657L36.503 91.0424Z" fill="#ECAA43"/>
<path d="M8.32196 43.725C8.32196 43.725 18.5981 39.1481 25.9201 45.1474C33.2421 51.1468 37.3658 51.4564 47.2725 48.3019C57.1792 45.1474 66.7778 53.1268 70.9617 57.5791C76.1298 62.9604 88.3757 68.0937 86.3445 53.8682C84.3146 39.6428 81.2378 20.9009 81.2378 20.9009H12.7525L8.32196 43.725Z" fill="#8E5C36"/>
<path d="M45.7322 95C24.9959 95 10.9054 90.7944 3.89021 82.5066C0.629292 78.6724 -0.663042 73.4762 0.32125 68.3429L9.85853 19.233L16.0122 20.4703L6.47488 69.5802C5.86 72.7964 6.66019 76.1372 8.62877 78.4244C12.6285 83.1259 22.2897 88.6922 45.6709 88.6922C67.8836 88.6922 77.8517 83.744 82.2822 79.6001C84.7429 77.25 85.9739 73.7858 85.4818 70.26L78.5905 20.2841L84.8055 19.418L91.8207 69.394C92.6209 74.9603 90.7125 80.4661 86.7139 84.177C79.0213 91.352 65.2388 95 45.7322 95Z" fill="#4C2F1B"/>
<path d="M13.3674 30.1793C13.3674 30.1793 24.505 37.0459 48.6262 36.3649C66.7778 35.8702 73.7317 34.0765 76.131 33.2721C76.7471 33.0871 77.362 33.3338 77.5461 33.9531L82.5301 48.5499L80.5603 27.0877L13.9823 25.727L13.3674 30.1793Z" fill="#935D36"/>
<path d="M12.1978 36.8596C12.1978 36.8596 24.2584 34.3861 30.5961 40.3238C40.9949 49.9723 43.0875 39.3961 54.4706 41.0652C72.9303 43.725 83.2064 64.3223 83.6985 54.3642C83.6985 54.3642 87.6357 58.1984 86.6514 60.7965C85.6671 63.3946 84.9896 63.8276 81.4207 63.0233C77.9131 62.1572 59.7001 48.9212 54.8388 49.168C49.9787 49.4147 38.4716 49.5393 34.964 49.168C31.3951 48.7966 11.7056 41.9929 11.7056 41.9929L12.1978 36.8596Z" fill="#824C28"/>
<path d="M81.7287 66.1778C76.8674 66.1778 71.5152 62.5903 68.7452 59.6838C66.1606 56.9623 57.1154 48.4265 48.2556 51.2714C38.2262 54.4875 32.626 54.6738 23.9503 47.5605C18.1661 42.8602 9.67447 46.5711 9.55174 46.5711L4.07556 48.9829L10.1678 17.7477H83.8826L84.3134 20.3457C84.3748 20.532 87.5129 39.2727 89.4815 53.3748C90.5898 61.1062 87.8198 64.1373 85.2977 65.3734C84.252 65.9298 83.0211 66.1778 81.7287 66.1778ZM52.0099 44.406C61.6711 44.406 69.8547 51.7661 73.2997 55.3536C76.3765 58.5698 81.1139 60.4881 82.6517 59.7454C83.3279 59.4358 83.8213 57.5804 83.3279 54.3025C81.7901 43.4166 79.5748 29.7463 78.5906 24.1183H15.336L12.3831 39.3344C16.6909 38.5929 22.8433 38.53 27.9513 42.7368C34.2276 47.8701 37.1191 48.3031 46.4109 45.3349C48.317 44.6527 50.1628 44.406 52.0099 44.406Z" fill="#4C2F1B"/>
<path d="M47.3327 30.2422C36.9952 30.2422 12.874 29.3145 12.874 20.9033C12.874 12.491 36.9338 11.5632 47.3327 11.5632C57.7315 11.5632 81.7901 12.491 81.7901 20.9033C81.7901 29.3133 57.6701 30.2422 47.3327 30.2422Z" fill="#8E5C36"/>
<path d="M47.3327 14.7794C64.6227 14.7794 78.6519 17.5626 78.6519 20.965C78.6519 24.3663 64.6227 27.1494 47.3327 27.1494C30.0426 27.1494 16.0122 24.3663 16.0122 20.965C16.0134 17.5626 30.0426 14.7794 47.3327 14.7794ZM47.3327 8.47043C38.5956 8.47043 30.288 9.1514 23.9503 10.3876C19.7051 11.2536 9.73584 13.1707 9.73584 20.965C9.73584 28.7581 19.7039 30.6752 23.9503 31.5413C30.2267 32.7786 38.533 33.4584 47.2713 33.4584C56.0096 33.4584 64.3159 32.7774 70.5923 31.5413C74.8375 30.6752 84.8055 28.7581 84.8055 20.965C84.8055 13.1719 74.8988 11.1919 70.6536 10.3876C64.3773 9.15019 56.071 8.47043 47.3327 8.47043Z" fill="#4C2F1B"/>
<path d="M58.7158 63.27C58.7158 63.8506 59.8457 64.3223 61.2391 64.3223C62.6325 64.3223 63.7624 63.8518 63.7624 63.27C63.7624 62.6894 62.6325 62.2189 61.2391 62.2189C59.8457 62.2189 58.7158 62.6907 58.7158 63.27Z" fill="#F8D089"/>
<path d="M77.4835 68.8993C77.4835 69.4799 78.6134 69.9504 80.0068 69.9504C81.4002 69.9504 82.5301 69.4799 82.5301 68.8993C82.5301 68.3187 81.4002 67.8482 80.0068 67.8482C78.6134 67.8482 77.4835 68.3187 77.4835 68.8993Z" fill="#F8D089"/>
<path d="M31.4576 63.27C31.4576 63.6462 31.939 63.9933 32.7199 64.1808C33.5008 64.3683 34.4623 64.3683 35.2432 64.1808C36.0241 63.9933 36.5042 63.6462 36.5042 63.27C36.5042 62.8939 36.0229 62.5479 35.2432 62.3592C34.4623 62.1718 33.5008 62.1718 32.7199 62.3592C31.939 62.5479 31.4576 62.8951 31.4576 63.27Z" fill="#F8D089"/>
<path d="M56.1937 55.6015C56.1937 56.0115 57.048 56.343 58.1021 56.343C59.155 56.343 60.0093 56.0103 60.0093 55.6015C60.0093 55.1915 59.155 54.86 58.1021 54.86C57.048 54.8588 56.1937 55.1915 56.1937 55.6015Z" fill="#F3B13E"/>
<path d="M53.9171 59.3741C53.9171 59.6813 54.55 59.9305 55.3321 59.9305C56.1143 59.9305 56.7472 59.6813 56.7472 59.3741C56.7472 59.0669 56.1131 58.8177 55.3321 58.8177C54.5512 58.8177 53.9171 59.0669 53.9171 59.3741Z" fill="#F3B13E"/>
<path d="M82.5289 71.9921C82.5289 72.2993 83.1631 72.5485 83.944 72.5485C84.7261 72.5485 85.3591 72.2993 85.3591 71.9921C85.3591 71.6848 84.7249 71.4357 83.944 71.4357C83.1631 71.4345 82.5289 71.6848 82.5289 71.9921Z" fill="#F3B13E"/>
<path d="M34.6572 57.642C34.6572 57.9517 35.0567 58.2371 35.704 58.392C36.3514 58.5468 37.1492 58.5468 37.7966 58.392C38.4439 58.2371 38.8422 57.9517 38.8422 57.642C38.8422 57.1631 37.9061 56.776 36.7497 56.776C35.5933 56.776 34.6572 57.1643 34.6572 57.642Z" fill="#F3B13E"/>
<path d="M15.3359 51.9511C15.3359 52.5317 15.887 53.0034 16.5669 53.0034C17.2468 53.0034 17.7979 52.5329 17.7979 51.9511C17.7979 51.3705 17.2468 50.9 16.5669 50.9C15.887 50.9 15.3359 51.3717 15.3359 51.9511Z" fill="#F8D089"/>
<path d="M30.9655 71.2494C30.9655 71.6594 31.7368 71.9908 32.6886 71.9908C33.6404 71.9908 34.4117 71.6582 34.4117 71.2494C34.4117 70.8406 33.6404 70.5079 32.6886 70.5079C31.7368 70.5079 30.9655 70.8393 30.9655 71.2494Z" fill="#F8D089"/>
<path d="M29.2424 79.4138C29.2424 79.8238 30.0137 80.1565 30.9655 80.1565C31.9173 80.1565 32.6886 79.8238 32.6886 79.4138C32.6886 79.0038 31.9173 78.6724 30.9655 78.6724C30.0137 78.6724 29.2424 79.0038 29.2424 79.4138Z" fill="#F8D089"/>
<path d="M57.1166 73.4145C57.1166 73.7907 57.8337 74.0943 58.7158 74.0943C59.599 74.0943 60.3161 73.7894 60.3161 73.4145C60.3161 73.0383 59.599 72.7335 58.7158 72.7335C57.8325 72.7335 57.1166 73.0383 57.1166 73.4145Z" fill="#F8D089"/>
<path d="M26.4122 66.9821C26.4122 67.3583 27.1294 67.6619 28.0114 67.6619C28.8946 67.6619 29.6118 67.3571 29.6118 66.9821C29.6118 66.606 28.8958 66.3011 28.0114 66.3011C27.1282 66.3011 26.4122 66.606 26.4122 66.9821Z" fill="#F3B13E"/>
<path d="M9.18353 66.3628C9.18353 66.606 9.48917 66.8309 9.98372 66.9519C10.4795 67.0728 11.0883 67.0728 11.5829 66.9519C12.0774 66.8297 12.3831 66.606 12.3831 66.3628C12.3831 66.1197 12.0774 65.8947 11.5829 65.7738C11.0883 65.6528 10.4783 65.6528 9.98372 65.7738C9.48797 65.896 9.18353 66.1197 9.18353 66.3628Z" fill="#F3B13E"/>
<path d="M10.7827 71.2494C10.7827 71.4925 11.0884 71.7175 11.5829 71.8385C12.0775 71.9606 12.6875 71.9606 13.1833 71.8385C13.6778 71.7175 13.9835 71.4925 13.9835 71.2494C13.9835 71.0063 13.6778 70.7813 13.1833 70.6604C12.6875 70.5394 12.0787 70.5394 11.5829 70.6604C11.0884 70.7813 10.7827 71.0063 10.7827 71.2494Z" fill="#F3B13E"/>
<path d="M12.3831 62.0339C12.3831 62.277 12.6177 62.502 12.9979 62.6229C13.3794 62.7439 13.8487 62.7439 14.2289 62.6229C14.6091 62.5008 14.8438 62.277 14.8438 62.0339C14.8438 61.7908 14.6091 61.5658 14.2289 61.4448C13.8487 61.3239 13.3794 61.3239 12.9979 61.4448C12.6165 61.5658 12.3831 61.7908 12.3831 62.0339Z" fill="#F8D089"/>
<path d="M11.1521 75.7029C11.1521 75.946 11.3867 76.1698 11.7682 76.292C12.1484 76.4129 12.6177 76.4129 12.9992 76.292C13.3806 76.1698 13.6152 75.946 13.6152 75.7029C13.6152 75.4598 13.3806 75.2348 12.9992 75.1139C12.6189 74.9929 12.1496 74.9929 11.7682 75.1139C11.3867 75.236 11.1521 75.4598 11.1521 75.7029Z" fill="#F8D089"/>
<path d="M14.0436 57.457C14.0436 57.8331 14.484 58.1367 15.0279 58.1367C15.5718 58.1367 16.0122 57.8319 16.0122 57.457C16.0122 57.0808 15.5718 56.776 15.0279 56.776C14.4852 56.776 14.0436 57.0808 14.0436 57.457Z" fill="#F3B13E"/>
<path d="M10.66 52.9417C10.66 53.1848 10.8477 53.4098 11.1521 53.5308C11.4578 53.6517 11.832 53.6517 12.1364 53.5308C12.4408 53.4098 12.6286 53.1848 12.6286 52.9417C12.6286 52.5656 12.1882 52.262 11.6443 52.262C11.1004 52.262 10.66 52.5656 10.66 52.9417Z" fill="#F3B13E"/>
<path d="M34.0423 77.6818C34.0423 78.0579 34.7583 78.3627 35.6415 78.3627C36.5247 78.3627 37.2406 78.0579 37.2406 77.6818C37.2406 77.3056 36.5247 77.002 35.6415 77.002C34.7583 77.002 34.0423 77.3068 34.0423 77.6818Z" fill="#F3B13E"/>
<path d="M61.7926 69.827C61.7926 70.1003 62.316 70.3217 62.9622 70.3217C63.6072 70.3217 64.1306 70.1003 64.1306 69.827C64.1306 69.5536 63.6072 69.3323 62.9622 69.3323C62.316 69.3323 61.7926 69.5536 61.7926 69.827Z" fill="#F3B13E"/>
<path d="M78.2211 74.5889C78.2211 74.8623 78.7446 75.0836 79.3907 75.0836C80.0357 75.0836 80.5603 74.8623 80.5603 74.5889C80.5603 74.3156 80.0369 74.0942 79.3907 74.0942C78.7458 74.0942 78.2211 74.3168 78.2211 74.5889Z" fill="#F3B13E"/>
<path d="M61.7926 80.2181C61.7926 80.4915 62.316 80.7129 62.9622 80.7129C63.6072 80.7129 64.1306 80.4915 64.1306 80.2181C64.1306 79.9448 63.6072 79.7234 62.9622 79.7234C62.316 79.7234 61.7926 79.9448 61.7926 80.2181Z" fill="#F3B13E"/>
<path d="M47.394 18.6754C34.9027 18.6754 34.964 21.0255 35.7642 22.7576C36.9952 25.479 49.8548 27.5195 58.6544 23.3756C61.3005 22.1395 59.8854 18.6754 47.394 18.6754Z" fill="#864D27"/>
<path d="M56.8699 19.5414C56.8699 23.4385 38.1022 23.4385 38.1022 19.5414C38.1022 14.3464 42.3474 11.6866 47.5167 11.6866C52.686 11.6866 56.8699 14.3464 56.8699 19.5414Z" fill="#EA5150"/>
<path d="M47.4554 24.3663C44.8106 24.3663 42.3486 24.0578 40.5028 23.5619C36.9338 22.5725 36.195 20.8404 36.195 19.5414C36.195 13.7271 40.7483 9.82996 47.5168 9.82996C54.2239 9.82996 58.7772 13.7259 58.7772 19.5414C58.7772 23.9332 50.9016 24.3663 47.4554 24.3663ZM40.0106 19.2946C40.6869 19.7893 43.2716 20.5937 47.5168 20.5937C51.762 20.5937 54.3466 19.7893 55.0241 19.2946C54.8388 14.0367 49.3012 13.6037 47.5781 13.6037C43.949 13.6037 40.1334 15.0878 40.0106 19.2946Z" fill="#4C2F1B"/>
<path d="M48.1942 11.7483C48.1942 11.7483 50.2867 3.64555 56.6245 1.91348L48.1942 11.7483Z" fill="#EA5150"/>
<path d="M48.1942 13.6038C48.0089 13.6038 47.8862 13.6038 47.7021 13.5421C46.7178 13.2941 46.1029 12.243 46.3484 11.2536C46.4711 10.8823 48.8091 2.09978 56.1323 0.0580677C57.1166 -0.189889 58.1635 0.367711 58.4703 1.4188C58.7158 2.40821 58.1623 3.45931 57.1166 3.76895C51.8859 5.19137 50.04 12.1813 49.9787 12.243C49.7946 13.0474 48.9944 13.6038 48.1942 13.6038Z" fill="#4C2F1B"/>
<path d="M49.3012 16.2018C49.3012 16.953 49.9077 17.5626 50.6549 17.5626C51.4022 17.5626 52.0086 16.9542 52.0086 16.2018C52.0086 15.4507 51.4022 14.8411 50.6549 14.8411C49.9077 14.8411 49.3012 15.4507 49.3012 16.2018Z" fill="white"/>
</g>
<defs>
<clipPath id="clip0_3_438">
<rect width="92" height="95" fill="white"/>
</clipPath>
</defs>
</svg>
