<svg width="100" height="96" viewBox="0 0 100 96" fill="none" xmlns="http://www.w3.org/2000/svg">
<path d="M91.358 56.288C91.358 49.268 86.031 37.67 71.572 35.686C57.114 33.703 35.502 32.788 23.63 34.16C11.758 35.533 1.56201 44.082 1.56201 59.341C1.56201 74.599 11.455 89.863 32.762 89.863C54.07 89.863 59.701 87.422 70.05 84.522C80.4 81.623 88.009 74.757 89.836 68.498C91.662 62.24 91.358 63.309 91.358 56.288Z" fill="#FF5E61"/>
<path d="M32.763 77.363C54.071 77.363 59.701 74.922 70.051 72.022C80.401 69.122 88.01 62.256 89.836 55.998C90.309 54.38 90.637 53.255 90.867 52.35C91.182 53.64 91.347 54.963 91.359 56.29C91.359 63.311 91.662 62.242 89.836 68.499C88.01 74.756 80.401 81.624 70.051 84.523C59.701 87.423 54.071 89.863 32.763 89.863C11.455 89.863 1.563 74.601 1.563 59.341C1.561 57.306 1.765 55.278 2.17 53.285C4.604 66.119 14.475 77.363 32.763 77.363Z" fill="#E80C00"/>
<path d="M65.703 0.824023C58.695 0.824023 47.116 6.15202 45.136 20.615C43.155 35.077 42.241 56.695 43.612 68.569C44.983 80.444 53.515 90.644 68.75 90.644C83.984 90.644 99.219 80.749 99.219 59.436C99.219 38.122 96.781 32.49 93.887 22.137C90.992 11.785 84.136 4.17302 77.891 2.34602C71.645 0.520023 72.71 0.824023 65.703 0.824023Z" fill="#FD6C6F"/>
<path d="M62.776 10.978C56.627 10.978 46.466 15.704 44.729 28.532C42.992 41.36 42.373 59.063 43.576 69.595C44.779 80.127 54.887 90.645 68.255 90.645C81.625 90.645 92.187 81.868 92.187 62.964C92.187 44.06 90.048 39.064 87.508 29.882C84.968 20.7 78.952 13.948 73.471 12.328C67.991 10.708 68.926 10.978 62.776 10.978Z" fill="#FD737D"/>
<path d="M68.256 90.644C58.275 90.596 49.251 84.692 45.209 75.566C49.812 79.734 55.797 82.045 62.006 82.05C75.374 82.05 85.938 73.274 85.938 54.37C85.938 35.466 83.799 30.47 81.259 21.288C80.73 19.381 80.031 17.524 79.173 15.741C83.213 19.587 86.1 24.484 87.509 29.881C90.049 39.063 92.188 44.06 92.188 62.963C92.188 81.868 81.624 90.644 68.256 90.644Z" fill="#FD4E65"/>
<path d="M55.58 22.745C53.35 22.042 52.814 28.103 52.431 31.923C52.274 34.608 52.607 37.298 53.414 39.863C53.414 39.863 54.434 35.989 55.824 31.638C57.214 27.287 57.777 27.058 57.674 25.22C57.599 23.87 57.812 23.449 55.58 22.745Z" fill="white"/>
<path d="M68.75 92.207C68.275 92.207 67.805 92.192 67.338 92.167C63.167 92.057 59.079 90.977 55.397 89.015C49.888 90.02 42.975 90.645 32.022 90.645C10.156 90.645 0 74.993 0 59.341C0 43.69 10.469 34.926 22.65 33.517C29.481 32.876 36.347 32.678 43.203 32.924C43.562 28.44 44.01 24.142 44.531 20.332C46.562 5.48798 58.437 0.0199757 65.625 0.0199757C72.812 0.0199757 71.719 -0.293024 78.125 1.58198C84.531 3.45698 91.562 11.27 94.531 21.895C97.5 32.52 100 38.301 100 60.176C100 82.051 84.375 92.207 68.75 92.207ZM42.969 70.332C42.546 66.269 42.331 62.187 42.325 58.103C42.223 51.472 42.452 43.948 42.934 36.692C36.96 36.495 30.979 36.678 25.028 37.239C14.085 38.495 4.687 45.548 4.687 59.537C4.687 73.526 13.807 86.732 33.446 86.732C39.289 86.806 45.13 86.501 50.933 85.819C48.232 83.317 46.135 80.235 44.798 76.806C43.857 74.755 43.24 72.572 42.969 70.332ZM46.662 67.915C47.354 73.596 50.015 78.856 54.181 82.78C57.903 85.723 62.836 87.52 68.944 87.52C71.867 87.527 74.776 87.108 77.578 86.277C85.018 82.737 89.844 74.535 89.844 61.738C89.844 44.132 87.841 39.479 85.462 30.927C83.083 22.374 78.23 16.087 73.098 14.577C67.965 13.068 68.841 13.319 63.082 13.319C57.323 13.319 49.37 17.722 47.743 29.669C46.115 41.617 45.536 58.105 46.662 67.915ZM61.719 5.09798C61.719 4.95898 61.753 4.82998 61.766 4.69398C56.232 6.54898 51.723 10.626 49.32 15.944C52.798 11.977 57.754 9.61497 63.025 9.41397C63.582 9.41397 64.065 9.41398 64.52 9.40898C62.857 8.60498 61.777 6.94398 61.719 5.09798ZM70.201 4.08198C69.199 3.97898 68.194 3.92698 67.187 3.92598C66.365 3.92598 65.644 3.94298 64.995 3.96998C64.899 4.20398 64.848 4.45398 64.844 4.70698C65.053 6.05498 66.214 7.04898 67.578 7.04898C68.942 7.04898 70.103 6.05498 70.312 4.70698C70.309 4.49398 70.27 4.28298 70.201 4.08198ZM91.206 24.376C88.55 14.834 83.049 7.81798 77.323 6.13398C75.478 5.59098 74.334 5.17298 73.408 4.85298C73.413 4.93498 73.437 5.01298 73.437 5.09798C73.355 7.17298 72.018 8.98897 70.06 9.68297C71.024 9.88797 72.201 10.23 74.2 10.82C79.926 12.504 86.21 19.521 88.864 29.063C91.518 38.605 93.75 43.795 93.75 63.44C93.794 67.243 93.302 71.032 92.288 74.696C94.677 70.473 96.094 65.18 96.094 58.753C96.094 39.108 93.859 33.917 91.206 24.374V24.376Z" fill="#440911"/>
</svg>
