<svg width="10" height="11" viewBox="0 0 10 11" fill="none" xmlns="http://www.w3.org/2000/svg">
<g clip-path="url(#clip0_310_3003)">
<path d="M1.31616 0.917818V8.23355C1.31616 8.5588 1.57679 8.82041 1.90101 8.82041H9.15528C9.67668 8.82041 9.94372 8.18893 9.57488 7.81261L2.32061 0.503315C1.95191 0.127001 1.31616 0.388462 1.31616 0.917818Z" fill="#FCDB9A"/>
<path d="M0.419501 1.58118L1.58292 0.420338C1.72279 0.286461 2.09149 0.433067 2.22509 0.573381L9.46653 7.93374C9.56832 8.03572 9.74626 8.42491 9.53011 8.71826L8.58911 9.61764C8.48104 9.77068 8.36028 9.77712 8.22668 9.6431L0.622958 2.19978C0.470401 2.05318 0.266945 1.73422 0.419501 1.58118Z" fill="#F7C18B"/>
<path d="M8.41142 10.1087C8.29066 10.1087 8.13168 10.0706 7.96644 9.90464L0.368702 2.46776C0.305255 2.4104 0 2.09145 0 1.72157C0 1.56852 0.057173 1.42178 0.165388 1.31979L1.32254 0.158957C1.66586 -0.172731 2.26354 0.0824356 2.48596 0.312L9.72739 7.67222C9.92443 7.86359 10.1724 8.45674 9.82905 8.93504L9.78457 8.9861L8.86267 9.86631C8.7228 10.045 8.56383 10.0959 8.44934 10.1087H8.41142ZM0.756509 1.76619C0.78203 1.81726 0.826513 1.88105 0.883686 1.9384L8.39859 9.29876L9.25048 8.48878C9.30779 8.38036 9.23151 8.22088 9.20599 8.19542L1.96456 0.835063C1.93276 0.803167 1.84379 0.764978 1.7802 0.745812L0.756509 1.76619Z" fill="#4C2F1B"/>
<path d="M6.52321 8.56513C6.24974 8.56513 6.09092 8.38019 5.95732 8.21427C5.93194 8.18881 5.91284 8.15692 5.88104 8.13132L1.49412 3.67963L1.4877 3.67319C1.25245 3.40529 1.1508 3.04815 1.21439 2.69729C1.27797 2.34644 1.4877 2.04035 1.80565 1.86814C2.18077 1.65775 2.68933 1.39614 2.85472 1.33879C2.9628 1.3006 3.05818 1.25583 3.14729 1.2112C3.33164 1.12825 3.5033 1.04529 3.71945 1.04529C4.25981 1.04529 4.69852 1.51729 5.83656 3.03527C6.71397 4.20884 7.8138 5.13368 8.62121 5.81608C8.91364 6.06481 9.16799 6.27535 9.35234 6.45385C9.47311 6.575 9.53669 6.73448 9.53042 6.91298C9.50504 7.33392 9.07261 7.74857 8.90736 7.86971L8.85019 7.91434L6.93012 8.43097C6.81563 8.49504 6.68218 8.56513 6.52321 8.56513Z" fill="#FF9988"/>
<path d="M6.52324 8.85805C6.12075 8.85805 5.89006 8.58787 5.73722 8.40908L5.72582 8.39606C5.70685 8.37704 5.68532 8.35558 5.66936 8.33399L1.2753 3.87386L1.27188 3.86614C0.968766 3.52358 0.843299 3.08004 0.921288 2.64065C1.00013 2.20226 1.26889 1.82681 1.65855 1.6104C1.98861 1.42117 2.55521 1.13068 2.7474 1.06045C2.81413 1.03384 2.87273 1.00781 2.93147 0.982067L3.0528 0.928859C3.24029 0.846188 3.45273 0.752502 3.71307 0.752502C4.41298 0.752502 4.93937 1.36196 6.0613 2.85849C6.91362 4.00059 7.99662 4.91169 8.78735 5.57678L8.80075 5.58808C9.05012 5.79576 9.3337 6.03505 9.54785 6.23587C9.73406 6.4168 9.8273 6.66253 9.80976 6.92714C9.76728 7.57878 9.08334 8.09327 9.0765 8.09784L8.96871 8.17565L8.84809 8.21027L7.03851 8.69771L7.02853 8.70401C6.86885 8.80642 6.6989 8.85805 6.52324 8.85805ZM3.71307 1.33178C3.55695 1.33178 3.42122 1.39585 3.24927 1.47695C3.1603 1.519 3.0595 1.56663 2.94202 1.61097C2.81327 1.65388 2.32081 1.90862 1.94014 2.11945C1.70631 2.24832 1.54534 2.47302 1.49858 2.73577C1.45139 3.0008 1.52595 3.27027 1.70317 3.47495L6.09338 7.9305C6.12318 7.96397 6.15226 7.99815 6.17907 8.02962C6.29897 8.1705 6.38566 8.27234 6.5231 8.27234C6.60209 8.27234 6.68321 8.23787 6.79243 8.15734L8.70594 7.64072L8.71763 7.63214C8.91296 7.48796 9.20909 7.15298 9.22477 6.89224C9.23033 6.7987 9.20039 6.71817 9.13795 6.65924C8.95302 6.48074 8.69653 6.26419 8.39954 6.01331C7.59085 5.33049 6.48318 4.39521 5.59279 3.20591C4.4961 1.73469 4.09204 1.33178 3.71307 1.33178Z" fill="#4C2F1B"/>
<path d="M5.34073 8.023C4.39973 8.023 3.44603 7.52554 2.79118 6.69639C1.71031 5.33159 1.7548 3.48821 2.89298 2.58254C3.29989 2.25729 3.80846 2.08508 4.35524 2.08508C5.29624 2.08508 6.24979 2.58254 6.90479 3.41184C7.98566 4.77663 7.94117 6.62002 6.80299 7.52569C6.39608 7.85079 5.88751 8.023 5.34073 8.023Z" fill="#FF624D"/>
<path d="M5.34067 8.31578C4.30928 8.31578 3.26933 7.77841 2.55901 6.87818C1.38134 5.39194 1.44721 3.3632 2.70558 2.35569C3.16126 1.9911 3.72956 1.79858 4.34877 1.79858C5.37389 1.79858 6.4137 2.33624 7.13057 3.23647C7.68976 3.94247 7.99088 4.78578 7.97847 5.61092C7.96607 6.49485 7.61277 7.25764 6.98386 7.75853C6.52819 8.12312 5.95988 8.31578 5.34067 8.31578ZM4.34877 2.37786C3.86857 2.37786 3.42559 2.5269 3.06787 2.80881C2.06214 3.61336 2.03947 5.2728 3.01711 6.50816C3.62391 7.26937 4.49249 7.72377 5.34067 7.72377C5.82087 7.72377 6.26385 7.57474 6.62158 7.29282C7.62731 6.48813 7.64998 4.82883 6.67233 3.59348C6.06553 2.83212 5.19681 2.37786 4.34877 2.37786Z" fill="#4C2F1B"/>
<path d="M6.69482 5.12091C6.69482 5.21245 6.76882 5.28683 6.86021 5.28683C6.95146 5.28683 7.02546 5.21259 7.02546 5.12091C7.02546 5.02937 6.95146 4.95514 6.86021 4.95514C6.76882 4.95514 6.69482 5.02937 6.69482 5.12091Z" fill="#FF7A6C"/>
<path d="M1.4941 1.37068C1.4941 1.37068 2.4478 0.611763 3.07727 1.37068C3.7066 2.12975 3.29341 2.41037 4.11351 2.60175C4.93375 2.79298 4.46325 3.6669 4.9654 3.8773C5.4677 4.0877 6.45318 3.69236 6.47856 4.64909C6.50408 5.60582 6.65022 5.56749 7.02534 5.88001C7.40688 6.19254 8.32877 5.54203 8.41774 6.4796C8.50043 7.4236 8.39222 7.41073 8.65926 7.72969C9.13618 8.30367 8.00441 8.66082 7.28597 8.54611C6.56753 8.43769 6.95534 8.18252 6.66933 7.94652C6.38318 7.71052 0.91553 1.61312 0.91553 1.61312C0.91553 1.61312 0.909257 1.45364 1.4941 1.37068Z" fill="#6CEA90"/>
<path d="M7.56575 8.85863C7.45141 8.85863 7.34319 8.85219 7.24154 8.83303C6.76476 8.75651 6.55489 8.59703 6.51041 8.24631C6.50399 8.18896 6.50399 8.18896 6.48488 8.16979C6.19888 7.93379 1.61477 2.82502 0.699289 1.8045L0.629427 1.72783L0.623011 1.61956C0.610322 1.35166 0.864677 1.17302 1.37325 1.09006C1.81195 0.777536 2.68922 0.445848 3.29973 1.17931C3.58574 1.53016 3.68113 1.79162 3.75113 1.983C3.82741 2.19983 3.8401 2.23173 4.17715 2.30825C4.832 2.46129 4.91469 2.97163 4.96545 3.28415C4.99725 3.50113 5.02277 3.57121 5.07994 3.59667C5.18801 3.6413 5.36595 3.64773 5.53761 3.65403C5.989 3.67319 6.75193 3.69865 6.77745 4.63622C6.79656 5.31862 6.84731 5.35695 7.06987 5.52916C7.11436 5.56735 7.16526 5.60568 7.22243 5.65045C7.27333 5.69508 7.47037 5.67591 7.59755 5.66318C7.9346 5.63128 8.64021 5.57393 8.71649 6.45414C8.74201 6.74106 8.74828 6.94531 8.75455 7.09191C8.76724 7.39171 8.76724 7.39171 8.888 7.53831C9.08519 7.77431 9.12967 8.04865 8.99608 8.28465C8.76097 8.68642 8.09984 8.85863 7.56575 8.85863ZM7.09525 8.19525C7.12063 8.20798 7.19064 8.23344 7.3305 8.25261C7.85818 8.33557 8.43675 8.11873 8.48123 7.99115C8.48123 7.99115 8.47496 7.96569 8.43675 7.92106C8.2015 7.64044 8.18239 7.50642 8.16971 7.12381C8.16343 6.9835 8.15702 6.78569 8.13164 6.5115C8.10626 6.23731 8.06805 6.21814 7.64845 6.25633C7.3814 6.28179 7.08256 6.30739 6.84731 6.10958C6.79641 6.07139 6.75193 6.03306 6.71386 6.00116C6.35143 5.72053 6.21798 5.54189 6.1926 4.65539C6.18619 4.30453 6.05915 4.26634 5.52506 4.24718C5.3025 4.24074 5.06725 4.22801 4.86379 4.14505C4.48868 3.99201 4.43792 3.63486 4.39329 3.37969C4.34239 3.07361 4.31701 2.94602 4.05639 2.88853C3.45871 2.74821 3.33153 2.52494 3.21077 2.18696C3.14718 2.02119 3.08359 1.82981 2.86103 1.56192C2.42232 1.03256 1.71671 1.58094 1.69119 1.60654L1.6276 1.6576L1.55132 1.67033C1.49415 1.67677 1.44325 1.6895 1.39877 1.69594C3.56678 4.11316 6.644 7.52544 6.87283 7.72311C7.07002 7.88259 7.0954 8.07396 7.10808 8.17594C7.08898 8.17609 7.09525 8.18252 7.09525 8.19525Z" fill="#4C2F1B"/>
<path d="M0.343262 1.87459V9.19018C0.343262 9.51543 0.603891 9.77703 0.928109 9.77703H8.18238C8.70364 9.77703 8.97082 9.14555 8.60198 8.76938L1.34785 1.46008C0.979151 1.09006 0.343262 1.35166 0.343262 1.87459Z" fill="#FFE9B8"/>
<path d="M0.928356 10.0761C0.444881 10.0761 0.0515137 9.6816 0.0515137 9.19658V1.8747C0.0515137 1.51326 0.264665 1.1933 0.594728 1.05971C0.701233 1.01594 0.813298 0.993774 0.928499 0.993774C1.1619 0.993774 1.39002 1.08817 1.55427 1.25309L8.80839 8.56854C9.06489 8.82585 9.1366 9.1943 8.99545 9.53013C8.85416 9.86697 8.54277 10.0762 8.18263 10.0762H0.928356V10.0761ZM0.93463 1.58063C0.887437 1.58063 0.849369 1.59393 0.8267 1.6018L0.811301 1.60781C0.665874 1.68075 0.635363 1.79661 0.635363 1.88085V9.19644C0.635363 9.35921 0.772378 9.49681 0.934772 9.49681H8.1889C8.27302 9.49681 8.38865 9.46606 8.46122 9.32002C8.49344 9.25537 8.51768 9.11306 8.40405 8.99091L1.14179 1.66702C1.08548 1.61038 1.01376 1.58063 0.93463 1.58063Z" fill="#4C2F1B"/>
<path d="M5.16895 3.09918C5.16895 3.19072 5.24294 3.2651 5.33419 3.2651C5.42544 3.2651 5.49944 3.19087 5.49944 3.09918C5.49944 3.00764 5.42544 2.93341 5.33419 2.93341C5.24294 2.93341 5.16895 3.00764 5.16895 3.09918Z" fill="#FF7461"/>
<path d="M5.87451 3.39901C5.87451 3.49055 5.94851 3.56478 6.03976 3.56478C6.13101 3.56478 6.205 3.49055 6.205 3.39901C6.205 3.30747 6.13101 3.23309 6.03976 3.23309C5.94851 3.23309 5.87451 3.30733 5.87451 3.39901Z" fill="#FF7A6C"/>
<path d="M1.37964 5.91834C1.37964 6.09799 1.52478 6.24359 1.70386 6.24359C1.88293 6.24359 2.02807 6.09799 2.02807 5.91834C2.02807 5.80206 1.96634 5.69478 1.86597 5.63657C1.76573 5.5785 1.64212 5.5785 1.54175 5.63657C1.44137 5.69478 1.37964 5.80206 1.37964 5.91834Z" fill="#FFD899"/>
<path d="M5.55029 8.56512C5.55029 8.74477 5.69544 8.89037 5.87451 8.89037C6.05359 8.89037 6.19873 8.74477 6.19873 8.56512C6.19873 8.38547 6.05359 8.23987 5.87451 8.23987C5.69544 8.23987 5.55029 8.38547 5.55029 8.56512Z" fill="#FFD899"/>
<path d="M3.78296 6.60075C3.78296 6.71704 3.84469 6.82431 3.94507 6.88252C4.0453 6.9406 4.16905 6.9406 4.26929 6.88252C4.36966 6.82431 4.43139 6.71704 4.43139 6.60075C4.43139 6.48461 4.36966 6.3772 4.26929 6.31913C4.16905 6.26106 4.0453 6.26106 3.94507 6.31913C3.84469 6.3772 3.78296 6.48461 3.78296 6.60075Z" fill="#FFD899"/>
<path d="M3.78296 8.19526C3.78296 8.3114 3.84469 8.41881 3.94507 8.47688C4.0453 8.53496 4.16905 8.53496 4.26929 8.47688C4.36966 8.41881 4.43139 8.3114 4.43139 8.19526C4.43139 8.07897 4.36966 7.9717 4.26929 7.91349C4.16905 7.85542 4.0453 7.85542 3.94507 7.91349C3.84469 7.9717 3.78296 8.07897 3.78296 8.19526Z" fill="#FFD899"/>
<path d="M2.89917 7.16196C2.89917 7.2781 2.96105 7.38552 3.06128 7.44359C3.16165 7.50166 3.28527 7.50166 3.3855 7.44359C3.48587 7.38552 3.54761 7.2781 3.54761 7.16196C3.54761 7.04567 3.48587 6.9384 3.3855 6.88033C3.28527 6.82212 3.16151 6.82212 3.06128 6.88033C2.96105 6.9384 2.89917 7.04582 2.89917 7.16196Z" fill="#FFD899"/>
<path d="M2.70215 4.80211C2.70215 4.91839 2.76388 5.02567 2.86426 5.08388C2.96449 5.14195 3.08824 5.14195 3.18848 5.08388C3.28871 5.02567 3.35058 4.91839 3.35058 4.80211C3.35058 4.68597 3.28885 4.57855 3.18848 4.52048C3.0881 4.46241 2.96449 4.46241 2.86426 4.52048C2.76388 4.57841 2.70215 4.68597 2.70215 4.80211Z" fill="#FFD899"/>
<path d="M1.2334 7.13005C1.2334 7.3097 1.37854 7.4553 1.55762 7.4553C1.73669 7.4553 1.88183 7.3097 1.88183 7.13005C1.88183 7.01391 1.8201 6.90649 1.71973 6.84842C1.61949 6.79035 1.49574 6.79035 1.39551 6.84842C1.29513 6.90649 1.2334 7.01391 1.2334 7.13005Z" fill="#FFE3B6"/>
<path d="M1.9519 8.30364C1.9519 8.41992 2.01364 8.52719 2.11401 8.58541C2.21424 8.64348 2.338 8.64348 2.43823 8.58541C2.5386 8.52719 2.60034 8.41992 2.60034 8.30364C2.60034 8.18749 2.5386 8.08008 2.43823 8.02201C2.338 7.96394 2.21424 7.96394 2.11401 8.02201C2.01364 8.08008 1.9519 8.18749 1.9519 8.30364Z" fill="#FFE3B6"/>
<path d="M5.02905 7.48095C5.02905 7.6606 5.1742 7.8062 5.35327 7.8062C5.53235 7.8062 5.67749 7.6606 5.67749 7.48095C5.67749 7.30131 5.53235 7.1557 5.35327 7.1557C5.1742 7.15556 5.02905 7.30131 5.02905 7.48095Z" fill="#FFE3B6"/>
<path d="M1.47485 4.57258C1.47485 4.75222 1.62014 4.89783 1.79907 4.89783C1.97815 4.89783 2.12329 4.75222 2.12329 4.57258C2.12329 4.45629 2.06155 4.34902 1.96118 4.29081C1.86081 4.23274 1.73719 4.23274 1.63696 4.29081C1.53673 4.34902 1.47485 4.45629 1.47485 4.57258Z" fill="#FFE3B6"/>
</g>
<defs>
<clipPath id="clip0_310_3003">
<rect width="10" height="10.1087" fill="white"/>
</clipPath>
</defs>
</svg>
