<svg width="100" height="100" viewBox="0 0 100 100" fill="none" xmlns="http://www.w3.org/2000/svg">
<g clip-path="url(#clip0_2_108)">
<path d="M90.94 84.136C90.94 84.136 83.097 91.501 74.608 89.781C66.12 88.059 55.867 83.327 49.21 82.399C42.553 81.469 28.376 77.555 22.871 69.438C17.366 61.321 11.161 39.867 22.528 26.679C33.895 13.491 46.393 5.707 57.12 7.118C67.847 8.53 81.045 14.088 86.122 24.04C91.198 33.992 92.349 44.759 94.671 53.707C96.993 62.656 97.176 74.69 95.026 78.145C92.877 81.599 90.94 84.136 90.94 84.136Z" fill="#FF4A41"/>
<path d="M86.123 24.04C91.201 33.992 92.35 44.758 94.672 53.707C96.994 62.656 97.177 74.69 95.027 78.144C92.877 81.599 90.941 84.136 90.941 84.136C90.941 84.136 83.098 91.501 74.609 89.78C70.631 88.877 66.711 87.732 62.872 86.352C63.653 85.874 64.153 85.597 64.153 85.597C64.153 85.597 77.654 81.539 80.554 77.735C84.611 72.423 86.396 69.018 83.332 60.048C80.269 51.079 83.923 35.081 72.224 23.091C63.312 13.956 45.536 12.949 37.569 12.987C44.304 8.50902 51 6.31102 57.121 7.11801C67.849 8.53201 81.046 14.088 86.123 24.04Z" fill="#E80C00"/>
<path d="M42.36 33.904L34.53 34.792L27.578 43.478L23.297 37.805L17.696 38.756L18.442 32.671L13.52 29.755L22.633 23.349C22.633 23.349 25.12 21.014 23.345 18.373C21.57 15.731 17.771 12.477 20.247 10.512C22.722 8.54799 25.702 8.26099 26.961 9.59199C28.219 10.924 33.537 13.108 33.537 13.108L37.052 7.65499L41.678 2.23499L43.193 7.27499L50.38 9.14399L49.668 14.12L54.557 18.145L44.898 23.983L42.36 33.904Z" fill="#E8EC5C"/>
<path d="M18.528 93.272C16.716 92.783 8.73799 86.885 5.50599 78.357C2.27299 69.829 0.629992 63.847 3.97099 56.766C7.31199 49.685 13.542 44.523 19.687 46.345C23.39 47.447 26.751 49.475 29.453 52.236C29.453 52.236 40.914 49.299 45.71 54.992C50.506 60.685 52.792 69.12 47.798 77.546C42.803 85.972 29.493 92.809 25.727 93.584C23.348 94.182 20.846 94.074 18.528 93.272Z" fill="#FF6E7A"/>
<path d="M47.797 77.546C42.802 85.973 29.493 92.809 25.726 93.585C23.347 94.182 20.846 94.074 18.527 93.272C17.005 92.736 15.514 92.113 14.062 91.407C14.379 91.357 17.615 90.698 17.968 90.626C21.735 89.85 33.489 84.696 38.483 76.27C43.477 67.844 40.41 59.408 35.614 53.716C34.926 52.912 34.173 52.164 33.364 51.481C36.845 51.448 43.295 52.126 45.708 54.992C50.505 60.684 52.791 69.12 47.797 77.546Z" fill="#FF2C43"/>
<path d="M98.396 78.145C96.075 83.197 89.868 89.563 84.502 91.192C78.194 92.928 71.476 92.372 65.539 89.624C61.351 87.731 53.705 86.226 45.995 84.085C40.167 90.29 32.069 94.25 28.541 95.169C22.165 96.829 18.676 95.752 18.676 95.752C18.676 95.752 15.119 94.929 10.422 90.284C6.60098 86.502 -2.52503 72.048 0.664975 60.064C3.16497 50.662 8.36897 45.499 14.024 44.136C14.223 40.871 14.899 37.653 16.032 34.584L16.134 33.667C16.134 33.667 9.83898 32.084 10.161 29.642C10.482 27.199 18.268 24.628 19.841 22.688C21.414 20.749 22.005 19.739 21.102 18.292C20.199 16.847 17.868 15.365 17.959 12.678C18.08 11.087 18.824 9.609 20.03 8.565C21.15 7.426 22.674 6.773 24.272 6.749C26.968 6.818 28.314 9.224 29.709 10.207C31.104 11.191 32.154 10.664 34.187 9.214C36.221 7.763 39.257 0.175003 41.724 0.00300276C44.19 -0.168997 45.401 6.185 45.401 6.185L48.172 6.044C50.637 5.478 53.159 5.204 55.686 5.226C70.927 5.445 83.103 13.116 88.593 23.84C94.083 34.564 95.142 51.868 97.957 59.181C100.773 66.494 100.443 73.69 98.396 78.145ZM4.93497 62.267C2.83097 70.174 9.60698 83.243 12.869 86.46C16.878 90.412 19.912 91.115 19.912 91.115C19.912 91.115 22.891 92.032 28.323 90.625C32.747 89.481 45.107 81.574 47.212 73.666C49.921 63.489 47.049 57.44 41.268 54.962C35.485 52.484 29.609 54.696 29.609 54.696C29.609 54.696 25.616 49.822 19.375 49.058C13.135 48.294 7.64397 52.087 4.93497 62.267ZM47.32 15.086C46.734 13.648 48.112 10.194 48.112 10.194L42.495 9.983L40.961 6.07L38.057 11.018C38.057 11.018 39.144 12.823 38.477 13.753C37.81 14.684 32.523 16.132 30.631 15.768C28.739 15.403 27.545 13.159 25.768 11.77C24.936 11.044 23.735 10.923 22.775 11.47C22.17 12.392 22.22 13.597 22.898 14.465C24.185 16.317 26.362 17.637 26.614 19.543C26.866 21.45 25.103 26.621 24.13 27.229C23.158 27.837 21.415 26.649 21.415 26.649L16.285 29.245L20.113 31.002L19.991 36.603C19.991 36.603 23.533 35.438 24.938 36.106C26.344 36.774 27.008 40.586 27.008 40.586C27.008 40.586 33.396 32.444 35.078 31.934C36.438 31.521 40.318 31.534 41.761 31.554C41.827 30.118 42.045 26.256 42.539 24.928C43.15 23.283 51.683 17.412 51.683 17.412C51.683 17.412 47.906 16.524 47.32 15.086ZM93.909 62.983C91.097 55.67 89.026 35.004 85.119 27.103C79.779 16.306 69.07 10.418 53.827 10.199C53.273 10.191 52.727 10.209 52.186 10.239L51.796 14.093C51.796 14.093 54.339 13.999 55.624 15.851C56.909 17.702 56.374 19.428 54.9 20.813C53.425 22.2 46.788 25.984 46.367 26.685C45.947 27.386 46.055 31.263 46.142 33.321C46.197 34.605 45.721 35.137 45.36 35.352C45.12 35.703 44.559 36.143 43.276 36.012C41.22 35.802 37.342 35.465 36.615 35.844C35.888 36.222 31.703 42.598 30.227 43.984C28.751 45.37 26.991 45.799 25.213 44.411C23.436 43.021 23.68 40.497 23.68 40.497L19.298 40.677C19.201 41.38 19.128 42.09 19.096 42.817C19.079 43.182 19.074 43.538 19.066 43.896C23.501 44.596 27.636 46.57 30.969 49.578C35.466 48.62 40.147 49.035 44.406 50.768C51.184 53.677 55.192 61.925 52.002 73.908C51.396 76.103 50.441 78.187 49.175 80.08C57.107 82.149 65.47 83.961 69.584 85.822C76.741 89.058 80.997 87.482 85.278 85.077C88.859 83.064 89.996 81.998 92.226 78.553C94.891 74.438 96.724 70.296 93.909 62.982V62.983ZM76.509 73.456C73.977 70.778 73.723 66.918 75.941 64.835C78.16 62.751 82.011 63.233 84.543 65.911C87.075 68.589 87.33 72.449 85.111 74.533C82.893 76.616 79.041 76.134 76.509 73.456ZM80.024 54.479C77.543 56.221 73.798 55.188 71.66 52.172C69.522 49.156 69.8 45.297 72.285 43.558C74.77 41.817 78.511 42.849 80.649 45.865C82.788 48.881 82.507 52.736 80.024 54.479ZM66.301 31.684C63.779 28.429 63.691 24.284 66.103 22.426C68.516 20.568 72.515 21.702 75.037 24.958C77.558 28.214 77.646 32.358 75.234 34.216C72.822 36.074 68.823 34.94 66.301 31.684ZM51.158 46.643C48.327 43.649 47.832 39.533 50.051 37.451C52.269 35.368 56.362 36.104 59.191 39.097C62.02 42.09 62.517 46.206 60.298 48.289C58.079 50.372 53.987 49.638 51.158 46.643ZM28.79 57.758C32.54 58.774 34.226 64.694 32.55 70.99C30.875 77.286 26.474 81.568 22.722 80.556C18.97 79.544 17.286 73.62 18.962 67.325C20.638 61.029 25.038 56.746 28.79 57.758ZM23.936 75.997C25.604 76.447 27.771 73.749 28.779 69.972C29.788 66.195 29.248 62.768 27.581 62.316C25.913 61.864 23.745 64.563 22.737 68.341C21.728 72.118 22.266 75.548 23.936 75.997Z" fill="#440911"/>
<path d="M17.825 53.322C16.281 51.717 13.138 56.919 11.122 60.178C9.79699 62.523 8.88099 65.076 8.41199 67.728C8.41199 67.728 10.984 64.699 14.075 61.401C17.166 58.101 17.734 58.148 18.469 56.455C19.006 55.212 19.369 54.924 17.825 53.322Z" fill="white"/>
<path d="M52.747 40.306C53.698 39.413 55.435 39.711 56.627 40.971C57.819 42.231 58.013 43.976 57.063 44.869C56.112 45.762 54.375 45.464 53.183 44.204C51.991 42.944 51.796 41.199 52.747 40.306ZM74.32 46.432C75.566 45.73 77.145 46.15 77.876 47.38C78.796 48.472 78.664 50.101 77.581 51.03C76.334 51.733 74.755 51.311 74.025 50.081C73.107 48.989 73.238 47.362 74.32 46.432ZM78.357 67.388C79.074 66.426 80.316 66.016 81.464 66.361C82.613 66.706 83.423 67.733 83.491 68.93C83.56 70.128 82.872 71.24 81.77 71.713C80.668 72.187 79.387 71.92 78.566 71.046C77.516 70.085 77.424 68.462 78.357 67.388ZM68.506 25.529C69.54 24.733 71.24 25.199 72.3 26.57C73.36 27.94 73.385 29.695 72.351 30.493C71.318 31.291 69.617 30.822 68.557 29.452C67.497 28.082 67.472 26.325 68.506 25.529Z" fill="#FFDE4D"/>
</g>
<defs>
<clipPath id="clip0_2_108">
<rect width="100" height="100.001" fill="white"/>
</clipPath>
</defs>
</svg>
