<svg width="99" height="95" viewBox="0 0 99 95" fill="none" xmlns="http://www.w3.org/2000/svg">
<g clip-path="url(#clip0_1_4)">
<path d="M16.252 76.749C16.252 76.749 19.994 86.169 34.964 86.417C49.934 86.665 61.909 62.37 66.401 40.307C70.892 18.244 71.142 6.34398 62.659 2.37698C54.175 -1.59002 33.466 8.82298 18.497 28.407C3.52803 47.991 -0.71297 54.437 1.28203 65.593C3.27703 76.749 16.252 76.749 16.252 76.749Z" fill="#BBADA2"/>
<path d="M47.9449 24.275C45.9539 25.994 44.5319 33.588 46.5229 50.063C48.5139 66.538 60.0329 83.586 66.4299 86.594C72.8279 89.603 78.9449 87.168 84.2069 83.73C89.4679 80.291 95.4409 73.128 92.7389 65.821C90.0369 58.515 81.2219 43.043 70.6979 35.02C60.1739 26.996 49.9359 22.556 47.9449 24.275Z" fill="#F8EBAC"/>
<path d="M84.208 83.73C81.297 85.536 78.165 86.958 74.889 87.96C74.13 87.665 73.358 87.407 72.574 87.189C72.574 87.189 84.148 83.331 85.691 73.3C86.755 66.385 81.318 54.782 72.574 44.751C64.957 36.013 51.293 26.134 47.895 24.328C47.913 24.313 47.928 24.289 47.945 24.275C49.936 22.556 60.175 26.998 70.698 35.02C81.221 43.042 90.038 58.515 92.74 65.822C95.442 73.128 89.472 80.292 84.208 83.73Z" fill="#FDD05D"/>
<path d="M85.785 85.739C80.1021 89.425 73.497 92.037 66.585 88.811C63.176 87.22 58.425 81.965 54.224 74.931C48.877 82.835 42.438 88.078 35.343 87.96C19.869 87.703 16 77.94 16 77.94C16 77.94 2.58904 77.94 0.526044 66.379C-1.53596 54.818 2.07004 47.521 18.322 27.841C35.082 7.54398 55.201 -3.24302 63.97 0.86398C71.648 4.46298 72.392 14.392 69.346 32.146C69.964 32.59 70.576 33.04 71.193 33.508C82.559 42.111 92.083 58.702 95.002 66.533C97.921 74.364 91.469 82.051 85.785 85.739ZM35.382 84.102C41.241 84.091 47.033 78.715 51.937 70.808C50.93 68.851 50.01 66.851 49.179 64.813C45.641 72.194 42.353 76.855 36.602 80.137C33.96 81.715 31.018 82.728 27.965 83.111C30.376 83.799 32.875 84.133 35.382 84.102ZM22.183 80.277C25.096 80.277 30.478 79.891 35.158 77.41C40.045 74.818 44.032 67.494 47.526 60.31C46.511 57.257 45.754 54.124 45.263 50.945C45.073 51.368 44.877 51.801 44.689 52.22C40.368 62.014 36.835 70.435 29.995 75.469C25.309 78.918 22.844 79.76 21.756 79.949C21.892 80.059 22.033 80.167 22.183 80.277ZM19.333 76.386C21.351 75.509 25.265 74.975 27.743 73.239C31.532 70.588 34.024 66.388 38.243 57.912C40 54.383 42.275 49.543 44.547 44.616C43.476 32.888 44.266 26.23 45.667 23.341C41.183 29.824 31.89 43.295 27.049 50.923C21.956 58.948 19.641 63.269 19.333 67.899C19.07 70.721 19.07 73.563 19.333 76.386ZM22.938 28.485C8.11004 46.439 2.17204 56.682 3.90104 64.04C4.72604 67.79 7.14804 70.992 10.532 72.807C9.00904 69.593 8.32004 66.048 8.53004 62.497C8.83904 52.466 14.284 46.344 24.734 32.404C35.492 18.053 42.635 11.88 47.111 7.71298C47.243 7.58998 47.378 7.48198 47.512 7.36398C40.175 11.186 31.37 18.279 22.938 28.485ZM46.339 12.343C41.246 17.127 31.987 28.238 26.277 36.263C20.567 44.287 11.616 54.781 11.616 62.497C11.616 67.266 13.385 71.735 14.735 74.457C15.3 74.601 15.815 74.706 16.248 74.78C15.946 72.238 15.946 69.669 16.246 67.127C17.018 58.639 22.419 51.232 28.592 42.436C34.765 33.639 41.246 23.145 47.882 14.658C51.249 10.351 53.501 7.48198 55.147 5.56998C52.024 7.57398 49.078 9.83998 46.339 12.343ZM56.37 9.25698C52.135 13.642 50.562 16.258 46.579 22.026C46.591 22.014 46.603 21.997 46.616 21.987C47.589 21.153 50.397 21.682 54.222 23.298C56.086 19.503 57.575 15.535 58.67 11.452C59.213 9.41898 59.732 7.37898 60.225 5.33298C58.927 6.62798 57.641 7.93498 56.37 9.25698ZM63.378 5.75898C63.385 5.80598 63.396 5.84998 63.4 5.89798C63.564 7.95198 62.256 11.436 58.438 21.465C58.028 22.532 57.605 23.595 57.168 24.652C57.991 25.066 58.807 25.496 59.614 25.943C60.432 22.607 61.12 19.733 61.64 17.827C62.641 13.921 63.289 9.93298 63.575 5.91198L63.378 5.75898ZM65.874 8.96598C66.053 10.983 65.882 13.016 65.368 14.976C64.649 17.659 63.866 22.133 62.605 27.668C63.615 28.281 64.614 28.913 65.6 29.564C67.282 20.005 67.802 13.219 65.874 8.96598ZM91.24 65.612C88.719 58.745 80.465 44.977 70.62 37.438C60.775 29.899 49.461 23.795 48.563 25.025C47.111 27.017 46.543 35.472 48.654 50.923C50.516 64.554 61.489 82.153 67.404 85.134C73.776 88.347 79.111 86.445 84.032 83.213C88.954 79.98 94.539 74.6 91.24 65.612Z" fill="#440911"/>
<path d="M52.294 41.158C49.959 41.426 51.839 47.099 52.98 50.697C53.888 53.178 55.251 55.468 56.998 57.449C56.998 57.449 56.423 53.546 56.002 49.071C55.582 44.596 56.01 44.158 55.197 42.544C54.596 41.355 54.629 40.892 52.294 41.158Z" fill="white"/>
</g>
<defs>
<clipPath id="clip0_1_4">
<rect width="98.808" height="94.133" fill="white"/>
</clipPath>
</defs>
</svg>
