<svg width="109" height="65" viewBox="0 0 109 65" fill="none" xmlns="http://www.w3.org/2000/svg">
<g clip-path="url(#clip0_3_642)">
<path d="M21.2607 61.9685C17.3667 61.9685 15.333 60.3008 14.3008 58.8926C12.1359 55.9476 12.9208 52.4086 13.3426 51.0156C13.5605 50.3045 13.8077 49.3911 14.0829 48.3175C15.8121 41.6885 19.0385 29.3286 28.3812 23.5125C34.6721 19.5957 47.096 18.2027 56.6286 18.2027C62.4111 18.2027 76.6661 18.7688 84.1497 24.0481C95.135 31.78 97.909 52.1618 98.0262 53.0319C98.0415 53.177 98.0555 53.322 98.0555 53.481C98.0555 58.8048 94.8737 61.9825 89.541 61.9825H21.2607V61.9685Z" fill="white"/>
<path d="M21.2467 65C15.8197 65 13.0087 62.2968 11.8148 60.685C9.70718 57.824 9.19366 53.9657 10.4055 50.101C10.5737 49.5858 10.7763 48.8174 11.0133 47.918L11.1076 47.5593C12.9565 40.5067 16.3995 27.3797 26.7515 20.9339C33.6082 16.6749 46.6806 15.1585 56.6299 15.1585C64.176 15.1585 78.013 15.988 85.9082 21.5446C97.7408 29.8782 100.748 50.3147 101.053 52.6172C101.093 52.8958 101.106 53.1808 101.106 53.4517C101.106 60.4662 96.5672 64.9987 89.5423 64.9987H21.2467V65ZM56.6286 21.2634C45.1668 21.2634 34.7066 23.1703 29.9817 26.1229C21.6545 31.3106 18.6333 42.897 17.0099 49.1227C16.7181 50.246 16.467 51.2077 16.2351 51.9481C15.6248 53.925 15.8146 55.8573 16.7461 57.1142C17.6406 58.3239 19.1557 58.9371 21.2467 58.9371H89.5398C93.165 58.9371 95.0037 57.1014 95.0037 53.4823C94.9821 53.3296 92.4361 33.6182 82.3925 26.5402C77.6345 23.1881 68.2446 21.2634 56.6286 21.2634Z" fill="#4C2F1B"/>
<path d="M21.2467 64.6222C15.9867 64.6222 13.27 62.0143 12.1193 60.4611C10.0856 57.6993 9.59123 53.9644 10.7661 50.2142C10.9343 49.699 11.1394 48.923 11.379 48.0147L11.4733 47.656C13.3184 40.6186 16.7283 27.6201 26.9515 21.2545C33.7394 17.0387 46.7329 15.5376 56.6286 15.5376C64.1288 15.5376 77.8792 16.3581 85.689 21.8549C97.3904 30.097 100.373 50.3821 100.675 52.6694C100.715 52.9352 100.725 53.2024 100.725 53.4555C100.725 60.2397 96.334 64.6234 89.5398 64.6234H21.2467V64.6222ZM56.6286 20.8856C45.0993 20.8856 34.5626 22.8154 29.7816 25.8023C21.327 31.0701 18.2803 42.752 16.6442 49.0286C16.3536 50.1429 16.1052 51.0996 15.8745 51.8349C15.2285 53.9288 15.44 55.9845 16.4416 57.3393C17.4125 58.6509 19.0283 59.3162 21.2467 59.3162H89.5398C93.3625 59.3162 95.3822 57.2986 95.3822 53.4823C95.2688 52.5676 92.6451 33.304 82.6104 26.231C77.7912 22.8345 68.3211 20.8856 56.6286 20.8856Z" fill="#4C2F1B"/>
<path d="M45.4548 60.04V31.2012L65.4336 31.4187V60.0387H45.4548V60.04Z" fill="#4C2F1B"/>
<path d="M47.5178 33.276L63.3846 33.435V57.9792H47.5178V33.276ZM43.4058 29.1276V62.0996H67.4979V29.3884L63.4292 29.3452L47.5624 29.1709L43.4058 29.1276Z" fill="#4C2F1B"/>
<path d="M4.60128 34.0214C12.0531 11.1526 31.9656 5.44846 55.506 5.44846C77.7543 5.44846 95.363 11.1539 104.106 34.0367C112.295 55.468 75.4033 32.8485 55.506 32.8485C35.6074 32.8485 -2.49753 55.795 4.60128 34.0214Z" fill="#FF6C4A"/>
<path d="M49.1743 6.38221C49.1743 6.38221 46.98 19.742 50.9034 32.1158C50.9034 32.1158 53.5475 31.0422 59.2727 32.0433C59.2727 32.0433 54.637 17.6099 57.9653 6.14942C57.95 6.13542 53.4175 5.77287 49.1743 6.38221Z" fill="#FFAF9F"/>
<path d="M80.1588 9.53195C76.5361 25.7463 80.1588 37.8581 80.1588 37.8581L88.2107 40.2739C88.2107 40.2739 86.5211 24.88 87.4194 13.4526C87.4194 13.4361 82.2447 10.1998 80.1588 9.53195Z" fill="#FFAF9F"/>
<path d="M81.6496 39.8172C81.0762 37.3837 78.6208 25.4283 81.5745 10.0663C83.4884 10.9911 86.53 12.9819 87.608 13.7083C86.9021 24.2465 87.9635 37.7627 88.3381 41.9951L81.6496 39.8172Z" fill="#FFAF9F"/>
<path d="M51.3176 32.9859C48.1154 21.3028 49.3501 8.88826 49.7018 6.01328C51.1991 5.81356 52.8683 5.71179 54.6726 5.71179C55.6474 5.71179 56.4821 5.7436 57.067 5.77413C54.5656 16.4968 57.2899 28.8948 58.3195 32.902C57.0593 32.715 55.8577 32.6208 54.7376 32.6208C53.1448 32.6221 52.0095 32.8155 51.3176 32.9859Z" fill="#FFAF9F"/>
<path d="M12.1079 48.1737C6.41201 48.1737 3.45704 45.7491 1.98019 43.7162C-1.47938 38.914 0.509716 32.9274 1.16213 30.9595C10.3838 3.20955 36.5619 0 55.4512 0C74.1023 0 96.8705 3.48305 107.452 30.6414C108.234 32.645 110.611 38.7321 107.261 43.6081C105.887 45.6231 103.098 48.0262 97.6198 48.0262C92.3469 48.0262 85.294 45.8216 77.8257 43.4898C70.1165 41.0881 61.3777 38.3657 55.4525 38.3657C49.5885 38.3657 40.8255 41.0613 33.0947 43.4402C25.2084 45.8763 17.7757 48.1737 12.1079 48.1737ZM55.4512 6.09089C28.0588 6.09089 13.1018 14.3495 6.95229 32.8676C5.83733 36.2375 5.83223 38.6189 6.937 40.1441C7.87357 41.4392 9.56449 42.0676 12.1066 42.0676C16.7971 42.0676 23.8347 39.905 31.2852 37.6164C39.8545 34.9844 48.713 32.2621 55.45 32.2621C62.2977 32.2621 71.5105 35.1358 79.6376 37.6699C86.6766 39.8655 93.3217 41.9378 97.6172 41.9378C99.9058 41.9378 101.412 41.3628 102.225 40.1785C103.247 38.6888 103.095 36.2947 101.764 32.8638C92.5801 9.27245 73.1989 6.09089 55.4512 6.09089Z" fill="#4C2F1B"/>
<path d="M12.1079 47.7946C6.57128 47.7946 3.71188 45.4552 2.28728 43.4936C-1.05761 38.8504 0.883063 33.0012 1.52146 31.079C10.6667 3.56064 36.6804 0.377808 55.4512 0.377808C73.9825 0.377808 96.6004 3.83414 107.099 30.7788C107.862 32.7341 110.186 38.6799 106.948 43.3944C105.625 45.3369 102.933 47.6496 97.6198 47.6496C92.4055 47.6496 85.3781 45.4539 77.9391 43.1298C70.2019 40.7191 61.4325 37.9892 55.4525 37.9892C49.5273 37.9892 40.7299 40.6975 32.9685 43.0853C25.1243 45.5074 17.7171 47.7946 12.1079 47.7946ZM55.4512 5.71306C27.8702 5.71306 12.8011 14.0518 6.59294 32.7481C5.43721 36.2425 5.44995 38.7334 6.63117 40.3655C7.6442 41.7661 9.43578 42.4454 12.1079 42.4454C16.8544 42.4454 23.9188 40.2752 31.3986 37.9777C39.9399 35.3533 48.7729 32.6399 55.4525 32.6399C62.2404 32.6399 71.4239 35.5035 79.5268 38.0299C86.5925 40.2332 93.2657 42.3144 97.6198 42.3144C100.043 42.3144 101.651 41.6847 102.54 40.3909C103.637 38.7906 103.499 36.2833 102.119 32.7264C92.8503 8.9226 73.3276 5.71306 55.4512 5.71306Z" fill="#4C2F1B"/>
<path d="M21.1168 13.8457C21.1168 13.8457 17.3144 28.4305 27.5045 38.8593L34.0121 36.9537C34.0121 36.9537 25.9869 26.6457 27.5937 10.14L21.1168 13.8457Z" fill="#FFAF9F"/>
<path d="M28.0002 39.2651C19.1582 29.0475 21.4149 15.2234 21.8826 12.8636L26.9197 9.73676C26.0315 24.4831 31.2406 34.4934 33.152 37.6292L28.0002 39.2651Z" fill="#FFAF9F"/>
</g>
<defs>
<clipPath id="clip0_3_642">
<rect width="109" height="65" fill="white"/>
</clipPath>
</defs>
</svg>
