<svg width="97" height="90" viewBox="0 0 97 90" fill="none" xmlns="http://www.w3.org/2000/svg">
<g clip-path="url(#clip0_3_308)">
<path d="M50.2322 86.8044C49.2456 86.8044 48.3211 86.4344 47.7044 85.6955L47.6433 85.6333L47.5811 85.5711C38.3967 73.86 26.1311 61.3478 22.3711 61.1011C20.7067 62.0256 18.7344 62.4578 16.7 62.4578C10.9067 62.4578 5.29667 58.76 3.38667 53.5822C2.09222 50.2544 1.29111 43.4122 10.1667 35.5844C20.09 26.8933 29.2122 19.99 48.6278 17.0933C50.3533 16.8467 51.9567 16.7233 53.4356 16.7233C66.6878 16.7233 67.6733 26.9544 68.2289 32.4411C68.3522 33.7978 68.4756 35.03 68.7222 35.8933C69.1533 37.3722 72.6667 42.18 91.6511 58.0822C93.0067 59.1922 93.7467 60.98 93.5622 62.7056C93.3767 64.4933 92.3289 66.0333 90.7878 66.8967L90.2944 67.1433C56.4567 85.3244 52.1422 86.8044 50.2322 86.8044Z" fill="#E7A664"/>
<path d="M50.2922 89.4133C48.5811 89.4133 46.9533 88.7022 45.8267 87.4611L45.6211 87.2544L45.5744 87.1633C37.1333 76.4566 26.9211 66.0667 22.7789 63.9633L22.5211 63.8333L22.2544 63.9433C20.5767 64.6378 18.6344 65.0055 16.6389 65.0055C9.68667 65.0055 3.21111 60.6867 0.893335 54.5033C-0.304443 51.27 -1.97 42.7644 8.42334 33.6844C18.6633 24.6711 28.0922 17.5389 48.1667 14.54C49.8644 14.2578 51.6133 14.1155 53.3744 14.1155C60.03 14.1155 64.9111 16.5255 67.8822 21.2789C70.0922 24.9233 70.5078 29.1444 70.81 32.2255C70.8722 33.2411 71 34.3655 71.1267 35L71.1456 35.0955L71.1933 35.1811C72.3344 37.2355 77.1045 42.5389 93.3433 56.1289C95.3789 57.8167 96.4245 60.3755 96.1422 62.9778C95.9156 65.5867 94.3789 67.8889 92.0311 69.1489L91.5556 69.3855C54.3256 89.4133 52.4567 89.4133 50.2922 89.4133ZM49.4522 83.8455C49.5522 84.02 49.7544 84.1955 50.17 84.1955C52.1422 84.1955 65.37 77.5755 89.4856 64.5189C90.3056 64.0711 90.8511 63.2544 90.9433 62.3322C91.0356 61.4133 90.6678 60.5089 89.96 59.9133L89.3644 59.41C83.37 54.35 67.4456 40.91 66.1833 36.4311C65.9022 35.4055 65.7711 34.0533 65.6322 32.6211C65.0833 26.9611 64.3311 19.2089 53.3756 19.2089C52.0533 19.2089 50.6111 19.3322 48.9656 19.5855C30.2422 22.4278 21.4278 29.0822 11.85 37.4855C4.09889 44.25 4.67556 49.8844 5.71 52.6411C7.27667 56.8178 11.8733 59.85 16.64 59.85C18.3967 59.85 19.9533 59.47 21.2656 58.7189C21.5089 58.5733 21.84 58.4933 22.1867 58.4933C28.1411 58.4933 43.8478 76.7444 49.4522 83.8455Z" fill="#4C2F1B"/>
<path d="M49.6156 75.0322V84.5855C49.6156 86.1266 51.28 87.1744 52.6978 86.4344L93.0089 65.2933C93.6867 64.9233 94.18 64.1833 94.18 63.4444V52.72L50.8478 73.1211C50.1089 73.4289 49.6156 74.1689 49.6156 75.0322Z" fill="#E7A664"/>
<path d="M89.3711 63.3823C89.3711 62.0878 89.0633 61.9645 88.6311 61.9645C88.2 61.9645 87.83 63.0123 87.83 64.3067C87.83 65.6011 88.1378 66.2178 88.57 66.2178C89.0633 66.2178 89.3711 64.6767 89.3711 63.3823ZM66.9356 68.8067C66.9356 67.5123 66.6278 67.3889 66.1956 67.3889C65.7645 67.3889 65.3945 68.4367 65.3945 69.7311C65.3945 71.0256 65.7022 71.6411 66.1345 71.6411C66.5656 71.6422 66.9356 70.1011 66.9356 68.8067ZM65.6411 73.3678C65.6411 72.0734 65.3333 71.95 64.9011 71.95C64.4689 71.95 64.1 72.9978 64.1 74.2922C64.1 75.5867 64.4078 76.2034 64.84 76.2034C65.2722 76.2034 65.6411 74.6622 65.6411 73.3678ZM72.8522 73.06C72.8522 71.7656 72.5445 71.6422 72.1122 71.6422C71.6811 71.6422 71.3111 72.69 71.3111 73.9845C71.3111 75.2789 71.6189 75.8945 72.0511 75.8945C72.5445 75.8334 72.8522 74.3545 72.8522 73.06ZM79.4478 68.56C79.4478 67.5123 79.2011 67.3889 78.8933 67.3889C78.5856 67.3889 78.2778 68.2523 78.2778 69.3C78.2778 70.3478 78.5245 70.8411 78.8933 70.8411C79.2633 70.84 79.4478 69.6078 79.4478 68.56Z" fill="#DB914D"/>
<path d="M51.7422 90C50.8389 90 50.0422 89.77 49.3078 89.2989C47.8811 88.4211 47.0678 86.9756 47.0678 85.3278V75.7733C47.0678 73.9333 48.1311 72.31 49.8433 71.5367L96.7256 49.3967V64.1856C96.7256 65.98 95.77 67.5456 94.1678 68.3744L53.9167 89.5167C53.0856 89.8322 52.3522 90 51.7422 90ZM52.2244 76.0522V84.5756L91.6333 63.9489V57.5267L52.2244 76.0522Z" fill="#4C2F1B"/>
<path d="M73.2233 66.2789C73.2233 65.6633 73.1 65.5389 72.8533 65.5389C72.6689 65.5389 72.4833 66.0322 72.4833 66.71C72.4833 67.3878 72.6689 67.6344 72.8533 67.6344C73.0378 67.6355 73.2233 66.9578 73.2233 66.2789Z" fill="#DB914D"/>
<path d="M50.7867 72.69C49.8011 72.69 48.8767 72.32 48.26 71.58L48.1978 71.5178L48.1356 71.4567C38.9522 59.7456 26.6867 47.2322 22.9267 46.9867C21.2622 47.9111 19.29 48.3433 17.2556 48.3433C11.4611 48.3433 5.85222 44.6445 3.94222 39.4678C2.64778 36.0778 1.84556 29.2367 10.7833 21.47C20.7078 12.7778 29.83 5.87446 49.2456 2.97779C50.9711 2.73112 52.5733 2.60779 54.0533 2.60779C67.3056 2.60779 68.2911 12.8389 68.8467 18.3245C68.97 19.6811 69.0933 20.9133 69.34 21.7767C69.7711 23.2567 73.2845 28.0645 92.2689 43.9667C93.6245 45.1378 94.3645 46.8633 94.1789 48.5889C93.9945 50.3767 92.9467 51.9178 91.4056 52.78L90.9122 53.0267C56.95 71.21 52.6356 72.69 50.7867 72.69Z" fill="#F9D59A"/>
<path d="M50.9044 75.2978C49.1944 75.2978 47.5656 74.5867 46.4367 73.3456L46.2322 73.14L46.1878 73.0511C37.7456 62.3411 27.5311 51.9511 23.39 49.8478L23.1322 49.7178L22.8656 49.8278C21.1867 50.5222 19.2456 50.89 17.25 50.89C10.2978 50.89 3.82334 46.5711 1.50445 40.3867C0.260003 37.1856 -1.49222 28.7644 9.03445 19.5678C19.2744 10.5556 28.7011 3.42444 48.7789 0.424444C50.4756 0.142222 52.2244 0 53.9878 0C60.6422 0 65.5233 2.41 68.4956 7.16333C70.7089 10.8111 71.1211 15.03 71.4233 18.11C71.4867 19.1356 71.6156 20.2589 71.7411 20.8844L71.76 20.98L71.8078 21.0656C72.9478 23.1189 77.7167 28.42 93.9578 42.0133C95.9945 43.7 97.04 46.2589 96.7567 48.8611C96.5289 51.4711 94.9933 53.7733 92.6456 55.0333L92.1678 55.2722C54.9389 75.2978 53.0689 75.2978 50.9044 75.2978ZM50.0644 69.7922C50.1644 69.9667 50.3667 70.1422 50.7811 70.1422C52.7556 70.1422 65.9833 63.5222 90.0967 50.4656C90.9178 50.0178 91.4622 49.2 91.5556 48.2778C91.6478 47.3589 91.28 46.4544 90.5722 45.8589L89.9811 45.36C83.9856 40.2989 68.0589 26.8556 66.7956 22.3767C66.5145 21.3511 66.3833 19.9989 66.2444 18.5667C65.6956 12.9078 64.9433 5.15556 53.9878 5.15556C52.6733 5.15556 51.2533 5.27556 49.5189 5.53222C30.7689 8.31778 22.3322 14.7089 12.46 23.4344C4.71 30.1967 5.28667 35.8311 6.32111 38.5889C7.88778 42.7656 12.4844 45.7978 17.2511 45.7978C19.0089 45.7978 20.5656 45.4178 21.8767 44.6678C22.1211 44.5211 22.4522 44.4411 22.7978 44.4411C28.7544 44.44 44.46 62.6911 50.0644 69.7922Z" fill="#4C2F1B"/>
<path d="M50.2322 64.1222C49.6778 64.1222 49.1222 63.8755 48.7522 63.4444C48.0744 62.6433 48.1978 61.41 48.9989 60.7322L75.5644 38.6667C76.3656 37.9889 77.5989 38.1122 78.2767 38.9133C78.9544 39.7144 78.8311 40.9478 78.03 41.6255L51.4644 63.69C51.0956 63.9989 50.6633 64.1222 50.2322 64.1222ZM34.3911 48.4667C33.8367 48.4667 33.2822 48.22 32.9122 47.7889C32.2333 46.9878 32.3578 45.7544 33.1589 45.0767L61.6356 21.4078C62.4367 20.73 63.67 20.8533 64.3478 21.6544C65.0256 22.4555 64.9022 23.6878 64.1011 24.3655L35.6233 48.0344C35.2544 48.2811 34.8222 48.4667 34.3911 48.4667ZM18.7967 37.1867C18.2422 37.1867 17.6878 36.94 17.3178 36.5089C16.6389 35.7078 16.7633 34.4744 17.5644 33.7967L46.04 10.1278C46.8411 9.44999 48.0744 9.57332 48.7522 10.3744C49.43 11.1755 49.3067 12.4078 48.5056 13.0855L20.03 36.7555C19.66 37.0633 19.2278 37.1867 18.7967 37.1867Z" fill="#E7A664"/>
<path d="M47.0889 19.99C66.1344 14.5666 60.2789 28.8044 65.95 30.9611C70.3267 32.6255 78.9556 38.1111 72.2989 42.61C66.8744 46.3089 57.9989 59.1911 48.0756 50.3144C42.4667 45.3833 37.2889 48.65 34.7611 44.2744C32.2344 39.8978 32.4811 38.4811 28.2278 38.2955C23.9744 38.1111 18.6744 32.1933 23.2356 23.5644C29.3367 12.1 41.6644 21.5311 47.0889 19.99Z" fill="#F4E87C"/>
<path d="M55.1622 55.3078C52.5122 55.3078 49.6767 54.3211 46.8411 51.7944C44.4378 49.6989 42.1567 49.3289 39.9378 49.02C37.5344 48.65 34.8222 48.28 33.0967 45.3222C32.5422 44.3978 32.1722 43.6578 31.8022 42.98C30.5078 40.5144 30.4456 40.3911 28.1044 40.2689C25.33 40.1455 22.4956 38.2955 20.9544 35.5233C19.7222 33.4267 18.1811 28.9278 21.5089 22.7644C26.3778 13.6422 34.9456 15.8611 40.6167 17.3411C42.9589 17.9567 45.3011 18.5733 46.5956 18.2044C60.0322 14.3822 62.8678 19.6833 64.6544 25.4778C65.2711 27.5733 65.7644 28.8055 66.6889 29.1755C67.0589 29.2989 75.9956 32.7511 76.6745 38.36C76.8589 39.9011 76.4278 42.1811 73.4689 44.2155C72.4211 44.8944 71.1878 46.0644 69.8322 47.2978C66.1967 50.5 61.0189 55.3078 55.1622 55.3078ZM32.3567 19.7433C29.2133 19.7433 26.81 20.9144 24.8989 24.5511C23.1111 27.9411 22.8644 31.1467 24.2833 33.6122C25.3311 35.4611 27.0567 36.3855 28.2889 36.4466C32.6033 36.6322 33.6511 38.1722 35.1922 41.1922C35.5011 41.8089 35.9322 42.5489 36.4256 43.4111C37.1656 44.7055 38.2122 44.9522 40.4933 45.26C43.02 45.63 46.1022 46.0611 49.3689 48.9589C55.4711 54.3822 60.8333 50.3144 67.1811 44.4589C68.5989 43.1644 69.9556 41.9322 71.1878 41.0689C72.2978 40.2678 72.8522 39.5278 72.7911 38.7878C72.5444 36.8155 68.7222 34.0422 65.2711 32.7478C62.4967 31.7 61.6956 28.9878 60.9567 26.5844C59.6622 22.3933 58.5522 18.6944 47.5811 21.8389C45.3 22.4555 42.65 21.7767 39.63 20.9755C36.8567 20.2978 34.4533 19.7433 32.3567 19.7433Z" fill="#4C2F1B"/>
<path d="M57.5056 28.9889C57.0122 28.9889 56.5811 28.7422 56.3344 28.31C55.2867 26.2755 54.3622 25.4744 53.0056 25.5978C52.4511 25.66 51.7733 25.8444 50.9722 26.1522C48.8144 26.8922 45.7944 27.8167 41.5422 26.3989C36.4267 24.6733 31.4956 24.7344 31.4333 24.7344C30.7556 24.7344 30.1389 24.18 30.1389 23.5022C30.1389 22.8244 30.6933 22.2078 31.3711 22.2078C31.5567 22.2078 36.7333 22.1455 42.3422 23.9955C45.7933 25.1667 48.1356 24.3655 50.17 23.7489C51.0944 23.44 51.8956 23.1944 52.7589 23.1322C56.3956 22.8244 57.9978 26.0289 58.6144 27.2622C58.9233 27.8778 58.6767 28.68 58.06 28.9878C57.8756 28.9278 57.69 28.9889 57.5056 28.9889Z" fill="white"/>
<path d="M41.9733 34.4744C41.9733 35.1889 43.6833 35.7689 45.7945 35.7689C47.9044 35.7689 49.6156 35.1889 49.6156 34.4744C49.6156 33.76 47.9044 33.18 45.7945 33.18C43.6833 33.18 41.9733 33.76 41.9733 34.4744Z" fill="white"/>
<path d="M28.5356 58.39C28.5356 59.0711 28.7556 59.6222 29.0289 59.6222C29.3011 59.6222 29.5211 59.07 29.5211 58.39C29.5211 57.7089 29.3011 57.1578 29.0289 57.1578C28.7567 57.1578 28.5356 57.7089 28.5356 58.39Z" fill="#DB914D"/>
<path d="M39.7533 70.1633C39.7533 70.7422 39.9189 71.2111 40.1233 71.2111C40.3278 71.2111 40.4933 70.7422 40.4933 70.1633C40.4933 69.5844 40.3278 69.1155 40.1233 69.1155C39.92 69.1144 39.7533 69.5833 39.7533 70.1633Z" fill="#DB914D"/>
<path d="M17.2567 54.8767C17.2567 55.6933 17.5322 56.3556 17.8722 56.3556C18.2133 56.3556 18.4889 55.6933 18.4889 54.8767C18.4889 54.06 18.2133 53.3967 17.8722 53.3967C17.5322 53.3967 17.2567 54.06 17.2567 54.8767Z" fill="#DB914D"/>
<path d="M34.1444 64.0611C34.1444 64.8778 34.42 65.54 34.76 65.54C35.1011 65.54 35.3767 64.8778 35.3767 64.0611C35.3767 63.2444 35.1011 62.5811 34.76 62.5811C34.42 62.5811 34.1444 63.2433 34.1444 64.0611Z" fill="#DB914D"/>
<path d="M8.50333 53.0889C8.50333 54.6211 8.80667 55.8633 9.18111 55.8633C9.55556 55.8633 9.85889 54.6211 9.85889 53.0889C9.85889 51.5567 9.55556 50.3156 9.18111 50.3156C8.80667 50.3156 8.50333 51.5567 8.50333 53.0889Z" fill="#DB914D"/>
<path d="M84.5022 62.6433C84.5022 61.5956 84.2556 61.4722 83.9478 61.4722C83.6389 61.4722 83.3311 62.3356 83.3311 63.3822C83.3311 64.43 83.5778 64.9233 83.9478 64.9233C84.2556 64.9233 84.5022 63.69 84.5022 62.6433ZM58.43 76.5733C58.43 75.6489 58.2444 75.5256 57.8756 75.5256C57.5678 75.5256 57.3211 76.3267 57.3211 77.2511C57.3211 78.1756 57.5678 78.6689 57.8756 78.6689C58.1833 78.6067 58.43 77.4978 58.43 76.5733Z" fill="#DB914D"/>
<path d="M61.9433 47.1722C61.6967 47.1722 61.45 47.11 61.2033 46.9255C60.6489 46.5555 60.4633 45.7544 60.8956 45.1378C62.1278 43.35 65.1489 41.2544 67.3678 39.7144C67.9222 39.3444 68.4156 38.9744 68.7856 38.7278C68.1067 38.1122 66.4433 37.1866 64.4711 36.8178C60.65 36.0778 58.7389 31.3322 58.6156 31.1466C58.3689 30.4678 58.6778 29.7289 59.2933 29.4822C59.9711 29.2355 60.7111 29.5433 60.9578 30.16C61.3889 31.1466 62.8678 33.8578 64.9022 34.2889C67.3056 34.7822 70.8811 36.3233 71.4356 38.2955C71.62 39.0355 71.4356 39.7755 70.8811 40.2689C70.45 40.6389 69.7722 41.1322 68.7233 41.81C66.8122 43.1044 63.9156 45.1378 62.9289 46.5555C62.7445 46.9866 62.3744 47.1722 61.9433 47.1722Z" fill="white"/>
<path d="M36.5755 12.92C36.7555 13.3978 38.2444 13.28 39.9011 12.6555C41.5578 12.0322 42.7544 11.1389 42.5756 10.6611C42.3956 10.1833 40.9067 10.3011 39.25 10.9255C37.5933 11.5489 36.3955 12.4411 36.5755 12.92Z" fill="#F8CD8C"/>
<path d="M48.7189 66.7289C48.9133 67.2433 49.6633 67.5044 50.6889 67.4133C51.7145 67.3211 52.8578 66.8911 53.6889 66.2844C54.52 65.6766 54.9122 64.9855 54.7178 64.47C54.5233 63.9555 53.7733 63.6944 52.7478 63.7855C51.7222 63.8766 50.5789 64.3078 49.7478 64.9144C48.9167 65.5222 48.5256 66.2133 48.7189 66.7289Z" fill="#F8CD8C"/>
<path d="M14.3333 40.7033C14.65 41.4189 16.22 41.4189 17.8378 40.7022C19.4567 39.9866 20.5122 38.8255 20.1956 38.1089C19.8789 37.3933 18.31 37.3933 16.6911 38.1089C15.0722 38.8266 14.0167 39.9878 14.3333 40.7033Z" fill="#F8CD8C"/>
<path d="M77.5611 49.5289C77.8778 50.2444 79.4467 50.2444 81.0656 49.5278C82.6844 48.8122 83.74 47.6511 83.4233 46.9344C83.1067 46.2178 81.5367 46.2189 79.9178 46.9344C78.3 47.6522 77.2444 48.8133 77.5611 49.5289Z" fill="#F8CD8C"/>
<path d="M56.9133 62.7611C57.23 63.4766 58.7989 63.4766 60.4178 62.7611C62.0367 62.0455 63.0922 60.8833 62.7745 60.1678C62.4578 59.4522 60.8889 59.4522 59.27 60.1689C57.6511 60.8844 56.5967 62.0455 56.9133 62.7611Z" fill="#F8CD8C"/>
<path d="M10.5733 28.4433C10.7522 28.8478 11.6544 28.8411 12.5878 28.4278C13.5222 28.0144 14.1333 27.3511 13.9556 26.9467C13.7767 26.5422 12.8744 26.5489 11.94 26.9622C11.0067 27.3755 10.3944 28.0378 10.5733 28.4433Z" fill="#F8CD8C"/>
</g>
<defs>
<clipPath id="clip0_3_308">
<rect width="96.8011" height="90" fill="white"/>
</clipPath>
</defs>
</svg>
