<svg width="99" height="99" viewBox="0 0 99 99" fill="none" xmlns="http://www.w3.org/2000/svg">
<g clip-path="url(#clip0_2_48)">
<path d="M80.395 78.727C78.848 79.653 78.179 78.56 72.561 80.733C66.943 82.907 59.993 84.381 57.155 83.69C54.318 82.999 49.845 83.586 46.373 79.383C42.901 75.179 35.39 69.806 31.697 65.735C28.003 61.665 24.649 53.201 22.852 46.794C21.055 40.389 18.66 28.056 22.365 23.739C26.069 19.42 29.553 15.235 31.089 11.317C32.624 7.39899 33.235 4.93999 35.712 4.05199C38.19 3.16399 47.368 4.84199 49.269 3.99999C51.171 3.15899 63.169 1.04899 68.41 4.19199C73.65 7.33399 80.645 17.804 83.223 19.551C85.8 21.298 92.022 26.545 93.238 31.503C94.453 36.462 94.888 46.079 95.697 48.887C96.505 51.696 95.075 59.738 94.021 62.466C92.968 65.195 88.158 70.174 84.896 74.227C81.633 78.281 81.938 77.799 80.395 78.727Z" fill="#FAAD91"/>
<path d="M95.696 48.891C96.505 51.699 95.073 59.742 94.02 62.47C92.967 65.198 88.156 70.178 84.894 74.231C81.633 78.285 81.94 77.8 80.393 78.729C78.846 79.657 78.177 78.561 72.559 80.735C67.327 82.758 60.944 84.175 57.799 83.802C58.506 82.844 59.262 81.923 60.067 81.045C60.067 81.045 84.232 74.629 87.741 53.666C88.538 48.9 88.7 38.422 72.457 19.729C64.386 10.44 56.247 5.92597 50.1 3.73297C53.425 2.80697 63.67 1.35297 68.41 4.19597C73.65 7.33697 80.645 17.808 83.223 19.555C85.8 21.302 92.022 26.549 93.238 31.507C94.453 36.466 94.887 46.082 95.696 48.891Z" fill="#E16E48"/>
<path d="M16.507 86.365C14.2 86.251 12.257 88.109 9.674 84.3C7.091 80.491 4.114 75.281 3.445 70.187C2.777 65.093 1.571 61.469 4.14 56.419C6.708 51.368 6.573 44.806 8.966 43.2C11.36 41.594 17.438 40.285 20.364 37.211C23.29 34.137 32.723 30.576 37.924 32.908C43.126 35.24 44.585 38.415 44.585 38.415C47.609 38.191 50.541 39.505 52.388 41.909C55.422 45.97 58.507 53.6 57.856 57.364C57.203 61.128 58.588 68.097 56.489 70.754C54.39 73.411 50.094 78.373 49.05 80.737C48.006 83.101 40.826 87.919 36.803 89.79C32.78 91.661 26.885 91.597 22.201 90.444C17.518 89.292 18.815 86.48 16.507 86.365Z" fill="#FFD9C3"/>
<path d="M57.856 57.364C57.205 61.128 58.588 68.097 56.49 70.754C54.39 73.411 50.094 78.373 49.05 80.737C48.006 83.101 40.827 87.919 36.803 89.79C32.781 91.661 26.885 91.597 22.202 90.444C19.009 89.658 18.595 88.102 17.925 87.155C23.35 86.122 31.171 83.028 39.309 74.386C54.211 58.563 53.185 46.779 53.185 46.779L57.748 54.214C57.956 55.251 57.992 56.315 57.856 57.364Z" fill="#FCA573"/>
<path d="M27.332 42.281C25.996 40.385 22.002 44.816 19.448 47.58C17.741 49.595 16.417 51.906 15.54 54.397C15.54 54.397 18.626 51.974 22.28 49.4C25.936 46.827 26.513 46.985 27.517 45.482C28.253 44.379 28.667 44.176 27.332 42.281Z" fill="white"/>
<path d="M96.057 63.938C92.092 70.628 89.093 71.709 87.754 74.309C86.415 76.909 85.879 79.026 83.335 80.553C82.888 80.823 82.426 81.067 81.953 81.285C81.538 81.602 81.104 81.894 80.656 82.16C78.11 83.687 75.968 83.177 73.022 83.148C70.076 83.12 67.717 85.253 59.896 85.634C56.521 85.776 53.165 85.062 50.139 83.56C49.457 84.848 48.506 85.974 47.352 86.864C43.558 89.896 41.837 88.489 40.258 89.963C38.681 91.437 33.712 93.667 32.11 93.354C30.506 93.04 28.503 92.659 26.92 93.096C24.115 93.551 21.238 93.168 18.65 91.994C17.121 91.269 15.94 89.97 15.362 88.38C13.7 88.712 11.973 88.38 10.552 87.454C8.208 85.863 6.389 83.61 5.328 80.983C4.886 79.408 3.516 77.902 2.421 76.697C1.326 75.492 0.674003 70.107 1.128 68.002C1.58 65.895 -0.521997 65.159 0.125003 60.363C0.771003 55.567 3.613 54.21 4.692 52.309C5.77 50.406 4.383 48.152 6.473 44.461C8.563 40.769 13.379 39.34 15.088 38.674C15.999 38.321 16.787 37.389 17.846 36.319C17.797 35.743 17.767 35.165 17.754 34.586C17.595 22.565 23.232 19.269 24.864 17.748C26.496 16.229 28.428 14.894 28.886 10.845C29.344 6.796 31.033 4.169 33.845 2.479C36.659 0.791 39.787 0.53 43.617 2.005C47.448 3.48 49.534 2.409 51.648 1.678C53.762 0.947 59.32 -2.468 69.985 3.251C76.783 6.896 79.167 11.395 83.231 15.959C87.295 20.523 92.142 23.366 94.067 29.215C95.992 35.064 95.99 40.455 97.406 45.172C98.823 49.889 100.025 57.249 96.057 63.938ZM23.851 89.101C25.554 88.999 27.263 89.159 28.918 89.576C30.494 89.936 35.989 86.779 37.457 85.499C38.923 84.219 40.666 85.59 44.219 82.983C47.773 80.376 47.331 77.497 48.292 75.802C49.254 74.105 51.84 74.245 53.71 70.953C55.578 67.662 54.123 63.165 53.733 61.501C53.343 59.836 55.544 58.047 55.103 54.38C54.663 50.714 52.688 47.46 52.08 45.586C48.809 35.446 43.444 43.562 43.649 43.2L41.637 46.75C42.519 46.246 43.577 46.151 44.534 46.489C46.419 47.048 47.249 48.388 46.004 49.936C44.759 51.483 44.326 50.74 42.279 50.465C40.233 50.19 38.453 52.685 38.453 52.685L38.237 52.748L34.412 59.501C35.294 58.998 36.351 58.902 37.308 59.241C39.193 59.8 40.023 61.139 38.779 62.687C37.535 64.234 37.1 63.491 35.054 63.217C33.007 62.941 31.227 65.437 31.227 65.437L31.011 65.499L26.796 72.926C27.679 72.423 28.736 72.327 29.693 72.665C31.578 73.224 32.408 74.563 31.164 76.111C29.92 77.659 29.485 76.916 27.439 76.642C25.393 76.366 23.611 78.861 23.611 78.861L23.394 78.925L20.601 83.857C21.315 82.594 16.63 89.883 23.851 89.101ZM10.525 46.721C8.659 50.013 10.118 52.146 9.156 53.842C8.194 55.537 5.489 56.648 5.084 61.023C4.678 65.397 6.76 66.171 6.418 68.082C6.075 69.994 6.203 76.305 7.326 77.461C8.507 78.68 9.526 80.047 10.356 81.528C13.365 87.127 16.982 82.23 17.41 81.638L17.17 82.061C16.915 82.766 17.242 83.55 17.923 83.863C18.605 84.178 19.414 83.917 19.784 83.265C20.155 82.612 19.963 81.784 19.344 81.36C18.725 80.937 17.884 81.057 17.41 81.638L20.022 77.03L19.964 76.813C19.964 76.813 21.189 74.007 19.895 72.408C18.601 70.809 17.735 70.822 18.424 68.962C19.114 67.102 20.694 67.116 22.149 68.432C22.934 69.07 23.399 70.02 23.423 71.032L27.634 63.606L27.576 63.39C27.576 63.39 28.8 60.582 27.506 58.983C26.212 57.384 25.346 57.397 26.036 55.537C26.726 53.677 28.305 53.691 29.761 55.008C30.545 55.645 31.011 56.596 31.035 57.607L34.866 50.854L34.808 50.638C34.808 50.638 36.032 47.831 34.738 46.231C33.445 44.633 32.578 44.646 33.268 42.786C33.958 40.926 35.538 40.94 36.993 42.256C37.778 42.895 38.243 43.845 38.266 44.856L40.224 41.404C40.585 40.768 43.026 33.475 33.191 34.986C31.232 35.287 27.447 35.443 24.064 36.964C20.682 38.485 20.284 41.285 18.646 41.812C17.009 42.34 12.391 43.43 10.525 46.721ZM30.531 18.064C30.497 18.097 30.462 18.132 30.427 18.163C28.833 19.596 23.59 22.715 22.858 32.903C24.034 32.439 25.247 32.076 26.484 31.817C26.444 31.435 26.407 31.051 26.375 30.667C25.985 25.969 30.432 25.877 30.879 30.142C30.904 30.373 30.934 30.628 30.964 30.879C31.003 30.867 31.051 30.858 31.088 30.846C32.001 30.547 32.937 30.329 33.888 30.196C32.54 26.22 31.419 22.169 30.531 18.064ZM34.998 8.006C34.653 8.913 34.405 9.854 34.257 10.812C34.132 11.624 33.942 12.424 33.688 13.204C34.962 18.975 36.627 24.653 38.667 30.199C38.733 30.387 38.772 30.582 38.784 30.779C38.878 30.822 38.974 30.849 39.067 30.896C43.653 33.257 45.053 36.024 45.053 36.024C45.053 36.024 48.284 35.591 52.561 38.468C54.831 39.994 56.255 43.195 56.728 45.232C57.2 47.269 59.113 50.699 59.375 54.681C59.637 58.663 57.954 61.109 58.268 62.908C58.293 63.05 58.325 63.217 58.359 63.395C61.959 67.198 65.923 70.64 70.196 73.67C72.327 75.154 70.855 79.545 67.242 77.432C64.131 75.517 61.261 73.235 58.694 70.637C58.519 71.547 58.202 72.423 57.753 73.232C55.659 76.924 53.001 76.907 51.921 78.81C51.873 78.897 51.829 78.989 51.784 79.082C55.071 80.763 58.76 81.493 62.439 81.19C70.172 80.538 72.582 78.429 75.488 78.347C76.622 78.314 77.627 78.347 78.589 78.315C76.152 73.206 68.782 58.223 58.585 41.52C51.433 29.863 43.555 18.669 34.998 8.003V8.006ZM92.953 46.274C91.733 41.855 91.939 36.748 90.26 31.275C88.582 25.804 83.908 23.291 80.067 19.116C76.227 14.941 74.049 10.767 67.474 7.565C57.166 2.54 51.551 5.984 49.436 6.755C46.746 7.77 43.775 7.752 41.095 6.707C40.524 6.517 39.941 6.361 39.35 6.241C43.329 11.476 52.009 23.33 61.9 39.531C69.075 51.215 75.646 63.258 81.588 75.613C81.82 75.172 82.057 74.72 82.327 74.243C82.903 73.32 83.614 72.488 84.434 71.774C83.224 66.63 81.707 61.562 79.888 56.6C79.014 54.214 82.765 51.189 84.054 54.825C85.612 59.204 86.894 63.676 87.893 68.215C88.991 66.915 90.001 65.543 90.914 64.107C95.08 57.62 94.172 50.688 92.953 46.27V46.274ZM87.664 56.642C87.036 50.149 85.334 43.806 82.628 37.871C79.603 31.69 75.674 25.995 70.97 20.975C68.367 18.314 70.816 14.527 73.563 17.366C77.96 22.071 81.797 27.27 85.001 32.855C90.468 42.095 91.827 51.965 92.165 56.11C92.545 60.794 88.103 60.893 87.664 56.642ZM77.066 39.083C78.508 41.725 75.084 45.023 72.795 40.849C71.102 37.748 69.23 34.75 67.187 31.869C62.017 24.691 55.693 18.42 48.473 13.31C46.347 11.834 47.825 7.453 51.43 9.554C54.946 11.602 62.502 17.152 71.968 30.797C73.814 33.466 75.516 36.231 77.066 39.083Z" fill="#440911"/>
</g>
<defs>
<clipPath id="clip0_2_48">
<rect width="98.751" height="98.768" fill="white"/>
</clipPath>
</defs>
</svg>
