<svg width="105" height="80" viewBox="0 0 105 80" fill="none" xmlns="http://www.w3.org/2000/svg">
<g clip-path="url(#clip0_2_160)">
<path d="M16.8093 17.8018C16.8093 17.8018 59.0519 43.7309 54.0212 64.9618C54.0212 64.9618 15.5367 52.1353 16.8093 17.8018Z" fill="#359A60"/>
<path d="M55.7347 68.1138L53.1918 67.2846C52.8047 67.1735 13.0488 53.4628 14.3203 17.7469L14.4864 13.6008L18.0246 15.7563C19.7943 16.8627 61.7609 42.8479 56.2868 65.515L55.7347 68.1138ZM19.2972 22.335C21.0669 46.2197 43.9023 58.1059 51.9754 61.5339C52.1965 47.5471 31.3506 30.4634 19.2972 22.335Z" fill="#4C2F1B"/>
<path d="M3.04114 25.487C3.04114 25.487 13.436 73.3651 57.8355 73.3651C57.8916 73.3663 44.6767 26.0402 3.04114 25.487Z" fill="#33AC64"/>
<path d="M57.8355 75.799C11.9985 75.799 0.774316 26.5384 0.663209 26.0402L0 23.0543L3.04114 23.1093C46.0031 23.6625 60.0473 72.2599 60.1584 72.7581L61.0427 75.8539L57.8355 75.799C57.8916 75.799 57.8355 75.799 57.8355 75.799ZM6.24836 28.0857C9.23452 38.1475 21.1219 68.8881 54.4633 70.8225C50.7578 60.8158 37.1007 30.4634 6.24836 28.0857Z" fill="#4C2F1B"/>
<path d="M87.8047 20.8988C87.8047 20.8988 46.9435 48.9296 53.0807 69.8833C53.0807 69.8822 90.8447 55.1212 87.8047 20.8988Z" fill="#359A60"/>
<path d="M51.5321 73.1452L50.7578 70.6014C44.1784 48.2103 84.7074 20.1246 86.421 18.9082L89.8493 16.5305L90.2365 20.6778C93.3876 56.2826 54.4072 71.9839 53.965 72.1499L51.5321 73.1452ZM85.5367 25.542C73.9804 34.2774 54.02 52.4113 54.9593 66.3992C62.8124 62.4742 85.0396 49.4266 85.5367 25.542Z" fill="#4C2F1B"/>
<path d="M102.236 26.5384C102.236 26.5384 53.3018 49.2605 56.1219 72.8131C56.1769 72.8131 99.3049 63.7455 102.236 26.5384Z" fill="#33AC64"/>
<path d="M54.0761 75.7428L53.7439 73.0891C50.7578 48.0442 99.1949 25.266 101.24 24.3256L105 22.5573L104.668 26.7033C101.627 65.294 57.1173 75.0797 56.619 75.1896L54.0761 75.7428ZM99.2499 30.7395C88.4679 36.3229 59.7163 52.8546 58.4998 69.6611C67.456 67.0074 94.4952 56.9457 99.2499 30.7395Z" fill="#4C2F1B"/>
<path d="M51.7543 6.08169C54.3533 6.08169 56.8962 7.35301 58.3337 9.95175L87.2515 62.7514C89.9604 67.7278 86.3672 73.8645 80.6721 73.8645H22.7816C17.0865 73.8645 13.4921 67.7828 16.2022 62.7514L45.1761 9.95175C46.6113 7.35301 49.1542 6.08169 51.7543 6.08169ZM51.7543 0C46.7786 0 42.2438 2.7087 39.8658 7.02086L10.8931 59.8205C8.57133 64.0777 8.62631 69.1091 11.1142 73.2552C13.6021 77.4024 17.9708 79.8901 22.7805 79.8901H80.6709C85.5367 79.8901 89.9043 77.4024 92.3372 73.2552C94.8251 69.1091 94.8812 64.0777 92.5583 59.8205L63.6417 7.02086C61.2638 2.65372 56.6751 0 51.7543 0Z" fill="#4C2F1B"/>
<path d="M41.1923 44.3952C40.9712 44.3952 40.8051 44.3952 40.584 44.3402C38.4283 44.0642 37.1557 42.1835 37.0458 41.9625C36.6586 41.4093 36.8247 40.6351 37.378 40.3041C37.9301 39.9169 38.7044 40.083 39.0366 40.6362C39.2576 40.9683 40.0319 41.7976 40.9174 41.9636C41.5256 42.0186 42.1888 41.7976 42.8531 41.1894C43.3503 40.7473 44.1246 40.8023 44.5667 41.3005C45.0089 41.7976 44.9539 42.5718 44.4568 43.0139C43.4602 43.9531 42.3537 44.3952 41.1923 44.3952Z" fill="#F9E39E"/>
<path d="M58.2226 9.17752L89.02 62.6403C91.895 67.6156 88.3018 73.8633 82.5506 73.8633H20.9008C15.1507 73.8633 11.5563 67.6156 14.4314 62.6403L45.2837 9.23249C48.1599 4.20221 55.3475 4.20221 58.2226 9.17752Z" fill="#FAF7BD"/>
<path d="M29.2499 35.7709L11.2241 62.6952C8.34909 67.6705 11.9435 73.9183 17.6936 73.9183L56.7301 73.8633C43.2941 66.1782 32.5121 41.9075 29.2499 35.7709Z" fill="#3AB26C"/>
<path d="M41.3583 51.0301C41.1373 51.0301 40.9712 51.0301 40.7501 50.9751C38.5944 50.6979 37.3218 48.8184 37.2119 48.5974C36.8247 48.0442 36.9908 47.2699 37.544 46.9389C38.0973 46.5518 38.8716 46.7179 39.2026 47.2711C39.4237 47.6032 40.198 48.4324 41.0823 48.5985C41.6905 48.7096 42.3537 48.4325 43.0181 47.8243C43.5164 47.3822 44.2895 47.4372 44.7328 47.9354C45.175 48.4325 45.12 49.2067 44.6217 49.6488C43.6263 50.5318 42.5198 51.0301 41.3583 51.0301ZM40.4741 44.3952C40.253 44.3952 40.0869 44.3952 39.8658 44.3402C37.7101 44.0642 36.4375 42.1835 36.3276 41.9625C35.9404 41.4093 36.1065 40.6351 36.6598 40.3041C37.2119 39.9169 37.9862 40.083 38.3184 40.6362C38.5394 40.9684 39.3137 41.7976 40.198 41.9636C40.8062 42.0186 41.4695 41.7976 42.1338 41.1894C42.6321 40.7473 43.4052 40.8023 43.8485 41.3005C44.2907 41.7976 44.2357 42.5718 43.7374 43.0139C42.6859 43.9531 41.5794 44.3952 40.4741 44.3952Z" fill="#F9E39E"/>
<path d="M50.3706 68.943C30.9635 67.6167 20.1254 46.4407 19.6832 45.5016L22.9454 43.8431C23.0565 44.0642 33.2853 64.0788 50.6467 65.239L50.3706 68.943Z" fill="#2D9556"/>
<path d="M18.0807 75.7989L14.9296 73.9195C15.2618 73.4212 22.8366 61.0379 43.6263 55.5083L44.5655 59.0462C25.1584 64.2437 18.1357 75.6878 18.0807 75.7989Z" fill="#2D9556"/>
<path d="M28.6417 36.5451C28.8078 36.5451 29.0288 36.6562 29.1399 36.8212C33.1215 43.842 43.1292 66.5103 56.7312 73.8633H18.8001C12.7178 73.8633 8.90233 67.6156 11.9435 62.6403L28.1995 36.8212C28.3095 36.6551 28.4756 36.5451 28.6417 36.5451ZM28.6417 30.4634C26.3199 30.4634 24.218 31.6248 23.0027 33.6142L6.80045 59.4334V59.4883C4.25758 63.6344 4.14647 68.6659 6.5244 72.8681C8.95731 77.2363 13.657 79.945 18.8001 79.945L56.7301 79.8901H80.8381L59.6051 68.5009C49.7635 63.2485 41.3583 47.0489 36.8247 38.3696C35.8854 36.6013 35.1111 35.0528 34.3918 33.8364C33.2303 31.7348 31.0184 30.4634 28.6417 30.4634Z" fill="#4C2F1B"/>
<path d="M75.363 38.9217C66.9039 55.0651 47.9378 71.3745 44.5095 73.8633H82.5506C88.3018 73.8633 91.9501 67.6156 89.02 62.6403L75.363 38.9217Z" fill="#3AB26C"/>
<path d="M51.2011 78.7837L50.3157 75.2457C74.3676 69.1091 83.7121 48.9845 83.8232 48.7623L87.1415 50.2558C86.7544 51.14 76.9666 72.2049 51.2011 78.7837Z" fill="#2D9556"/>
<path d="M75.253 77.5673L71.7147 76.7381C75.4191 60.7058 68.6186 44.5063 68.5625 44.3402L71.9358 42.9028C72.1557 43.6221 79.2334 60.3725 75.253 77.5673Z" fill="#2D9556"/>
<path d="M64.5259 43.787C64.3049 43.787 64.1388 43.787 63.9177 43.732C61.762 43.456 60.4894 41.5765 60.3794 41.3543C59.9923 40.8023 60.1584 40.0281 60.7116 39.6959C61.2637 39.3088 62.038 39.4749 62.3702 40.0281C62.5913 40.3602 63.3656 41.1894 64.251 41.3543C64.8593 41.4093 65.5225 41.1883 66.1868 40.5801C66.6839 40.138 67.4583 40.193 67.9004 40.6912C68.3425 41.1894 68.2875 41.9625 67.7893 42.4058C66.7928 43.3449 65.6874 43.787 64.5259 43.787ZM52.7485 59.2673C52.5275 59.2673 52.3614 59.2673 52.1403 59.2123C49.9835 58.9363 48.712 57.0568 48.6021 56.8357C48.2149 56.2825 48.381 55.5083 48.9342 55.1773C49.4875 54.7902 50.2618 54.9563 50.5928 55.5094C50.8139 55.8416 51.5882 56.6708 52.4725 56.8369C53.0807 56.8919 53.7439 56.6708 54.4083 56.0626C54.9065 55.6205 55.6797 55.6755 56.1219 56.1726C56.564 56.6708 56.509 57.4439 56.0119 57.8871C54.9604 58.8252 53.855 59.2673 52.7485 59.2673ZM64.692 50.7529C64.4709 50.7529 64.3049 50.7529 64.0838 50.6979C61.9281 50.4219 60.6555 48.5424 60.5455 48.3214C60.1584 47.7682 60.3245 46.9939 60.8777 46.6629C61.431 46.2758 62.2053 46.4419 62.5363 46.9951C62.7574 47.3272 63.5317 48.1564 64.416 48.3225C65.0242 48.3775 65.6874 48.1564 66.3518 47.5483C66.85 47.1062 67.6232 47.1612 68.0665 47.6582C68.5086 48.1564 68.4536 48.9295 67.9554 49.3728C66.9588 50.2558 65.8523 50.7529 64.692 50.7529Z" fill="#F9E39E"/>
<path d="M75.3629 40.5801C75.805 40.5801 76.2483 40.8011 76.5244 41.1882L89.4071 62.5841C92.3933 67.5594 88.6328 73.8072 82.6055 73.8072H44.5655C47.9938 71.4856 67.291 56.6124 74.1465 41.3532C74.3125 40.8572 74.8108 40.5801 75.3629 40.5801ZM75.3629 34.5545C72.4317 34.5545 69.7778 36.2691 68.5613 38.9228C62.5901 52.0815 45.1176 66.1243 41.0811 68.888L24.9362 80H82.5505C87.6374 80 92.3372 77.2913 94.7701 72.9791C97.148 68.7219 97.0919 63.7466 94.549 59.5444L81.6662 38.1485C80.3398 35.8819 77.9619 34.5545 75.3629 34.5545Z" fill="#4C2F1B"/>
<path d="M48.5471 21.838C48.326 21.838 48.0488 21.838 47.8289 21.783C45.6721 21.3959 44.5106 19.5164 44.3456 19.2953C44.0135 18.7433 44.1796 17.969 44.7878 17.6369C45.3399 17.3048 46.1142 17.4708 46.4464 18.024C46.6674 18.3562 47.3868 19.2404 48.2711 19.4064C48.8793 19.5175 49.5425 19.2953 50.2068 18.6883C50.704 18.2462 51.4783 18.3562 51.9204 18.8544C52.3626 19.3526 52.2526 20.1257 51.7555 20.5689C50.7028 21.3959 49.6525 21.838 48.5471 21.838ZM52.6386 13.1587C52.4175 13.1587 52.1415 13.1587 51.9193 13.1037C49.7636 12.7166 48.6021 10.8371 48.436 10.616C48.1038 10.0628 48.2699 9.28861 48.8232 8.95761C49.3764 8.62546 50.1507 8.79153 50.4817 9.34473C50.7028 9.67687 51.4222 10.5611 52.3064 10.7271C52.9147 10.8382 53.5779 10.6172 54.2422 10.0079C54.7405 9.56577 55.5137 9.67573 55.9569 10.1739C56.3991 10.6722 56.2891 11.4453 55.7909 11.8874C54.7943 12.7154 53.744 13.1587 52.6386 13.1587ZM58.4437 21.6169C58.2226 21.6169 57.9466 21.6169 57.7255 21.5619C55.5698 21.1748 54.4083 19.2953 54.2422 19.0743C53.91 18.5211 54.0773 17.7469 54.6844 17.4159C55.2376 17.0837 56.0119 17.2509 56.343 17.803C56.564 18.1351 57.2822 19.0193 58.1676 19.1854C58.7759 19.2953 59.4391 19.0743 60.1034 18.4661C60.6017 18.024 61.3749 18.134 61.8181 18.6322C62.2603 19.1304 62.1503 19.9035 61.6521 20.3467C60.6005 21.1748 59.5502 21.6169 58.4437 21.6169ZM57.6694 29.7991C55.7336 29.7991 54.2411 28.4728 54.0761 28.3068C53.5779 27.8647 53.5779 27.0904 54.0212 26.5934C54.4633 26.0951 55.2376 26.0951 55.7347 26.5384C56.0119 26.8144 56.9512 27.4226 57.8355 27.3676C58.4437 27.3126 58.9969 26.8694 59.4941 26.1513C59.8812 25.5981 60.6555 25.487 61.2076 25.8741C61.7609 26.2612 61.872 27.0355 61.4848 27.5887C60.5444 28.9161 59.3829 29.6903 58.0565 29.8003H57.6694V29.7991ZM44.8977 29.3021C44.1796 29.3021 43.5713 29.136 42.962 28.8038C41.0262 27.8086 40.4741 25.5969 40.4191 25.3759C40.253 24.7116 40.6402 24.0484 41.3045 23.8824C41.9677 23.7174 42.6309 24.1034 42.742 24.7677C42.8531 25.1548 43.2403 26.2051 44.0696 26.5922C44.6217 26.8682 45.286 26.8133 46.1153 26.4811C46.7236 26.2601 47.4429 26.5361 47.719 27.1443C47.94 27.7524 47.664 28.4717 47.0557 28.7477C46.2803 29.1921 45.5609 29.3021 44.8977 29.3021ZM62.9223 36.71C61.0977 36.71 59.7151 35.6048 59.5502 35.4387C59.0519 34.9966 58.942 34.2224 59.3841 33.7242C59.8262 33.226 60.5456 33.116 61.0988 33.5592C61.3749 33.7803 62.3702 34.3885 63.2545 34.2224C63.8628 34.1113 64.3599 33.6692 64.8581 32.895C65.1903 32.3429 65.9635 32.1207 66.5167 32.5078C67.0688 32.84 67.291 33.6131 66.9039 34.1663C66.0746 35.5487 64.9681 36.3779 63.6417 36.5989C63.4206 36.6551 63.1995 36.71 62.9223 36.71ZM52.8047 37.8714C52.5836 37.8714 52.4175 37.8714 52.1965 37.8164C50.0396 37.5393 48.7682 35.6598 48.6582 35.4387C48.2711 34.8855 48.4371 34.1113 48.9904 33.7803C49.5425 33.3932 50.3168 33.5592 50.649 34.1124C50.8701 34.4446 51.6444 35.2738 52.5286 35.4399C53.1369 35.4949 53.8001 35.2738 54.4644 34.6656C54.9616 34.2235 55.7359 34.2785 56.178 34.7756C56.6201 35.2738 56.5652 36.0469 56.0681 36.4901C55.0154 37.4293 53.91 37.8714 52.8047 37.8714ZM52.3614 44.1192C52.1403 44.1192 51.9743 44.1192 51.7532 44.0642C49.5963 43.787 48.3249 41.9075 48.2149 41.6865C47.8278 41.1333 47.9939 40.3591 48.5471 40.0281C49.1004 39.6409 49.8747 39.807 50.2057 40.3602C50.4268 40.6923 51.2011 41.5216 52.0854 41.6876C52.6936 41.7426 53.3568 41.5216 54.0212 40.9134C54.5194 40.4713 55.2926 40.5263 55.7347 41.0233C56.1769 41.5216 56.1219 42.2947 55.6248 42.7379C54.5733 43.6771 53.4679 44.1192 52.3614 44.1192ZM52.5275 51.6932C52.3064 51.6932 52.1403 51.6932 51.9193 51.6382C49.7636 51.3622 48.491 49.4827 48.381 49.2605C47.9939 48.7085 48.1599 47.9343 48.7132 47.6021C49.2653 47.215 50.0396 47.3811 50.3718 47.9343C50.5929 48.2664 51.3672 49.0956 52.2515 49.2605C52.8597 49.3155 53.5229 49.0945 54.1872 48.4863C54.6855 48.0442 55.4587 48.0992 55.902 48.5974C56.3441 49.0956 56.2891 49.8687 55.7909 50.3108C54.7393 51.2511 53.689 51.6932 52.5275 51.6932ZM41.8005 37.3182C41.5794 37.3182 41.4133 37.3182 41.1923 37.2632C39.0354 36.9872 37.764 35.1077 37.654 34.8855C37.2668 34.3335 37.4329 33.5592 37.9862 33.2271C38.5394 32.84 39.3137 33.0061 39.6448 33.5592C39.8658 33.8914 40.6401 34.7206 41.5244 34.8855C42.1327 34.9405 42.7959 34.7195 43.4602 34.1113C43.9585 33.6692 44.7317 33.7242 45.1749 34.2224C45.6171 34.7206 45.5621 35.4937 45.0638 35.9358C44.0684 36.8211 42.962 37.3182 41.8005 37.3182Z" fill="#F9E39E"/>
</g>
<defs>
<clipPath id="clip0_2_160">
<rect width="105" height="80" fill="white"/>
</clipPath>
</defs>
</svg>
